<svg width="21" height="20" viewBox="0 0 21 20" fill="none" xmlns="http://www.w3.org/2000/svg">
<g clip-path="url(#clip0)">
<path d="M10.5 0C4.98566 0 0.5 4.48609 0.5 10C0.5 15.5139 4.98566 20 10.5 20C16.0143 20 20.5 15.5139 20.5 10C20.5 4.48609 16.0143 0 10.5 0ZM10.5 16.6667C10.0402 16.6667 9.66668 16.2927 9.66668 15.8334C9.66668 15.374 10.0402 15 10.5 15C10.9598 15 11.3333 15.374 11.3333 15.8334C11.3333 16.2927 10.9598 16.6667 10.5 16.6667ZM11.3333 13.75C11.3333 13.9803 11.147 14.1667 10.9166 14.1667H10.0833C9.85301 14.1667 9.66664 13.9803 9.66664 13.75V3.75C9.66664 3.51969 9.85301 3.33332 10.0833 3.33332H10.9166C11.147 3.33332 11.3333 3.51969 11.3333 3.75V13.75Z" fill="black"/>
</g>
<defs>
<clipPath id="clip0">
<rect width="20" height="20" fill="white" transform="translate(0.5)"/>
</clipPath>
</defs>
</svg>
