<svg width="18" height="18" viewBox="0 0 18 18" fill="none" xmlns="http://www.w3.org/2000/svg">
<g clip-path="url(#clip0)">
<path d="M10.6491 9.01526L17.6579 2.00621C18.114 1.5503 18.114 0.813155 17.6579 0.357245C17.202 -0.0986653 16.4649 -0.0986653 16.009 0.357245L8.9999 7.3663L1.99106 0.357245C1.53493 -0.0986653 0.798003 -0.0986653 0.342093 0.357245C-0.114031 0.813155 -0.114031 1.5503 0.342093 2.00621L7.35094 9.01526L0.342093 16.0243C-0.114031 16.4802 -0.114031 17.2174 0.342093 17.6733C0.5693 17.9007 0.868044 18.0149 1.16657 18.0149C1.4651 18.0149 1.76364 17.9007 1.99106 17.6733L8.9999 10.6642L16.009 17.6733C16.2364 17.9007 16.5349 18.0149 16.8334 18.0149C17.132 18.0149 17.4305 17.9007 17.6579 17.6733C18.114 17.2174 18.114 16.4802 17.6579 16.0243L10.6491 9.01526Z" fill="black"/>
</g>
<defs>
<clipPath id="clip0">
<rect width="18" height="18" fill="white"/>
</clipPath>
</defs>
</svg>
