<svg width="21" height="21" viewBox="0 0 21 21" fill="none" xmlns="http://www.w3.org/2000/svg">
<g clip-path="url(#clip0)">
<path d="M15.9956 17.6592L12.4556 15.2992C12.2972 15.1946 12.0851 15.229 11.9679 15.3783L10.9372 16.7035C10.6031 17.1388 10.0002 17.2631 9.52124 16.9953L9.33068 16.8906C8.64314 16.5155 7.78719 16.0489 6.08805 14.3498C4.38892 12.6507 3.92193 11.7947 3.54721 11.1068L3.44218 10.9162C3.17441 10.4374 3.29868 9.83457 3.73399 9.50067L5.05882 8.46954C5.20823 8.35246 5.24269 8.14028 5.13795 7.98192L2.77827 4.4415C2.67095 4.28084 2.45651 4.23251 2.29065 4.33159L0.809438 5.21978C0.491657 5.40526 0.257938 5.70646 0.15718 6.06035C-0.329295 7.83189 0.0799296 10.9338 4.79137 15.6457C9.50282 20.3575 12.6041 20.7675 14.3771 20.2806C14.7311 20.1797 15.0322 19.9459 15.2177 19.628L16.1055 18.1467C16.2048 17.981 16.1564 17.7664 15.9956 17.6592Z" fill="#64358C"/>
<path d="M20.9402 0.62178C20.9014 0.58297 20.8486 0.561432 20.7937 0.562047H5.07755C5.02266 0.561432 4.96982 0.58297 4.93101 0.62178C4.8922 0.66059 4.87066 0.71343 4.87128 0.768322V6.22884L5.76246 7.56564C6.0839 8.0513 5.97826 8.70237 5.5198 9.0615L4.19613 10.0926C4.05443 10.2001 4.01324 10.3954 4.09935 10.551L4.20737 10.7479C4.55177 11.4029 4.97187 12.0153 5.45904 12.5723H20.7937C20.9062 12.5732 20.9983 12.4831 21 12.3705V0.768322C21.0006 0.71343 20.9791 0.66059 20.9402 0.62178ZM10.2834 7.44335V7.44146L6.44102 11.558C6.29973 11.7096 6.06236 11.7179 5.91085 11.5766C5.75931 11.4353 5.75102 11.198 5.89227 11.0465L9.73464 6.93177C9.87593 6.78022 10.1133 6.77193 10.2648 6.91318C10.4163 7.05447 10.4247 7.29184 10.2834 7.44335ZM12.9356 7.1478C12.6653 7.14903 12.4019 7.06214 12.1854 6.90026L5.91627 2.14639C5.75118 2.02065 5.71927 1.78488 5.84501 1.61976C5.97075 1.45467 6.20652 1.42275 6.37165 1.5485L12.6382 6.30236C12.8156 6.43122 13.0557 6.43122 13.2331 6.30236L19.5015 1.5485C19.6666 1.42329 19.902 1.45561 20.0272 1.6207C20.1525 1.78578 20.1201 2.02115 19.955 2.14639L13.6858 6.90026C13.4693 7.06214 13.206 7.14903 12.9356 7.1478ZM19.9843 11.5765C19.9115 11.6444 19.8147 11.6806 19.7153 11.6772C19.6158 11.6737 19.5217 11.6309 19.4539 11.5581L15.6119 7.4415C15.4813 7.28852 15.4947 7.0598 15.6421 6.92307C15.7896 6.78629 16.0186 6.79015 16.1614 6.93177L20.0026 11.0465C20.1438 11.1979 20.1356 11.4351 19.9843 11.5765Z" fill="#64358C"/>
</g>
<defs>
<clipPath id="clip0">
<rect width="21" height="21" fill="white"/>
</clipPath>
</defs>
</svg>
