<svg width="19" height="19" viewBox="0 0 19 19" fill="none" xmlns="http://www.w3.org/2000/svg">
<g clip-path="url(#clip0)">
<path d="M18.2578 10.8174C18.6677 10.8174 19 10.4851 19 10.0752V5.21387C19 3.5769 17.6682 2.24512 16.0312 2.24512H2.96875C1.33178 2.24512 0 3.5769 0 5.21387V13.7861C0 15.4231 1.33178 16.7549 2.96875 16.7549H16.0312C17.6682 16.7549 19 15.4231 19 13.7861C19 13.3762 18.6677 13.0439 18.2578 13.0439C17.8479 13.0439 17.5156 13.3762 17.5156 13.7861C17.5156 14.6046 16.8497 15.2705 16.0312 15.2705H2.96875C2.15027 15.2705 1.48438 14.6046 1.48438 13.7861V5.37114L7.93231 9.38062C8.41581 9.68124 8.95791 9.83157 9.5 9.83157C10.0421 9.83157 10.5842 9.68124 11.0677 9.38062L17.5156 5.37114V10.0752C17.5156 10.4851 17.8479 10.8174 18.2578 10.8174ZM10.2838 8.12005C9.80036 8.42067 9.19964 8.42071 8.71618 8.12005L2.10369 4.00826C2.34743 3.83288 2.64623 3.72949 2.96875 3.72949H16.0312C16.3538 3.72949 16.6526 3.83292 16.8963 4.00829L10.2838 8.12005Z" fill="#623F99"/>
</g>
<defs>
<clipPath id="clip0">
<rect width="19" height="19" fill="white"/>
</clipPath>
</defs>
</svg>
