<svg width="21" height="21" viewBox="0 0 21 21" fill="none" xmlns="http://www.w3.org/2000/svg">
<g clip-path="url(#clip0)">
<path d="M19.9294 9.76887C19.7718 9.54051 15.9862 4.17218 10.002 4.17218C4.86701 4.17218 0.291305 9.50969 0.0987751 9.73722C-0.032925 9.89225 -0.032925 10.1198 0.0987751 10.2756C0.291305 10.5032 4.86701 15.8407 10.002 15.8407C15.137 15.8407 19.7127 10.5032 19.9052 10.2756C20.026 10.1314 20.0369 9.92389 19.9294 9.76887ZM10.002 13.3402C8.16338 13.3402 6.66815 11.845 6.66815 10.0064C6.66815 8.1678 8.16338 6.67257 10.002 6.67257C11.8406 6.67257 13.3358 8.1678 13.3358 10.0064C13.3358 11.845 11.8406 13.3402 10.002 13.3402Z" fill="black"/>
</g>
<defs>
<clipPath id="clip0">
<rect width="20.0034" height="20.0034" fill="white" transform="translate(0 0.00463867)"/>
</clipPath>
</defs>
</svg>
