<svg width="23" height="23" viewBox="0 0 23 23" fill="none" xmlns="http://www.w3.org/2000/svg">
<path d="M6.10938 17.6094C7.22581 17.6094 8.13086 16.7043 8.13086 15.5879C8.13086 14.4715 7.22581 13.5664 6.10938 13.5664C4.99294 13.5664 4.08789 14.4715 4.08789 15.5879C4.08789 16.7043 4.99294 17.6094 6.10938 17.6094Z" fill="#64358C"/>
<path d="M11.5 18.957C12.6164 18.957 13.5215 18.052 13.5215 16.9355C13.5215 15.8191 12.6164 14.9141 11.5 14.9141C10.3836 14.9141 9.47852 15.8191 9.47852 16.9355C9.47852 18.052 10.3836 18.957 11.5 18.957Z" fill="#64358C"/>
<path d="M16.8906 17.6094C18.0071 17.6094 18.9121 16.7043 18.9121 15.5879C18.9121 14.4715 18.0071 13.5664 16.8906 13.5664C15.7742 13.5664 14.8691 14.4715 14.8691 15.5879C14.8691 16.7043 15.7742 17.6094 16.8906 17.6094Z" fill="#64358C"/>
<path d="M11.5 18.957C9.64235 18.957 8.13086 20.4685 8.13086 22.3262C8.13086 22.6986 8.43224 23 8.80469 23H14.1953C14.5678 23 14.8691 22.6986 14.8691 22.3262C14.8691 20.4685 13.3577 18.957 11.5 18.957Z" fill="#64358C"/>
<path d="M19.5859 0H3.41406C3.04162 0 2.74023 0.301381 2.74023 0.673828V8.84961C2.74023 9.22206 3.04162 9.52344 3.41406 9.52344H5.43555V11.5449C5.43555 11.8173 5.59938 12.0635 5.85143 12.1674C6.10412 12.272 6.39234 12.2148 6.58582 12.0213L9.0837 9.52344H13.9163L16.4142 12.0213C16.6087 12.2158 16.9002 12.271 17.1486 12.1674C17.4006 12.0635 17.5645 11.8173 17.5645 11.5449V9.52344H19.5859C19.9584 9.52344 20.2598 9.22206 20.2598 8.84961V0.673828C20.2598 0.301381 19.9584 0 19.5859 0ZM7.45703 5.43546C7.08481 5.43546 6.7832 5.13376 6.7832 4.76163C6.7832 4.3895 7.08481 4.0878 7.45703 4.0878C7.82916 4.0878 8.13086 4.3895 8.13086 4.76163C8.13086 5.13376 7.82916 5.43546 7.45703 5.43546ZM11.5 5.43546C11.1278 5.43546 10.8262 5.13376 10.8262 4.76163C10.8262 4.3895 11.1278 4.0878 11.5 4.0878C11.8721 4.0878 12.1738 4.3895 12.1738 4.76163C12.1738 5.13376 11.8721 5.43546 11.5 5.43546ZM15.543 5.43546C15.1707 5.43546 14.8691 5.13376 14.8691 4.76163C14.8691 4.3895 15.1707 4.0878 15.543 4.0878C15.9151 4.0878 16.2168 4.3895 16.2168 4.76163C16.2168 5.13376 15.9151 5.43546 15.543 5.43546Z" fill="#64358C"/>
<path d="M16.8906 17.6094C15.9264 17.6094 15.0614 18.0218 14.4468 18.6733C15.3504 19.4038 15.9744 20.4502 16.1487 21.6523H19.5859C19.9584 21.6523 20.2598 21.351 20.2598 20.9785C20.2598 19.1209 18.7483 17.6094 16.8906 17.6094Z" fill="#64358C"/>
<path d="M6.10938 17.6094C4.25172 17.6094 2.74023 19.1209 2.74023 20.9785C2.74023 21.351 3.04162 21.6523 3.41406 21.6523H6.85131C7.0256 20.4502 7.64957 19.4038 8.55321 18.6733C7.93855 18.0218 7.07358 17.6094 6.10938 17.6094Z" fill="#64358C"/>
</svg>
