<svg width="24" height="24" viewBox="0 0 24 24" fill="none" xmlns="http://www.w3.org/2000/svg">
<g clip-path="url(#clip0)">
<path d="M7.19244 8.26937C7.19244 11.1076 9.49326 13.4084 12.3315 13.4084C15.1697 13.4084 17.4705 11.1076 17.4705 8.26937C17.4705 5.43116 15.1697 3.13034 12.3315 3.13034C9.49465 3.13352 7.19562 5.43255 7.19244 8.26937ZM12.3315 8.59411C11.4787 8.59888 10.7561 7.96728 10.6469 7.12145C10.5378 6.2758 11.0764 5.48124 11.9026 5.26958V4.83514C11.9026 4.63838 12.062 4.47899 12.2587 4.47899C12.4555 4.47899 12.6149 4.63838 12.6149 4.83514V5.24792C13.423 5.38465 14.0128 6.0872 14.0076 6.907C14.0076 7.10137 13.85 7.25897 13.6557 7.25897C13.4613 7.25897 13.3037 7.10137 13.3037 6.907C13.3031 6.36901 12.8667 5.93338 12.3287 5.93397C11.7907 5.93457 11.3551 6.3712 11.3559 6.90919C11.3565 7.44698 11.7931 7.88262 12.3311 7.88183C13.2033 7.88679 13.9278 8.55615 14.0015 9.42544C14.0752 10.2945 13.4738 11.0764 12.6149 11.2282V11.6527C12.6149 11.8495 12.4555 12.0089 12.2587 12.0089C12.062 12.0089 11.9026 11.8495 11.9026 11.6527V11.2064C11.1583 11.0098 10.6382 10.3389 10.6332 9.56913C10.6332 9.37019 10.7946 9.20882 10.9936 9.20882C11.1925 9.20882 11.3539 9.37019 11.3539 9.56913C11.3551 10.0666 11.7299 10.4837 12.2244 10.538C12.2426 10.535 12.2613 10.5336 12.28 10.5334C12.3068 10.5334 12.3335 10.5366 12.3597 10.5426C12.8939 10.5294 13.3178 10.0886 13.3101 9.55443C13.3023 9.02001 12.8657 8.59173 12.3315 8.59411Z" fill="#64358C"/>
<path d="M20.579 15.8587C20.5764 15.8601 20.5736 15.8615 20.5707 15.8628L17.2646 17.4247C17.3002 17.6078 17.3157 17.794 17.3107 17.9804C17.3056 18.1732 17.1478 18.3268 16.955 18.3268C16.9516 18.3268 16.9482 18.3268 16.9448 18.3268L12.1063 18.1937C11.9096 18.1883 11.7545 18.0245 11.7599 17.8278C11.7653 17.631 11.9292 17.476 12.1258 17.4814L16.5734 17.6038C16.4259 16.7419 15.691 16.1035 14.8169 16.0781L11.8736 15.9972C11.2923 15.9805 10.7223 15.8332 10.2058 15.5663L9.90626 15.4113C8.43538 14.645 6.66301 14.7447 5.28753 15.6715L5.16968 19.9533L5.67547 19.6824C6.17809 19.4122 6.76616 19.3478 7.31548 19.503L12.3106 20.9051C13.2733 21.1022 14.2738 20.9905 15.1693 20.5855L22.0896 16.1091C21.6947 15.7048 21.0832 15.6033 20.579 15.8587Z" fill="#64358C"/>
<path d="M1.91907 20.697L2.09456 14.3264L4.61021 14.3957L4.43472 20.7664L1.91907 20.697Z" fill="#64358C"/>
</g>
<defs>
<clipPath id="clip0">
<rect width="24" height="24" fill="white"/>
</clipPath>
</defs>
</svg>
