<svg width="14" height="20" viewBox="0 0 14 20" fill="none" xmlns="http://www.w3.org/2000/svg">
<path d="M0.614582 19.6782L0.61457 19.6782C0.507689 19.634 0.438031 19.5297 0.438031 19.4141V0.585938C0.438031 0.428029 0.56606 0.3 0.723969 0.3H13.276C13.434 0.3 13.562 0.428016 13.562 0.585938V19.4141C13.562 19.5297 13.4923 19.6339 13.3855 19.6782C13.2785 19.7225 13.1556 19.698 13.0739 19.6163L13.0738 19.6162L7.21224 13.7544L7.00011 13.5423L6.78797 13.7544L0.926134 19.6162L0.92606 19.6163C0.871512 19.6709 0.798506 19.7 0.723851 19.7C0.687059 19.7 0.650008 19.6929 0.614582 19.6782Z" fill="white" stroke="#29273F" stroke-width="0.6"/>
</svg>
