<svg width="21" height="20" viewBox="0 0 21 20" fill="none" xmlns="http://www.w3.org/2000/svg">
<g clip-path="url(#clip0)">
<path d="M10.5 4.01703L10.2569 3.68089C9.89732 3.18365 9.49127 2.76024 9.04588 2.41582L9.04587 2.4158C8.16669 1.73585 7.17369 1.39375 6.08701 1.39375C4.62525 1.39375 3.28483 1.97792 2.30704 3.03841L10.5 4.01703ZM10.5 4.01703L10.7431 3.68091M10.5 4.01703L10.7431 3.68091M10.7431 3.68091C11.1028 3.18351 11.5087 2.76024 11.954 2.41582L10.7431 3.68091ZM7.64374 16.4094L7.64376 16.4094L7.64565 16.411C8.33306 16.9969 9.11363 17.6622 9.9243 18.371L9.9245 18.3711C10.0837 18.5105 10.2879 18.5873 10.5 18.5873C10.712 18.5873 10.9164 18.5105 11.0752 18.3714L11.0754 18.3713C11.8801 17.6676 12.6556 17.0066 13.3395 16.4236L13.3567 16.409L13.3567 16.4089C15.3781 14.6864 17.0951 13.222 18.2855 11.7855L18.2855 11.7855C19.6058 10.1925 20.2 8.70961 20.2 7.10419C20.2 5.52907 19.6601 4.08769 18.6928 3.03844C17.715 1.97792 16.3748 1.39375 14.913 1.39375C13.8263 1.39375 12.8333 1.73584 11.954 2.41579L7.64374 16.4094ZM7.64374 16.4094C5.62205 14.6865 3.90505 13.222 2.71463 11.7857C1.3943 10.1924 0.8 8.70959 0.8 7.10434C0.8 5.52907 1.33986 4.08769 2.30702 3.03844L7.64374 16.4094Z" fill="white" stroke="#29273F" stroke-width="0.6"/>
</g>
<defs>
<clipPath id="clip0">
<rect width="20" height="20" fill="white" transform="translate(0.5)"/>
</clipPath>
</defs>
</svg>
