<svg width="20" height="20" viewBox="0 0 20 20" fill="none" xmlns="http://www.w3.org/2000/svg">
<path d="M9.67587 3.73949L9.99998 4.18768L10.3241 3.73951C10.6787 3.24925 11.078 2.83305 11.5151 2.49493C12.3773 1.82822 13.3489 1.49375 14.413 1.49375C15.8472 1.49375 17.1607 2.06649 18.1193 3.10621C19.068 4.13529 19.6 5.55176 19.6 7.10419C19.6 8.68089 19.0178 10.1419 17.7085 11.7217L17.7085 11.7217C16.5249 13.15 14.8155 14.6083 12.7919 16.3328L12.7918 16.3328L12.7744 16.3477C12.0905 16.9306 11.3147 17.5919 10.5095 18.296L10.5093 18.2962C10.3688 18.4192 10.1878 18.4873 10 18.4873C9.8121 18.4873 9.63129 18.4193 9.49039 18.2959L9.49012 18.2957C8.679 17.5865 7.89806 16.9209 7.21075 16.3351L7.20862 16.3333L7.2086 16.3333C5.18465 14.6085 3.47529 13.15 2.29162 11.7218C0.982282 10.1419 0.4 8.68086 0.4 7.10434C0.4 5.55177 0.931981 4.13531 1.88054 3.10622C2.83916 2.06651 4.15281 1.49375 5.58701 1.49375C6.65109 1.49375 7.62267 1.82822 8.48469 2.49491L8.48471 2.49492C8.92195 2.83304 9.32145 3.24939 9.67587 3.73949Z" fill="#3B3B3B" stroke="white" stroke-width="0.8"/>
</svg>
