<svg width="21" height="18" viewBox="0 0 21 18" fill="none" xmlns="http://www.w3.org/2000/svg">
<path d="M10.5 3.01703L10.2569 2.68089C9.89732 2.18365 9.49127 1.76024 9.04588 1.41582L9.04587 1.4158C8.16669 0.735849 7.17369 0.39375 6.08701 0.39375C4.62525 0.39375 3.28483 0.977916 2.30704 2.03841L10.5 3.01703ZM10.5 3.01703L10.7431 2.68091M10.5 3.01703L10.7431 2.68091M10.7431 2.68091C11.1028 2.18351 11.5087 1.76024 11.954 1.41582L10.7431 2.68091ZM7.64374 15.4094L7.64376 15.4094L7.64565 15.411C8.33306 15.9969 9.11363 16.6622 9.9243 17.371L9.9245 17.3711C10.0837 17.5105 10.2879 17.5873 10.5 17.5873C10.712 17.5873 10.9164 17.5105 11.0752 17.3714L11.0754 17.3713C11.8801 16.6676 12.6556 16.0066 13.3395 15.4236L13.3567 15.409L13.3567 15.4089C15.3781 13.6864 17.0951 12.222 18.2855 10.7855L18.2855 10.7855C19.6058 9.19246 20.2 7.70961 20.2 6.10419C20.2 4.52907 19.6601 3.08769 18.6928 2.03844C17.715 0.97792 16.3748 0.39375 14.913 0.39375C13.8263 0.39375 12.8333 0.735836 11.954 1.41579L7.64374 15.4094ZM7.64374 15.4094C5.62205 13.6865 3.90505 12.222 2.71463 10.7857C1.3943 9.19244 0.8 7.70959 0.8 6.10434C0.8 4.52907 1.33986 3.08769 2.30702 2.03844L7.64374 15.4094Z" fill="white" stroke="#29273F" stroke-width="0.6"/>
</svg>
