<svg width="21" height="21" viewBox="0 0 21 21" fill="none" xmlns="http://www.w3.org/2000/svg">
<g clip-path="url(#clip0)">
<path d="M10.9787 4.16757C5.8437 4.16757 1.26799 9.50507 1.07546 9.73261C0.94376 9.88763 0.94376 10.1152 1.07546 10.271C1.19048 10.4069 2.87242 12.3597 5.29779 13.9149L7.90988 11.3028C7.73985 10.9028 7.64484 10.4635 7.64484 10.0018C7.64484 8.16319 9.14007 6.66795 10.9787 6.66795C11.4404 6.66795 11.8796 6.76297 12.2797 6.933L14.4275 4.78516C13.3807 4.41092 12.2314 4.16757 10.9787 4.16757Z" fill="black"/>
<path d="M20.906 9.76421C20.7994 9.61001 19.0299 7.11962 16.0553 5.51437L18.3582 3.21151C18.5207 3.04899 18.5207 2.78477 18.3582 2.62224C18.1956 2.45972 17.9314 2.45972 17.7689 2.62224L3.60004 16.7912C3.43752 16.9537 3.43752 17.2179 3.60004 17.3804C3.68088 17.4621 3.78757 17.5029 3.89427 17.5029C4.00096 17.5029 4.10762 17.4621 4.18931 17.3813L6.80222 14.7683C8.08992 15.3968 9.51014 15.836 10.9787 15.836C16.1137 15.836 20.6894 10.4985 20.8819 10.271C21.0027 10.1268 21.0136 9.91923 20.906 9.76421ZM10.9787 13.3356C10.2094 13.3356 9.51014 13.0631 8.94505 12.6247L13.6016 7.96815C14.04 8.53324 14.3125 9.23252 14.3125 10.0018C14.3125 11.8404 12.8173 13.3356 10.9787 13.3356Z" fill="black"/>
</g>
<defs>
<clipPath id="clip0">
<rect width="20.0034" height="20.0034" fill="white" transform="translate(0.976685)"/>
</clipPath>
</defs>
</svg>
