<svg width="19" height="19" viewBox="0 0 19 19" fill="none" xmlns="http://www.w3.org/2000/svg">
<g clip-path="url(#clip0)">
<path d="M18.8366 8.66972L9.49984 0L0.163419 8.66972C0.0319017 8.79212 0.0240888 8.99818 0.146491 9.13003C0.268242 9.26154 0.474958 9.26903 0.606476 9.14695L2.01247 7.84122V8.90834V19H7.22107V13.1403C7.22107 11.8818 8.24131 10.8616 9.49984 10.8616C10.7584 10.8616 11.7786 11.8818 11.7786 13.1403V19H16.9872V8.90834V7.84122L18.3932 9.14695C18.4557 9.20523 18.5355 9.23387 18.6149 9.23387C18.7025 9.23387 18.7894 9.19904 18.8532 9.13003C18.9759 8.99818 18.9681 8.79212 18.8366 8.66972Z" fill="#623F99"/>
</g>
<defs>
<clipPath id="clip0">
<rect width="19" height="19" fill="white"/>
</clipPath>
</defs>
</svg>
