<svg width="21" height="21" viewBox="0 0 21 21" fill="none" xmlns="http://www.w3.org/2000/svg">
<g clip-path="url(#clip0)">
<path d="M10.5 5.25C7.60462 5.25 5.25 7.60462 5.25 10.5C5.25 13.3954 7.60462 15.75 10.5 15.75C13.3954 15.75 15.75 13.3954 15.75 10.5C15.75 7.60462 13.3954 5.25 10.5 5.25ZM11.375 13.125C11.375 13.608 10.9839 14 10.5 14C10.0161 14 9.625 13.608 9.625 13.125V10.5C9.625 10.017 10.0161 9.625 10.5 9.625C10.9839 9.625 11.375 10.017 11.375 10.5V13.125ZM10.5 8.75C10.017 8.75 9.625 8.358 9.625 7.875C9.625 7.392 10.017 7 10.5 7C10.983 7 11.375 7.392 11.375 7.875C11.375 8.358 10.983 8.75 10.5 8.75Z" fill="#64358C"/>
<path d="M1.3125 10.5002C1.3125 5.43478 5.43375 1.31266 10.5 1.31266C12.3191 1.31266 14.0481 1.84378 15.5155 2.80628L14.1925 4.13016C13.7795 4.54141 14.0709 5.25016 14.6562 5.25016H18.5938C18.956 5.25016 19.25 4.95616 19.25 4.59391V0.656405C19.25 0.0745304 18.5448 -0.222095 18.13 0.192655L16.4552 1.86741C14.7306 0.669531 12.6735 0.000155412 10.5 0.000155412C4.71012 0.000155412 0 4.71028 0 10.5002C0 11.5265 0.151375 12.5468 0.448875 13.5329C0.553 13.8785 0.916125 14.0763 1.267 13.9722C1.6135 13.8672 1.81037 13.5014 1.70537 13.154C1.44463 12.2904 1.3125 11.3979 1.3125 10.5002Z" fill="#64358C"/>
<path d="M20.5511 7.46724C20.4461 7.11986 20.083 6.92211 19.733 7.02799C19.3865 7.13299 19.1896 7.49874 19.2946 7.84611C19.5553 8.70974 19.6875 9.60224 19.6875 10.5C19.6875 15.5654 15.5662 19.6875 10.5 19.6875C8.68435 19.6875 6.95797 19.159 5.49322 18.2L6.8101 16.8682C7.2196 16.4535 6.9256 15.75 6.34372 15.75H2.40622C2.23122 15.75 2.06235 15.82 1.93985 15.9451C1.81735 16.0702 1.74822 16.2382 1.74997 16.4132L1.79372 20.3507C1.79897 20.9335 2.51035 21.217 2.91635 20.8049L4.5596 19.1432C6.28072 20.335 8.3326 21 10.5 21C16.2898 21 21 16.2899 21 10.5C21 9.47361 20.8486 8.45336 20.5511 7.46724Z" fill="#64358C"/>
</g>
<defs>
<clipPath id="clip0">
<rect width="21" height="21" fill="white"/>
</clipPath>
</defs>
</svg>
