<svg width="19" height="19" viewBox="0 0 19 19" fill="none" xmlns="http://www.w3.org/2000/svg">
<g clip-path="url(#clip0)">
<path d="M12.7983 6.0497C13.4197 6.0497 13.9234 5.54597 13.9234 4.92458C13.9234 4.3032 13.4197 3.79946 12.7983 3.79946C12.1769 3.79946 11.6732 4.3032 11.6732 4.92458C11.6732 5.54597 12.1769 6.0497 12.7983 6.0497Z" fill="#B6B8D6"/>
<path d="M17.8078 5.8346C17.4323 4.87846 16.7437 3.49889 15.5957 2.35633C14.4518 1.2177 13.0868 0.548818 12.1432 0.188146C11.1072 -0.207791 9.93004 0.0417748 9.14421 0.82391L6.38281 3.57237C5.56425 4.38706 5.32833 5.64066 5.79571 6.69177C5.94064 7.01777 6.09826 7.33664 6.26668 7.64471L0.205968 13.7054C0.0740822 13.8373 0 14.0161 0 14.2027V17.2967C0 17.6851 0.314823 17.9999 0.703201 17.9999H3.79728C4.18566 17.9999 4.50049 17.6851 4.50049 17.2967V16.031L5.76625 16.0309C6.15462 16.0309 6.46945 15.7161 6.46945 15.3277V14.062H7.73521C8.12359 14.062 8.43841 13.7472 8.43841 13.3588C8.43841 12.9704 8.12359 12.6556 7.73521 12.6556H5.76625C5.37787 12.6556 5.06305 12.9704 5.06305 13.3588V14.6245L3.79728 14.6246C3.40891 14.6246 3.09408 14.9394 3.09408 15.3278V16.5935H1.4064V14.4939L7.64221 8.25815C7.87131 8.02905 7.91424 7.67312 7.74621 7.39613C7.50252 6.99446 7.27866 6.56523 7.08088 6.12035C6.84886 5.59854 6.96707 4.97519 7.37503 4.56912L10.1364 1.8207C10.5306 1.42835 11.1213 1.30321 11.6412 1.50187C12.4577 1.81395 13.6344 2.38839 14.6036 3.35311C15.5788 4.32367 16.1725 5.51781 16.4987 6.34864C16.7024 6.86718 16.5786 7.45629 16.1835 7.84952L13.3888 10.6312C12.9818 11.0362 12.3744 11.1546 11.8412 10.9328C11.4015 10.7499 10.9756 10.5327 10.5754 10.2871C10.2445 10.0839 9.81145 10.1876 9.60829 10.5186C9.40514 10.8496 9.50875 11.2826 9.83975 11.4857C10.3022 11.7695 10.7939 12.0204 11.3011 12.2314C12.3609 12.6722 13.5698 12.4353 14.3809 11.628L17.1756 8.84638C17.9683 8.05742 18.2165 6.87524 17.8078 5.8346Z" fill="#B6B8D6"/>
</g>
<defs>
<clipPath id="clip0">
<rect width="18.002" height="18.002" fill="white"/>
</clipPath>
</defs>
</svg>
