<svg width="13" height="13" viewBox="0 0 13 13" fill="none" xmlns="http://www.w3.org/2000/svg">
<g clip-path="url(#clip0)">
<path d="M0.303965 9.11086H4.69057C4.87406 9.81673 5.43523 10.361 6.11075 10.5404C6.21241 10.5672 6.31665 10.5067 6.34363 10.4051C6.37071 10.3034 6.31011 10.1992 6.20845 10.1722C5.93352 10.0992 5.68943 9.95747 5.48303 9.75107C4.6386 8.90674 4.97155 7.47833 6.08338 7.08319C6.13575 7.06454 5.9348 7.12742 9.07807 6.15604C9.01965 6.34468 8.20636 8.97637 8.17284 9.08467C8.00244 9.63612 7.56545 10.0456 7.00398 10.1803C6.90173 10.2048 6.83865 10.3076 6.86314 10.4098C6.88764 10.5121 6.99039 10.5752 7.09275 10.5507C7.78643 10.3843 8.32627 9.87842 8.53683 9.19724L8.56351 9.11086H12.6959C12.8663 9.11086 13.0035 8.97111 12.9999 8.79972C12.9245 5.27064 10.0441 2.43752 6.49994 2.43752C3.02888 2.43752 0.0762437 5.20092 7.2207e-05 8.79972C-0.00359751 8.97042 0.133075 9.11086 0.303965 9.11086ZM12.6169 8.73H11.2805C11.2305 7.57364 10.7684 6.50664 10.0156 5.69276C10.6757 5.03271 10.576 5.13238 10.9605 4.74786C11.9815 5.8329 12.5664 7.23712 12.6169 8.73ZM6.69037 2.82125C8.1901 2.86688 9.59768 3.44997 10.6911 4.47868L9.74636 5.42338C8.90787 4.64768 7.83205 4.20166 6.69037 4.15753V2.82125ZM6.49925 4.53471H6.50044C8.87266 4.53471 10.79 6.39834 10.899 8.73H8.68114L9.45853 6.21475C9.49711 6.08988 9.46359 5.955 9.37125 5.86266C9.27891 5.77032 9.14402 5.7369 9.01925 5.77548C5.76957 6.77979 5.91279 6.72375 5.69231 6.8394C4.97393 7.21619 4.58623 7.97215 4.63057 8.73H2.10084C2.21262 6.37662 4.15251 4.53471 6.49925 4.53471ZM6.30951 2.82115V4.15763C5.14205 4.20295 4.07535 4.66335 3.25353 5.42338C2.59615 4.76601 2.58951 4.75946 2.31081 4.48076C3.46667 3.42219 4.81028 2.8646 6.30951 2.82115ZM2.03935 4.74786L2.98425 5.69276C2.22948 6.50982 1.76957 7.57513 1.71939 8.73H0.382913C0.433198 7.23761 1.01807 5.8335 2.03935 4.74786Z" fill="#64358C"/>
<path d="M7.39599 9.18356C7.45629 9.09737 7.43537 8.97865 7.34918 8.91835C7.26309 8.85805 7.14427 8.87897 7.08396 8.96516C6.8735 9.26598 6.44612 9.3002 6.18994 9.04401C5.96162 8.8157 5.96162 8.44426 6.18994 8.21594C6.44622 7.95965 6.8734 7.99417 7.08396 8.29489C7.14427 8.38098 7.26309 8.40191 7.34918 8.3416C7.43537 8.2813 7.45629 8.16248 7.39599 8.07639C7.04895 7.58118 6.34406 7.52315 5.92066 7.94666C5.54386 8.32345 5.54386 8.9365 5.92066 9.31329C6.34496 9.73769 7.05004 9.67759 7.39599 9.18356Z" fill="#64358C"/>
</g>
<defs>
<clipPath id="clip0">
<rect width="13" height="13" fill="white"/>
</clipPath>
</defs>
</svg>
