<svg width="23" height="23" viewBox="0 0 23 23" fill="none" xmlns="http://www.w3.org/2000/svg">
<g clip-path="url(#clip0)">
<path d="M20.9807 9.549L12.0107 0.577709C11.4817 0.0499891 10.6259 0.056233 10.1038 0.577035C9.57875 1.10345 9.57875 1.95819 10.1038 2.48393L19.0751 11.4546C19.6007 11.9802 20.4551 11.9802 20.9807 11.4546C21.5077 10.9276 21.5077 10.0759 20.9807 9.549Z" fill="#64358C"/>
<path d="M9.43834 3.72409L9.37083 4.06252C8.89526 6.44139 7.73947 8.70136 6.17621 10.5331L11.0566 15.4135C12.8881 13.8505 15.117 12.6637 17.4959 12.1876L17.835 12.12L9.43834 3.72409Z" fill="#64358C"/>
<path d="M5.28146 11.5439L1.94602 14.8787C1.1579 15.6668 1.15462 16.9463 1.94602 17.7377L3.85162 19.6433C4.63974 20.4315 5.91924 20.4347 6.71064 19.6433L10.0458 16.3082L5.28146 11.5439ZM5.75789 16.785C5.4947 17.0482 5.06827 17.0482 4.80509 16.785C4.5419 16.5218 4.5419 16.0954 4.80509 15.8322L5.75789 14.8794C6.02107 14.6162 6.4475 14.6162 6.71068 14.8794C6.97387 15.1426 6.97387 15.569 6.71068 15.8322L5.75789 16.785Z" fill="#64358C"/>
<path d="M12.8591 20.0019L13.7757 19.0853C14.5671 18.294 14.5645 17.0145 13.7757 16.227L13.0949 15.5457C12.7186 15.7984 12.3593 16.0731 12.0099 16.3661L12.8229 17.1804C13.0855 17.4416 13.0873 17.8667 12.8229 18.1325L11.8912 19.0643L10.522 17.7376L8.61627 19.6433L11.6734 22.6057C12.1951 23.1287 13.0517 23.1317 13.5783 22.605C14.1041 22.0793 14.1041 21.2245 13.5783 20.6987L12.8591 20.0019Z" fill="#64358C"/>
</g>
<defs>
<clipPath id="clip0">
<rect width="22.999" height="22.999" fill="white"/>
</clipPath>
</defs>
</svg>
