<svg width="21" height="20" viewBox="0 0 21 20" fill="none" xmlns="http://www.w3.org/2000/svg">
<g clip-path="url(#clip0)">
<path d="M10.5 0C4.97715 0 0.5 4.47715 0.5 9.99998C0.5 15.5228 4.97715 20 10.5 20C16.0228 20 20.5 15.5228 20.5 9.99998C20.4941 4.47961 16.0204 0.00590122 10.5 0ZM14.7114 10.3186C14.6421 10.4575 14.5296 10.5701 14.3907 10.6393V10.6428L8.67642 13.5C8.32352 13.6763 7.89453 13.5332 7.71816 13.1803C7.66802 13.08 7.6422 12.9693 7.64282 12.8571V7.14287C7.64266 6.74836 7.96229 6.42844 8.35679 6.42823C8.46774 6.42819 8.57718 6.45397 8.67642 6.50357L14.3907 9.36072C14.7438 9.53667 14.8874 9.96553 14.7114 10.3186Z" fill="#64358C"/>
</g>
<defs>
<clipPath id="clip0">
<rect width="20" height="20" fill="white" transform="translate(0.5)"/>
</clipPath>
</defs>
</svg>
