<svg width="13" height="13" viewBox="0 0 13 13" fill="none" xmlns="http://www.w3.org/2000/svg">
<path d="M10.5625 8.27734C10.7026 8.27734 10.8164 8.16358 10.8164 8.02344C10.8164 7.88329 10.7026 7.76953 10.5625 7.76953C10.4224 7.76953 10.3086 7.88329 10.3086 8.02344C10.3086 8.16358 10.4224 8.27734 10.5625 8.27734Z" fill="#64358C"/>
<path d="M12.7461 12.4922H12.3398V5.48438C12.3398 5.34413 12.2262 5.23047 12.0859 5.23047H10.5625C10.4223 5.23047 10.3086 5.34413 10.3086 5.48438V7.00781C10.3086 7.14806 10.4223 7.26172 10.5625 7.26172C10.7027 7.26172 10.8164 7.14806 10.8164 7.00781V5.73828H11.832V12.4922H10.8164V9.03906C10.8164 8.89882 10.7027 8.78516 10.5625 8.78516C10.4223 8.78516 10.3086 8.89882 10.3086 9.03906V12.4922H9.29297V7.51562C9.29297 7.37538 9.17931 7.26172 9.03906 7.26172H7.51562C7.37538 7.26172 7.26172 7.37538 7.26172 7.51562V12.4922H6.24609V9.03906C6.24609 8.89882 6.13243 8.78516 5.99219 8.78516H4.46875C4.32851 8.78516 4.21484 8.89882 4.21484 9.03906V12.4922H3.19922V10.0547C3.19922 9.91444 3.08556 9.80078 2.94531 9.80078H1.42188C1.28163 9.80078 1.16797 9.91444 1.16797 10.0547V12.4922H0.507812V0.253906C0.507812 0.113663 0.39415 0 0.253906 0C0.113663 0 0 0.113663 0 0.253906V12.7461C0 12.8863 0.113663 13 0.253906 13H12.7461C12.8863 13 13 12.8863 13 12.7461C13 12.6059 12.8863 12.4922 12.7461 12.4922ZM2.69141 12.4922H1.67578V10.3086H2.69141V12.4922ZM5.73828 12.4922H4.72266V9.29297H5.73828V12.4922ZM8.78516 12.4922H7.76953V7.76953H8.78516V12.4922Z" fill="#64358C"/>
<path d="M2.38485 8.01799C2.24768 8.04714 2.1601 8.18183 2.18916 8.3191C2.21812 8.45597 2.35271 8.54395 2.49018 8.51479C5.78263 7.81704 8.55834 5.83062 10.3097 3.15747L10.7309 3.45243C10.8854 3.56044 11.1001 3.4683 11.1278 3.28164L11.3776 1.59693C11.3917 1.50182 11.3509 1.4069 11.2721 1.35176C11.1933 1.29661 11.0902 1.29066 11.0056 1.33648L9.50781 2.1474C9.34208 2.23706 9.32849 2.47053 9.48301 2.57874L9.89343 2.86607C8.17222 5.49658 5.44888 7.36874 2.38485 8.01799ZM10.8007 2.02481L10.6857 2.80081L10.1109 2.39833L10.8007 2.02481Z" fill="#64358C"/>
</svg>
