<svg width="13" height="13" viewBox="0 0 13 13" fill="none" xmlns="http://www.w3.org/2000/svg">
<g clip-path="url(#clip0)">
<path d="M6.49996 11.8744C8.34081 11.8744 9.83842 10.3768 9.83842 8.53598C9.83842 6.69514 8.34081 5.19752 6.49996 5.19752C4.65911 5.19752 3.1615 6.69514 3.1615 8.53598C3.16147 10.3768 4.65911 11.8744 6.49996 11.8744ZM6.49996 5.57836C8.13077 5.57836 9.45756 6.90514 9.45756 8.53596C9.45756 10.1668 8.13077 11.4936 6.49996 11.4936C4.86915 11.4936 3.54236 10.1668 3.54236 8.53598C3.54236 6.90517 4.86912 5.57836 6.49996 5.57836Z" fill="#64358C"/>
<path d="M5.62813 9.90235C5.8865 10.0714 6.06208 10.1201 6.29156 10.1319V10.3592C6.29156 10.4643 6.3768 10.5496 6.48199 10.5496C6.58718 10.5496 6.67242 10.4643 6.67242 10.3592V10.1172C7.12336 10.0326 7.38673 9.66264 7.44483 9.31707C7.51897 8.87604 7.28819 8.49256 6.85688 8.34009C6.7963 8.31869 6.73424 8.29619 6.67242 8.2727V7.2911C6.90162 7.31891 7.06602 7.41778 7.06968 7.42001C7.1585 7.47544 7.2756 7.44878 7.33158 7.36009C7.3877 7.27112 7.36106 7.15351 7.27212 7.0974C7.25775 7.08836 7.01387 6.93784 6.67242 6.90793V6.71278C6.67242 6.60759 6.58718 6.52235 6.48199 6.52235C6.3768 6.52235 6.29156 6.60759 6.29156 6.71278V6.93048C6.25908 6.93741 6.22628 6.94564 6.19317 6.95562C5.90958 7.04106 5.69762 7.28389 5.64009 7.58932C5.58768 7.86747 5.67655 8.13554 5.87203 8.28888C5.97781 8.37185 6.10986 8.44782 6.29156 8.52829V9.75069C6.12842 9.74018 6.01914 9.70303 5.83666 9.58365C5.74863 9.52609 5.63062 9.55074 5.57303 9.63875C5.51544 9.72675 5.54012 9.84476 5.62813 9.90235ZM6.10707 7.98917C6.02389 7.92394 5.98834 7.79772 6.01434 7.65982C6.03819 7.53328 6.12368 7.38048 6.29156 7.32426V8.10553C6.22181 8.06854 6.15884 8.02979 6.10707 7.98917ZM6.72993 8.69916C7.10878 8.83305 7.0854 9.15764 7.0692 9.25392C7.03705 9.44512 6.9021 9.64844 6.67239 9.72385V8.67857C6.69133 8.6854 6.71022 8.69221 6.72993 8.69916Z" fill="#64358C"/>
<path d="M3.82825 3.03921L4.06731 2.84822V4.0592C4.06731 4.1644 4.15254 4.24963 4.25774 4.24963C4.36293 4.24963 4.44817 4.1644 4.44817 4.0592V2.84822L4.68722 3.03921C4.72233 3.06724 4.76428 3.08088 4.80597 3.08088C4.86186 3.08088 4.91728 3.05637 4.95486 3.00933C5.02052 2.92716 5.00714 2.80732 4.92495 2.74168L4.37659 2.30357C4.30707 2.24801 4.20838 2.24801 4.13886 2.30357L3.5905 2.74168C3.50833 2.80732 3.49493 2.92716 3.56059 3.00933C3.62627 3.09146 3.74606 3.10487 3.82825 3.03921Z" fill="#64358C"/>
<path d="M8.04509 3.00933C8.11075 3.09147 8.23052 3.1049 8.31274 3.03924L8.55179 2.84826V4.05924C8.55179 4.16443 8.63702 4.24967 8.74222 4.24967C8.84741 4.24967 8.93265 4.16443 8.93265 4.05924V2.84826L9.1717 3.03924C9.20682 3.06728 9.24876 3.08091 9.29045 3.08091C9.34634 3.08091 9.40176 3.05641 9.43934 3.00936C9.505 2.9272 9.49162 2.80735 9.40943 2.74172L8.86107 2.3036C8.79155 2.24805 8.69286 2.24805 8.62334 2.3036L8.07498 2.74172C7.99281 2.8073 7.97943 2.92715 8.04509 3.00933Z" fill="#64358C"/>
<path d="M6.49998 4.0719C4.03851 4.0719 2.03595 6.07446 2.03595 8.53596C2.03595 9.67823 2.46729 10.7652 3.25054 11.5965C3.32267 11.673 3.44317 11.6766 3.51975 11.6045C3.59631 11.5323 3.59986 11.4118 3.52775 11.3352C2.81135 10.5749 2.41681 9.58073 2.41681 8.53593C2.41681 6.28444 4.24851 4.45274 6.49998 4.45274C8.75144 4.45274 10.5832 6.28447 10.5832 8.53593C10.5832 10.7874 8.75144 12.6191 6.49998 12.6191C5.61849 12.6191 4.77915 12.3426 4.07266 11.8194C3.98811 11.7568 3.8689 11.7746 3.80629 11.8591C3.7437 11.9436 3.76147 12.0629 3.84597 12.1255C4.61853 12.6976 5.53625 13 6.49998 13C8.96147 13 10.964 10.9975 10.964 8.53598C10.964 6.07446 8.96147 4.0719 6.49998 4.0719Z" fill="#64358C"/>
<path d="M6.14882 0.805676L6.49998 0.458307L7.49689 1.44458H7.31669C7.12778 1.44458 6.9741 1.59827 6.9741 1.78718V3.62173C6.9741 3.72692 7.05933 3.81216 7.16453 3.81216C7.26972 3.81216 7.35496 3.72692 7.35496 3.62173V1.82544H7.96014C8.03735 1.82544 8.1069 1.77882 8.13628 1.70742C8.16565 1.63603 8.14897 1.55394 8.09408 1.49963L6.63389 0.0550532C6.5597 -0.0183511 6.44023 -0.0183511 6.36604 0.0550532L5.88098 0.534911C5.8062 0.608874 5.80554 0.729454 5.87951 0.804204C5.95352 0.87903 6.0741 0.879665 6.14882 0.805676Z" fill="#64358C"/>
<path d="M5.03984 1.82544H5.64503V3.62173C5.64503 3.72692 5.73026 3.81216 5.83546 3.81216C5.94065 3.81216 6.02589 3.72692 6.02589 3.62173V1.78718C6.02589 1.59827 5.87217 1.44458 5.68327 1.44458H5.50307L5.60758 1.34119C5.68235 1.2672 5.68301 1.14665 5.60905 1.0719C5.53504 0.997098 5.41446 0.996463 5.33976 1.07043L4.90593 1.49963C4.85104 1.55394 4.83438 1.636 4.86373 1.70743C4.89308 1.77885 4.96263 1.82544 5.03984 1.82544Z" fill="#64358C"/>
</g>
<defs>
<clipPath id="clip0">
<rect width="13" height="13" fill="white"/>
</clipPath>
</defs>
</svg>
