<svg width="20" height="20" viewBox="0 0 20 20" fill="none" xmlns="http://www.w3.org/2000/svg">
<path d="M3.65289 19.5859L3.65287 19.5858C3.58335 19.557 3.53806 19.4892 3.53806 19.4141V0.585938C3.53806 0.483258 3.62132 0.4 3.724 0.4H16.2761C16.3788 0.4 16.462 0.48324 16.462 0.585938V19.4141C16.462 19.4892 16.4168 19.557 16.3473 19.5858C16.2777 19.6146 16.1977 19.5987 16.1446 19.5455L16.1446 19.5455L10.283 13.6837L10.0001 13.4009L9.71729 13.6837L3.85545 19.5455L3.85535 19.5456C3.81998 19.581 3.7726 19.6 3.72388 19.6C3.69998 19.6 3.67596 19.5954 3.65289 19.5859Z" fill="#3B3B3B" stroke="white" stroke-width="0.8"/>
</svg>
