<svg width="24" height="20" viewBox="0 0 24 20" fill="none" xmlns="http://www.w3.org/2000/svg">
<path d="M22.2244 3.37988H20.4172L20.8945 1.59661C21.0755 0.919773 20.6736 0.224398 19.9969 0.0433871C19.3201 -0.137623 18.6247 0.264281 18.4437 0.940996L17.791 3.37988H9.60515L10.0826 1.59661C10.2636 0.919773 9.86166 0.224398 9.18495 0.0433871C8.50811 -0.137623 7.81273 0.264281 7.63172 0.940996L6.97879 3.37988H4.48916C3.78854 3.37988 3.22063 3.9478 3.22063 4.64842C3.22063 5.34904 3.78854 5.91695 4.48916 5.91695H6.29951L4.11324 14.0828H1.58617C0.885544 14.0828 0.317627 14.6507 0.317627 15.3513C0.317627 16.052 0.885544 16.6199 1.58617 16.6199H3.43396L2.95643 18.4034C2.77542 19.0802 3.17733 19.7756 3.85404 19.9566C4.53088 20.1376 5.22626 19.7357 5.40727 19.059L6.06032 16.6199H14.2474L13.7701 18.4034C13.5891 19.0802 13.991 19.7756 14.6677 19.9566C15.3445 20.1376 16.0399 19.7357 16.2209 19.059L16.8737 16.6199H19.3567C20.0573 16.6199 20.6252 16.052 20.6252 15.3513C20.6252 14.6507 20.0573 14.0828 19.3567 14.0828H17.5528L19.7382 5.91695H22.2244C22.925 5.91695 23.493 5.34904 23.493 4.64842C23.493 3.9478 22.925 3.37988 22.2244 3.37988ZM14.9264 14.0828H6.7396L8.92587 5.91695H17.112L14.9264 14.0828Z" fill="#FF5100"/>
<path d="M10.3672 11.2955L11.0561 8.70642L13.4758 8.70691L12.7817 11.2955H10.3672Z" fill="#FF5100"/>
<path d="M9.62722 6.8468L7.94873 13.155H14.2086L15.8996 6.84802L9.62722 6.8468ZM13.4953 12.2252H9.15811L10.3419 7.77649L14.688 7.77734L13.4953 12.2252Z" fill="#B6B8D6"/>
</svg>
