<svg width="20" height="19" viewBox="0 0 20 19" fill="none" xmlns="http://www.w3.org/2000/svg">
<g clip-path="url(#clip0)">
<path d="M19.4522 16.2807C19.3687 15.8794 18.9757 15.6219 18.5743 15.7054C18.173 15.7889 17.9154 16.182 17.999 16.5833C18.0471 16.8144 17.9898 17.0513 17.8418 17.2334C17.7561 17.3388 17.5649 17.5156 17.2481 17.5156H2.75263C2.43579 17.5156 2.24464 17.3388 2.15892 17.2334C2.01089 17.0513 1.95359 16.8144 2.00172 16.5833C2.77197 12.8836 6.03518 10.1811 9.8036 10.09C9.86887 10.0925 9.93445 10.0938 10.0004 10.0938C10.0665 10.0938 10.1323 10.0925 10.1978 10.0899C12.8524 10.1536 15.3059 11.4981 16.7917 13.714C17.02 14.0545 17.481 14.1454 17.8215 13.9172C18.1619 13.6889 18.2529 13.2279 18.0246 12.8874C16.8068 11.0711 15.0384 9.75041 13.0221 9.08679C14.2508 8.1654 15.0472 6.69739 15.0472 5.04688C15.0472 2.26404 12.7832 0 10.0004 0C7.21748 0 4.95348 2.26404 4.95348 5.04688C4.95348 6.69839 5.75088 8.16718 6.98087 9.08849C5.85394 9.45951 4.7965 10.0368 3.871 10.7981C2.17391 12.194 0.993944 14.1411 0.54852 16.2807C0.408914 16.9512 0.576166 17.6398 1.0073 18.1699C1.43632 18.6974 2.07249 19 2.75263 19H17.248C17.9282 19 18.5644 18.6974 18.9934 18.1699C19.4246 17.6398 19.5918 16.9512 19.4522 16.2807ZM6.43785 5.04688C6.43785 3.08249 8.03597 1.48438 10.0004 1.48438C11.9647 1.48438 13.5629 3.08249 13.5629 5.04688C13.5629 6.95077 12.0616 8.51063 10.1807 8.60485C10.1207 8.60373 10.0605 8.60318 10.0004 8.60318C9.94046 8.60318 9.88056 8.60377 9.82074 8.60489C7.93948 8.51103 6.43785 6.95103 6.43785 5.04688Z" fill="#B6B8D6"/>
</g>
<defs>
<clipPath id="clip0">
<rect width="19" height="19" fill="white" transform="translate(0.5)"/>
</clipPath>
</defs>
</svg>
