<svg width="20" height="20" viewBox="0 0 20 20" fill="none" xmlns="http://www.w3.org/2000/svg">
<g clip-path="url(#clip0)">
<path d="M12.9806 7.93996L12.9806 7.93993C13.8421 7.07849 14.2746 6.03443 14.2746 4.81688C14.2746 3.59983 13.8421 2.55563 12.9805 1.69386C12.9805 1.69384 12.9805 1.69382 12.9804 1.69379M12.9806 7.93996L12.9804 1.69379M12.9806 7.93996C12.1192 8.80153 11.0748 9.23406 9.8574 9.23406M12.9806 7.93996L9.8574 9.23406M12.9804 1.69379C12.1188 0.832499 11.0746 0.4 9.8574 0.4C8.63984 0.4 7.59579 0.832521 6.73434 1.69397C5.87287 2.55544 5.44022 3.59966 5.44022 4.81688C5.44022 6.0344 5.87287 7.07859 6.73445 7.94004L12.9804 1.69379ZM9.8574 9.23406C8.64035 9.23406 7.59612 8.80142 6.73447 7.94006L9.8574 9.23406Z" fill="#3B3B3B" stroke="white" stroke-width="0.8"/>
<path d="M17.8871 15.407L17.8871 15.4066C17.8613 15.0336 17.8087 14.623 17.7304 14.1859C17.652 13.7489 17.5515 13.3387 17.4323 12.9666L17.4323 12.9666C17.3118 12.5899 17.1474 12.2164 16.9432 11.8573L17.291 11.6597L16.9432 11.8573C16.7348 11.4906 16.493 11.1769 16.2269 10.9223L16.2268 10.9222C15.9569 10.664 15.6214 10.4515 15.2245 10.2942L17.8871 15.407ZM17.8871 15.407C17.9132 15.778 17.9264 16.1661 17.9266 16.5603L17.8871 15.407ZM12.5444 10.8558L12.5439 10.8561C12.2431 11.0478 11.8535 11.2168 11.3967 11.3643C10.9312 11.5149 10.4555 11.5923 9.98312 11.5923C9.51068 11.5923 9.03513 11.5149 8.56929 11.3643L12.5444 10.8558ZM12.5444 10.8558C12.8514 10.6596 13.1269 10.482 13.3628 10.3282C13.7415 10.0816 13.8515 10.0609 13.9275 10.0609C14.4021 10.0609 14.8375 10.1411 15.2245 10.2942L12.5444 10.8558ZM7.42258 10.8561L7.42232 10.856C7.11809 10.6616 6.84241 10.4839 6.60301 10.3279L6.60293 10.3279C6.2249 10.0815 6.11477 10.0608 6.03874 10.0608C5.56398 10.0608 5.12871 10.1411 4.74181 10.2943L4.74174 10.2944C4.34528 10.4513 4.00975 10.6638 3.73953 10.9223L7.42258 10.8561ZM7.42258 10.8561C7.72323 11.0479 8.11291 11.2169 8.56921 11.3643L7.42258 10.8561ZM3.02339 11.8572L3.02336 11.8572C2.81937 12.2163 2.65491 12.5897 2.53425 12.9666L3.02339 11.8572ZM3.02339 11.8572C3.23142 11.4909 3.47324 11.1772 3.73945 10.9224L3.02339 11.8572ZM2.07959 15.407L2.07958 15.4071C2.0537 15.7802 2.04056 16.1681 2.04056 16.5605C2.04056 17.5134 2.34 18.2473 2.90263 18.7832C3.46242 19.3159 4.21296 19.6001 5.16853 19.6001H14.7986C15.7542 19.6001 16.5044 19.316 17.0644 18.7832L17.0644 18.7832C17.627 18.2478 17.9266 17.514 17.9266 16.5605L2.07959 15.407ZM2.07959 15.407C2.10545 15.033 2.15802 14.6223 2.2363 14.1859L2.07959 15.407ZM18.1241 14.1152C18.0429 13.663 17.9384 13.2354 17.8133 12.8447L18.1241 14.1152ZM2.23631 14.1859C2.31473 13.749 2.41521 13.3389 2.53421 12.9668L2.23631 14.1859Z" fill="#3B3B3B" stroke="white" stroke-width="0.8"/>
</g>
<defs>
<clipPath id="clip0">
<rect width="19.9999" height="20" fill="white"/>
</clipPath>
</defs>
</svg>
