<svg width="155" height="149" viewBox="0 0 155 149" fill="none" xmlns="http://www.w3.org/2000/svg">
<path fill-rule="evenodd" clip-rule="evenodd" d="M76.9828 0.263514C93.4106 -1.84754 109.257 9.06324 120.844 20.8986C131.351 31.6312 131.778 47.692 137.147 61.7193C142.924 76.8135 159.033 90.9459 153.46 106.117C147.858 121.368 126.539 122.113 112.174 129.705C100.39 135.933 90.1675 144.577 76.9828 146.533C62.1131 148.739 45.9788 149.466 33.2885 141.408C20.2661 133.139 14.1838 117.885 8.99023 103.36C3.64981 88.424 -3.15231 71.8271 3.215 57.2992C9.46956 43.0285 28.2864 40.7392 40.6128 31.2087C53.5214 21.228 60.7988 2.34325 76.9828 0.263514Z" fill="#F8F9FA"/>
</svg>
