<svg width="142" height="136" viewBox="0 0 142 136" fill="none" xmlns="http://www.w3.org/2000/svg">
<path fill-rule="evenodd" clip-rule="evenodd" d="M67.935 10.6059C84.0796 7.92534 100.06 -4.72178 115.031 1.89027C130.232 8.60425 139.382 26.4051 141.124 42.9315C142.749 58.3494 131.655 71.504 123.774 84.8552C117.62 95.2815 109.551 103.512 100.573 111.634C90.3467 120.887 81.5373 133.105 67.935 135.375C53.3873 137.804 38.0224 132.969 26.2872 124.035C14.6947 115.21 8.74891 101.253 4.7219 87.2511C0.813358 73.6609 -1.07161 59.1483 3.80873 45.8761C8.58435 32.8886 18.8537 22.5144 30.9784 15.8456C42.1537 9.69903 55.353 12.6949 67.935 10.6059Z" fill="#DDE2EE"/>
</svg>
