<svg width="210" height="224" viewBox="0 0 210 224" fill="none" xmlns="http://www.w3.org/2000/svg">
<path d="M5.65999 0L-165.281 296.156C-166.347 294.221 -167.374 292.207 -168.401 290.311L-0.973923 0.315967L5.65999 0Z" fill="#FF5100"/>
<path d="M20.7843 0.315967L-157.462 309.028C-158.607 307.251 -159.752 305.475 -160.897 303.619L14.4268 0C16.5591 0.0789748 18.6914 0.158017 20.7843 0.315967Z" fill="#FF5100"/>
<path d="M35.315 1.61897L-149.012 320.875C-150.276 319.256 -151.5 317.597 -152.685 315.939L29.1549 0.947754C31.3662 1.1057 33.2616 1.34256 35.315 1.61897Z" fill="#FF5100"/>
<path d="M49.2144 3.94866L-140.049 331.694C-141.391 330.194 -142.655 328.693 -143.998 327.153L43.2122 2.84302C45.3446 3.15892 47.161 3.5143 49.2144 3.94866Z" fill="#FF5100"/>
<path d="M62.6801 7.147L-130.532 341.724L-134.48 337.775L57.1914 5.80444C59.0078 6.08086 60.7847 6.63366 62.6801 7.147Z" fill="#FF5100"/>
<path d="M75.5923 11.2145L-120.542 350.806C-122.042 349.582 -123.464 348.279 -124.885 346.857L70.1431 9.04272C71.9595 10.0299 73.8153 10.5432 75.5923 11.2145Z" fill="#FF5100"/>
<path d="M88.0707 16.0716L-110.156 359.336C-111.657 358.23 -113.157 357.045 -114.618 355.9L82.7004 13.9788L88.0707 16.0716Z" fill="#FF5100"/>
<path d="M100.114 21.8766L-99.2183 367.115C-100.798 366.088 -102.377 365.062 -103.917 363.956L95.0203 19.3494L100.114 21.8766Z" fill="#FF5100"/>
<path d="M111.684 28.1156L-87.9246 373.788L-92.7816 370.985L106.788 25.2725C108.446 26.1807 110.065 27.1284 111.684 28.1156Z" fill="#FF5100"/>
<path d="M122.819 35.2628L-76.1182 379.869C-77.8556 379.08 -79.5536 378.25 -81.212 377.382L118.239 32.1038L122.819 35.2628Z" fill="#FF5100"/>
<path d="M133.521 43.1995L-63.9164 385.2L-69.2077 383.028L129.019 39.7246C130.52 40.8697 132.06 42.0149 133.521 43.1995Z" fill="#FF5100"/>
<path d="M143.748 51.9257L-51.2412 389.701C-53.0576 389.148 -54.9136 388.516 -56.6905 387.885L139.443 48.293C140.904 49.5171 142.326 50.6227 143.748 51.9257Z" fill="#FF5100"/>
<path d="M153.541 61.3635L-38.1313 393.413C-40.0267 392.939 -42.0801 392.466 -43.778 391.913L149.434 57.4148C150.816 58.6389 152.198 60.0605 153.541 61.3635Z" fill="#FF5100"/>
<path d="M162.82 71.8278L-24.469 396.256C-26.4434 395.941 -28.4178 395.546 -30.3527 395.151L158.95 67.4053C160.253 68.7873 161.675 70.3273 162.82 71.8278Z" fill="#FF5100"/>
<path d="M171.586 83.1606L-10.293 398.152L-16.4135 397.48L167.914 78.1853C169.177 79.8174 170.401 81.4758 171.586 83.1606Z" fill="#FF5100"/>
<path d="M179.761 95.4414L4.43646 399.06C2.34362 399.06 0.211361 399.06 -1.92096 398.784L176.325 90.071C177.47 91.848 178.655 93.625 179.761 95.4414Z" fill="#FF5100"/>
<path d="M187.263 108.749L19.8754 398.744C17.6641 398.744 15.4528 398.744 13.202 398.981L184.143 102.825C185.367 104.8 186.275 106.893 187.263 108.749Z" fill="#FF5100"/>
<path d="M194.055 123.596L36.1049 397.362C33.8146 397.678 31.4848 397.955 29.1156 398.152L191.369 117.16C192.238 119.253 193.265 121.424 194.055 123.596Z" fill="#FF5100"/>
<path d="M199.938 139.865L53.0448 394.322C50.5966 394.874 48.1088 395.388 45.6606 395.822L197.569 132.718C198.398 135.087 199.188 137.456 199.938 139.865Z" fill="#FF5100"/>
<path d="M204.717 158.068L71.1702 389.385C68.5641 390.254 65.9184 391.044 63.2728 391.754L202.861 150.013C203.532 152.698 204.164 155.343 204.717 158.068Z" fill="#FF5100"/>
<path d="M207.954 178.878L90.7947 381.843C87.9516 383.107 85.1085 384.291 82.1864 385.436L206.809 169.598C207.283 172.678 207.677 175.877 207.954 178.878Z" fill="#FF5100"/>
<path d="M209.06 199.569C209.06 200.951 209.06 202.294 209.06 203.518L112.75 370.313C109.591 372.208 106.392 374.262 103.075 375.762L209.06 192.462C209.06 194.791 209.06 197.161 209.06 199.569Z" fill="#FF5100"/>
<path d="M207.915 220.577C207.401 225.671 206.691 230.646 205.782 235.622L138.891 351.438C134.942 354.755 130.993 357.914 127.045 360.876L207.915 220.577Z" fill="#FF5100"/>
</svg>
