<svg width="583" height="149" viewBox="0 0 583 149" fill="none" xmlns="http://www.w3.org/2000/svg">
<g clip-path="url(#clip0)">
<path d="M569 100.68C569.016 101.235 569.249 101.762 569.649 102.147C570.049 102.532 570.585 102.745 571.14 102.74H578.26V143.93H571.14C570.582 143.922 570.044 144.135 569.643 144.523C569.242 144.911 569.011 145.442 569 146C569.006 146.273 569.067 146.541 569.179 146.79C569.29 147.039 569.45 147.263 569.65 147.45C569.849 147.636 570.083 147.78 570.339 147.875C570.595 147.969 570.868 148.012 571.14 148H579.14C579.578 148.026 580.016 147.959 580.426 147.804C580.835 147.648 581.208 147.407 581.518 147.097C581.828 146.787 582.068 146.415 582.224 146.005C582.379 145.596 582.446 145.157 582.42 144.72V101.92C582.451 101.481 582.388 101.041 582.234 100.629C582.08 100.217 581.84 99.8423 581.529 99.5313C581.218 99.2202 580.843 98.9797 580.431 98.8259C580.019 98.6721 579.579 98.6086 579.14 98.6398H571.14C570.862 98.6203 570.584 98.6589 570.322 98.7531C570.06 98.8474 569.821 98.9952 569.62 99.1872C569.418 99.3792 569.259 99.6112 569.152 99.8682C569.046 100.125 568.994 100.402 569 100.68Z" fill="#FF5100"/>
<path d="M409.85 100.69C409.837 101.244 409.606 101.771 409.207 102.157C408.809 102.542 408.275 102.755 407.72 102.75H400.6V143.93H407.72C408.275 143.922 408.811 144.134 409.21 144.52C409.609 144.906 409.839 145.435 409.85 145.99C409.844 146.262 409.783 146.53 409.672 146.778C409.561 147.026 409.402 147.25 409.204 147.436C409.006 147.622 408.772 147.767 408.518 147.862C408.263 147.957 407.992 148.001 407.72 147.99H399.72C399.282 148.016 398.844 147.949 398.434 147.794C398.025 147.638 397.652 147.397 397.342 147.087C397.032 146.778 396.792 146.405 396.636 145.996C396.481 145.586 396.414 145.147 396.44 144.71V101.94C396.407 101.501 396.469 101.06 396.623 100.647C396.776 100.234 397.016 99.859 397.328 99.5476C397.639 99.2362 398.014 98.9957 398.427 98.8425C398.84 98.6893 399.281 98.627 399.72 98.6599H407.72C407.996 98.6419 408.273 98.6813 408.533 98.7756C408.792 98.8699 409.03 99.0171 409.23 99.2079C409.43 99.3986 409.589 99.6288 409.695 99.8839C409.802 100.139 409.855 100.413 409.85 100.69Z" fill="#FF5100"/>
<path d="M440.35 121.34C440.54 123.523 440.54 125.717 440.35 127.9C440.206 130.512 439.055 132.966 437.141 134.749C435.226 136.531 432.696 137.503 430.08 137.46C427.676 137.39 425.313 136.822 423.14 135.79V144.61C423.143 144.981 423 145.339 422.742 145.607C422.484 145.874 422.131 146.03 421.76 146.04C421.575 146.042 421.391 146.005 421.22 145.933C421.049 145.861 420.894 145.755 420.766 145.621C420.638 145.487 420.538 145.328 420.474 145.154C420.409 144.98 420.38 144.795 420.39 144.61V116.11C420.355 115.842 420.399 115.57 420.516 115.327C420.633 115.083 420.819 114.88 421.05 114.74C423.74 113.011 426.853 112.056 430.05 111.98C436 112 439.83 115.78 440.35 121.34ZM423.14 116.83V132.75C425.245 133.99 427.637 134.662 430.08 134.7C431.017 134.753 431.955 134.619 432.84 134.308C433.726 133.997 434.541 133.514 435.239 132.887C435.936 132.259 436.504 131.5 436.907 130.653C437.311 129.806 437.543 128.887 437.59 127.95C437.78 125.801 437.78 123.639 437.59 121.49C437.543 120.553 437.311 119.634 436.907 118.787C436.504 117.94 435.936 117.181 435.239 116.553C434.541 115.926 433.726 115.443 432.84 115.132C431.955 114.821 431.017 114.687 430.08 114.74C427.618 114.782 425.216 115.505 423.14 116.83Z" fill="#FF5100"/>
<path d="M463.51 120.53V133.53C463.536 133.78 463.492 134.032 463.382 134.258C463.273 134.484 463.102 134.675 462.89 134.81C460.044 136.585 456.744 137.495 453.39 137.43C447.45 137.43 444.26 134.38 444.26 129.58C444.26 125.26 447.45 121.88 453.62 121.88C456.037 121.904 458.438 122.275 460.75 122.98V121C460.75 116.65 458.66 114.78 454.29 114.78C452.212 114.779 450.161 115.248 448.29 116.15C448.037 116.295 447.751 116.371 447.46 116.37C447.097 116.37 446.749 116.227 446.491 115.973C446.233 115.718 446.085 115.372 446.08 115.01C446.083 114.73 446.165 114.456 446.317 114.22C446.469 113.985 446.685 113.797 446.94 113.68C449.231 112.603 451.729 112.036 454.26 112.02C460.28 112 463.51 114.5 463.51 120.53ZM447 129.66C447 132.8 449.14 134.66 453.79 134.66C456.255 134.635 458.662 133.91 460.73 132.57V125.82C458.486 125.093 456.148 124.692 453.79 124.63C449.16 124.67 447 126.88 447 129.66Z" fill="#FF5100"/>
<path d="M479.56 112.43C479.877 112.492 480.163 112.661 480.371 112.908C480.578 113.156 480.695 113.467 480.7 113.79C480.7 113.971 480.664 114.15 480.595 114.317C480.525 114.483 480.423 114.635 480.295 114.762C480.167 114.89 480.015 114.99 479.847 115.059C479.68 115.127 479.501 115.161 479.32 115.16C478.774 115.109 478.232 115.015 477.7 114.88C477.038 114.785 476.369 114.738 475.7 114.74C472.52 114.74 470.95 116.14 470.95 119.39V135.77C470.959 135.958 470.931 136.146 470.866 136.323C470.801 136.499 470.701 136.661 470.572 136.798C470.444 136.936 470.288 137.045 470.116 137.121C469.944 137.197 469.758 137.238 469.57 137.24C469.192 137.227 468.835 137.065 468.577 136.79C468.318 136.514 468.179 136.148 468.19 135.77V119.25C468.19 114.69 470.85 111.98 475.65 111.98C476.967 111.965 478.281 112.116 479.56 112.43Z" fill="#FF5100"/>
<path d="M487 108.32V112.41H494.63C494.818 112.394 495.007 112.417 495.185 112.478C495.363 112.538 495.527 112.635 495.666 112.763C495.805 112.89 495.916 113.045 495.992 113.218C496.067 113.39 496.107 113.576 496.107 113.765C496.107 113.953 496.067 114.14 495.992 114.312C495.916 114.485 495.805 114.639 495.666 114.767C495.527 114.894 495.363 114.991 495.185 115.052C495.007 115.113 494.818 115.136 494.63 115.12H487V130.37C487 132.85 488.14 134.7 491.13 134.7C492.398 134.707 493.653 134.455 494.82 133.96C495.052 133.859 495.298 133.795 495.55 133.77C495.734 133.756 495.919 133.78 496.093 133.841C496.267 133.901 496.427 133.997 496.563 134.121C496.698 134.246 496.807 134.397 496.883 134.565C496.958 134.734 496.998 134.916 497 135.1C497 135.84 496.53 136.22 495.81 136.53C494.291 137.166 492.657 137.483 491.01 137.46C486.31 137.46 484.31 134.27 484.31 130.14V108.32C484.296 107.95 484.428 107.589 484.676 107.314C484.924 107.04 485.27 106.873 485.64 106.85C485.826 106.856 486.009 106.899 486.178 106.977C486.348 107.055 486.5 107.165 486.626 107.301C486.753 107.438 486.851 107.598 486.915 107.773C486.979 107.948 487.008 108.134 487 108.32Z" fill="#FF5100"/>
<path d="M521.15 121.53V135.82C521.163 136.006 521.136 136.193 521.072 136.369C521.008 136.544 520.907 136.704 520.777 136.838C520.647 136.972 520.49 137.077 520.316 137.146C520.143 137.215 519.957 137.247 519.77 137.24C519.586 137.239 519.404 137.201 519.234 137.128C519.065 137.056 518.911 136.951 518.783 136.819C518.654 136.686 518.554 136.53 518.486 136.359C518.419 136.187 518.386 136.004 518.39 135.82V121.72C518.39 116.88 515.21 114.72 511.27 114.72C508.695 114.694 506.157 115.331 503.9 116.57V135.8C503.908 135.985 503.878 136.17 503.813 136.343C503.747 136.517 503.646 136.675 503.517 136.808C503.387 136.941 503.232 137.046 503.061 137.117C502.89 137.188 502.705 137.223 502.52 137.22C502.336 137.219 502.154 137.181 501.984 137.108C501.815 137.036 501.661 136.931 501.533 136.799C501.404 136.666 501.304 136.51 501.236 136.339C501.169 136.167 501.136 135.984 501.14 135.8V116C501.102 115.724 501.146 115.442 501.264 115.19C501.383 114.938 501.573 114.726 501.81 114.58C503.14 113.58 506.47 112.01 511.36 112.01C517.82 112 521.15 115.5 521.15 121.53Z" fill="#FF5100"/>
<path d="M544.74 121.91V123.58C544.74 125.08 543.89 126.05 541.99 126.05H527.21V126.95C527.21 131.95 530.41 134.7 535.07 134.7C536.945 134.782 538.815 134.44 540.54 133.7C540.943 133.469 541.389 133.323 541.85 133.27C542.031 133.27 542.21 133.306 542.377 133.375C542.543 133.445 542.695 133.547 542.822 133.675C542.95 133.803 543.05 133.955 543.119 134.123C543.187 134.29 543.221 134.469 543.22 134.65C543.212 134.956 543.112 135.253 542.934 135.503C542.756 135.752 542.507 135.943 542.22 136.05C539.976 137.042 537.543 137.53 535.09 137.48C528.43 137.48 524.87 133.34 524.54 127.16C524.444 125.325 524.444 123.485 524.54 121.65C524.97 115.65 529.11 112 534.81 112C541 112 544.74 116.16 544.74 121.91ZM527.21 123.34H541.27C541.75 123.34 541.94 123.15 541.99 122.67C542.37 117.83 539.33 114.74 534.76 114.74C529.63 114.74 527.06 118 527.21 123.34Z" fill="#FF5100"/>
<path d="M560.27 112.43C560.586 112.494 560.871 112.663 561.079 112.91C561.286 113.157 561.403 113.468 561.41 113.79C561.41 113.971 561.374 114.15 561.305 114.317C561.235 114.483 561.133 114.635 561.005 114.762C560.877 114.89 560.725 114.99 560.557 115.059C560.39 115.127 560.211 115.161 560.03 115.16C559.484 115.109 558.942 115.015 558.41 114.88C557.748 114.785 557.079 114.738 556.41 114.74C553.23 114.74 551.66 116.14 551.66 119.39V135.77C551.669 135.958 551.641 136.146 551.576 136.323C551.511 136.499 551.411 136.661 551.282 136.798C551.154 136.936 550.998 137.045 550.826 137.121C550.654 137.197 550.468 137.238 550.28 137.24C549.902 137.227 549.545 137.065 549.287 136.79C549.028 136.514 548.889 136.148 548.9 135.77V119.25C548.9 114.69 551.56 111.98 556.36 111.98C557.677 111.965 558.991 112.116 560.27 112.43Z" fill="#FF5100"/>
<path d="M454.16 15.4299C450.518 15.4455 446.916 16.1856 443.563 17.6072C440.21 19.0287 437.173 21.1032 434.63 23.7099C431.53 18.8799 426.36 15.4299 417.16 15.4299C409.58 15.4299 402.8 17.7299 398.43 21.0599C396.94 22.2099 396.48 22.8999 396.48 24.3999V73.6399C396.45 74.2018 396.643 74.7526 397.018 75.1723C397.393 75.592 397.918 75.8464 398.48 75.8799C398.771 75.8863 399.06 75.8318 399.329 75.72C399.597 75.6081 399.839 75.4415 400.04 75.2306C400.241 75.0198 400.395 74.7694 400.493 74.4955C400.591 74.2215 400.631 73.9301 400.61 73.6399V24.6399C403.7 22.2399 408.96 19.7199 416.98 19.7199C426.71 19.7199 433.12 24.9899 433.12 37.0099V73.6099C433.113 73.9056 433.166 74.1997 433.274 74.4749C433.383 74.75 433.545 75.0007 433.752 75.2121C433.959 75.4236 434.206 75.5916 434.479 75.7063C434.751 75.821 435.044 75.88 435.34 75.8799C435.613 75.8585 435.878 75.7835 436.122 75.6592C436.365 75.535 436.582 75.364 436.759 75.1559C436.937 74.9479 437.071 74.7069 437.156 74.4468C437.24 74.1866 437.272 73.9125 437.25 73.6399V37.6399C437.334 34.3222 436.912 31.011 436 27.8199C438.92 24.5599 445.44 19.5499 454.07 19.5499C464.44 19.5499 470.38 24.7899 470.38 37.2699V73.7399C470.375 74.0433 470.435 74.3442 470.556 74.6224C470.677 74.9006 470.857 75.1495 471.082 75.3524C471.308 75.5553 471.574 75.7074 471.864 75.7984C472.153 75.8894 472.459 75.9172 472.76 75.8799C473.268 75.7805 473.724 75.5035 474.046 75.0986C474.369 74.6937 474.537 74.1873 474.52 73.6699V37.1499C474.5 22.8999 467.72 15.4299 454.16 15.4299Z" fill="#623F99"/>
<path d="M504.72 15.49C498.585 15.546 492.536 16.9454 487 19.59C486.606 19.7731 486.269 20.0612 486.027 20.4228C485.786 20.7844 485.648 21.2055 485.63 21.64C485.63 21.9166 485.685 22.1905 485.791 22.4459C485.897 22.7014 486.053 22.9333 486.249 23.1285C486.445 23.3236 486.677 23.4781 486.933 23.583C487.189 23.688 487.463 23.7413 487.74 23.74C488.199 23.6958 488.645 23.5598 489.05 23.34C493.95 20.9702 499.317 19.7265 504.76 19.7C515.76 19.7 521.84 24.48 521.84 35.3V42.7C515.624 40.8511 509.193 39.8191 502.71 39.63C489.16 39.63 480.96 46.92 480.96 57.11C480.96 68.67 488.7 75.88 503.39 75.88C511.035 76.0014 518.524 73.7171 524.8 69.35C525.224 69.0942 525.567 68.7239 525.79 68.2816C526.013 67.8393 526.107 67.3431 526.06 66.85V35.19C526 21.18 517.59 15.49 504.72 15.49ZM521.8 66.42C518.65 68.99 512.12 72.29 502.91 72.29C490.08 72.29 484.25 66.54 484.25 57.39C484.25 48.93 491.48 43.8 502.09 43.8C508.86 43.8 514.22 44.85 521.8 47.06V66.42Z" fill="#623F99"/>
<path d="M534.57 15.4299C534.275 15.4305 533.982 15.492 533.712 15.6105C533.441 15.729 533.198 15.902 532.997 16.1188C532.796 16.3356 532.642 16.5914 532.544 16.8703C532.447 17.1492 532.408 17.4453 532.43 17.7399V73.5599C532.401 73.8584 532.435 74.1595 532.529 74.4441C532.624 74.7286 532.777 74.9903 532.978 75.2123C533.18 75.4342 533.425 75.6116 533.7 75.733C533.974 75.8544 534.27 75.9171 534.57 75.9171C534.87 75.9171 535.166 75.8544 535.44 75.733C535.715 75.6116 535.96 75.4342 536.162 75.2123C536.363 74.9903 536.516 74.7286 536.611 74.4441C536.705 74.1595 536.739 73.8584 536.71 73.5599V17.7399C536.734 17.445 536.696 17.1483 536.599 16.8687C536.502 16.5891 536.348 16.3327 536.147 16.1156C535.945 15.8985 535.702 15.7255 535.43 15.6075C535.159 15.4895 534.866 15.429 534.57 15.4299Z" fill="#623F99"/>
<path d="M564.24 43.5399L560.24 42.5399C553.3 40.8899 547.38 38.6099 547.38 32.0699C547.38 24.0699 552.96 19.8899 562.63 19.8899C567.029 19.8911 571.323 21.2419 574.93 23.7599C575.416 24.1001 575.988 24.2976 576.58 24.3299C576.857 24.3299 577.13 24.2753 577.386 24.1691C577.641 24.063 577.873 23.9074 578.068 23.7113C578.264 23.5153 578.418 23.2826 578.523 23.0266C578.628 22.7707 578.681 22.4965 578.68 22.2199C578.676 21.8577 578.583 21.502 578.408 21.1845C578.234 20.867 577.984 20.5975 577.68 20.3999C573.264 17.3621 568.039 15.718 562.68 15.6799C550.85 15.6799 543.22 22.1599 543.22 32.0699C543.22 41.7399 551.13 44.6399 559.44 46.7499L563.54 47.7499C571.28 49.6899 578.28 51.7499 578.28 59.1899C578.28 66.1899 572.28 71.8799 562.91 71.8799C556.667 72.0504 550.557 70.0618 545.61 66.2499C545.138 65.8257 544.542 65.5661 543.91 65.5099C543.354 65.5151 542.822 65.7377 542.427 66.1301C542.033 66.5226 541.808 67.0537 541.8 67.6099C541.807 67.9715 541.902 68.3259 542.076 68.6428C542.25 68.9598 542.499 69.2298 542.8 69.4299C548.49 73.7599 554.41 76.0999 563.05 76.0999C575.05 76.0999 582.52 69.0299 582.52 59.1899C582.4 48.3199 573.23 45.7099 564.24 43.5399Z" fill="#623F99"/>
<path d="M176.74 15.42C171.134 15.3744 165.583 16.5161 160.45 18.77C157.15 20.23 156.45 22.65 156.45 24.42C156.466 25.9124 157.073 27.3376 158.137 28.3835C159.202 29.4294 160.638 30.0107 162.13 30C163.233 29.9763 164.324 29.7562 165.35 29.35C168.959 27.8388 172.827 27.0408 176.74 27C184.67 27 188.05 30 188.05 37.15V40.26C183.717 39.0676 179.244 38.4622 174.75 38.46C167.75 38.46 161.97 40.33 158.07 43.86C156.285 45.4918 154.872 47.4883 153.927 49.714C152.981 51.9397 152.525 54.3427 152.59 56.76C152.59 68.51 161.25 75.87 175.18 75.87C185.53 75.87 193.81 72.57 197.75 69.8C198.552 69.2974 199.199 68.5833 199.621 67.7364C200.042 66.8894 200.222 65.9426 200.14 65V36.94C200.14 22.46 192.49 15.42 176.74 15.42ZM176.16 64.84C166.76 64.84 164.79 60.3 164.79 56.5C164.79 51.43 169.12 48.28 176.1 48.28C180.172 48.3483 184.212 48.9982 188.1 50.21V61.45C184.498 63.6351 180.373 64.8064 176.16 64.84Z" fill="#623F99"/>
<path d="M235.38 16.55C232.183 15.7693 228.901 15.393 225.61 15.43C213.68 15.43 206.56 22.33 206.56 33.89V69.51C206.555 71.1907 207.216 72.8049 208.399 73.9989C209.581 75.193 211.189 75.8694 212.87 75.88C213.702 75.8815 214.526 75.7169 215.293 75.3959C216.06 75.0749 216.756 74.604 217.339 74.0107C217.922 73.4175 218.381 72.7138 218.688 71.9409C218.996 71.1681 219.146 70.3416 219.13 69.51V35.57C219.13 30.11 221.38 27.79 226.64 27.79C228.074 27.7838 229.507 27.9043 230.92 28.15L231.29 28.22C232.396 28.4873 233.524 28.6513 234.66 28.71C235.445 28.6934 236.219 28.5202 236.937 28.2004C237.654 27.8807 238.301 27.421 238.838 26.8482C239.376 26.2753 239.793 25.601 240.067 24.8646C240.34 24.1283 240.463 23.3447 240.43 22.56C240.43 19.58 238.64 17.44 235.38 16.55Z" fill="#623F99"/>
<path d="M291.45 21.9099C288.03 19.4799 278.85 15.6299 268.8 15.6299C253.63 15.6299 244.18 24.1299 242.87 38.9499C242.51 43.6997 242.51 48.47 242.87 53.2199C244.21 67.6199 253 75.8799 267 75.8799C271.908 75.886 276.757 74.8069 281.2 72.7199V73.7199C281.2 81.5399 276.12 86.5899 268.27 86.5899C263.984 86.6884 259.748 85.6535 255.99 83.5899L255.59 83.3899C254.183 82.4943 252.574 81.9649 250.91 81.8499C249.362 81.847 247.876 82.4523 246.77 83.5354C245.665 84.6184 245.029 86.0925 245 87.6399C245 90.8599 247.2 92.5499 249.33 93.7799C255.094 97.1207 261.67 98.8026 268.33 98.6399C283.64 98.6399 293.93 88.2399 293.93 72.7599V27.0699C293.9 24.5499 293.26 23.1999 291.45 21.9099ZM254.64 40.1499C255.3 31.8299 259.84 27.6099 268.12 27.6099C272.486 27.6368 276.782 28.7065 280.65 30.7299V60.5699C276.862 63.0442 272.424 64.3356 267.9 64.2799C259.59 64.2799 255.25 60.1399 254.64 51.6399C254.445 47.8124 254.445 43.9774 254.64 40.1499Z" fill="#623F99"/>
<path d="M325.43 15.4299C311.43 15.4299 301.64 24.4299 300.56 38.3299C300.278 42.9552 300.261 47.5928 300.51 52.2199C301.51 66.8099 311.29 75.8799 325.96 75.8799C331.771 75.996 337.533 74.8032 342.82 72.3899C346.01 70.8199 346.68 68.5399 346.68 66.9099C346.688 65.4308 346.109 64.0088 345.071 62.9554C344.033 61.902 342.619 61.3031 341.14 61.2899C339.739 61.3682 338.372 61.7576 337.14 62.4299C333.714 63.9021 330.007 64.6052 326.28 64.4899C317.66 64.4899 312.28 59.5999 312.28 51.7399V50.3499H342C346.88 50.3499 349.67 47.6599 349.67 42.9799V39.7799C349.65 25.2199 339.92 15.4299 325.43 15.4299ZM338.22 39.7999C338.22 40.4599 338.15 40.4599 337.66 40.4599H312.35C312.35 35.6999 313.64 32.0599 316.05 29.6199C318.28 27.3399 321.49 26.1899 325.58 26.1899C327.345 26.1111 329.106 26.4012 330.752 27.0417C332.398 27.6823 333.893 28.6591 335.14 29.9099C337.42 32.3599 338.49 35.7699 338.22 39.7999Z" fill="#623F99"/>
<path d="M142.84 62.3798C141.964 62.3684 141.092 62.5036 140.26 62.7798H140.17C138.006 63.641 135.699 64.0888 133.37 64.0998C128.58 64.0998 126.25 61.5398 126.25 56.2598V26.9998H142.25C143.171 26.9906 144.078 26.7693 144.9 26.3531C145.722 25.9369 146.437 25.3369 146.99 24.5998C147.706 23.6148 148.092 22.4278 148.09 21.2098C148.1 21.0166 148.1 20.823 148.09 20.6298C148.095 20.5833 148.095 20.5364 148.09 20.4898C148.09 20.3698 148.09 20.2398 148.09 20.1198C147.824 18.7936 147.107 17.6005 146.06 16.7436C145.014 15.8866 143.703 15.4189 142.35 15.4198H126.35V10.6498C126.383 9.83263 126.251 9.01717 125.961 8.25238C125.671 7.4876 125.23 6.78928 124.663 6.19935C124.097 5.60942 123.417 5.14004 122.665 4.81941C121.912 4.49878 121.103 4.3335 120.285 4.3335C119.467 4.3335 118.658 4.49878 117.905 4.81941C117.153 5.14004 116.473 5.60942 115.907 6.19935C115.34 6.78928 114.899 7.4876 114.609 8.25238C114.319 9.01717 114.187 9.83263 114.22 10.6498V56.6498C114.22 68.6498 121.12 75.8698 132.68 75.8698C136.679 75.9218 140.644 75.1349 144.32 73.5598C146.9 72.3498 148.21 70.4698 148.21 67.9698C148.221 66.5216 147.666 65.1264 146.663 64.082C145.659 63.0376 144.287 62.4268 142.84 62.3798Z" fill="#623F99"/>
<path d="M384.79 62.38C383.914 62.3686 383.042 62.5038 382.21 62.78H382.13C379.965 63.6394 377.659 64.0871 375.33 64.1C370.53 64.1 368.21 61.54 368.21 56.26V27H384.21C385.131 26.9908 386.038 26.7695 386.86 26.3532C387.682 25.937 388.397 25.3371 388.95 24.6C389.669 23.6159 390.058 22.429 390.06 21.21C390.07 21.0168 390.07 20.8232 390.06 20.63C390.055 20.5835 390.055 20.5365 390.06 20.49L390 20.12C389.734 18.7938 389.017 17.6007 387.97 16.7438C386.924 15.8868 385.613 15.419 384.26 15.42H368.26V10.65C368.307 9.82357 368.186 8.99615 367.902 8.21846C367.618 7.44076 367.179 6.72917 366.611 6.12728C366.042 5.5254 365.357 5.04591 364.597 4.71819C363.837 4.39047 363.018 4.22144 362.19 4.22144C361.362 4.22144 360.543 4.39047 359.783 4.71819C359.023 5.04591 358.338 5.5254 357.769 6.12728C357.201 6.72917 356.762 7.44076 356.478 8.21846C356.194 8.99615 356.073 9.82357 356.12 10.65V56.65C356.12 68.65 363.02 75.87 374.59 75.87C378.589 75.9199 382.553 75.1331 386.23 73.56C388.8 72.35 390.11 70.47 390.11 67.97C390.122 66.5301 389.573 65.1421 388.58 64.0991C387.588 63.056 386.229 62.4396 384.79 62.38Z" fill="#623F99"/>
<path d="M534.57 10.64C536.343 10.64 537.78 9.2028 537.78 7.42997C537.78 5.65714 536.343 4.21997 534.57 4.21997C532.797 4.21997 531.36 5.65714 531.36 7.42997C531.36 9.2028 532.797 10.64 534.57 10.64Z" fill="#623F99"/>
<path d="M100 15.4299H91.76L93.94 7.2899C94.137 6.55516 94.1873 5.78881 94.0881 5.03461C93.9889 4.28041 93.7422 3.55313 93.3619 2.8943C92.9817 2.23547 92.4754 1.65799 91.8719 1.19482C91.2685 0.731658 90.5797 0.391886 89.845 0.194903C89.1102 -0.0020801 88.3439 -0.0524151 87.5897 0.0467716C86.8355 0.145958 86.1082 0.392724 85.4494 0.77298C84.7906 1.15324 84.2131 1.65954 83.7499 2.26297C83.2867 2.8664 82.947 3.55516 82.75 4.2899L79.75 15.4199H42.4L44.58 7.2799C44.9778 5.79602 44.7699 4.21487 44.0019 2.8843C43.234 1.55373 41.9689 0.582728 40.485 0.184903C39.0011 -0.212922 37.42 -0.0049811 36.0894 0.76298C34.7588 1.53094 33.7878 2.79602 33.39 4.2799L30.39 15.4099H19C17.4631 15.4099 15.9891 16.0204 14.9023 17.1072C13.8155 18.194 13.205 19.668 13.205 21.2049C13.205 22.7418 13.8155 24.2158 14.9023 25.3026C15.9891 26.3894 17.4631 26.9999 19 26.9999H27.27L17.27 64.2799H5.78999C4.29472 64.342 2.88133 64.9797 1.84529 66.0597C0.809256 67.1397 0.230774 68.5783 0.230774 70.0749C0.230774 71.5715 0.809256 73.0101 1.84529 74.0901C2.88133 75.1701 4.29472 75.8078 5.78999 75.8699H14.23L12.05 83.9999C11.853 84.7346 11.8027 85.501 11.9019 86.2552C12.001 87.0094 12.2478 87.7367 12.6281 88.3955C13.0083 89.0543 13.5146 89.6318 14.1181 90.095C14.7215 90.5581 15.4102 90.8979 16.145 91.0949C16.8797 91.2919 17.6461 91.3422 18.4003 91.243C19.1545 91.1438 19.8818 90.8971 20.5406 90.5168C21.1994 90.1366 21.7769 89.6303 22.2401 89.0268C22.7032 88.4234 23.043 87.7346 23.24 86.9999L26.24 75.8699H63.6L61.42 83.9999C61.0222 85.4838 61.2301 87.0649 61.9981 88.3955C62.766 89.7261 64.0311 90.6971 65.515 91.0949C66.9989 91.4927 68.58 91.2848 69.9106 90.5168C71.2412 89.7489 72.2122 88.4838 72.61 86.9999L75.61 75.8699H86.92C88.4153 75.8078 89.8287 75.1701 90.8647 74.0901C91.9007 73.0101 92.4792 71.5715 92.4792 70.0749C92.4792 68.5783 91.9007 67.1397 90.8647 66.0597C89.8287 64.9797 88.4153 64.342 86.92 64.2799H78.69L88.66 26.9999H100C101.536 26.9999 103.008 26.3899 104.094 25.3041C105.18 24.2182 105.79 22.7455 105.79 21.2099C105.79 19.6743 105.18 18.2016 104.094 17.1158C103.008 16.0299 101.536 15.4199 100 15.4199V15.4299ZM66.7 64.2899H29.32L39.3 26.9999H76.67L66.7 64.2899Z" fill="#FF5100"/>
<path d="M45.88 51.57L49.03 39.75H60.07L56.91 51.57H45.88Z" fill="#FF5100"/>
<path d="M42.5 31.26L34.84 60.06H63.42L71.14 31.26H42.5ZM60.16 55.81H40.36L45.76 35.5H65.61L60.16 55.81Z" fill="#623F99"/>
</g>
<defs>
<clipPath id="clip0">
<rect width="582.41" height="148.03" fill="white"/>
</clipPath>
</defs>
</svg>
