<svg width="196" height="72" viewBox="0 0 196 72" fill="none" xmlns="http://www.w3.org/2000/svg">
<g clip-path="url(#clip0)">
<path d="M5.50111 68.3261C5.50402 68.6881 5.43486 69.0471 5.29766 69.3821C5.16047 69.7171 4.95796 70.0214 4.70197 70.2774C4.44598 70.5334 4.14164 70.7359 3.80663 70.8731C3.47161 71.0103 3.11261 71.0795 2.7506 71.0766C2.38859 71.0795 2.0296 71.0103 1.69458 70.8731C1.35956 70.7359 1.05522 70.5334 0.799234 70.2774C0.543246 70.0214 0.340734 69.7171 0.203539 69.3821C0.0663432 69.0471 -0.00281983 68.6881 8.80258e-05 68.3261C-0.00281983 67.964 0.0663432 67.6051 0.203539 67.27C0.340734 66.935 0.543246 66.6307 0.799234 66.3747C1.05522 66.1187 1.35956 65.9162 1.69458 65.779C2.0296 65.6418 2.38859 65.5726 2.7506 65.5755C3.11261 65.5726 3.47161 65.6418 3.80663 65.779C4.14164 65.9162 4.44598 66.1187 4.70197 66.3747C4.95796 66.6307 5.16047 66.935 5.29766 67.27C5.43486 67.6051 5.50402 67.964 5.50111 68.3261ZM33.8792 68.3261C33.8821 68.6881 33.813 69.0471 33.6758 69.3821C33.5386 69.7171 33.336 70.0214 33.0801 70.2774C32.8241 70.5334 32.5197 70.7359 32.1847 70.8731C31.8497 71.0103 31.4907 71.0795 31.1287 71.0766C30.7657 71.0795 30.4056 71.0105 30.0694 70.8735C29.7332 70.7366 29.4274 70.5345 29.1697 70.2788C28.9119 70.0231 28.7074 69.7188 28.5678 69.3837C28.4282 69.0485 28.3564 68.6891 28.3564 68.3261C28.3564 67.963 28.4282 67.6036 28.5678 67.2684C28.7074 66.9333 28.9119 66.6292 29.1697 66.3735C29.4274 66.1178 29.7332 65.9155 30.0694 65.7786C30.4056 65.6417 30.7657 65.5727 31.1287 65.5755C31.4907 65.5726 31.8497 65.6418 32.1847 65.779C32.5197 65.9162 32.8241 66.1187 33.0801 66.3747C33.336 66.6307 33.5386 66.935 33.6758 67.27C33.813 67.6051 33.8821 67.964 33.8792 68.3261ZM62.2573 68.3261C62.2573 68.6891 62.1854 69.0485 62.0459 69.3837C61.9063 69.7188 61.7017 70.0231 61.444 70.2788C61.1862 70.5345 60.8805 70.7366 60.5442 70.8735C60.208 71.0105 59.848 71.0795 59.4849 71.0766C58.7555 71.0766 58.0558 70.7868 57.54 70.271C57.0242 69.7552 56.7345 69.0555 56.7345 68.3261C56.7345 67.5966 57.0242 66.897 57.54 66.3812C58.0558 65.8654 58.7555 65.5755 59.4849 65.5755C59.848 65.5727 60.208 65.6417 60.5442 65.7786C60.8805 65.9155 61.1862 66.1178 61.444 66.3735C61.7017 66.6292 61.9063 66.9333 62.0459 67.2684C62.1854 67.6036 62.2573 67.963 62.2573 68.3261ZM90.6354 68.3261C90.6383 68.6881 90.5691 69.0471 90.4319 69.3821C90.2948 69.7171 90.0922 70.0214 89.8363 70.2774C89.5803 70.5334 89.2759 70.7359 88.9409 70.8731C88.6059 71.0103 88.2469 71.0795 87.8849 71.0766C87.5229 71.0795 87.1639 71.0103 86.8289 70.8731C86.4938 70.7359 86.1895 70.5334 85.9335 70.2774C85.6775 70.0214 85.475 69.7171 85.3378 69.3821C85.2006 69.0471 85.1315 68.6881 85.1344 68.3261C85.1315 67.964 85.2006 67.6051 85.3378 67.27C85.475 66.935 85.6775 66.6307 85.9335 66.3747C86.1895 66.1187 86.4938 65.9162 86.8289 65.779C87.1639 65.6418 87.5229 65.5726 87.8849 65.5755C88.2451 65.5755 88.6017 65.6469 88.9342 65.7854C89.2667 65.9239 89.5685 66.1269 89.8221 66.3826C90.0758 66.6382 90.2763 66.9415 90.4122 67.2751C90.548 67.6087 90.6164 67.9659 90.6135 68.3261H90.6354ZM119.013 68.3261C119.016 68.6881 118.947 69.0471 118.81 69.3821C118.673 69.7171 118.47 70.0214 118.214 70.2774C117.958 70.5334 117.654 70.7359 117.319 70.8731C116.984 71.0103 116.625 71.0795 116.263 71.0766C115.901 71.0795 115.542 71.0103 115.207 70.8731C114.872 70.7359 114.568 70.5334 114.312 70.2774C114.056 70.0214 113.853 69.7171 113.716 69.3821C113.579 69.0471 113.51 68.6881 113.512 68.3261C113.51 67.964 113.579 67.6051 113.716 67.27C113.853 66.935 114.056 66.6307 114.312 66.3747C114.568 66.1187 114.872 65.9162 115.207 65.779C115.542 65.6418 115.901 65.5726 116.263 65.5755C116.623 65.5755 116.98 65.6469 117.312 65.7854C117.645 65.9239 117.947 66.1269 118.2 66.3826C118.454 66.6382 118.654 66.9415 118.79 67.2751C118.926 67.6087 118.995 67.9659 118.992 68.3261H119.013ZM147.392 68.3261C147.392 68.6891 147.32 69.0485 147.18 69.3837C147.041 69.7188 146.836 70.0231 146.578 70.2788C146.321 70.5345 146.015 70.7366 145.678 70.8735C145.342 71.0105 144.982 71.0795 144.619 71.0766C143.89 71.0766 143.19 70.7868 142.674 70.271C142.158 69.7552 141.869 69.0555 141.869 68.3261C141.869 67.5966 142.158 66.897 142.674 66.3812C143.19 65.8654 143.89 65.5755 144.619 65.5755C145.349 65.5755 146.048 65.8654 146.564 66.3812C147.08 66.897 147.37 67.5966 147.37 68.3261H147.392ZM175.77 68.3261C175.773 68.6881 175.703 69.0471 175.566 69.3821C175.429 69.7171 175.227 70.0214 174.971 70.2774C174.715 70.5334 174.41 70.7359 174.075 70.8731C173.74 71.0103 173.381 71.0795 173.019 71.0766C172.656 71.0795 172.296 71.0105 171.96 70.8735C171.624 70.7366 171.318 70.5345 171.06 70.2788C170.802 70.0231 170.598 69.7188 170.458 69.3837C170.319 69.0485 170.247 68.6891 170.247 68.3261C170.247 67.963 170.319 67.6036 170.458 67.2684C170.598 66.9333 170.802 66.6292 171.06 66.3735C171.318 66.1178 171.624 65.9155 171.96 65.7786C172.296 65.6417 172.656 65.5727 173.019 65.5755C173.377 65.5784 173.732 65.6519 174.062 65.7917C174.392 65.9314 174.691 66.1347 174.942 66.3901C175.194 66.6456 175.392 66.948 175.527 67.2802C175.661 67.6123 175.729 67.9677 175.726 68.3261H175.77ZM204.148 68.3261C204.148 68.6891 204.076 69.0485 203.936 69.3837C203.797 69.7188 203.592 70.0231 203.334 70.2788C203.077 70.5345 202.771 70.7366 202.435 70.8735C202.098 71.0105 201.738 71.0795 201.375 71.0766C200.646 71.0766 199.946 70.7868 199.43 70.271C198.915 69.7552 198.625 69.0555 198.625 68.3261C198.625 67.5966 198.915 66.897 199.43 66.3812C199.946 65.8654 200.646 65.5755 201.375 65.5755C202.101 65.5813 202.795 65.8736 203.306 66.3888C203.817 66.904 204.104 67.6003 204.104 68.3261H204.148ZM232.526 68.3261C232.529 68.6881 232.46 69.0471 232.322 69.3821C232.185 69.7171 231.983 70.0214 231.727 70.2774C231.471 70.5334 231.166 70.7359 230.831 70.8731C230.496 71.0103 230.137 71.0795 229.775 71.0766C229.413 71.0795 229.054 71.0103 228.719 70.8731C228.384 70.7359 228.08 70.5334 227.824 70.2774C227.568 70.0214 227.365 69.7171 227.228 69.3821C227.091 69.0471 227.022 68.6881 227.025 68.3261C227.022 67.964 227.091 67.6051 227.228 67.27C227.365 66.935 227.568 66.6307 227.824 66.3747C228.08 66.1187 228.384 65.9162 228.719 65.779C229.054 65.6418 229.413 65.5726 229.775 65.5755C230.495 65.587 231.181 65.8827 231.684 66.3979C232.187 66.9131 232.466 67.6061 232.46 68.3261H232.526ZM260.904 68.3261C260.907 68.6881 260.838 69.0471 260.701 69.3821C260.563 69.7171 260.361 70.0214 260.105 70.2774C259.849 70.5334 259.544 70.7359 259.209 70.8731C258.874 71.0103 258.515 71.0795 258.153 71.0766C257.79 71.0795 257.43 71.0105 257.094 70.8735C256.758 70.7366 256.452 70.5345 256.194 70.2788C255.937 70.0231 255.732 69.7188 255.593 69.3837C255.453 69.0485 255.381 68.6891 255.381 68.3261C255.381 67.963 255.453 67.6036 255.593 67.2684C255.732 66.9333 255.937 66.6292 256.194 66.3735C256.452 66.1178 256.758 65.9155 257.094 65.7786C257.43 65.6417 257.79 65.5727 258.153 65.5755C258.873 65.587 259.56 65.8827 260.062 66.3979C260.565 66.9131 260.844 67.6061 260.838 68.3261H260.904ZM289.282 68.3261C289.282 68.6891 289.21 69.0485 289.071 69.3837C288.931 69.7188 288.726 70.0231 288.469 70.2788C288.211 70.5345 287.905 70.7366 287.569 70.8735C287.233 71.0105 286.873 71.0795 286.51 71.0766C285.78 71.0766 285.081 70.7868 284.565 70.271C284.049 69.7552 283.759 69.0555 283.759 68.3261C283.759 67.5966 284.049 66.897 284.565 66.3812C285.081 65.8654 285.78 65.5755 286.51 65.5755C287.232 65.587 287.92 65.8818 288.426 66.3964C288.933 66.911 289.217 67.6041 289.217 68.3261H289.282Z" fill="#623F99"/>
<path d="M5.50111 35.5387C5.50402 35.9007 5.43486 36.2597 5.29766 36.5947C5.16047 36.9297 4.95796 37.2342 4.70197 37.4902C4.44598 37.7462 4.14164 37.9486 3.80663 38.0858C3.47161 38.223 3.11261 38.2921 2.7506 38.2892C2.38859 38.2921 2.0296 38.223 1.69458 38.0858C1.35956 37.9486 1.05522 37.7462 0.799234 37.4902C0.543246 37.2342 0.340734 36.9297 0.203539 36.5947C0.0663432 36.2597 -0.00281983 35.9007 8.80258e-05 35.5387C-0.00281983 35.1767 0.0663432 34.8178 0.203539 34.4828C0.340734 34.1478 0.543246 33.8433 0.799234 33.5873C1.05522 33.3314 1.35956 33.129 1.69458 32.9918C2.0296 32.8546 2.38859 32.7854 2.7506 32.7883C3.11261 32.7854 3.47161 32.8546 3.80663 32.9918C4.14164 33.129 4.44598 33.3314 4.70197 33.5873C4.95796 33.8433 5.16047 34.1478 5.29766 34.4828C5.43486 34.8178 5.50402 35.1767 5.50111 35.5387ZM33.8792 35.5387C33.8821 35.9007 33.813 36.2597 33.6758 36.5947C33.5386 36.9297 33.336 37.2342 33.0801 37.4902C32.8241 37.7462 32.5197 37.9486 32.1847 38.0858C31.8497 38.223 31.4907 38.2921 31.1287 38.2892C30.7657 38.2921 30.4056 38.2231 30.0694 38.0862C29.7332 37.9492 29.4274 37.7471 29.1697 37.4914C28.9119 37.2357 28.7074 36.9316 28.5678 36.5965C28.4282 36.2613 28.3564 35.9017 28.3564 35.5387C28.3564 35.1757 28.4282 34.8162 28.5678 34.4811C28.7074 34.1459 28.9119 33.8418 29.1697 33.5861C29.4274 33.3304 29.7332 33.1283 30.0694 32.9914C30.4056 32.8544 30.7657 32.7854 31.1287 32.7883C31.4907 32.7854 31.8497 32.8546 32.1847 32.9918C32.5197 33.129 32.8241 33.3314 33.0801 33.5873C33.336 33.8433 33.5386 34.1478 33.6758 34.4828C33.813 34.8178 33.8821 35.1767 33.8792 35.5387ZM62.2573 35.5387C62.2573 35.9017 62.1854 36.2613 62.0459 36.5965C61.9063 36.9316 61.7017 37.2357 61.444 37.4914C61.1862 37.7471 60.8805 37.9492 60.5442 38.0862C60.208 38.2231 59.848 38.2921 59.4849 38.2892C58.7555 38.2892 58.0558 37.9995 57.54 37.4837C57.0242 36.9679 56.7345 36.2682 56.7345 35.5387C56.7345 34.8092 57.0242 34.1097 57.54 33.5939C58.0558 33.0781 58.7555 32.7883 59.4849 32.7883C59.848 32.7854 60.208 32.8544 60.5442 32.9914C60.8805 33.1283 61.1862 33.3304 61.444 33.5861C61.7017 33.8418 61.9063 34.1459 62.0459 34.4811C62.1854 34.8162 62.2573 35.1757 62.2573 35.5387ZM90.6354 35.5387C90.6383 35.9007 90.5691 36.2597 90.4319 36.5947C90.2948 36.9297 90.0922 37.2342 89.8363 37.4902C89.5803 37.7462 89.2759 37.9486 88.9409 38.0858C88.6059 38.223 88.2469 38.2921 87.8849 38.2892C87.5229 38.2921 87.1639 38.223 86.8289 38.0858C86.4938 37.9486 86.1895 37.7462 85.9335 37.4902C85.6775 37.2342 85.475 36.9297 85.3378 36.5947C85.2006 36.2597 85.1315 35.9007 85.1344 35.5387C85.1315 35.1767 85.2006 34.8178 85.3378 34.4828C85.475 34.1478 85.6775 33.8433 85.9335 33.5873C86.1895 33.3314 86.4938 33.129 86.8289 32.9918C87.1639 32.8546 87.5229 32.7854 87.8849 32.7883C88.2451 32.7883 88.6017 32.8595 88.9342 32.998C89.2667 33.1365 89.5685 33.3395 89.8221 33.5952C90.0758 33.8509 90.2763 34.1543 90.4122 34.4879C90.548 34.8215 90.6164 35.1785 90.6135 35.5387H90.6354ZM119.013 35.5387C119.016 35.9007 118.947 36.2597 118.81 36.5947C118.673 36.9297 118.47 37.2342 118.214 37.4902C117.958 37.7462 117.654 37.9486 117.319 38.0858C116.984 38.223 116.625 38.2921 116.263 38.2892C115.901 38.2921 115.542 38.223 115.207 38.0858C114.872 37.9486 114.568 37.7462 114.312 37.4902C114.056 37.2342 113.853 36.9297 113.716 36.5947C113.579 36.2597 113.51 35.9007 113.512 35.5387C113.51 35.1767 113.579 34.8178 113.716 34.4828C113.853 34.1478 114.056 33.8433 114.312 33.5873C114.568 33.3314 114.872 33.129 115.207 32.9918C115.542 32.8546 115.901 32.7854 116.263 32.7883C116.623 32.7883 116.98 32.8595 117.312 32.998C117.645 33.1365 117.947 33.3395 118.2 33.5952C118.454 33.8509 118.654 34.1543 118.79 34.4879C118.926 34.8215 118.995 35.1785 118.992 35.5387H119.013ZM147.392 35.5387C147.392 35.9017 147.32 36.2613 147.18 36.5965C147.041 36.9316 146.836 37.2357 146.578 37.4914C146.321 37.7471 146.015 37.9492 145.678 38.0862C145.342 38.2231 144.982 38.2921 144.619 38.2892C143.89 38.2892 143.19 37.9995 142.674 37.4837C142.158 36.9679 141.869 36.2682 141.869 35.5387C141.869 34.8092 142.158 34.1097 142.674 33.5939C143.19 33.0781 143.89 32.7883 144.619 32.7883C145.349 32.7883 146.048 33.0781 146.564 33.5939C147.08 34.1097 147.37 34.8092 147.37 35.5387H147.392ZM175.77 35.5387C175.773 35.9007 175.703 36.2597 175.566 36.5947C175.429 36.9297 175.227 37.2342 174.971 37.4902C174.715 37.7462 174.41 37.9486 174.075 38.0858C173.74 38.223 173.381 38.2921 173.019 38.2892C172.656 38.2921 172.296 38.2231 171.96 38.0862C171.624 37.9492 171.318 37.7471 171.06 37.4914C170.802 37.2357 170.598 36.9316 170.458 36.5965C170.319 36.2613 170.247 35.9017 170.247 35.5387C170.247 35.1757 170.319 34.8162 170.458 34.4811C170.598 34.1459 170.802 33.8418 171.06 33.5861C171.318 33.3304 171.624 33.1283 171.96 32.9914C172.296 32.8544 172.656 32.7854 173.019 32.7883C173.377 32.7912 173.732 32.8645 174.062 33.0043C174.392 33.1441 174.691 33.3475 174.942 33.6029C175.194 33.8583 175.392 34.1608 175.527 34.4929C175.661 34.8251 175.729 35.1804 175.726 35.5387H175.77ZM204.148 35.5387C204.148 35.9017 204.076 36.2613 203.936 36.5965C203.797 36.9316 203.592 37.2357 203.334 37.4914C203.077 37.7471 202.771 37.9492 202.435 38.0862C202.098 38.2231 201.738 38.2921 201.375 38.2892C200.646 38.2892 199.946 37.9995 199.43 37.4837C198.915 36.9679 198.625 36.2682 198.625 35.5387C198.625 34.8092 198.915 34.1097 199.43 33.5939C199.946 33.0781 200.646 32.7883 201.375 32.7883C202.101 32.7941 202.795 33.0864 203.306 33.6016C203.817 34.1168 204.104 34.813 204.104 35.5387H204.148ZM232.526 35.5387C232.529 35.9007 232.46 36.2597 232.322 36.5947C232.185 36.9297 231.983 37.2342 231.727 37.4902C231.471 37.7462 231.166 37.9486 230.831 38.0858C230.496 38.223 230.137 38.2921 229.775 38.2892C229.413 38.2921 229.054 38.223 228.719 38.0858C228.384 37.9486 228.08 37.7462 227.824 37.4902C227.568 37.2342 227.365 36.9297 227.228 36.5947C227.091 36.2597 227.022 35.9007 227.025 35.5387C227.022 35.1767 227.091 34.8178 227.228 34.4828C227.365 34.1478 227.568 33.8433 227.824 33.5873C228.08 33.3314 228.384 33.129 228.719 32.9918C229.054 32.8546 229.413 32.7854 229.775 32.7883C230.495 32.7998 231.181 33.0953 231.684 33.6105C232.187 34.1257 232.466 34.8187 232.46 35.5387H232.526ZM260.904 35.5387C260.907 35.9007 260.838 36.2597 260.701 36.5947C260.563 36.9297 260.361 37.2342 260.105 37.4902C259.849 37.7462 259.544 37.9486 259.209 38.0858C258.874 38.223 258.515 38.2921 258.153 38.2892C257.79 38.2921 257.43 38.2231 257.094 38.0862C256.758 37.9492 256.452 37.7471 256.194 37.4914C255.937 37.2357 255.732 36.9316 255.593 36.5965C255.453 36.2613 255.381 35.9017 255.381 35.5387C255.381 35.1757 255.453 34.8162 255.593 34.4811C255.732 34.1459 255.937 33.8418 256.194 33.5861C256.452 33.3304 256.758 33.1283 257.094 32.9914C257.43 32.8544 257.79 32.7854 258.153 32.7883C258.873 32.7998 259.56 33.0953 260.062 33.6105C260.565 34.1257 260.844 34.8187 260.838 35.5387H260.904ZM289.282 35.5387C289.282 35.9017 289.21 36.2613 289.071 36.5965C288.931 36.9316 288.726 37.2357 288.469 37.4914C288.211 37.7471 287.905 37.9492 287.569 38.0862C287.233 38.2231 286.873 38.2921 286.51 38.2892C285.78 38.2892 285.081 37.9995 284.565 37.4837C284.049 36.9679 283.759 36.2682 283.759 35.5387C283.759 34.8092 284.049 34.1097 284.565 33.5939C285.081 33.0781 285.78 32.7883 286.51 32.7883C287.232 32.7998 287.92 33.0946 288.426 33.6092C288.933 34.1238 289.217 34.8167 289.217 35.5387H289.282Z" fill="#623F99"/>
<path d="M5.50111 2.75086C5.50402 3.11287 5.43486 3.47187 5.29766 3.80689C5.16047 4.14191 4.95796 4.44624 4.70197 4.70223C4.44598 4.95822 4.14164 5.16073 3.80663 5.29793C3.47161 5.43512 3.11261 5.50428 2.7506 5.50138C2.38859 5.50428 2.0296 5.43512 1.69458 5.29793C1.35956 5.16073 1.05522 4.95822 0.799234 4.70223C0.543246 4.44624 0.340734 4.14191 0.203539 3.80689C0.0663432 3.47187 -0.00281983 3.11287 8.80258e-05 2.75086C-0.00281983 2.38885 0.0663432 2.02986 0.203539 1.69484C0.340734 1.35982 0.543246 1.05549 0.799234 0.799497C1.05522 0.543509 1.35956 0.340997 1.69458 0.203801C2.0296 0.066606 2.38859 -0.00255728 2.7506 0.000350475C3.11261 -0.00255728 3.47161 0.066606 3.80663 0.203801C4.14164 0.340997 4.44598 0.543509 4.70197 0.799497C4.95796 1.05549 5.16047 1.35982 5.29766 1.69484C5.43486 2.02986 5.50402 2.38885 5.50111 2.75086ZM33.8792 2.75086C33.8821 3.11287 33.813 3.47187 33.6758 3.80689C33.5386 4.14191 33.336 4.44624 33.0801 4.70223C32.8241 4.95822 32.5197 5.16073 32.1847 5.29793C31.8497 5.43512 31.4907 5.50428 31.1287 5.50138C30.7657 5.50426 30.4056 5.43513 30.0694 5.29819C29.7332 5.16126 29.4274 4.95912 29.1697 4.70343C28.9119 4.44774 28.7074 4.14362 28.5678 3.80849C28.4282 3.47335 28.3564 3.11391 28.3564 2.75086C28.3564 2.38782 28.4282 2.02838 28.5678 1.69324C28.7074 1.3581 28.9119 1.05386 29.1697 0.798165C29.4274 0.54247 29.7332 0.340336 30.0694 0.203402C30.4056 0.0664668 30.7657 -0.00253057 31.1287 0.000350475C31.4907 -0.00255728 31.8497 0.066606 32.1847 0.203801C32.5197 0.340997 32.8241 0.543509 33.0801 0.799497C33.336 1.05549 33.5386 1.35982 33.6758 1.69484C33.813 2.02986 33.8821 2.38885 33.8792 2.75086ZM62.2573 2.75086C62.2573 3.11391 62.1854 3.47335 62.0459 3.80849C61.9063 4.14362 61.7017 4.44774 61.444 4.70343C61.1862 4.95912 60.8805 5.16126 60.5442 5.29819C60.208 5.43513 59.848 5.50426 59.4849 5.50138C58.7555 5.50138 58.0558 5.21152 57.54 4.6957C57.0242 4.17988 56.7345 3.48034 56.7345 2.75086C56.7345 2.02139 57.0242 1.32171 57.54 0.805892C58.0558 0.290075 58.7555 0.000350475 59.4849 0.000350475C59.848 -0.00253057 60.208 0.0664668 60.5442 0.203402C60.8805 0.340336 61.1862 0.54247 61.444 0.798165C61.7017 1.05386 61.9063 1.3581 62.0459 1.69324C62.1854 2.02838 62.2573 2.38782 62.2573 2.75086ZM90.6354 2.75086C90.6383 3.11287 90.5691 3.47187 90.4319 3.80689C90.2948 4.14191 90.0922 4.44624 89.8363 4.70223C89.5803 4.95822 89.2759 5.16073 88.9409 5.29793C88.6059 5.43512 88.2469 5.50428 87.8849 5.50138C87.5229 5.50428 87.1639 5.43512 86.8289 5.29793C86.4938 5.16073 86.1895 4.95822 85.9335 4.70223C85.6775 4.44624 85.475 4.14191 85.3378 3.80689C85.2006 3.47187 85.1315 3.11287 85.1344 2.75086C85.1315 2.38885 85.2006 2.02986 85.3378 1.69484C85.475 1.35982 85.6775 1.05549 85.9335 0.799497C86.1895 0.543509 86.4938 0.340997 86.8289 0.203801C87.1639 0.066606 87.5229 -0.00255728 87.8849 0.000350475C88.2451 0.000339031 88.6017 0.0715723 88.9342 0.210063C89.2667 0.348555 89.5685 0.551528 89.8221 0.807225C90.0758 1.06292 90.2763 1.36632 90.4122 1.6999C90.548 2.03348 90.6164 2.3907 90.6135 2.75086H90.6354ZM119.013 2.75086C119.016 3.11287 118.947 3.47187 118.81 3.80689C118.673 4.14191 118.47 4.44624 118.214 4.70223C117.958 4.95822 117.654 5.16073 117.319 5.29793C116.984 5.43512 116.625 5.50428 116.263 5.50138C115.901 5.50428 115.542 5.43512 115.207 5.29793C114.872 5.16073 114.568 4.95822 114.312 4.70223C114.056 4.44624 113.853 4.14191 113.716 3.80689C113.579 3.47187 113.51 3.11287 113.512 2.75086C113.51 2.38885 113.579 2.02986 113.716 1.69484C113.853 1.35982 114.056 1.05549 114.312 0.799497C114.568 0.543509 114.872 0.340997 115.207 0.203801C115.542 0.066606 115.901 -0.00255728 116.263 0.000350475C116.623 0.000339031 116.98 0.0715723 117.312 0.210063C117.645 0.348555 117.947 0.551528 118.2 0.807225C118.454 1.06292 118.654 1.36632 118.79 1.6999C118.926 2.03348 118.995 2.3907 118.992 2.75086H119.013ZM147.392 2.75086C147.392 3.11391 147.32 3.47335 147.18 3.80849C147.041 4.14362 146.836 4.44774 146.578 4.70343C146.321 4.95912 146.015 5.16126 145.678 5.29819C145.342 5.43513 144.982 5.50426 144.619 5.50138C143.89 5.50138 143.19 5.21152 142.674 4.6957C142.158 4.17988 141.869 3.48034 141.869 2.75086C141.869 2.02139 142.158 1.32171 142.674 0.805892C143.19 0.290075 143.89 0.000350475 144.619 0.000350475C145.349 0.000350475 146.048 0.290075 146.564 0.805892C147.08 1.32171 147.37 2.02139 147.37 2.75086H147.392ZM175.77 2.75086C175.773 3.11287 175.703 3.47187 175.566 3.80689C175.429 4.14191 175.227 4.44624 174.971 4.70223C174.715 4.95822 174.41 5.16073 174.075 5.29793C173.74 5.43512 173.381 5.50428 173.019 5.50138C172.656 5.50426 172.296 5.43513 171.96 5.29819C171.624 5.16126 171.318 4.95912 171.06 4.70343C170.802 4.44774 170.598 4.14362 170.458 3.80849C170.319 3.47335 170.247 3.11391 170.247 2.75086C170.247 2.38782 170.319 2.02838 170.458 1.69324C170.598 1.3581 170.802 1.05386 171.06 0.798165C171.318 0.54247 171.624 0.340336 171.96 0.203402C172.296 0.0664668 172.656 -0.00253057 173.019 0.000350475C173.377 0.00320578 173.732 0.0765529 174.062 0.216325C174.392 0.356098 174.691 0.559543 174.942 0.814952C175.194 1.07036 175.392 1.37281 175.527 1.70497C175.661 2.03712 175.729 2.39253 175.726 2.75086H175.77ZM204.148 2.75086C204.148 3.11391 204.076 3.47335 203.936 3.80849C203.797 4.14362 203.592 4.44774 203.334 4.70343C203.077 4.95912 202.771 5.16126 202.435 5.29819C202.098 5.43513 201.738 5.50426 201.375 5.50138C200.646 5.50138 199.946 5.21152 199.43 4.6957C198.915 4.17988 198.625 3.48034 198.625 2.75086C198.625 2.02139 198.915 1.32171 199.43 0.805892C199.946 0.290075 200.646 0.000350475 201.375 0.000350475C202.101 0.00611019 202.795 0.298426 203.306 0.81362C203.817 1.32881 204.104 2.02515 204.104 2.75086H204.148ZM232.526 2.75086C232.529 3.11287 232.46 3.47187 232.322 3.80689C232.185 4.14191 231.983 4.44624 231.727 4.70223C231.471 4.95822 231.166 5.16073 230.831 5.29793C230.496 5.43512 230.137 5.50428 229.775 5.50138C229.413 5.50428 229.054 5.43512 228.719 5.29793C228.384 5.16073 228.08 4.95822 227.824 4.70223C227.568 4.44624 227.365 4.14191 227.228 3.80689C227.091 3.47187 227.022 3.11287 227.025 2.75086C227.022 2.38885 227.091 2.02986 227.228 1.69484C227.365 1.35982 227.568 1.05549 227.824 0.799497C228.08 0.543509 228.384 0.340997 228.719 0.203801C229.054 0.066606 229.413 -0.00255728 229.775 0.000350475C230.495 0.0118465 231.181 0.307347 231.684 0.822547C232.187 1.33775 232.466 2.03091 232.46 2.75086H232.526ZM260.904 2.75086C260.907 3.11287 260.838 3.47187 260.701 3.80689C260.563 4.14191 260.361 4.44624 260.105 4.70223C259.849 4.95822 259.544 5.16073 259.209 5.29793C258.874 5.43512 258.515 5.50428 258.153 5.50138C257.79 5.50426 257.43 5.43513 257.094 5.29819C256.758 5.16126 256.452 4.95912 256.194 4.70343C255.937 4.44774 255.732 4.14362 255.593 3.80849C255.453 3.47335 255.381 3.11391 255.381 2.75086C255.381 2.38782 255.453 2.02838 255.593 1.69324C255.732 1.3581 255.937 1.05386 256.194 0.798165C256.452 0.54247 256.758 0.340336 257.094 0.203402C257.43 0.0664668 257.79 -0.00253057 258.153 0.000350475C258.873 0.0118465 259.56 0.307347 260.062 0.822547C260.565 1.33775 260.844 2.03091 260.838 2.75086H260.904ZM289.282 2.75086C289.282 3.11391 289.21 3.47335 289.071 3.80849C288.931 4.14362 288.726 4.44774 288.469 4.70343C288.211 4.95912 287.905 5.16126 287.569 5.29819C287.233 5.43513 286.873 5.50426 286.51 5.50138C285.78 5.50138 285.081 5.21152 284.565 4.6957C284.049 4.17988 283.759 3.48034 283.759 2.75086C283.759 2.02139 284.049 1.32171 284.565 0.805892C285.081 0.290075 285.78 0.000350475 286.51 0.000350475C287.232 0.0118108 287.92 0.306634 288.426 0.821214C288.933 1.33579 289.217 2.02889 289.217 2.75086H289.282Z" fill="#FF5100"/>
</g>
<defs>
<clipPath id="clip0">
<rect width="71.0765" height="289.282" fill="white" transform="translate(0 71.0767) rotate(-90)"/>
</clipPath>
</defs>
</svg>
