<svg width="264" height="103" viewBox="0 0 264 103" fill="none" xmlns="http://www.w3.org/2000/svg">
<path d="M175.087 61.6798L206.918 37.9122C198.002 47.8818 187.179 55.9635 175.087 61.6798Z" fill="#B6B8D6"/>
<path d="M154.313 68.9045L219.62 20.1065C218.361 22.3353 217.037 24.5144 215.629 26.6361L161.722 66.9133C159.273 67.6797 156.801 68.3495 154.313 68.9045Z" fill="#B6B8D6"/>
<path d="M140.262 71.0966L225.648 7.26833C225.186 8.34625 224.715 9.44251 224.245 10.5387C223.978 11.1599 223.712 11.781 223.461 12.3657L145.797 70.3993C143.982 70.7457 142.124 70.9434 140.262 71.0966Z" fill="#B6B8D6"/>
<path d="M128.774 71.4023L229.255 -3.70969C228.863 -2.19058 228.434 -0.687077 227.961 0.818949L133.47 71.4487C131.867 71.4532 130.29 71.4473 128.774 71.4023Z" fill="#B6B8D6"/>
<path d="M118.705 70.5654L231.28 -13.571C231.065 -12.2137 230.824 -10.8459 230.571 -9.54863L122.869 70.9457C121.459 70.9033 120.097 70.7513 118.705 70.5654Z" fill="#B6B8D6"/>
<path d="M109.75 68.951L232.265 -22.6234C232.197 -21.3548 232.092 -20.1018 231.961 -18.8384L113.464 69.7227C112.276 69.5159 110.987 69.2439 109.75 68.951Z" fill="#B6B8D6"/>
<path d="M101.596 66.7289L232.457 -31.0862C232.49 -29.9037 232.479 -28.7185 232.468 -27.5334L105.041 67.7745L101.596 66.7289Z" fill="#B6B8D6"/>
<path d="M94.1074 64.0134L231.99 -39.0745C232.099 -37.9676 232.175 -36.8319 232.273 -35.7512L97.2394 65.1842L94.1074 64.0134Z" fill="#B6B8D6"/>
<path d="M87.1725 60.8647L230.928 -46.5826C231.105 -45.5331 231.282 -44.4836 231.444 -43.3976L90.0512 62.273C89.0803 61.8132 88.1095 61.3533 87.1725 60.8647Z" fill="#B6B8D6"/>
<path d="M80.7083 57.3773L229.37 -53.7409C229.634 -52.741 229.871 -51.7306 230.09 -50.7281L83.4251 58.9108C82.4333 58.3987 81.6034 57.9128 80.7083 57.3773Z" fill="#B6B8D6"/>
<path d="M74.7398 53.54L227.371 -60.5263C227.694 -59.5655 227.981 -58.6204 228.297 -57.6413L77.2973 55.2431C76.3735 54.6737 75.6036 54.1486 74.7398 53.54Z" fill="#B6B8D6"/>
<path d="M69.1446 49.387L224.959 -67.0561L226.002 -64.4452L71.4176 51.0978C70.632 50.6093 69.9196 50.0008 69.1446 49.387Z" fill="#B6B8D6"/>
<path d="M63.978 44.9417L222.14 -73.2415C222.591 -72.3772 222.99 -71.4921 223.366 -70.5522L66.0681 47.0283C65.4236 46.211 64.6669 45.6051 63.978 44.9417Z" fill="#B6B8D6"/>
<path d="M59.1688 40.2173L219.028 -79.2496C219.503 -78.4402 219.962 -77.5942 220.411 -76.7743L61.238 42.2517L59.1688 40.2173Z" fill="#B6B8D6"/>
<path d="M54.749 35.1406L215.512 -85.0203C216.039 -84.2317 216.566 -83.4431 217.059 -82.6259L56.6041 37.3211L54.749 35.1406Z" fill="#B6B8D6"/>
<path d="M50.6344 29.957L211.611 -90.3499L213.302 -88.0885L52.3354 32.2445C51.7484 31.495 51.1875 30.7352 50.6344 29.957Z" fill="#B6B8D6"/>
<path d="M46.9014 24.4396L207.356 -95.5072C208.003 -94.7969 208.624 -94.0763 209.219 -93.3451L48.3935 26.8106L46.9014 24.4396Z" fill="#B6B8D6"/>
<path d="M43.5257 18.6432L202.769 -100.396L204.786 -98.3406L44.9186 21.1446C44.4517 20.3169 43.9665 19.4813 43.5257 18.6432Z" fill="#B6B8D6"/>
<path d="M40.5263 12.5755L197.798 -104.995C198.529 -104.378 199.262 -103.718 199.959 -103.073L41.7966 15.1107C41.3636 14.2543 40.9253 13.4606 40.5263 12.5755Z" fill="#B6B8D6"/>
<path d="M37.869 6.26473L192.469 -109.315C193.252 -108.719 194.108 -108.092 194.784 -107.5L38.9852 8.90698C38.5888 8.06625 38.2315 7.13416 37.869 6.26473Z" fill="#B6B8D6"/>
<path d="M35.6532 -0.418867L186.713 -113.342C187.563 -112.804 188.398 -112.23 189.215 -111.663L36.5657 2.39556C36.2371 1.49743 35.8852 0.502716 35.6532 -0.418867Z" fill="#B6B8D6"/>
<path d="M33.8471 -7.40255L180.53 -117.034L183.228 -115.508L34.5585 -4.37157C34.2978 -5.37757 34.0607 -6.38787 33.8471 -7.40255Z" fill="#B6B8D6"/>
<path d="M32.5029 -14.7073L173.895 -120.378C174.864 -119.963 175.85 -119.539 176.782 -118.988L33.0262 -11.5406C32.8492 -12.5901 32.6539 -13.6474 32.5029 -14.7073Z" fill="#B6B8D6"/>
<path d="M31.6736 -22.3535L166.689 -123.297C167.712 -122.858 168.736 -122.419 169.824 -122.082L31.9411 -18.9937C31.7667 -20.1502 31.7619 -21.2988 31.6736 -22.3535Z" fill="#B6B8D6"/>
<path d="M31.4788 -30.5715L158.906 -125.879C160.029 -125.571 161.161 -125.236 162.297 -124.857L31.4433 -27.0605C31.4569 -28.2012 31.413 -29.4099 31.4788 -30.5715Z" fill="#B6B8D6"/>
</svg>
