<svg width="206" height="72" viewBox="0 0 206 72" fill="none" xmlns="http://www.w3.org/2000/svg">
<g clip-path="url(#clip0)">
<path d="M-78.4989 68.3259C-78.496 68.6879 -78.5651 69.0469 -78.7023 69.382C-78.8395 69.717 -79.042 70.0213 -79.298 70.2773C-79.554 70.5333 -79.8584 70.7358 -80.1934 70.873C-80.5284 71.0102 -80.8874 71.0794 -81.2494 71.0765C-81.6114 71.0794 -81.9704 71.0102 -82.3054 70.873C-82.6404 70.7358 -82.9448 70.5333 -83.2008 70.2773C-83.4568 70.0213 -83.6593 69.717 -83.7965 69.382C-83.9337 69.0469 -84.0028 68.6879 -83.9999 68.3259C-84.0028 67.9639 -83.9337 67.6049 -83.7965 67.2699C-83.6593 66.9349 -83.4568 66.6306 -83.2008 66.3746C-82.9448 66.1186 -82.6404 65.9161 -82.3054 65.7789C-81.9704 65.6417 -81.6114 65.5725 -81.2494 65.5754C-80.8874 65.5725 -80.5284 65.6417 -80.1934 65.7789C-79.8584 65.9161 -79.554 66.1186 -79.298 66.3746C-79.042 66.6306 -78.8395 66.9349 -78.7023 67.2699C-78.5651 67.6049 -78.496 67.9639 -78.4989 68.3259ZM-50.1208 68.3259C-50.1179 68.6879 -50.187 69.0469 -50.3242 69.382C-50.4614 69.717 -50.664 70.0213 -50.9199 70.2773C-51.1759 70.5333 -51.4803 70.7358 -51.8153 70.873C-52.1503 71.0102 -52.5093 71.0794 -52.8713 71.0765C-53.2343 71.0793 -53.5944 71.0103 -53.9306 70.8734C-54.2668 70.7365 -54.5726 70.5343 -54.8303 70.2786C-55.0881 70.0229 -55.2926 69.7187 -55.4322 69.3836C-55.5718 69.0484 -55.6436 68.689 -55.6436 68.3259C-55.6436 67.9629 -55.5718 67.6034 -55.4322 67.2683C-55.2926 66.9332 -55.0881 66.6291 -54.8303 66.3734C-54.5726 66.1177 -54.2668 65.9154 -53.9306 65.7785C-53.5944 65.6415 -53.2343 65.5725 -52.8713 65.5754C-52.5093 65.5725 -52.1503 65.6417 -51.8153 65.7789C-51.4803 65.9161 -51.1759 66.1186 -50.9199 66.3746C-50.664 66.6306 -50.4614 66.9349 -50.3242 67.2699C-50.187 67.6049 -50.1179 67.9639 -50.1208 68.3259ZM-21.7427 68.3259C-21.7427 68.689 -21.8146 69.0484 -21.9541 69.3836C-22.0937 69.7187 -22.2983 70.0229 -22.556 70.2786C-22.8138 70.5343 -23.1195 70.7365 -23.4558 70.8734C-23.792 71.0103 -24.152 71.0793 -24.5151 71.0765C-25.2445 71.0765 -25.9442 70.7867 -26.46 70.2709C-26.9758 69.7551 -27.2655 69.0554 -27.2655 68.3259C-27.2655 67.5965 -26.9758 66.8969 -26.46 66.3811C-25.9442 65.8653 -25.2445 65.5754 -24.5151 65.5754C-24.152 65.5725 -23.792 65.6415 -23.4558 65.7785C-23.1195 65.9154 -22.8138 66.1177 -22.556 66.3734C-22.2983 66.6291 -22.0937 66.9332 -21.9541 67.2683C-21.8146 67.6034 -21.7427 67.9629 -21.7427 68.3259ZM6.6354 68.3259C6.63831 68.6879 6.56915 69.0469 6.43195 69.382C6.29475 69.717 6.09224 70.0213 5.83625 70.2773C5.58026 70.5333 5.27592 70.7358 4.94091 70.873C4.60589 71.0102 4.24689 71.0794 3.88489 71.0765C3.52287 71.0794 3.16388 71.0102 2.82886 70.873C2.49384 70.7358 2.18951 70.5333 1.93352 70.2773C1.67753 70.0213 1.47501 69.717 1.33782 69.382C1.20062 69.0469 1.13146 68.6879 1.13437 68.3259C1.13146 67.9639 1.20062 67.6049 1.33782 67.2699C1.47501 66.9349 1.67753 66.6306 1.93352 66.3746C2.18951 66.1186 2.49384 65.9161 2.82886 65.7789C3.16388 65.6417 3.52287 65.5725 3.88489 65.5754C4.24506 65.5754 4.60169 65.6468 4.93418 65.7853C5.26667 65.9238 5.56846 66.1267 5.82213 66.3824C6.0758 66.6381 6.27632 66.9414 6.41216 67.275C6.548 67.6086 6.61642 67.9658 6.61355 68.3259H6.6354ZM35.0135 68.3259C35.0164 68.6879 34.9472 69.0469 34.81 69.382C34.6728 69.717 34.4703 70.0213 34.2143 70.2773C33.9584 70.5333 33.654 70.7358 33.319 70.873C32.984 71.0102 32.625 71.0794 32.263 71.0765C31.901 71.0794 31.542 71.0102 31.207 70.873C30.8719 70.7358 30.5676 70.5333 30.3116 70.2773C30.0556 70.0213 29.8531 69.717 29.7159 69.382C29.5787 69.0469 29.5096 68.6879 29.5125 68.3259C29.5096 67.9639 29.5787 67.6049 29.7159 67.2699C29.8531 66.9349 30.0556 66.6306 30.3116 66.3746C30.5676 66.1186 30.8719 65.9161 31.207 65.7789C31.542 65.6417 31.901 65.5725 32.263 65.5754C32.6232 65.5754 32.9798 65.6468 33.3123 65.7853C33.6448 65.9238 33.9466 66.1267 34.2002 66.3824C34.4539 66.6381 34.6544 66.9414 34.7903 67.275C34.9261 67.6086 34.9945 67.9658 34.9916 68.3259H35.0135ZM63.3916 68.3259C63.3916 68.689 63.3197 69.0484 63.1801 69.3836C63.0405 69.7187 62.836 70.0229 62.5782 70.2786C62.3205 70.5343 62.0147 70.7365 61.6785 70.8734C61.3423 71.0103 60.9822 71.0793 60.6192 71.0765C59.8897 71.0765 59.1901 70.7867 58.6743 70.2709C58.1585 69.7551 57.8688 69.0554 57.8688 68.3259C57.8688 67.5965 58.1585 66.8969 58.6743 66.3811C59.1901 65.8653 59.8897 65.5754 60.6192 65.5754C61.3487 65.5754 62.0483 65.8653 62.5641 66.3811C63.0799 66.8969 63.3697 67.5965 63.3697 68.3259H63.3916ZM91.7697 68.3259C91.7726 68.6879 91.7034 69.0469 91.5662 69.382C91.429 69.717 91.2265 70.0213 90.9705 70.2773C90.7145 70.5333 90.4102 70.7358 90.0752 70.873C89.7402 71.0102 89.3812 71.0794 89.0191 71.0765C88.6561 71.0793 88.2961 71.0103 87.9599 70.8734C87.6236 70.7365 87.3179 70.5343 87.0601 70.2786C86.8024 70.0229 86.5978 69.7187 86.4582 69.3836C86.3186 69.0484 86.2468 68.689 86.2469 68.3259C86.2468 67.9629 86.3186 67.6034 86.4582 67.2683C86.5978 66.9332 86.8024 66.6291 87.0601 66.3734C87.3179 66.1177 87.6236 65.9154 87.9599 65.7785C88.2961 65.6415 88.6561 65.5725 89.0191 65.5754C89.3775 65.5783 89.7318 65.6518 90.0617 65.7915C90.3917 65.9313 90.6909 66.1346 90.9422 66.39C91.1936 66.6454 91.3922 66.9479 91.5266 67.28C91.6611 67.6122 91.7289 67.9676 91.726 68.3259H91.7697ZM120.148 68.3259C120.148 68.689 120.076 69.0484 119.936 69.3836C119.797 69.7187 119.592 70.0229 119.334 70.2786C119.077 70.5343 118.771 70.7365 118.435 70.8734C118.098 71.0103 117.738 71.0793 117.375 71.0765C116.646 71.0765 115.946 70.7867 115.43 70.2709C114.915 69.7551 114.625 69.0554 114.625 68.3259C114.625 67.5965 114.915 66.8969 115.43 66.3811C115.946 65.8653 116.646 65.5754 117.375 65.5754C118.101 65.5812 118.795 65.8735 119.306 66.3887C119.817 66.9039 120.104 67.6002 120.104 68.3259H120.148ZM148.526 68.3259C148.529 68.6879 148.46 69.0469 148.322 69.382C148.185 69.717 147.983 70.0213 147.727 70.2773C147.471 70.5333 147.166 70.7358 146.831 70.873C146.496 71.0102 146.137 71.0794 145.775 71.0765C145.413 71.0794 145.054 71.0102 144.719 70.873C144.384 70.7358 144.08 70.5333 143.824 70.2773C143.568 70.0213 143.365 69.717 143.228 69.382C143.091 69.0469 143.022 68.6879 143.025 68.3259C143.022 67.9639 143.091 67.6049 143.228 67.2699C143.365 66.9349 143.568 66.6306 143.824 66.3746C144.08 66.1186 144.384 65.9161 144.719 65.7789C145.054 65.6417 145.413 65.5725 145.775 65.5754C146.495 65.5869 147.181 65.8826 147.684 66.3978C148.187 66.913 148.466 67.606 148.46 68.3259H148.526ZM176.904 68.3259C176.907 68.6879 176.838 69.0469 176.701 69.382C176.563 69.717 176.361 70.0213 176.105 70.2773C175.849 70.5333 175.544 70.7358 175.209 70.873C174.874 71.0102 174.515 71.0794 174.153 71.0765C173.79 71.0793 173.43 71.0103 173.094 70.8734C172.758 70.7365 172.452 70.5343 172.194 70.2786C171.937 70.0229 171.732 69.7187 171.593 69.3836C171.453 69.0484 171.381 68.689 171.381 68.3259C171.381 67.9629 171.453 67.6034 171.593 67.2683C171.732 66.9332 171.937 66.6291 172.194 66.3734C172.452 66.1177 172.758 65.9154 173.094 65.7785C173.43 65.6415 173.79 65.5725 174.153 65.5754C174.873 65.5869 175.56 65.8826 176.062 66.3978C176.565 66.913 176.844 67.606 176.838 68.3259H176.904ZM205.282 68.3259C205.282 68.689 205.21 69.0484 205.071 69.3836C204.931 69.7187 204.726 70.0229 204.469 70.2786C204.211 70.5343 203.905 70.7365 203.569 70.8734C203.233 71.0103 202.873 71.0793 202.51 71.0765C201.78 71.0765 201.081 70.7867 200.565 70.2709C200.049 69.7551 199.759 69.0554 199.759 68.3259C199.759 67.5965 200.049 66.8969 200.565 66.3811C201.081 65.8653 201.78 65.5754 202.51 65.5754C203.232 65.5869 203.92 65.8817 204.426 66.3963C204.933 66.9109 205.217 67.604 205.217 68.3259H205.282Z" fill="#623F99"/>
<path d="M-78.4989 35.5386C-78.496 35.9006 -78.5651 36.2596 -78.7023 36.5946C-78.8395 36.9296 -79.042 37.2341 -79.298 37.4901C-79.554 37.746 -79.8584 37.9484 -80.1934 38.0856C-80.5284 38.2228 -80.8874 38.292 -81.2494 38.2891C-81.6114 38.292 -81.9704 38.2228 -82.3054 38.0856C-82.6404 37.9484 -82.9448 37.746 -83.2008 37.4901C-83.4568 37.2341 -83.6593 36.9296 -83.7965 36.5946C-83.9337 36.2596 -84.0028 35.9006 -83.9999 35.5386C-84.0028 35.1765 -83.9337 34.8177 -83.7965 34.4827C-83.6593 34.1476 -83.4568 33.8432 -83.2008 33.5872C-82.9448 33.3312 -82.6404 33.1288 -82.3054 32.9916C-81.9704 32.8544 -81.6114 32.7853 -81.2494 32.7882C-80.8874 32.7853 -80.5284 32.8544 -80.1934 32.9916C-79.8584 33.1288 -79.554 33.3312 -79.298 33.5872C-79.042 33.8432 -78.8395 34.1476 -78.7023 34.4827C-78.5651 34.8177 -78.496 35.1765 -78.4989 35.5386ZM-50.1208 35.5386C-50.1179 35.9006 -50.187 36.2596 -50.3242 36.5946C-50.4614 36.9296 -50.664 37.2341 -50.9199 37.4901C-51.1759 37.746 -51.4803 37.9484 -51.8153 38.0856C-52.1503 38.2228 -52.5093 38.292 -52.8713 38.2891C-53.2343 38.2919 -53.5944 38.2229 -53.9306 38.086C-54.2668 37.9491 -54.5726 37.7469 -54.8303 37.4913C-55.0881 37.2356 -55.2926 36.9314 -55.4322 36.5963C-55.5718 36.2612 -55.6436 35.9016 -55.6436 35.5386C-55.6436 35.1755 -55.5718 34.8161 -55.4322 34.4809C-55.2926 34.1458 -55.0881 33.8417 -54.8303 33.586C-54.5726 33.3303 -54.2668 33.1282 -53.9306 32.9912C-53.5944 32.8543 -53.2343 32.7853 -52.8713 32.7882C-52.5093 32.7853 -52.1503 32.8544 -51.8153 32.9916C-51.4803 33.1288 -51.1759 33.3312 -50.9199 33.5872C-50.664 33.8432 -50.4614 34.1476 -50.3242 34.4827C-50.187 34.8177 -50.1179 35.1765 -50.1208 35.5386ZM-21.7427 35.5386C-21.7427 35.9016 -21.8146 36.2612 -21.9541 36.5963C-22.0937 36.9314 -22.2983 37.2356 -22.556 37.4913C-22.8138 37.7469 -23.1195 37.9491 -23.4558 38.086C-23.792 38.2229 -24.152 38.2919 -24.5151 38.2891C-25.2445 38.2891 -25.9442 37.9993 -26.46 37.4835C-26.9758 36.9677 -27.2655 36.268 -27.2655 35.5386C-27.2655 34.8091 -26.9758 34.1095 -26.46 33.5937C-25.9442 33.0779 -25.2445 32.7882 -24.5151 32.7882C-24.152 32.7853 -23.792 32.8543 -23.4558 32.9912C-23.1195 33.1282 -22.8138 33.3303 -22.556 33.586C-22.2983 33.8417 -22.0937 34.1458 -21.9541 34.4809C-21.8146 34.8161 -21.7427 35.1755 -21.7427 35.5386ZM6.6354 35.5386C6.63831 35.9006 6.56915 36.2596 6.43195 36.5946C6.29475 36.9296 6.09224 37.2341 5.83625 37.4901C5.58026 37.746 5.27592 37.9484 4.94091 38.0856C4.60589 38.2228 4.24689 38.292 3.88489 38.2891C3.52287 38.292 3.16388 38.2228 2.82886 38.0856C2.49384 37.9484 2.18951 37.746 1.93352 37.4901C1.67753 37.2341 1.47501 36.9296 1.33782 36.5946C1.20062 36.2596 1.13146 35.9006 1.13437 35.5386C1.13146 35.1765 1.20062 34.8177 1.33782 34.4827C1.47501 34.1476 1.67753 33.8432 1.93352 33.5872C2.18951 33.3312 2.49384 33.1288 2.82886 32.9916C3.16388 32.8544 3.52287 32.7853 3.88489 32.7882C4.24506 32.7882 4.60169 32.8594 4.93418 32.9979C5.26667 33.1364 5.56846 33.3394 5.82213 33.595C6.0758 33.8507 6.27632 34.1541 6.41216 34.4877C6.548 34.8213 6.61642 35.1784 6.61355 35.5386H6.6354ZM35.0135 35.5386C35.0164 35.9006 34.9472 36.2596 34.81 36.5946C34.6728 36.9296 34.4703 37.2341 34.2143 37.4901C33.9584 37.746 33.654 37.9484 33.319 38.0856C32.984 38.2228 32.625 38.292 32.263 38.2891C31.901 38.292 31.542 38.2228 31.207 38.0856C30.8719 37.9484 30.5676 37.746 30.3116 37.4901C30.0556 37.2341 29.8531 36.9296 29.7159 36.5946C29.5787 36.2596 29.5096 35.9006 29.5125 35.5386C29.5096 35.1765 29.5787 34.8177 29.7159 34.4827C29.8531 34.1476 30.0556 33.8432 30.3116 33.5872C30.5676 33.3312 30.8719 33.1288 31.207 32.9916C31.542 32.8544 31.901 32.7853 32.263 32.7882C32.6232 32.7882 32.9798 32.8594 33.3123 32.9979C33.6448 33.1364 33.9466 33.3394 34.2002 33.595C34.4539 33.8507 34.6544 34.1541 34.7903 34.4877C34.9261 34.8213 34.9945 35.1784 34.9916 35.5386H35.0135ZM63.3916 35.5386C63.3916 35.9016 63.3197 36.2612 63.1801 36.5963C63.0405 36.9314 62.836 37.2356 62.5782 37.4913C62.3205 37.7469 62.0147 37.9491 61.6785 38.086C61.3423 38.2229 60.9822 38.2919 60.6192 38.2891C59.8897 38.2891 59.1901 37.9993 58.6743 37.4835C58.1585 36.9677 57.8688 36.268 57.8688 35.5386C57.8688 34.8091 58.1585 34.1095 58.6743 33.5937C59.1901 33.0779 59.8897 32.7882 60.6192 32.7882C61.3487 32.7882 62.0483 33.0779 62.5641 33.5937C63.0799 34.1095 63.3697 34.8091 63.3697 35.5386H63.3916ZM91.7697 35.5386C91.7726 35.9006 91.7034 36.2596 91.5662 36.5946C91.429 36.9296 91.2265 37.2341 90.9705 37.4901C90.7145 37.746 90.4102 37.9484 90.0752 38.0856C89.7402 38.2228 89.3812 38.292 89.0191 38.2891C88.6561 38.2919 88.2961 38.2229 87.9599 38.086C87.6236 37.9491 87.3179 37.7469 87.0601 37.4913C86.8024 37.2356 86.5978 36.9314 86.4582 36.5963C86.3186 36.2612 86.2468 35.9016 86.2469 35.5386C86.2468 35.1755 86.3186 34.8161 86.4582 34.4809C86.5978 34.1458 86.8024 33.8417 87.0601 33.586C87.3179 33.3303 87.6236 33.1282 87.9599 32.9912C88.2961 32.8543 88.6561 32.7853 89.0191 32.7882C89.3775 32.791 89.7318 32.8644 90.0617 33.0041C90.3917 33.1439 90.6909 33.3474 90.9422 33.6028C91.1936 33.8582 91.3922 34.1606 91.5266 34.4928C91.6611 34.8249 91.7289 35.1802 91.726 35.5386H91.7697ZM120.148 35.5386C120.148 35.9016 120.076 36.2612 119.936 36.5963C119.797 36.9314 119.592 37.2356 119.334 37.4913C119.077 37.7469 118.771 37.9491 118.435 38.086C118.098 38.2229 117.738 38.2919 117.375 38.2891C116.646 38.2891 115.946 37.9993 115.43 37.4835C114.915 36.9677 114.625 36.268 114.625 35.5386C114.625 34.8091 114.915 34.1095 115.43 33.5937C115.946 33.0779 116.646 32.7882 117.375 32.7882C118.101 32.7939 118.795 33.0862 119.306 33.6014C119.817 34.1166 120.104 34.8128 120.104 35.5386H120.148ZM148.526 35.5386C148.529 35.9006 148.46 36.2596 148.322 36.5946C148.185 36.9296 147.983 37.2341 147.727 37.4901C147.471 37.746 147.166 37.9484 146.831 38.0856C146.496 38.2228 146.137 38.292 145.775 38.2891C145.413 38.292 145.054 38.2228 144.719 38.0856C144.384 37.9484 144.08 37.746 143.824 37.4901C143.568 37.2341 143.365 36.9296 143.228 36.5946C143.091 36.2596 143.022 35.9006 143.025 35.5386C143.022 35.1765 143.091 34.8177 143.228 34.4827C143.365 34.1476 143.568 33.8432 143.824 33.5872C144.08 33.3312 144.384 33.1288 144.719 32.9916C145.054 32.8544 145.413 32.7853 145.775 32.7882C146.495 32.7997 147.181 33.0952 147.684 33.6104C148.187 34.1256 148.466 34.8186 148.46 35.5386H148.526ZM176.904 35.5386C176.907 35.9006 176.838 36.2596 176.701 36.5946C176.563 36.9296 176.361 37.2341 176.105 37.4901C175.849 37.746 175.544 37.9484 175.209 38.0856C174.874 38.2228 174.515 38.292 174.153 38.2891C173.79 38.2919 173.43 38.2229 173.094 38.086C172.758 37.9491 172.452 37.7469 172.194 37.4913C171.937 37.2356 171.732 36.9314 171.593 36.5963C171.453 36.2612 171.381 35.9016 171.381 35.5386C171.381 35.1755 171.453 34.8161 171.593 34.4809C171.732 34.1458 171.937 33.8417 172.194 33.586C172.452 33.3303 172.758 33.1282 173.094 32.9912C173.43 32.8543 173.79 32.7853 174.153 32.7882C174.873 32.7997 175.56 33.0952 176.062 33.6104C176.565 34.1256 176.844 34.8186 176.838 35.5386H176.904ZM205.282 35.5386C205.282 35.9016 205.21 36.2612 205.071 36.5963C204.931 36.9314 204.726 37.2356 204.469 37.4913C204.211 37.7469 203.905 37.9491 203.569 38.086C203.233 38.2229 202.873 38.2919 202.51 38.2891C201.78 38.2891 201.081 37.9993 200.565 37.4835C200.049 36.9677 199.759 36.268 199.759 35.5386C199.759 34.8091 200.049 34.1095 200.565 33.5937C201.081 33.0779 201.78 32.7882 202.51 32.7882C203.232 32.7996 203.92 33.0945 204.426 33.609C204.933 34.1236 205.217 34.8166 205.217 35.5386H205.282Z" fill="#623F99"/>
<path d="M-78.4989 2.75077C-78.496 3.11278 -78.5651 3.47178 -78.7023 3.8068C-78.8395 4.14181 -79.042 4.44615 -79.298 4.70214C-79.554 4.95813 -79.8584 5.16064 -80.1934 5.29783C-80.5284 5.43503 -80.8874 5.50419 -81.2494 5.50129C-81.6114 5.50419 -81.9704 5.43503 -82.3054 5.29783C-82.6404 5.16064 -82.9448 4.95813 -83.2008 4.70214C-83.4568 4.44615 -83.6593 4.14181 -83.7965 3.8068C-83.9337 3.47178 -84.0028 3.11278 -83.9999 2.75077C-84.0028 2.38876 -83.9337 2.02977 -83.7965 1.69475C-83.6593 1.35973 -83.4568 1.05539 -83.2008 0.799406C-82.9448 0.543417 -82.6404 0.340905 -82.3054 0.20371C-81.9704 0.0665145 -81.6114 -0.00264883 -81.2494 0.000258923C-80.8874 -0.00264883 -80.5284 0.0665145 -80.1934 0.20371C-79.8584 0.340905 -79.554 0.543417 -79.298 0.799406C-79.042 1.05539 -78.8395 1.35973 -78.7023 1.69475C-78.5651 2.02977 -78.496 2.38876 -78.4989 2.75077ZM-50.1208 2.75077C-50.1179 3.11278 -50.187 3.47178 -50.3242 3.8068C-50.4614 4.14181 -50.664 4.44615 -50.9199 4.70214C-51.1759 4.95813 -51.4803 5.16064 -51.8153 5.29783C-52.1503 5.43503 -52.5093 5.50419 -52.8713 5.50129C-53.2343 5.50417 -53.5944 5.43504 -53.9306 5.2981C-54.2668 5.16117 -54.5726 4.95903 -54.8303 4.70334C-55.0881 4.44764 -55.2926 4.14353 -55.4322 3.8084C-55.5718 3.47326 -55.6436 3.11382 -55.6436 2.75077C-55.6436 2.38773 -55.5718 2.02828 -55.4322 1.69315C-55.2926 1.35801 -55.0881 1.05377 -54.8303 0.798073C-54.5726 0.542379 -54.2668 0.340245 -53.9306 0.20331C-53.5944 0.0663753 -53.2343 -0.00262213 -52.8713 0.000258923C-52.5093 -0.00264883 -52.1503 0.0665145 -51.8153 0.20371C-51.4803 0.340905 -51.1759 0.543417 -50.9199 0.799406C-50.664 1.05539 -50.4614 1.35973 -50.3242 1.69475C-50.187 2.02977 -50.1179 2.38876 -50.1208 2.75077ZM-21.7427 2.75077C-21.7427 3.11382 -21.8146 3.47326 -21.9541 3.8084C-22.0937 4.14353 -22.2983 4.44764 -22.556 4.70334C-22.8138 4.95903 -23.1195 5.16117 -23.4558 5.2981C-23.792 5.43504 -24.152 5.50417 -24.5151 5.50129C-25.2445 5.50129 -25.9442 5.21143 -26.46 4.69561C-26.9758 4.17979 -27.2655 3.48025 -27.2655 2.75077C-27.2655 2.0213 -26.9758 1.32162 -26.46 0.805801C-25.9442 0.289984 -25.2445 0.000258923 -24.5151 0.000258923C-24.152 -0.00262213 -23.792 0.0663753 -23.4558 0.20331C-23.1195 0.340245 -22.8138 0.542379 -22.556 0.798073C-22.2983 1.05377 -22.0937 1.35801 -21.9541 1.69315C-21.8146 2.02828 -21.7427 2.38773 -21.7427 2.75077ZM6.6354 2.75077C6.63831 3.11278 6.56915 3.47178 6.43195 3.8068C6.29475 4.14181 6.09224 4.44615 5.83625 4.70214C5.58026 4.95813 5.27592 5.16064 4.94091 5.29783C4.60589 5.43503 4.24689 5.50419 3.88489 5.50129C3.52287 5.50419 3.16388 5.43503 2.82886 5.29783C2.49384 5.16064 2.18951 4.95813 1.93352 4.70214C1.67753 4.44615 1.47501 4.14181 1.33782 3.8068C1.20062 3.47178 1.13146 3.11278 1.13437 2.75077C1.13146 2.38876 1.20062 2.02977 1.33782 1.69475C1.47501 1.35973 1.67753 1.05539 1.93352 0.799406C2.18951 0.543417 2.49384 0.340905 2.82886 0.20371C3.16388 0.0665145 3.52287 -0.00264883 3.88489 0.000258923C4.24506 0.000247478 4.60169 0.0714808 4.93418 0.209972C5.26667 0.348463 5.56846 0.551437 5.82213 0.807133C6.0758 1.06283 6.27632 1.36623 6.41216 1.69981C6.548 2.03339 6.61642 2.39061 6.61355 2.75077H6.6354ZM35.0135 2.75077C35.0164 3.11278 34.9472 3.47178 34.81 3.8068C34.6728 4.14181 34.4703 4.44615 34.2143 4.70214C33.9584 4.95813 33.654 5.16064 33.319 5.29783C32.984 5.43503 32.625 5.50419 32.263 5.50129C31.901 5.50419 31.542 5.43503 31.207 5.29783C30.8719 5.16064 30.5676 4.95813 30.3116 4.70214C30.0556 4.44615 29.8531 4.14181 29.7159 3.8068C29.5787 3.47178 29.5096 3.11278 29.5125 2.75077C29.5096 2.38876 29.5787 2.02977 29.7159 1.69475C29.8531 1.35973 30.0556 1.05539 30.3116 0.799406C30.5676 0.543417 30.8719 0.340905 31.207 0.20371C31.542 0.0665145 31.901 -0.00264883 32.263 0.000258923C32.6232 0.000247478 32.9798 0.0714808 33.3123 0.209972C33.6448 0.348463 33.9466 0.551437 34.2002 0.807133C34.4539 1.06283 34.6544 1.36623 34.7903 1.69981C34.9261 2.03339 34.9945 2.39061 34.9916 2.75077H35.0135ZM63.3916 2.75077C63.3916 3.11382 63.3197 3.47326 63.1801 3.8084C63.0405 4.14353 62.836 4.44764 62.5782 4.70334C62.3205 4.95903 62.0147 5.16117 61.6785 5.2981C61.3423 5.43504 60.9822 5.50417 60.6192 5.50129C59.8897 5.50129 59.1901 5.21143 58.6743 4.69561C58.1585 4.17979 57.8688 3.48025 57.8688 2.75077C57.8688 2.0213 58.1585 1.32162 58.6743 0.805801C59.1901 0.289984 59.8897 0.000258923 60.6192 0.000258923C61.3487 0.000258923 62.0483 0.289984 62.5641 0.805801C63.0799 1.32162 63.3697 2.0213 63.3697 2.75077H63.3916ZM91.7697 2.75077C91.7726 3.11278 91.7034 3.47178 91.5662 3.8068C91.429 4.14181 91.2265 4.44615 90.9705 4.70214C90.7145 4.95813 90.4102 5.16064 90.0752 5.29783C89.7402 5.43503 89.3812 5.50419 89.0191 5.50129C88.6561 5.50417 88.2961 5.43504 87.9599 5.2981C87.6236 5.16117 87.3179 4.95903 87.0601 4.70334C86.8024 4.44764 86.5978 4.14353 86.4582 3.8084C86.3186 3.47326 86.2468 3.11382 86.2469 2.75077C86.2468 2.38773 86.3186 2.02828 86.4582 1.69315C86.5978 1.35801 86.8024 1.05377 87.0601 0.798073C87.3179 0.542379 87.6236 0.340245 87.9599 0.20331C88.2961 0.0663753 88.6561 -0.00262213 89.0191 0.000258923C89.3775 0.00311422 89.7318 0.0764613 90.0617 0.216234C90.3917 0.356007 90.6909 0.559452 90.9422 0.814861C91.1936 1.07027 91.3922 1.37271 91.5266 1.70487C91.6611 2.03703 91.7289 2.39244 91.726 2.75077H91.7697ZM120.148 2.75077C120.148 3.11382 120.076 3.47326 119.936 3.8084C119.797 4.14353 119.592 4.44764 119.334 4.70334C119.077 4.95903 118.771 5.16117 118.435 5.2981C118.098 5.43504 117.738 5.50417 117.375 5.50129C116.646 5.50129 115.946 5.21143 115.43 4.69561C114.915 4.17979 114.625 3.48025 114.625 2.75077C114.625 2.0213 114.915 1.32162 115.43 0.805801C115.946 0.289984 116.646 0.000258923 117.375 0.000258923C118.101 0.00601864 118.795 0.298334 119.306 0.813529C119.817 1.32872 120.104 2.02506 120.104 2.75077H120.148ZM148.526 2.75077C148.529 3.11278 148.46 3.47178 148.322 3.8068C148.185 4.14181 147.983 4.44615 147.727 4.70214C147.471 4.95813 147.166 5.16064 146.831 5.29783C146.496 5.43503 146.137 5.50419 145.775 5.50129C145.413 5.50419 145.054 5.43503 144.719 5.29783C144.384 5.16064 144.08 4.95813 143.824 4.70214C143.568 4.44615 143.365 4.14181 143.228 3.8068C143.091 3.47178 143.022 3.11278 143.025 2.75077C143.022 2.38876 143.091 2.02977 143.228 1.69475C143.365 1.35973 143.568 1.05539 143.824 0.799406C144.08 0.543417 144.384 0.340905 144.719 0.20371C145.054 0.0665145 145.413 -0.00264883 145.775 0.000258923C146.495 0.011755 147.181 0.307256 147.684 0.822455C148.187 1.33765 148.466 2.03082 148.46 2.75077H148.526ZM176.904 2.75077C176.907 3.11278 176.838 3.47178 176.701 3.8068C176.563 4.14181 176.361 4.44615 176.105 4.70214C175.849 4.95813 175.544 5.16064 175.209 5.29783C174.874 5.43503 174.515 5.50419 174.153 5.50129C173.79 5.50417 173.43 5.43504 173.094 5.2981C172.758 5.16117 172.452 4.95903 172.194 4.70334C171.937 4.44764 171.732 4.14353 171.593 3.8084C171.453 3.47326 171.381 3.11382 171.381 2.75077C171.381 2.38773 171.453 2.02828 171.593 1.69315C171.732 1.35801 171.937 1.05377 172.194 0.798073C172.452 0.542379 172.758 0.340245 173.094 0.20331C173.43 0.0663753 173.79 -0.00262213 174.153 0.000258923C174.873 0.011755 175.56 0.307256 176.062 0.822455C176.565 1.33765 176.844 2.03082 176.838 2.75077H176.904ZM205.282 2.75077C205.282 3.11382 205.21 3.47326 205.071 3.8084C204.931 4.14353 204.726 4.44764 204.469 4.70334C204.211 4.95903 203.905 5.16117 203.569 5.2981C203.233 5.43504 202.873 5.50417 202.51 5.50129C201.78 5.50129 201.081 5.21143 200.565 4.69561C200.049 4.17979 199.759 3.48025 199.759 2.75077C199.759 2.0213 200.049 1.32162 200.565 0.805801C201.081 0.289984 201.78 0.000258923 202.51 0.000258923C203.232 0.0117192 203.92 0.306542 204.426 0.821123C204.933 1.3357 205.217 2.0288 205.217 2.75077H205.282Z" fill="#FF5100"/>
</g>
<defs>
<clipPath id="clip0">
<rect width="71.0765" height="289.282" fill="white" transform="translate(-84 71.0765) rotate(-90)"/>
</clipPath>
</defs>
</svg>
