<svg width="36" height="36" viewBox="0 0 36 36" fill="none" xmlns="http://www.w3.org/2000/svg">
<g clip-path="url(#clip0)">
<path d="M17.5887 17.1901C19.9504 17.1901 21.9953 16.3431 23.6662 14.672C25.3371 13.0011 26.1841 10.9567 26.1841 8.5948C26.1841 6.23373 25.3371 4.18904 23.6659 2.51762C21.9948 0.84701 19.9501 0 17.5887 0C15.2269 0 13.1824 0.84701 11.5116 2.51789C9.84069 4.18876 8.99341 6.23346 8.99341 8.5948C8.99341 10.9567 9.84069 13.0014 11.5118 14.6722C13.183 16.3429 15.2277 17.1901 17.5887 17.1901Z" fill="#FF5100"/>
<path d="M32.6283 27.4408C32.5801 26.7455 32.4826 25.987 32.3391 25.186C32.1943 24.379 32.0078 23.6161 31.7845 22.9188C31.5539 22.1981 31.2403 21.4864 30.8526 20.8044C30.4501 20.0965 29.9775 19.4801 29.4471 18.9729C28.8925 18.4423 28.2135 18.0156 27.4283 17.7044C26.6458 17.3949 25.7787 17.2381 24.8511 17.2381C24.4868 17.2381 24.1345 17.3875 23.4541 17.8305C23.0353 18.1036 22.5455 18.4194 21.9988 18.7687C21.5314 19.0666 20.8981 19.3456 20.1159 19.5983C19.3527 19.8452 18.5779 19.9705 17.8131 19.9705C17.0483 19.9705 16.2737 19.8452 15.5097 19.5983C14.7283 19.3459 14.095 19.0668 13.6281 18.769C13.0866 18.4229 12.5965 18.1071 12.1715 17.8302C11.4919 17.3873 11.1394 17.2378 10.7751 17.2378C9.8472 17.2378 8.98032 17.3949 8.1981 17.7047C7.41344 18.0154 6.73415 18.442 6.179 18.9732C5.64891 19.4807 5.17599 20.0968 4.77413 20.8044C4.3867 21.4864 4.07305 22.1979 3.84217 22.9191C3.61919 23.6164 3.43269 24.379 3.28784 25.186C3.14436 25.9859 3.04689 26.7447 2.9987 27.4417C2.95133 28.1245 2.92737 28.8332 2.92737 29.549C2.92737 31.4118 3.51954 32.9199 4.68728 34.032C5.84058 35.1295 7.36661 35.6863 9.22236 35.6863H26.4054C28.2612 35.6863 29.7866 35.1298 30.9402 34.032C32.1082 32.9207 32.7004 31.4123 32.7004 29.5487C32.7001 28.8296 32.6759 28.1204 32.6283 27.4408Z" fill="#FF5100"/>
</g>
<defs>
<clipPath id="clip0">
<rect width="35.686" height="35.6862" fill="white"/>
</clipPath>
</defs>
</svg>
