<svg width="553" height="552" viewBox="0 0 553 552" fill="none" xmlns="http://www.w3.org/2000/svg">
<path fill-rule="evenodd" clip-rule="evenodd" d="M288.926 60.4039C336.645 64.8996 370.236 106.114 405.124 138.98C435.53 167.625 457.495 200.899 477.177 237.747C501.5 283.283 548.113 328.852 532.894 378.183C517.696 427.445 454.423 440.517 407.82 462.557C369.866 480.507 330.719 489.559 288.926 493.566C242.377 498.029 192.186 511.352 152.227 487.062C111.283 462.174 101.503 409.66 80.2461 366.717C54.5053 314.716 -1.63658 265.498 15.0431 209.923C31.6807 154.489 104.851 143.21 155.651 115.477C198.9 91.8659 239.869 55.7821 288.926 60.4039Z" fill="#DDE2EE"/>
<path d="M454.84 322.512C454.211 320.756 448.062 317.135 440.488 314.508C440.914 307.741 440.341 300.948 438.788 294.349C445.125 291.445 451.506 287.725 452.036 284.324C453.14 277.402 442.553 261.549 439.892 260.268C438.181 259.451 431.06 261.372 423.729 264.916C419.342 259.828 414.24 255.403 408.583 251.778C411.022 245.243 412.921 238.067 410.879 235.273C406.75 229.621 388.081 225.867 385.277 226.861C383.533 227.479 379.923 233.595 377.306 241.092C370.452 240.458 363.542 240.853 356.805 242.262C353.957 236.157 350.38 230.206 347.09 229.698C340.168 228.594 324.325 239.171 323.045 241.842C322.283 243.432 323.851 249.714 326.953 256.47C321.372 261.017 316.53 266.402 312.601 272.434C306.639 270.37 300.578 269.012 298.061 270.844C292.409 274.984 288.666 293.653 289.649 296.446C290.212 298.025 295.169 301.094 301.66 303.6C300.907 311.059 301.373 318.591 303.04 325.901C297.697 328.573 292.939 331.719 292.486 334.633C291.382 341.556 301.969 357.409 304.63 358.69C306.098 359.385 311.585 358.105 317.745 355.444C322.628 361.232 328.423 366.184 334.902 370.105C333.025 375.746 331.899 381.311 333.643 383.684C337.772 389.337 356.441 393.09 359.234 392.097C360.812 391.545 363.904 386.521 366.41 380.041C373.782 380.531 381.184 379.834 388.335 377.977C391.073 383.618 394.374 388.785 397.432 389.259C404.343 390.363 420.197 379.787 421.477 377.115C422.239 375.515 420.66 369.178 417.514 362.388C422.773 357.689 427.281 352.212 430.883 346.148C437.176 348.422 443.811 350.056 446.483 348.113C452.036 343.973 455.823 325.305 454.84 322.512ZM361.21 340.098C355.355 338.172 350.202 334.553 346.404 329.699C342.606 324.844 340.332 318.973 339.871 312.826C339.409 306.68 340.781 300.535 343.812 295.167C346.843 289.8 351.397 285.453 356.899 282.674C362.401 279.895 368.603 278.81 374.722 279.556C380.84 280.303 386.6 282.846 391.273 286.866C395.946 290.885 399.322 296.2 400.974 302.138C402.627 308.076 402.481 314.371 400.556 320.226C399.279 324.116 397.248 327.715 394.579 330.819C391.91 333.923 388.656 336.471 385.002 338.317C381.347 340.162 377.365 341.269 373.283 341.575C369.201 341.881 365.098 341.379 361.21 340.098Z" fill="#B6B8D6"/>
<path d="M357.545 352.055C349.209 349.317 341.873 344.169 336.463 337.261C331.054 330.354 327.814 321.997 327.154 313.249C326.494 304.5 328.443 295.752 332.754 288.111C337.066 280.47 343.547 274.279 351.377 270.321C359.208 266.364 368.036 264.817 376.745 265.877C385.454 266.937 393.654 270.555 400.306 276.275C406.959 281.995 411.766 289.56 414.12 298.012C416.473 306.464 416.267 315.424 413.528 323.759C409.846 334.928 401.883 344.179 391.388 349.484C380.892 354.789 368.721 355.713 357.545 352.055ZM385.045 268.382C376.831 265.685 368.002 265.483 359.673 267.803C351.345 270.123 343.891 274.86 338.254 281.416C332.618 287.971 329.051 296.051 328.006 304.633C326.961 313.216 328.484 321.915 332.383 329.632C336.281 337.349 342.38 343.736 349.909 347.987C357.437 352.238 366.057 354.161 374.678 353.514C383.3 352.866 391.535 349.677 398.344 344.349C405.153 339.022 410.23 331.795 412.932 323.582C416.545 312.564 415.638 300.562 410.409 290.213C405.181 279.863 396.058 272.012 385.045 268.382Z" fill="white"/>
<path d="M435.2 317.378L434.405 316.992C432.926 331.983 426.171 345.962 415.344 356.436C404.517 366.911 390.322 373.2 375.29 374.182C360.258 375.164 345.365 370.777 333.267 361.8C321.169 352.824 312.652 339.844 309.234 325.172L308.372 325.051C311.764 339.928 320.329 353.118 332.54 362.269C344.751 371.42 359.815 375.938 375.046 375.016C390.278 374.095 404.687 367.795 415.706 357.238C426.725 346.682 433.638 332.556 435.211 317.378H435.2Z" fill="white"/>
<path d="M349.894 250.807C363.155 246.066 377.619 245.883 390.996 250.288L391.791 250.575C391.791 250.288 391.791 249.99 391.791 249.703L391.25 249.504C377.758 245.06 363.173 245.224 349.784 249.968C349.828 250.255 349.861 250.531 349.894 250.807Z" fill="white"/>
<path d="M217.237 331.299C217.988 329.257 215.14 321.363 210.315 313.437C215.716 307.627 220.231 301.054 223.718 293.929C231.589 296.038 240.112 297.44 243.137 294.768C249.253 289.325 251.55 267.168 250.092 264.033C249.154 262.023 241.338 258.391 232.064 256.183C231.906 248.308 230.601 240.498 228.189 232.999C235.266 228.925 242.32 223.869 242.541 219.828C243.049 211.714 229.028 194.425 225.716 193.2C223.674 192.449 215.868 195.287 207.92 200.089C202.212 194.413 195.689 189.62 188.567 185.869C190.543 178.241 191.757 170.215 189.174 167.311C183.764 161.184 161.684 158.976 158.483 160.378C156.606 161.25 153.338 168.106 151.119 176.485C142.69 176.414 134.302 177.658 126.257 180.173C122.426 173.869 117.977 168.128 114.334 167.907C106.164 167.433 88.8753 181.464 87.683 184.721C87.0095 186.554 89.2286 193.045 93.203 200.111C86.9531 206.274 81.7445 213.41 77.7801 221.242C70.9905 219.674 64.3555 218.967 61.7721 221.242C55.6449 226.673 53.3486 248.842 54.8169 251.966C55.6118 253.699 61.5182 256.625 69.0475 258.822C69.1424 267.684 70.6901 276.471 73.6291 284.832C67.7227 288.519 62.5891 292.692 62.3683 296.137C61.8825 304.307 75.9143 321.595 79.1711 322.788C81.0148 323.461 87.5284 321.231 94.6272 317.268C100.911 323.194 108.1 328.08 115.923 331.741C114.201 338.851 113.318 345.983 115.725 348.687C121.156 354.803 143.325 357.1 146.46 355.643C148.337 354.77 151.627 347.915 153.857 339.414C162.099 339.088 170.244 337.509 178.012 334.733C181.976 341.456 186.756 347.881 190.598 348.113C198.767 348.599 216.056 334.512 217.237 331.299ZM119.732 277.424C115.892 271.329 113.944 264.232 114.137 257.031C114.329 249.83 116.651 242.847 120.811 236.965C124.971 231.083 130.781 226.567 137.508 223.987C144.234 221.407 151.574 220.879 158.6 222.47C165.626 224.06 172.023 227.698 176.982 232.924C181.941 238.149 185.24 244.728 186.461 251.828C187.682 258.927 186.77 266.23 183.842 272.812C180.913 279.394 176.099 284.96 170.008 288.806C165.96 291.363 161.448 293.096 156.73 293.907C152.012 294.719 147.18 294.592 142.511 293.535C137.842 292.478 133.427 290.511 129.518 287.747C125.61 284.982 122.284 281.475 119.732 277.424Z" fill="#B6B8D6"/>
<path d="M107.588 285.461C102.11 276.781 99.3287 266.672 99.597 256.411C99.8653 246.15 103.171 236.2 109.095 227.818C115.02 219.436 123.297 212.999 132.88 209.323C142.463 205.646 152.921 204.894 162.932 207.161C172.942 209.429 182.055 214.615 189.118 222.063C196.181 229.511 200.876 238.886 202.61 249.003C204.343 259.12 203.038 269.523 198.858 278.898C194.678 288.272 187.811 296.196 179.127 301.668C167.49 309 153.418 311.412 140.003 308.373C126.588 305.334 114.929 297.093 107.588 285.461ZM194.716 230.515C189.321 221.959 181.511 215.195 172.272 211.078C163.034 206.961 152.781 205.676 142.812 207.386C132.844 209.096 123.606 213.724 116.267 220.685C108.928 227.645 103.819 236.626 101.584 246.49C99.3496 256.355 100.091 266.661 103.713 276.104C107.336 285.547 113.678 293.704 121.937 299.543C130.196 305.382 140.001 308.641 150.112 308.907C160.223 309.173 170.186 306.435 178.741 301.039C190.189 293.785 198.294 282.288 201.278 269.068C204.263 255.847 201.883 241.983 194.66 230.515H194.716Z" fill="white"/>
<path d="M203.371 312.057C203.217 311.736 203.073 311.427 202.941 311.107C190.438 323.523 173.932 331.095 156.365 332.472C138.799 333.849 121.314 328.942 107.029 318.626C92.7446 308.31 82.5883 293.255 78.3716 276.147C74.1549 259.039 76.152 240.989 84.0066 225.216C83.7637 224.973 83.5319 224.719 83.3111 224.454C75.2896 240.393 73.1876 258.662 77.3797 276.006C81.5717 293.35 91.7855 308.642 106.201 319.158C120.617 329.674 138.297 334.73 156.093 333.425C173.889 332.121 190.643 324.54 203.371 312.035V312.057Z" fill="white"/>
<path d="M176.036 188.497C191.518 194.098 204.688 204.705 213.462 218.636C213.649 218.923 213.804 219.21 213.98 219.497C214.19 219.221 214.411 218.967 214.632 218.702L214.279 218.128C205.436 204.079 192.173 193.368 176.577 187.68L176.036 188.497Z" fill="white"/>
<path d="M222.404 311.494C224.877 282.072 226.136 256.161 224.546 243.244C219.512 202.275 187.253 243.244 187.253 243.244L188.301 311.494H222.404Z" fill="#29273F"/>
<path d="M253.128 311.494C250.799 284.401 249.816 259.495 251.572 243.2H203.636C203.636 243.2 206.551 278.451 213.009 311.494H253.128Z" fill="#11375B"/>
<path d="M189.692 134.953C189.692 134.953 170.593 179.488 165.747 179.488C161.872 179.488 167.204 143.123 167.204 143.123H151.218C151.218 143.123 131.103 205.443 147.1 216.826C163.097 228.208 198.215 184.611 198.215 184.611L189.692 134.953Z" fill="#F2FCFF"/>
<path d="M246.626 248.853L240.841 263.205C238.048 268.824 227.814 268.968 220.969 267.179C220.735 267.116 220.521 266.993 220.348 266.823C220.175 266.654 220.048 266.442 219.981 266.209C219.913 265.976 219.906 265.73 219.961 265.494C220.017 265.258 220.132 265.04 220.295 264.861C224.038 260.765 233.731 250.266 237.087 247.925L246.626 248.853Z" fill="#F8B68F"/>
<path d="M198.215 125.768C198.215 125.768 188.279 132.524 188.279 140.285V243.2H246.692V146.976C246.692 146.976 245.489 125.58 224.612 125.58C203.735 125.58 198.215 125.768 198.215 125.768Z" fill="#F2FCFF"/>
<path d="M189.218 243.244V150.806L187.275 150.873V243.244H189.218Z" fill="#B6B8D6"/>
<path d="M223.011 104.063L220.704 128.23C219.182 129.785 217.337 130.986 215.3 131.749C213.262 132.512 211.082 132.818 208.913 132.646C201.649 131.95 202.145 126.717 202.145 126.717L203.625 111.261L214.665 109.495L223.011 104.063Z" fill="#F4A086"/>
<path d="M202.267 115.754C200.059 115.478 198.006 114.915 197.012 113.844C191.547 102.959 201.538 75.9662 201.538 75.9662L224.524 82.4026L223.508 101.016C223.376 103.467 222.669 105.853 221.443 107.98C220.217 110.107 218.508 111.916 216.454 113.259C212.069 115.455 207.138 116.322 202.267 115.754Z" fill="#F8B68F"/>
<path d="M213.473 81.8285C208.116 82.1804 202.737 81.6697 197.542 80.316C189.516 78.108 195.599 69.5741 195.599 69.5741C195.599 69.5741 201.384 72.8861 212.269 72.3561C219.622 71.9808 221.708 70.7553 226.113 73.6809C232.108 77.6443 229.492 88.9161 229.492 88.9161L223.707 112.729L222.404 112.608C222.404 112.608 223.508 98.256 223.928 93.3321C222.824 90.9696 221.289 90.8261 220.097 91.2787C219.475 91.5465 218.94 91.9812 218.55 92.5346C218.16 93.088 217.931 93.7385 217.889 94.4141L215.493 119.486C215.493 119.486 198.867 124.84 194.925 123.206C190.984 121.572 195.477 103.246 195.477 103.246C196.957 102.828 198.528 102.876 199.98 103.381C201.431 103.887 202.692 104.826 203.592 106.072C206.804 110.488 211.574 106.68 211.574 106.68L213.473 81.8285Z" fill="#29273F"/>
<path d="M154.287 143.123L154.85 140.053C156.098 133.253 162.578 124.796 169.136 122.577H175.926L173.828 137.084L164.245 143.123H154.287Z" fill="#F8B68F"/>
<path d="M222.183 90.8371C220.395 90.517 218.507 92.0736 217.966 94.3147C217.425 96.5558 218.407 98.6203 220.174 98.9405C221.94 99.2606 223.839 97.704 224.391 95.4739C224.943 93.2438 223.961 91.1573 222.183 90.8371Z" fill="#F8B68F"/>
<path d="M171.024 135.472L157.776 143.123C157.776 143.123 166.078 143.045 166.21 143.123L180.231 131.376C180.231 131.376 179.216 129.334 176.047 131.056C174.085 132.164 172.374 133.668 171.024 135.472Z" fill="#F8B68F"/>
<path d="M240.454 132.027C240.454 132.027 273.486 168.724 273.486 190.716C273.486 212.708 246.681 251.436 246.681 251.436L233.433 247.561C233.433 247.561 245.389 199.581 245.389 186.841C245.389 174.101 220.836 155.377 220.836 155.377" fill="#F2FCFF"/>
<path d="M244.418 186.863C244.418 197.903 234.692 238.022 232.406 247.384L234.371 247.881C237.176 236.311 246.35 197.671 246.35 186.863C246.35 173.781 222.437 155.399 221.421 154.626L220.196 156.161C220.483 156.348 244.418 174.73 244.418 186.863Z" fill="#B6B8D6"/>
<path d="M179.878 111.504C179.878 111.504 182.66 125.668 173.828 137.084C173.211 137.841 172.325 138.332 171.355 138.453C169.793 138.572 168.226 138.315 166.785 137.702C166.211 137.581 165.67 137.342 165.195 137C164.719 136.658 164.321 136.22 164.025 135.715C163.874 135.411 163.811 135.071 163.844 134.733C163.878 134.395 164.005 134.074 164.212 133.805C165.99 131.144 171.488 122.036 168.993 113.933C173.673 110.179 179.878 111.504 179.878 111.504Z" fill="#F59C42"/>
<path d="M165.57 137.205C164.879 136.931 164.324 136.396 164.025 135.715C163.874 135.411 163.811 135.071 163.844 134.733C163.878 134.395 164.005 134.074 164.212 133.805C165.99 131.144 171.488 122.036 168.993 113.933C170.507 112.733 172.286 111.912 174.181 111.537C174.457 120.435 172.558 126.364 165.57 137.205Z" fill="#FF5100"/>
<path d="M172.04 123.173C171.62 125.205 170.626 126.728 169.832 126.563C169.037 126.397 168.728 124.608 169.136 122.577C169.544 120.546 170.549 119.022 171.344 119.188C172.139 119.353 172.459 121.142 172.04 123.173Z" fill="#F59C42"/>
<path d="M171.499 119.254L170.66 119.055L170.726 119.475L171.289 119.696L171.499 119.254Z" fill="#F59C42"/>
<path d="M170.019 126.563L169.004 126.364L170.163 126.198L170.019 126.563Z" fill="#E8375E"/>
<path d="M171.355 123.03C170.936 125.072 169.953 126.585 169.147 126.419C168.341 126.253 168.043 124.476 168.452 122.434C168.86 120.391 169.865 118.89 170.66 119.055C171.454 119.221 171.775 120.998 171.355 123.03Z" fill="#FFD247"/>
<path d="M183.444 99.4704H185.011C186.42 99.4407 187.783 99.9698 188.803 100.942C189.823 101.914 190.417 103.251 190.454 104.659V108.777C190.414 110.184 189.819 111.517 188.799 112.487C187.78 113.457 186.418 113.985 185.011 113.955H183.444V99.4704Z" fill="#FFD247"/>
<path d="M135.574 103.544C135.574 114.783 138.158 123.902 141.337 123.902C144.517 123.902 147.111 114.783 147.111 103.544C147.111 92.3054 144.528 83.1974 141.337 83.1974C138.147 83.1974 135.574 92.3054 135.574 103.544Z" fill="#29273F"/>
<path d="M147.365 96.048L142.806 99.0178V105.598L147.509 109.87L149.132 101.303L147.365 96.048Z" fill="white"/>
<path d="M147.111 103.544C147.111 94.105 145.29 86.1782 142.817 83.893C161.927 97.693 184.338 99.636 184.338 99.636V113.988C184.338 113.988 154.033 112.288 142.817 123.228C145.279 120.921 147.111 113.005 147.111 103.544Z" fill="#FF5100"/>
<path d="M142.187 102.297C142.187 104.118 142.463 105.609 142.806 105.609C143.148 105.609 143.435 104.129 143.435 102.297C143.435 100.464 143.148 98.9847 142.806 98.9847C142.463 98.9847 142.187 100.464 142.187 102.297Z" fill="#FFD247"/>
<path d="M161.684 132.59C162.159 132.767 163.793 133.794 169.07 133.794C172.923 133.794 174.645 129.069 175.307 126.496C175.539 125.591 175.738 124.288 174.612 123.736L168.43 122.875L161.684 132.59Z" fill="#F8B68F"/>
<path d="M312.932 121.639L286.856 138.64L294.904 159.241C295.014 159.539 295.169 159.804 295.301 160.091C295.864 160.091 296.405 160.025 297.023 160.025H297.575C304.553 160.025 310.558 164.319 314.191 170.093C318.456 169.799 322.629 168.718 326.5 166.903C329.161 165.644 331.468 164.143 332.307 162.487C335.067 147.936 312.932 121.639 312.932 121.639Z" fill="#F8B68F"/>
<path d="M346.052 126.96C346.052 126.96 349.243 157.221 342.817 176.496C345.798 179.091 356.761 190.848 360.205 175.602C363.65 160.356 356.33 121.628 356.33 121.628L346.052 126.96Z" fill="#F8B68F"/>
<path d="M330.43 124.829L324.292 128.771L326.478 133.352L333.069 130.449L330.43 124.829Z" fill="#29273F"/>
<path d="M326.809 130.338C327.428 131.729 327.472 133.065 326.909 133.319C326.346 133.573 325.396 132.623 324.789 131.221C324.182 129.819 324.127 128.495 324.69 128.241C325.253 127.987 326.18 128.936 326.809 130.338Z" fill="#29273F"/>
<path d="M404.454 102.506C404.448 102.448 404.448 102.389 404.454 102.33C402.831 98.5944 400.841 95.0295 398.514 91.6872C396.305 88.7855 394.397 85.6673 392.817 82.3805L329.492 123.836L333.599 131.564L404.454 105.388C404.387 104.429 404.387 103.466 404.454 102.506Z" fill="#043C5E"/>
<path d="M307.147 170.104L304.873 184.335H325.032L326.478 166.903L307.147 170.104Z" fill="#F4A086"/>
<path d="M359.212 205.41C359.212 205.41 383.025 197.826 390.488 187.636C397.951 177.446 385.321 121.639 385.321 121.639L386.955 111.592C387.17 110.262 387.095 108.901 386.735 107.603C386.375 106.304 385.738 105.099 384.869 104.07C384 103.04 382.919 102.21 381.699 101.638C380.479 101.065 379.151 100.762 377.803 100.751L371.444 100.696C370.839 100.697 370.244 100.849 369.712 101.138C369.181 101.428 368.73 101.845 368.401 102.353C368.072 102.861 367.875 103.443 367.828 104.046C367.781 104.649 367.886 105.255 368.132 105.807L376.5 124.575C376.5 124.575 382.782 166.848 373.983 170.049C366.736 172.454 359.234 174.01 351.627 174.686L359.212 205.41Z" fill="#F8B68F"/>
<path d="M314.478 170.104L308.35 156.525L312.336 154.019C313.761 153.123 314.842 151.772 315.405 150.186C315.968 148.599 315.98 146.869 315.438 145.275L311.077 132.48C311.077 132.48 323.486 130.956 323.111 119.398C323.111 113.447 314.919 113.414 314.919 113.414C314.919 113.414 312.468 118.735 304.873 119.364C301.616 118.956 292.652 120.159 286.613 130.703C282.55 137.801 284.327 148.907 287.871 157.199C291.04 164.673 299.132 168.846 307.147 170.071L314.478 170.104Z" fill="#29273F"/>
<path d="M341.901 318.294C342.1 317.19 342.177 316.727 342.177 316.727L329.856 284.214H290.267C290.267 284.214 290.907 298.709 293.49 318.294H341.901Z" fill="#29273F"/>
<path d="M305.061 150.199C304.332 152.341 305.811 155.167 308.373 156.525C310.934 157.883 313.583 157.243 314.312 155.101C315.041 152.959 313.572 150.122 311 148.775C308.428 147.428 305.789 148.057 305.061 150.199Z" fill="#F8B68F"/>
<path d="M348.083 284.214H290.267V210.047C290.264 202.206 293.189 194.646 298.471 188.85C303.752 183.054 311.008 179.439 318.816 178.715L359.013 173.847C359.013 173.847 363.716 181.056 376.964 197.892C361.088 207.673 342.74 212.178 342.74 212.178L348.083 284.214Z" fill="#FF6218"/>
<path d="M363.065 327.115C356.827 305.797 348.083 284.214 348.083 284.214H290.267C290.267 284.214 294.219 298.477 306.716 318.294L363.065 327.115Z" fill="#043C5E"/>
<path d="M394.749 95.6285C397.863 102.087 402.08 106.492 404.167 105.487C406.253 104.483 405.447 98.4216 402.334 91.9743C399.221 85.5269 395.003 81.1109 392.906 82.1266C390.808 83.1423 391.636 89.1811 394.749 95.6285Z" fill="#B6B8D6"/>
<path d="M343.568 114.617L344.109 114.882C345.995 115.781 348.154 115.915 350.137 115.258L350.501 115.136C352.11 114.6 353.569 113.691 354.76 112.485C355.951 111.278 356.841 109.807 357.357 108.192C357.463 107.859 357.48 107.504 357.406 107.162C357.332 106.82 357.169 106.504 356.934 106.245C356.7 105.985 356.401 105.792 356.069 105.684C355.736 105.577 355.381 105.558 355.039 105.631L351.031 106.47C349.473 106.795 348.108 107.724 347.233 109.053L343.568 114.617Z" fill="#F8B68F"/>
<path d="M215.835 389.248C215.835 389.248 127.14 331.2 142.386 261.648C263.351 243.057 281.314 362.112 281.314 362.112L215.835 389.248Z" fill="#F9725D"/>
<path d="M142.386 261.648L143.634 261.471L218.882 347.583L228.564 276.927C229.227 277.369 229.889 277.811 230.529 278.263L220.748 349.747L242.464 374.609L240.256 375.316L197.012 325.79L155.998 331.112C155.612 330.449 155.215 329.787 154.839 329.113L195.323 323.858L142.165 262.984C142.254 262.553 142.331 262.112 142.43 261.67L142.386 261.648Z" fill="white"/>
<path d="M208.427 265.203C211.861 246.181 219.39 227.413 233.941 212.708C312.899 234.534 301.947 326.298 301.947 326.298L260.393 400.067L247.244 386.886C215.416 354.98 200.412 309.562 208.427 265.203Z" fill="#623F99"/>
<path d="M206.319 283.043L245.168 301.315L232.826 213.867C233.19 213.48 233.554 213.083 233.93 212.708C234.239 212.785 234.537 212.884 234.846 212.973L241.47 259.804L267.436 229.522L268.297 230.25L269.059 230.902L241.867 262.619L252.907 340.661L300.159 288.972C300.313 289.855 300.468 290.749 300.611 291.622L253.316 343.399L261.132 398.82L260.437 400.067L258.902 398.544L245.588 303.832L206.252 285.34C206.23 284.578 206.274 283.805 206.319 283.043Z" fill="#29273F"/>
<path d="M257.103 371.275C257.103 371.275 282.693 294.624 336.9 292.008C399.739 383.309 288.048 469.675 288.048 469.675L257.103 371.275Z" fill="#B6B8D6"/>
<path d="M336.9 292.019C337.143 292.361 337.375 292.715 337.617 293.068L295.069 393.907L352.411 377.734C352.19 378.54 351.969 379.334 351.738 380.14L294.009 396.413L277.394 435.804L276.412 432.658L308.759 355.974L291.956 313.933L293.612 312.322L309.984 353.17L335.752 292.085L336.944 291.997L336.9 292.019Z" fill="white"/>
<path d="M171.366 415.468H63.1189V419.399H171.366V415.468Z" fill="#B6B8D6"/>
<path d="M55.4792 365.744H122.183L138.975 413.669H70.869L55.4792 365.744Z" fill="#623F99"/>
<path d="M58.3165 367.367H120.483L136.126 412.035H72.6685L58.3165 367.367Z" fill="#884EBC"/>
<path d="M156.672 411.626H71.6527C70.7381 411.626 69.9967 412.368 69.9967 413.282V414.331C69.9967 415.246 70.7381 415.987 71.6527 415.987H156.672C157.586 415.987 158.328 415.246 158.328 414.331V413.282C158.328 412.368 157.586 411.626 156.672 411.626Z" fill="#FF5100"/>
<path d="M71.0125 411.626H100.82C101.292 411.626 101.744 411.814 102.077 412.147C102.411 412.48 102.598 412.932 102.598 413.404V414.21C102.598 414.681 102.411 415.133 102.077 415.467C101.744 415.8 101.292 415.987 100.82 415.987H71.0125C70.746 415.987 70.4905 415.881 70.3021 415.693C70.1137 415.505 70.0078 415.249 70.0078 414.983V412.631C70.0078 412.365 70.1137 412.109 70.3021 411.921C70.4905 411.732 70.746 411.626 71.0125 411.626Z" fill="#FFDB71"/>
<path d="M132.66 413.746C132.661 413.829 132.646 413.912 132.615 413.989C132.584 414.066 132.538 414.136 132.479 414.194C132.42 414.253 132.35 414.299 132.273 414.33C132.196 414.362 132.114 414.377 132.031 414.375C131.947 414.377 131.864 414.362 131.786 414.331C131.709 414.3 131.638 414.254 131.579 414.195C131.519 414.136 131.472 414.067 131.439 413.989C131.407 413.912 131.39 413.83 131.39 413.746C131.39 413.576 131.458 413.413 131.578 413.293C131.698 413.173 131.861 413.106 132.031 413.106C132.114 413.106 132.197 413.122 132.274 413.155C132.351 413.187 132.421 413.234 132.48 413.294C132.538 413.354 132.584 413.424 132.615 413.502C132.646 413.579 132.661 413.662 132.66 413.746Z" fill="#FFDB71"/>
<path d="M128.84 413.746C128.841 413.829 128.826 413.912 128.795 413.989C128.764 414.066 128.718 414.136 128.659 414.194C128.6 414.253 128.53 414.299 128.453 414.33C128.376 414.362 128.294 414.377 128.211 414.375C128.127 414.377 128.044 414.362 127.966 414.331C127.889 414.3 127.818 414.254 127.759 414.195C127.699 414.136 127.652 414.067 127.619 413.989C127.587 413.912 127.57 413.83 127.57 413.746C127.57 413.576 127.638 413.413 127.758 413.293C127.878 413.173 128.041 413.106 128.211 413.106C128.294 413.106 128.377 413.122 128.454 413.155C128.531 413.187 128.601 413.234 128.66 413.294C128.718 413.354 128.764 413.424 128.795 413.502C128.826 413.579 128.841 413.662 128.84 413.746Z" fill="#F18812"/>
<path d="M93.0924 414.431H89.2947C89.0956 414.431 88.9046 414.351 88.7638 414.211C88.623 414.07 88.5439 413.879 88.5439 413.68C88.5468 413.482 88.6268 413.292 88.767 413.152C88.9072 413.012 89.0965 412.932 89.2947 412.929H93.0924C93.2906 412.932 93.4799 413.012 93.6201 413.152C93.7603 413.292 93.8403 413.482 93.8431 413.68C93.8431 413.778 93.8237 413.876 93.786 413.967C93.7483 414.058 93.693 414.141 93.6233 414.211C93.5536 414.28 93.4708 414.336 93.3797 414.373C93.2886 414.411 93.191 414.431 93.0924 414.431Z" fill="#FF5100"/>
<path d="M86.2918 414.431H82.4941C82.3955 414.431 82.2979 414.411 82.2068 414.373C82.1157 414.336 82.0329 414.28 81.9632 414.211C81.8935 414.141 81.8382 414.058 81.8005 413.967C81.7628 413.876 81.7433 413.778 81.7433 413.68C81.7462 413.482 81.8262 413.292 81.9664 413.152C82.1066 413.012 82.2959 412.932 82.4941 412.929H86.2918C86.49 412.932 86.6793 413.012 86.8195 413.152C86.9597 413.292 87.0397 413.482 87.0426 413.68C87.0426 413.879 86.9635 414.07 86.8227 414.211C86.6819 414.351 86.4909 414.431 86.2918 414.431Z" fill="#F18812"/>
<path d="M237.672 358.16L239.505 372.92L257.92 363.017L247.796 343.399L237.672 358.16Z" fill="#F4A086"/>
<path d="M224.027 317.842C224.027 317.842 217.403 352.551 224.027 358.16C230.651 363.768 243.181 355.212 243.181 355.212L257.92 338.001L234.338 317.842H224.027Z" fill="#F8B68F"/>
<path d="M213.705 307.343C213.705 307.343 215.913 320.789 234.338 320.789C239.052 322.357 240.123 327.921 240.145 332.569C240.145 337.956 241.857 334.357 244.738 338.917L248.536 350.851C248.536 350.851 273.398 326.188 254.972 310.721C236.546 295.254 213.705 307.343 213.705 307.343Z" fill="#29273F"/>
<path d="M227.714 398.412L211.254 419.045L156.23 413.603C156.23 413.603 142.474 401.856 133.631 402.828C124.788 403.799 121.344 408.723 121.344 408.723L152.786 421.971C152.786 421.971 198.723 447.021 222.062 438.674C245.4 430.328 254.972 415.689 254.972 415.689L227.714 398.412Z" fill="#F4A086"/>
<path d="M245.091 333.408C243.612 332.481 241.227 333.088 239.77 334.777C238.313 336.466 238.335 338.575 239.77 339.502C241.205 340.429 243.634 339.822 245.091 338.133C246.548 336.444 246.57 334.357 245.091 333.408Z" fill="#F8B68F"/>
<path d="M232.417 479.82H301.804C300.567 461.328 297.564 392.185 275.065 369.663C265.129 359.727 246.681 359.197 235.542 367.687C215.802 382.724 203.393 405.775 203.393 405.775L230.662 423.086L232.417 479.82Z" fill="#043C5E"/>
<path d="M203.393 405.775L186.933 426.409L131.876 420.977C131.876 420.977 118.12 409.22 109.277 410.202C100.434 411.185 97.0007 416.098 97.0007 416.098L128.443 429.346C128.443 429.346 174.369 454.406 197.708 446.049C221.046 437.692 230.629 423.075 230.629 423.075L203.393 405.775Z" fill="#F8B68F"/>
<path d="M379.282 351.988L371.863 368.559L359.786 357.685L368.309 333.552L379.282 351.988Z" fill="#F4A086"/>
<path d="M383.588 353.048C385.608 353.313 387.529 353.291 388.655 352.573C395.997 344.26 393.48 319.774 393.48 319.774L384.88 312.366L371.742 318.493L368.32 331.962C367.403 336.378 368.662 344.183 371.698 347.55C375.042 350.501 379.174 352.411 383.588 353.048Z" fill="#F8B68F"/>
<path d="M385.542 440.882C387.823 443.828 390.922 446.037 394.451 447.23C400.391 449.273 444.595 439.999 444.595 439.999L453.482 440.927C458.124 442.197 463.051 441.941 467.536 440.198L480.541 435.175L404.266 433.585L375.076 397.33L385.542 440.882Z" fill="#F8B68F"/>
<path d="M359.786 357.696C359.786 357.696 342.122 380.273 338.048 395.111C333.974 409.948 332.451 450.863 332.451 450.863H369.534C369.534 450.863 380.188 431.554 388.445 414C389.676 411.406 390.334 408.577 390.374 405.707C390.414 402.836 389.836 399.99 388.677 397.363C382.627 383.651 373.53 364.784 373.53 364.784L359.786 357.696Z" fill="#623F99"/>
<path d="M376.699 478.562C374.061 458.292 369.534 451.503 369.534 451.503L343.038 450.852C343.038 450.852 344.021 462.145 345.246 478.562H376.699Z" fill="#29273F"/>
<path d="M367.425 478.562C369.225 460.202 369.534 450.852 369.534 450.852H332.451C332.451 450.852 319.059 461.638 314.61 478.562H367.425Z" fill="#29273F"/>
<path d="M482.628 435.175H422.04V430.726H479.934L505.657 381.818L509.599 383.894L482.628 435.175Z" fill="#FF5100"/>
<path d="M342.994 399.052C342.994 399.052 362.347 444.106 371.643 444.106C380.938 444.106 432.429 422.081 432.429 422.081L431.071 414.353L378.499 423.252C375.331 414.536 372.695 405.636 370.605 396.601C370.017 393.825 368.636 391.279 366.629 389.272C364.622 387.265 362.076 385.884 359.3 385.296C346.836 382.967 342.994 399.052 342.994 399.052Z" fill="#F8B68F"/>
<path d="M368.673 327.568C368.673 327.568 374.414 331.034 391.978 319.774C394.672 320.469 390.378 295.154 367.69 302.595C351.782 307.795 352.543 323.196 353.283 331.719C354.078 340.926 349.287 346.998 342.961 353.733C337.651 359.374 337.728 369.763 334.195 375.349C329.845 382.216 325.231 381.818 321.775 388.796C318.165 396.093 317.679 405.013 322.515 411.571C325.264 415.292 331.667 424.278 341.802 421.077C347.498 419.277 349.033 409.341 349.276 400.973C349.41 397.299 350.341 393.699 352.003 390.421C353.665 387.142 356.019 384.264 358.903 381.984C364.367 377.634 370.34 371.673 371.941 365.424C375.076 353.203 368.673 327.568 368.673 327.568Z" fill="#29273F"/>
<path d="M366.62 328.054C367.966 327.115 370.119 327.689 371.422 329.334C372.725 330.979 372.681 333.077 371.323 334.015C369.965 334.954 367.823 334.38 366.52 332.735C365.218 331.09 365.262 328.992 366.62 328.054Z" fill="#F8B68F"/>
<path d="M459.863 418.339C459.928 417.802 459.817 417.259 459.549 416.79C459.281 416.32 458.868 415.95 458.373 415.733L448.437 411.439C445.99 410.379 443.24 410.257 440.709 411.096L430.905 414.353H429.581L428.477 423.483L431.59 422.313L437.783 420.105C437.783 420.105 451.318 431.576 456.154 421.209C457.6 431.531 460.57 430.383 460.57 430.383L459.863 418.339Z" fill="#F8B68F"/>
<path d="M359.962 318.703C361.905 325.746 371.919 329.124 382.329 326.254C392.74 323.384 398.382 315.556 397.653 308.292C396.681 298.731 385.686 297.859 375.275 300.73C364.864 303.6 358.008 311.648 359.962 318.703Z" fill="#29273F"/>
<path d="M493.381 231.067L497.973 240.109L488.336 237.901L455.337 227.501L493.381 231.067Z" fill="#B6B8D6"/>
<path d="M497.973 240.109L481.59 239.082L485.609 237.04L497.973 240.109Z" fill="#B6B8D6"/>
<path d="M493.381 231.067L496.251 222.268L455.337 227.501L493.381 231.067Z" fill="#F2FCFF"/>
<path d="M455.337 227.501L488.336 237.901L483.412 250.586L455.337 227.501Z" fill="#F2FCFF"/>
<path d="M494.363 249.195C494.452 249.148 494.531 249.085 494.595 249.007C494.664 248.93 494.716 248.84 494.75 248.743C494.783 248.645 494.797 248.542 494.789 248.439C494.782 248.336 494.754 248.236 494.708 248.144C494.661 248.052 494.597 247.97 494.518 247.903C493.509 247.027 492.422 246.243 491.272 245.563C491.096 245.473 490.892 245.455 490.703 245.511C490.513 245.567 490.353 245.694 490.254 245.865C490.155 246.036 490.125 246.238 490.171 246.431C490.216 246.623 490.334 246.79 490.499 246.899C491.566 247.541 492.571 248.28 493.502 249.107C493.622 249.203 493.767 249.263 493.92 249.278C494.073 249.294 494.227 249.265 494.363 249.195Z" fill="#B6B8D6"/>
<path d="M482.374 333.408C482.315 333.319 482.274 333.219 482.256 333.114C482.237 333.009 482.24 332.902 482.265 332.798C482.29 332.694 482.336 332.597 482.4 332.512C482.464 332.427 482.546 332.356 482.639 332.304C484.794 331.011 486.706 329.352 488.291 327.402C488.424 327.251 488.61 327.156 488.81 327.14C489.011 327.123 489.21 327.186 489.365 327.314C489.521 327.442 489.62 327.625 489.642 327.825C489.664 328.025 489.607 328.226 489.484 328.385C487.783 330.471 485.732 332.246 483.423 333.629C483.34 333.684 483.246 333.722 483.148 333.741C483.05 333.76 482.95 333.759 482.852 333.739C482.754 333.718 482.662 333.678 482.58 333.621C482.498 333.565 482.428 333.492 482.374 333.408ZM491.151 324.764C490.974 324.662 490.845 324.495 490.791 324.298C490.738 324.102 490.764 323.892 490.864 323.715C492.112 321.514 493.052 319.151 493.657 316.693C493.681 316.595 493.725 316.502 493.786 316.42C493.846 316.339 493.922 316.27 494.009 316.218C494.096 316.165 494.193 316.131 494.294 316.116C494.394 316.101 494.497 316.106 494.595 316.13C494.694 316.155 494.786 316.199 494.868 316.259C494.95 316.32 495.019 316.396 495.071 316.483C495.123 316.57 495.158 316.667 495.173 316.767C495.188 316.868 495.183 316.97 495.158 317.069C494.517 319.662 493.522 322.155 492.199 324.477C492.124 324.605 492.013 324.709 491.879 324.775C491.769 324.839 491.644 324.874 491.516 324.876C491.389 324.878 491.263 324.847 491.151 324.786V324.764ZM495.092 313.061C494.991 313.056 494.892 313.03 494.801 312.986C494.71 312.941 494.629 312.88 494.562 312.803C494.495 312.727 494.444 312.639 494.412 312.543C494.38 312.447 494.367 312.345 494.374 312.244V311.891C494.487 309.489 494.357 307.081 493.988 304.704C493.972 304.605 493.976 304.503 494 304.405C494.024 304.308 494.067 304.216 494.126 304.135C494.186 304.053 494.261 303.985 494.347 303.933C494.433 303.881 494.529 303.847 494.628 303.832C494.83 303.8 495.037 303.85 495.202 303.97C495.368 304.09 495.479 304.27 495.511 304.472C495.896 306.973 496.025 309.507 495.898 312.035V312.41C495.887 312.542 495.842 312.669 495.769 312.779C495.696 312.889 495.596 312.978 495.478 313.039C495.353 313.078 495.221 313.085 495.092 313.061ZM493.988 300.708C493.79 300.762 493.579 300.735 493.401 300.634C493.223 300.532 493.093 300.364 493.039 300.167C492.375 297.691 491.541 295.263 490.543 292.902C490.475 292.716 490.482 292.51 490.561 292.328C490.641 292.146 490.788 292.001 490.971 291.925C491.154 291.848 491.36 291.845 491.546 291.916C491.731 291.987 491.882 292.127 491.968 292.306C492.993 294.732 493.848 297.225 494.529 299.769C494.574 299.938 494.561 300.118 494.49 300.278C494.42 300.439 494.297 300.571 494.143 300.652L493.988 300.708ZM489.649 289.049C489.559 289.094 489.46 289.121 489.359 289.128C489.259 289.134 489.157 289.121 489.062 289.088C488.966 289.055 488.878 289.003 488.803 288.936C488.727 288.869 488.666 288.787 488.623 288.696C488.523 288.508 488.435 288.31 488.335 288.122C487.519 288.431 486.69 288.718 485.84 288.95C485.742 288.979 485.639 288.988 485.537 288.976C485.435 288.965 485.336 288.933 485.246 288.883C485.157 288.833 485.078 288.766 485.015 288.685C484.952 288.604 484.905 288.512 484.878 288.413C484.851 288.314 484.844 288.21 484.857 288.108C484.87 288.007 484.903 287.909 484.955 287.82C485.007 287.731 485.075 287.654 485.157 287.592C485.239 287.53 485.333 287.485 485.432 287.46C486.18 287.259 486.917 287.02 487.64 286.742C486.834 285.207 485.951 283.607 484.957 281.895C484.898 281.806 484.859 281.706 484.841 281.6C484.823 281.495 484.827 281.387 484.853 281.283C484.879 281.179 484.926 281.082 484.991 280.997C485.057 280.913 485.139 280.843 485.233 280.791C485.323 280.734 485.424 280.696 485.529 280.679C485.634 280.662 485.741 280.666 485.845 280.692C485.948 280.718 486.045 280.764 486.13 280.829C486.214 280.894 486.285 280.975 486.337 281.067C487.364 282.845 488.28 284.49 489.108 286.08C490.224 285.569 491.299 284.971 492.321 284.291C492.405 284.226 492.502 284.18 492.605 284.155C492.708 284.13 492.816 284.128 492.92 284.148C493.024 284.167 493.123 284.209 493.21 284.27C493.297 284.331 493.371 284.41 493.425 284.501C493.488 284.586 493.533 284.682 493.557 284.785C493.581 284.888 493.583 284.995 493.563 285.099C493.543 285.203 493.502 285.301 493.442 285.389C493.382 285.476 493.305 285.549 493.215 285.605C492.144 286.322 491.018 286.953 489.848 287.493C489.936 287.658 490.025 287.824 490.102 288.001C490.191 288.182 490.204 288.392 490.14 288.584C490.076 288.776 489.94 288.935 489.76 289.027L489.649 289.049ZM495.743 282.569C495.598 282.422 495.516 282.224 495.516 282.017C495.516 281.81 495.598 281.612 495.743 281.465C497.501 279.676 498.892 277.56 499.839 275.238C499.92 275.052 500.069 274.904 500.257 274.826C500.444 274.747 500.655 274.745 500.844 274.819C500.938 274.856 501.024 274.912 501.096 274.983C501.168 275.054 501.226 275.139 501.265 275.233C501.304 275.326 501.324 275.427 501.324 275.528C501.323 275.63 501.303 275.73 501.263 275.823C500.242 278.327 498.742 280.607 496.847 282.536C496.791 282.599 496.724 282.651 496.649 282.69C496.512 282.771 496.355 282.808 496.197 282.796C496.039 282.784 495.888 282.724 495.765 282.624L495.743 282.569ZM481.104 289.8C478.428 290.036 475.731 289.827 473.122 289.182C473.024 289.156 472.931 289.112 472.85 289.051C472.768 288.99 472.7 288.913 472.648 288.825C472.596 288.738 472.562 288.641 472.548 288.54C472.534 288.439 472.539 288.336 472.565 288.238C472.59 288.139 472.635 288.047 472.696 287.965C472.757 287.884 472.834 287.815 472.921 287.764C473.009 287.712 473.106 287.678 473.207 287.664C473.308 287.649 473.41 287.655 473.509 287.68C475.946 288.292 478.469 288.49 480.972 288.265C481.15 288.25 481.328 288.297 481.476 288.399C481.623 288.5 481.731 288.65 481.781 288.822C481.83 288.994 481.818 289.178 481.747 289.342C481.676 289.506 481.551 289.641 481.391 289.723C481.308 289.764 481.219 289.79 481.126 289.8H481.104ZM501.716 271.827C501.515 271.789 501.337 271.675 501.22 271.508C501.102 271.341 501.054 271.134 501.087 270.933C501.516 268.451 501.542 265.916 501.164 263.425C501.148 263.326 501.152 263.225 501.176 263.127C501.2 263.029 501.243 262.937 501.302 262.856C501.362 262.775 501.437 262.706 501.523 262.654C501.609 262.602 501.705 262.568 501.804 262.553C501.905 262.538 502.008 262.542 502.107 262.566C502.206 262.591 502.299 262.634 502.382 262.695C502.464 262.756 502.533 262.832 502.585 262.919C502.638 263.007 502.673 263.104 502.687 263.205C503.087 265.856 503.061 268.554 502.61 271.198C502.592 271.316 502.545 271.428 502.474 271.524C502.403 271.62 502.309 271.698 502.202 271.75C502.054 271.831 501.882 271.858 501.716 271.827ZM468.596 287.482C467.974 287.165 467.37 286.815 466.785 286.433C465.088 285.326 463.61 283.915 462.425 282.271C462.356 282.19 462.305 282.095 462.274 281.993C462.244 281.891 462.235 281.784 462.248 281.679C462.26 281.573 462.295 281.472 462.349 281.38C462.403 281.288 462.475 281.209 462.561 281.146C462.647 281.084 462.745 281.04 462.849 281.017C462.953 280.994 463.06 280.993 463.164 281.014C463.269 281.034 463.367 281.076 463.455 281.137C463.542 281.197 463.616 281.275 463.672 281.365C464.743 282.859 466.084 284.139 467.624 285.141C468.162 285.491 468.719 285.812 469.291 286.102C469.384 286.146 469.467 286.209 469.535 286.286C469.603 286.362 469.655 286.452 469.688 286.549C469.721 286.646 469.734 286.749 469.727 286.852C469.72 286.954 469.692 287.054 469.646 287.146C469.6 287.237 469.536 287.319 469.458 287.385C469.38 287.452 469.289 287.502 469.191 287.534C469.094 287.565 468.991 287.577 468.888 287.568C468.786 287.559 468.687 287.529 468.596 287.482ZM482.539 277.932C481.217 275.771 479.613 273.796 477.77 272.059C477.667 271.913 477.617 271.736 477.629 271.558C477.641 271.38 477.715 271.212 477.837 271.082C477.959 270.952 478.123 270.868 478.3 270.845C478.477 270.822 478.656 270.861 478.808 270.955C480.745 272.788 482.434 274.866 483.831 277.137C483.892 277.224 483.934 277.322 483.955 277.425C483.977 277.529 483.976 277.636 483.955 277.739C483.933 277.843 483.89 277.941 483.829 278.027C483.768 278.113 483.69 278.186 483.599 278.241H483.533C483.363 278.316 483.171 278.325 482.994 278.268C482.817 278.211 482.667 278.092 482.573 277.932H482.539ZM501.02 259.506C500.925 259.541 500.823 259.556 500.722 259.551C500.62 259.546 500.521 259.52 500.429 259.476C500.337 259.432 500.256 259.37 500.188 259.293C500.121 259.217 500.07 259.128 500.038 259.032C499.671 257.944 499.224 256.885 498.702 255.863C498.072 254.64 497.333 253.476 496.494 252.385C496.43 252.304 496.382 252.21 496.355 252.109C496.328 252.009 496.322 251.904 496.336 251.801C496.351 251.697 496.386 251.598 496.439 251.509C496.493 251.42 496.564 251.342 496.649 251.281C496.73 251.216 496.824 251.167 496.924 251.139C497.025 251.111 497.131 251.104 497.234 251.119C497.338 251.133 497.437 251.169 497.526 251.223C497.616 251.278 497.693 251.35 497.753 251.436C498.628 252.606 499.403 253.846 500.071 255.145C500.62 256.235 501.096 257.36 501.495 258.513C501.552 258.69 501.545 258.881 501.474 259.053C501.404 259.225 501.274 259.366 501.109 259.451L501.02 259.506ZM461.276 278.374C461.179 278.4 461.076 278.407 460.976 278.393C460.875 278.38 460.779 278.346 460.691 278.295C460.604 278.244 460.528 278.175 460.467 278.094C460.406 278.013 460.362 277.92 460.338 277.822C459.773 275.765 459.998 273.572 460.967 271.672C461.32 271.011 461.762 270.402 462.281 269.862C462.353 269.788 462.439 269.73 462.534 269.69C462.628 269.65 462.73 269.63 462.833 269.63C462.936 269.63 463.038 269.65 463.132 269.69C463.227 269.73 463.313 269.788 463.385 269.862C463.46 269.933 463.519 270.019 463.56 270.113C463.601 270.208 463.622 270.311 463.622 270.414C463.622 270.517 463.601 270.619 463.56 270.714C463.519 270.809 463.46 270.895 463.385 270.966C462.967 271.398 462.613 271.889 462.336 272.423C461.538 273.985 461.357 275.79 461.828 277.479C461.872 277.648 461.856 277.827 461.784 277.986C461.712 278.145 461.587 278.274 461.431 278.352L461.276 278.374ZM474.16 269.542C471.932 268.542 469.436 268.309 467.061 268.879C466.862 268.929 466.652 268.898 466.476 268.792C466.3 268.686 466.173 268.515 466.123 268.316C466.073 268.117 466.105 267.906 466.21 267.73C466.316 267.554 466.487 267.428 466.686 267.378C469.4 266.715 472.257 266.984 474.8 268.14C474.892 268.182 474.975 268.243 475.044 268.318C475.113 268.392 475.166 268.48 475.201 268.575C475.236 268.67 475.251 268.772 475.247 268.873C475.243 268.975 475.219 269.074 475.176 269.166C475.107 269.324 474.986 269.453 474.834 269.531C474.726 269.594 474.605 269.631 474.48 269.638C474.355 269.646 474.231 269.624 474.116 269.575L474.16 269.542Z" fill="#B6B8D6"/>
<path d="M479.029 335.616C479.218 335.543 479.37 335.398 479.451 335.212C479.533 335.027 479.538 334.817 479.465 334.628C479.392 334.439 479.246 334.287 479.061 334.205C478.876 334.123 478.666 334.119 478.477 334.192C477.292 334.525 476.074 334.729 474.845 334.799C474.736 334.794 474.628 334.812 474.527 334.851C474.427 334.89 474.335 334.95 474.259 335.027C474.183 335.104 474.123 335.196 474.085 335.298C474.047 335.399 474.03 335.507 474.036 335.615C474.043 335.723 474.072 335.829 474.121 335.925C474.171 336.022 474.24 336.106 474.325 336.174C474.409 336.242 474.507 336.291 474.612 336.318C474.717 336.346 474.826 336.351 474.933 336.334C476.275 336.262 477.604 336.04 478.896 335.671L479.029 335.616Z" fill="#B6B8D6"/>
<path d="M72.8563 195.088L99.529 180.361L113.152 177.634L123.442 179.157L72.8563 195.088Z" fill="#F2FCFF"/>
<path d="M72.8563 195.088L122.812 182.248L123.442 179.157" fill="#B6B8D6"/>
<path d="M124.236 190.815L124.17 190.926L122.073 198.676L72.9777 195.088L124.236 190.815Z" fill="#623F99"/>
<path d="M133.775 186.267L126.643 180.482L73.1763 195L119.202 193.642L133.775 186.267Z" fill="#F2FCFF"/>
<path d="M246.14 285.252C244.495 284.664 242.89 283.967 241.338 283.165C241.166 283.076 240.967 283.058 240.782 283.116C240.598 283.174 240.444 283.303 240.355 283.474C240.311 283.558 240.284 283.65 240.276 283.744C240.268 283.839 240.278 283.934 240.307 284.024C240.336 284.115 240.382 284.198 240.444 284.271C240.505 284.343 240.58 284.402 240.664 284.446C242.277 285.291 243.944 286.028 245.654 286.654L247.509 287.25C247.617 287.285 247.731 287.293 247.843 287.274C247.954 287.255 248.06 287.208 248.149 287.139C248.276 287.047 248.369 286.915 248.414 286.764C248.443 286.673 248.453 286.577 248.444 286.481C248.435 286.386 248.407 286.293 248.362 286.209C248.317 286.125 248.255 286.05 248.181 285.99C248.106 285.93 248.021 285.885 247.929 285.859C247.332 285.649 246.692 285.45 246.14 285.252Z" fill="#B6B8D6"/>
<path d="M148.37 180.857C146.107 181.155 143.744 181.531 141.161 181.961C141.059 181.969 140.959 181.998 140.869 182.047C140.779 182.095 140.7 182.162 140.638 182.243C140.575 182.325 140.531 182.418 140.507 182.517C140.483 182.617 140.48 182.72 140.499 182.821C140.517 182.922 140.557 183.017 140.615 183.102C140.673 183.186 140.749 183.257 140.836 183.31C140.924 183.363 141.021 183.398 141.123 183.411C141.224 183.424 141.328 183.415 141.426 183.385C143.987 182.911 146.316 182.546 148.557 182.281C148.679 182.26 148.796 182.215 148.9 182.149C149.003 182.07 149.083 181.965 149.134 181.845C149.184 181.725 149.202 181.594 149.187 181.464C149.154 181.278 149.051 181.111 148.899 180.998C148.747 180.885 148.558 180.835 148.37 180.857Z" fill="#B6B8D6"/>
<path d="M160.481 181.42C160.57 181.353 160.642 181.267 160.692 181.167C160.742 181.068 160.768 180.958 160.768 180.846C160.768 180.654 160.693 180.469 160.559 180.331C160.425 180.193 160.242 180.112 160.05 180.107C157.721 180.107 155.259 180.184 152.731 180.394C152.539 180.41 152.362 180.502 152.238 180.649C152.114 180.796 152.053 180.986 152.068 181.177C152.075 181.273 152.101 181.366 152.144 181.451C152.188 181.536 152.248 181.612 152.321 181.674C152.394 181.735 152.478 181.782 152.57 181.81C152.661 181.839 152.757 181.849 152.852 181.84C155.336 181.641 157.754 181.542 160.039 181.564C160.197 181.562 160.351 181.512 160.481 181.42Z" fill="#B6B8D6"/>
<path d="M232.141 276.497C232.075 276.42 231.994 276.359 231.903 276.315C231.812 276.272 231.713 276.248 231.612 276.244C231.512 276.241 231.411 276.259 231.318 276.297C231.224 276.334 231.139 276.391 231.069 276.463C230.998 276.535 230.943 276.621 230.908 276.715C230.872 276.81 230.856 276.911 230.862 277.011C230.867 277.112 230.893 277.211 230.939 277.301C230.984 277.391 231.048 277.47 231.126 277.535C232.888 279.261 234.806 280.82 236.855 282.193C236.977 282.278 237.121 282.323 237.269 282.323C237.417 282.323 237.562 282.278 237.683 282.193C237.75 282.143 237.81 282.084 237.86 282.017C237.966 281.855 238.005 281.658 237.968 281.468C237.931 281.279 237.821 281.111 237.661 281.001C235.686 279.674 233.838 278.166 232.141 276.497Z" fill="#B6B8D6"/>
<path d="M229.149 274.377C229.224 274.316 229.285 274.241 229.33 274.157C229.375 274.072 229.403 273.98 229.412 273.884C229.421 273.789 229.412 273.693 229.384 273.601C229.356 273.51 229.31 273.424 229.249 273.35C228.84 272.854 228.443 272.335 228.057 271.816C227.021 270.413 226.088 268.937 225.263 267.4C225.225 267.305 225.166 267.219 225.092 267.148C225.018 267.077 224.929 267.022 224.833 266.988C224.736 266.953 224.633 266.94 224.53 266.948C224.428 266.956 224.328 266.986 224.238 267.035C224.148 267.085 224.07 267.152 224.008 267.234C223.945 267.316 223.901 267.41 223.878 267.51C223.855 267.611 223.854 267.714 223.874 267.815C223.893 267.916 223.934 268.012 223.994 268.095C224.856 269.671 225.822 271.186 226.886 272.633C227.284 273.163 227.703 273.737 228.123 274.212C228.24 274.357 228.409 274.451 228.595 274.474C228.78 274.497 228.968 274.446 229.116 274.333L229.149 274.377Z" fill="#B6B8D6"/>
<path d="M223.033 264.54L223.188 264.463C223.318 264.367 223.413 264.23 223.457 264.074C223.501 263.918 223.492 263.752 223.431 263.602C222.534 261.391 221.796 259.118 221.223 256.801C221.173 256.616 221.053 256.458 220.888 256.361C220.722 256.263 220.525 256.235 220.339 256.283C220.247 256.304 220.161 256.345 220.084 256.401C220.008 256.457 219.944 256.527 219.895 256.609C219.847 256.69 219.815 256.78 219.802 256.874C219.79 256.968 219.796 257.063 219.821 257.155C220.406 259.54 221.166 261.88 222.095 264.154C222.131 264.241 222.184 264.32 222.251 264.387C222.318 264.453 222.397 264.506 222.484 264.542C222.571 264.578 222.664 264.596 222.759 264.596C222.853 264.595 222.946 264.577 223.033 264.54Z" fill="#B6B8D6"/>
<path d="M203.791 202.617C204.401 203.353 204.987 204.089 205.546 204.825C206.407 205.984 207.224 207.177 207.975 208.38C208.025 208.461 208.092 208.532 208.17 208.587C208.248 208.643 208.336 208.683 208.429 208.704C208.522 208.726 208.619 208.729 208.713 208.713C208.808 208.697 208.898 208.663 208.979 208.612C209.126 208.505 209.227 208.347 209.262 208.169C209.297 207.99 209.263 207.805 209.167 207.651C208.394 206.415 207.555 205.178 206.672 203.997C206.087 203.213 205.491 202.44 204.872 201.69C204.814 201.612 204.741 201.547 204.656 201.499C204.572 201.451 204.478 201.422 204.381 201.412C204.284 201.403 204.187 201.414 204.095 201.445C204.002 201.475 203.918 201.525 203.846 201.59C203.774 201.653 203.715 201.73 203.673 201.817C203.631 201.903 203.607 201.996 203.601 202.092C203.596 202.188 203.61 202.284 203.643 202.374C203.675 202.464 203.726 202.547 203.791 202.617Z" fill="#B6B8D6"/>
<path d="M210.117 212.156C211.224 214.27 212.186 216.458 212.998 218.702C213.063 218.884 213.197 219.032 213.371 219.114C213.544 219.197 213.744 219.208 213.925 219.144C213.991 219.118 214.054 219.084 214.113 219.045C214.235 218.949 214.324 218.818 214.368 218.67C214.411 218.521 214.407 218.363 214.356 218.217C213.527 215.908 212.542 213.658 211.408 211.482C211.316 211.317 211.162 211.194 210.981 211.139C210.799 211.085 210.603 211.103 210.435 211.191C210.267 211.279 210.14 211.429 210.08 211.609C210.021 211.789 210.034 211.985 210.117 212.156Z" fill="#B6B8D6"/>
<path d="M195.687 194.525C197.536 196.044 199.29 197.674 200.942 199.404C201.066 199.532 201.231 199.61 201.408 199.625C201.585 199.639 201.761 199.588 201.903 199.482L201.969 199.427C202.104 199.29 202.181 199.106 202.181 198.913C202.181 198.721 202.104 198.536 201.969 198.4C200.282 196.626 198.486 194.96 196.592 193.41C196.523 193.332 196.437 193.269 196.342 193.227C196.246 193.185 196.142 193.164 196.038 193.165C195.933 193.167 195.83 193.19 195.735 193.235C195.641 193.28 195.557 193.345 195.49 193.425C195.423 193.505 195.373 193.599 195.345 193.7C195.318 193.801 195.312 193.906 195.328 194.009C195.345 194.113 195.384 194.211 195.442 194.298C195.5 194.385 195.576 194.459 195.665 194.514L195.687 194.525Z" fill="#B6B8D6"/>
<path d="M182.307 186.267C182.425 186.317 182.554 186.337 182.681 186.323C182.809 186.31 182.931 186.264 183.035 186.19C183.133 186.113 183.213 186.014 183.267 185.903C183.306 185.815 183.327 185.72 183.329 185.625C183.33 185.529 183.314 185.434 183.279 185.344C183.244 185.255 183.192 185.174 183.125 185.105C183.059 185.036 182.98 184.98 182.892 184.942C180.653 183.948 178.352 183.1 176.003 182.403C175.824 182.364 175.636 182.393 175.478 182.486C175.32 182.579 175.202 182.729 175.149 182.904C175.096 183.08 175.112 183.269 175.192 183.434C175.273 183.599 175.412 183.727 175.583 183.794C177.875 184.474 180.121 185.3 182.307 186.267Z" fill="#B6B8D6"/>
<path d="M218.065 241.942C218.193 241.933 218.316 241.887 218.419 241.809C218.52 241.733 218.6 241.632 218.65 241.516C218.7 241.4 218.719 241.273 218.706 241.147L218.606 240.23C218.363 238.122 218.12 236.024 217.844 233.927C217.832 233.832 217.801 233.74 217.754 233.657C217.706 233.574 217.642 233.501 217.566 233.443C217.491 233.384 217.404 233.341 217.311 233.316C217.219 233.291 217.123 233.285 217.028 233.297C216.933 233.309 216.842 233.34 216.759 233.388C216.677 233.436 216.604 233.5 216.547 233.576C216.489 233.652 216.448 233.739 216.424 233.831C216.4 233.924 216.395 234.02 216.409 234.114C216.685 236.201 216.917 238.298 217.16 240.396L217.259 241.301C217.269 241.397 217.298 241.489 217.344 241.574C217.389 241.658 217.452 241.732 217.527 241.792C217.602 241.851 217.689 241.895 217.781 241.921C217.873 241.947 217.97 241.954 218.065 241.942Z" fill="#B6B8D6"/>
<path d="M192.265 191.919C192.387 192.012 192.536 192.062 192.69 192.062C192.843 192.062 192.992 192.012 193.115 191.919C193.18 191.876 193.237 191.819 193.28 191.754C193.335 191.676 193.374 191.589 193.395 191.496C193.416 191.404 193.418 191.308 193.402 191.215C193.385 191.121 193.35 191.032 193.299 190.952C193.248 190.872 193.182 190.803 193.104 190.749C191.102 189.334 189.015 188.044 186.855 186.885C186.771 186.83 186.675 186.794 186.576 186.777C186.476 186.761 186.374 186.766 186.277 186.791C186.179 186.816 186.088 186.861 186.008 186.924C185.929 186.986 185.864 187.064 185.816 187.153C185.769 187.242 185.74 187.34 185.732 187.44C185.724 187.541 185.738 187.642 185.771 187.737C185.804 187.832 185.857 187.92 185.926 187.993C185.995 188.067 186.078 188.126 186.171 188.166C188.275 189.294 190.31 190.548 192.265 191.919Z" fill="#B6B8D6"/>
<path d="M218.408 244.834C218.313 244.845 218.222 244.875 218.139 244.921C218.056 244.968 217.983 245.03 217.924 245.105C217.866 245.18 217.823 245.266 217.797 245.358C217.772 245.45 217.766 245.546 217.778 245.64C218.131 248.466 218.485 250.763 218.882 252.86C218.899 252.954 218.935 253.044 218.987 253.124C219.04 253.204 219.107 253.272 219.187 253.326C219.266 253.379 219.355 253.417 219.448 253.435C219.542 253.454 219.639 253.453 219.732 253.434C219.841 253.422 219.944 253.38 220.03 253.313C220.138 253.23 220.22 253.119 220.269 252.993C220.318 252.866 220.331 252.729 220.306 252.595C219.92 250.52 219.567 248.256 219.202 245.463C219.18 245.275 219.084 245.102 218.935 244.984C218.786 244.866 218.596 244.812 218.408 244.834Z" fill="#B6B8D6"/>
<path d="M252.091 286.852C251.994 286.825 251.893 286.818 251.793 286.831C251.693 286.845 251.598 286.879 251.512 286.931C251.426 286.983 251.352 287.053 251.294 287.135C251.237 287.217 251.197 287.311 251.177 287.409C251.157 287.508 251.158 287.609 251.179 287.707C251.2 287.806 251.242 287.898 251.3 287.98C251.359 288.061 251.434 288.13 251.521 288.181C251.608 288.232 251.704 288.264 251.804 288.276C254.211 288.738 256.644 289.051 259.09 289.215C259.26 289.225 259.429 289.174 259.565 289.071C259.651 289.011 259.722 288.932 259.774 288.84C259.825 288.748 259.856 288.646 259.863 288.541C259.872 288.351 259.807 288.164 259.682 288.019C259.556 287.875 259.38 287.786 259.189 287.769C256.807 287.607 254.436 287.301 252.091 286.852Z" fill="#B6B8D6"/>
<path d="M214.786 221.904C214.695 221.928 214.609 221.97 214.534 222.028C214.459 222.086 214.396 222.158 214.349 222.24C214.301 222.322 214.271 222.413 214.259 222.507C214.247 222.6 214.254 222.696 214.279 222.787C214.842 224.929 215.383 227.203 215.769 229.82C215.801 230.01 215.908 230.179 216.065 230.291C216.223 230.403 216.418 230.448 216.608 230.416C216.72 230.395 216.825 230.35 216.917 230.283C217.025 230.203 217.108 230.094 217.159 229.97C217.209 229.845 217.225 229.71 217.204 229.577C216.813 227.164 216.301 224.773 215.67 222.412C215.645 222.32 215.603 222.234 215.545 222.159C215.488 222.084 215.416 222.021 215.334 221.974C215.252 221.927 215.161 221.896 215.067 221.884C214.973 221.872 214.878 221.879 214.786 221.904Z" fill="#B6B8D6"/>
<path d="M166.994 180.537C166.144 180.438 165.294 180.36 164.444 180.294C164.349 180.285 164.254 180.295 164.163 180.324C164.073 180.353 163.989 180.399 163.917 180.461C163.845 180.523 163.786 180.599 163.743 180.684C163.701 180.769 163.677 180.862 163.671 180.957C163.662 181.052 163.672 181.148 163.701 181.239C163.729 181.33 163.776 181.415 163.837 181.488C163.899 181.561 163.975 181.621 164.06 181.664C164.145 181.708 164.238 181.734 164.334 181.74C165.162 181.807 165.99 181.884 166.818 181.983C168.352 182.16 169.898 182.414 171.421 182.745C171.523 182.766 171.627 182.765 171.728 182.742C171.829 182.719 171.924 182.675 172.006 182.613C172.117 182.528 172.201 182.414 172.249 182.283C172.297 182.153 172.306 182.011 172.276 181.875C172.246 181.739 172.177 181.615 172.079 181.517C171.98 181.418 171.855 181.35 171.719 181.321C170.163 180.99 168.573 180.725 166.994 180.537Z" fill="#B6B8D6"/>
<g filter="url(#filter0_d)">
<path d="M83.1505 57.44C88.1212 57.44 92.6751 54.3145 94.1098 50.0439C96.0305 51.0293 98.1518 51.5459 100.304 51.5526C102.427 51.5714 104.516 51.023 106.363 49.9628C110.444 47.5646 112.652 42.4513 111.496 38.0652C110.459 34.1337 106.649 31.1458 102.665 31.1458C102.311 31.1456 101.958 31.1703 101.608 31.2195C101.608 31.0893 101.608 30.9591 101.591 30.8264C101.726 30.2169 101.789 29.5933 101.778 28.9688C101.674 23.3787 95.8572 19 88.5357 19H88.1915C84.103 19.0786 80.3077 20.5603 77.8236 23.015C76.7403 21.0173 74.467 19.8207 71.6872 19.8207C69.953 19.8379 68.2459 20.2582 66.6971 21.0493C63.0424 22.8848 60.7667 26.342 61.0503 29.4798C59.9702 29.7136 58.9265 30.0956 57.9481 30.6151C57.2528 30.8585 56.6264 31.2701 56.1232 31.8142C54.8889 32.7738 53.8794 33.9985 53.167 35.4004C52.4547 36.8024 52.0573 38.3468 52.0032 39.9228C51.8529 46.0043 57.0151 51.0858 63.5102 51.2504H63.8373C66.1312 51.2671 68.3841 50.6339 70.3421 49.4223C73.105 53.8599 77.3437 56.8085 81.7934 57.3565C82.2437 57.4115 82.6969 57.4394 83.1505 57.44Z" fill="#F2FCFF"/>
</g>
<g filter="url(#filter1_d)">
<path d="M483.677 43.2956C486.815 43.2956 489.693 41.3233 490.597 38.6249C491.81 39.2472 493.15 39.5735 494.51 39.5776C495.845 39.587 497.158 39.2407 498.319 38.5734C500.897 37.0595 502.291 33.8307 501.562 31.0602C501.215 29.8211 500.485 28.7274 499.479 27.9397C498.474 27.152 497.246 26.7116 495.976 26.6831C495.752 26.6834 495.529 26.6981 495.308 26.7269C495.308 26.6471 495.308 26.5621 495.308 26.4694C495.391 26.0849 495.431 25.6917 495.424 25.2979C495.361 21.7653 491.686 19 487.062 19H486.846C484.263 19.0489 481.868 19.9861 480.299 21.5362C479.616 20.2745 478.178 19.5278 476.424 19.5278C475.329 19.5375 474.25 19.8017 473.272 20.3003C470.966 21.4615 469.529 23.6475 469.717 25.6249C469.035 25.7726 468.376 26.0134 467.759 26.3407C467.32 26.4946 466.924 26.7544 466.606 27.0977C465.824 27.7078 465.185 28.4865 464.736 29.3776C464.287 30.2686 464.039 31.2497 464.01 32.2498C463.914 36.0888 467.175 39.297 471.276 39.4025H471.484C472.933 39.4097 474.355 39.0066 475.591 38.2387C477.335 41.0427 480.009 42.9042 482.821 43.2492C483.105 43.2828 483.391 43.2982 483.677 43.2956Z" fill="#F2FCFF"/>
</g>
<path d="M473.767 133H469.833V156.6H473.767V133Z" fill="#FF5100"/>
<path d="M483.6 146.767V142.833H460V146.767H483.6Z" fill="#FF5100"/>
<defs>
<filter id="filter0_d" x="49.4132" y="16.4132" width="64.9759" height="43.6136" filterUnits="userSpaceOnUse" color-interpolation-filters="sRGB">
<feFlood flood-opacity="0" result="BackgroundImageFix"/>
<feColorMatrix in="SourceAlpha" type="matrix" values="0 0 0 0 0 0 0 0 0 0 0 0 0 0 0 0 0 0 127 0"/>
<feOffset/>
<feGaussianBlur stdDeviation="1.29341"/>
<feColorMatrix type="matrix" values="0 0 0 0 0.392157 0 0 0 0 0.207843 0 0 0 0 0.54902 0 0 0 0.47 0"/>
<feBlend mode="normal" in2="BackgroundImageFix" result="effect1_dropShadow"/>
<feBlend mode="normal" in="SourceGraphic" in2="effect1_dropShadow" result="shape"/>
</filter>
<filter id="filter1_d" x="461.818" y="16.8093" width="42.1284" height="28.6773" filterUnits="userSpaceOnUse" color-interpolation-filters="sRGB">
<feFlood flood-opacity="0" result="BackgroundImageFix"/>
<feColorMatrix in="SourceAlpha" type="matrix" values="0 0 0 0 0 0 0 0 0 0 0 0 0 0 0 0 0 0 127 0"/>
<feOffset/>
<feGaussianBlur stdDeviation="1.09537"/>
<feColorMatrix type="matrix" values="0 0 0 0 0.392157 0 0 0 0 0.207843 0 0 0 0 0.54902 0 0 0 0.47 0"/>
<feBlend mode="normal" in2="BackgroundImageFix" result="effect1_dropShadow"/>
<feBlend mode="normal" in="SourceGraphic" in2="effect1_dropShadow" result="shape"/>
</filter>
</defs>
</svg>
