<svg width="132" height="114" viewBox="0 0 132 114" fill="none" xmlns="http://www.w3.org/2000/svg">
<path d="M42.8337 20.7399L53.4036 27.2636L41.8953 31.1118L0.719085 41.2788L42.8337 20.7399Z" fill="#B6B8D6"/>
<path d="M53.4038 27.2636L35.6045 36.6456L38.5015 31.9544L53.4038 27.2636Z" fill="#F2FCFF"/>
<path d="M42.8339 20.7398L40.2236 9.68768L0.7193 41.2787L42.8339 20.7398Z" fill="#F2FCFF"/>
<path d="M0.719289 41.2787L41.8955 31.1117L44.843 47.5225L0.719289 41.2787Z" fill="#F2FCFF"/>
<path d="M57.3656 29.0901C57.3905 28.9711 57.3905 28.8482 57.3656 28.7292C57.3419 28.6078 57.2943 28.4924 57.2256 28.3897C57.1569 28.2869 57.0684 28.1988 56.9653 28.1305C56.8623 28.0621 56.7467 28.015 56.6253 27.9917C56.5038 27.9684 56.379 27.9695 56.258 27.9949C54.6488 28.3017 53.0734 28.7644 51.5538 29.3763C51.4348 29.4198 51.326 29.4874 51.2344 29.5749C51.1427 29.6624 51.0701 29.7678 51.021 29.8846C50.972 30.0014 50.9476 30.1271 50.9493 30.2538C50.951 30.3804 50.9789 30.5054 51.0311 30.6208C51.0763 30.7387 51.1447 30.8463 51.2322 30.9374C51.3197 31.0284 51.4245 31.101 51.5405 31.1509C51.6565 31.2007 51.7813 31.2269 51.9075 31.2278C52.0338 31.2286 52.159 31.2042 52.2756 31.156C53.6882 30.6013 55.151 30.1845 56.6438 29.9115C56.8335 29.8645 57.0043 29.7606 57.1334 29.6138C57.2624 29.467 57.3435 29.2843 57.3656 29.0901Z" fill="#F2FCFF"/>
<path d="M129.871 104.097C129.747 104.082 129.628 104.042 129.52 103.981C129.412 103.919 129.317 103.837 129.241 103.739C129.164 103.64 129.108 103.528 129.075 103.408C129.043 103.288 129.034 103.163 129.049 103.039C129.417 99.9811 129.253 96.8822 128.564 93.8798C128.537 93.7597 128.533 93.6352 128.554 93.5137C128.575 93.3923 128.619 93.2761 128.685 93.172C128.751 93.0678 128.837 92.9778 128.938 92.907C129.039 92.8363 129.153 92.7862 129.273 92.7597C129.517 92.7072 129.772 92.752 129.984 92.8845C130.195 93.0169 130.347 93.2267 130.406 93.4691C131.145 96.6875 131.322 100.01 130.929 103.288C130.921 103.308 130.921 103.331 130.929 103.351C130.883 103.588 130.748 103.798 130.55 103.937C130.353 104.076 130.11 104.134 129.871 104.097ZM128.116 89.1009C128.001 89.1498 127.877 89.1754 127.752 89.1762C127.627 89.177 127.503 89.153 127.387 89.1055C127.272 89.0581 127.166 88.9881 127.078 88.8997C126.989 88.8114 126.919 88.7063 126.872 88.5906C125.675 85.7278 124.097 83.0401 122.18 80.6008C122.103 80.5029 122.046 80.3907 122.012 80.2707C121.978 80.1506 121.969 80.0251 121.984 79.9014C121.999 79.7776 122.038 79.6581 122.1 79.5496C122.161 79.4411 122.243 79.3458 122.342 79.2692C122.438 79.1924 122.55 79.1356 122.669 79.1021C122.788 79.0687 122.912 79.0592 123.035 79.0742C123.158 79.0893 123.276 79.1286 123.384 79.1898C123.491 79.2511 123.585 79.333 123.661 79.431C125.703 81.9995 127.378 84.8393 128.639 87.8688C128.694 88.0429 128.694 88.2298 128.639 88.4039C128.615 88.5539 128.555 88.6957 128.464 88.8171C128.373 88.9386 128.253 89.036 128.116 89.1009ZM119.753 76.4815C119.574 76.6578 119.332 76.7567 119.081 76.7567C118.829 76.7567 118.588 76.6578 118.409 76.4815L118.098 76.2077C115.844 74.2647 113.396 72.559 110.792 71.1176C110.585 70.9951 110.432 70.7981 110.365 70.5669C110.298 70.3357 110.322 70.0875 110.432 69.8731C110.554 69.6659 110.75 69.5125 110.981 69.4433C111.211 69.3741 111.46 69.3943 111.676 69.4998C114.384 71.0088 116.932 72.7893 119.28 74.8138L119.629 75.1125C119.748 75.2229 119.839 75.3617 119.891 75.5161C119.943 75.6705 119.956 75.8356 119.927 75.9961C119.907 76.1692 119.848 76.3353 119.753 76.4815ZM106.984 68.2179C106.935 68.3325 106.864 68.4363 106.775 68.5234C106.686 68.6104 106.581 68.6791 106.465 68.7253C106.35 68.7716 106.226 68.7945 106.102 68.7929C105.977 68.7913 105.854 68.765 105.74 68.7157C102.844 67.4967 99.8665 66.482 96.829 65.6791C96.5877 65.6095 96.3834 65.4479 96.26 65.2291C96.1366 65.0103 96.1041 64.7518 96.1694 64.5093C96.2008 64.3866 96.2569 64.2715 96.3341 64.1712C96.4114 64.0709 96.5083 63.9873 96.6189 63.9256C96.7295 63.8639 96.8515 63.8253 96.9775 63.8123C97.1035 63.7992 97.2308 63.812 97.3517 63.8497C100.468 64.6817 103.524 65.7254 106.499 66.9734C106.699 67.0558 106.864 67.205 106.966 67.3957C107.068 67.5864 107.101 67.8067 107.059 68.0188C107.032 68.088 106.998 68.1547 106.959 68.2179H106.984ZM92.3736 63.6257C92.3499 63.747 92.3023 63.8624 92.2336 63.9652C92.1648 64.068 92.0764 64.1561 91.9733 64.2244C91.8703 64.2927 91.7547 64.3399 91.6333 64.3631C91.5118 64.3864 91.387 64.3853 91.266 64.3599L90.4819 64.2106C90.1708 65.2311 89.8224 66.2516 89.4117 67.2472C89.3654 67.364 89.2961 67.4702 89.2078 67.5595C89.1195 67.6488 89.0142 67.7195 88.898 67.7671C88.7818 67.8147 88.6572 67.8384 88.5316 67.8368C88.406 67.8351 88.2821 67.8081 88.1672 67.7575C88.0504 67.711 87.9441 67.6418 87.8544 67.5537C87.7647 67.4657 87.6934 67.3607 87.6447 67.2449C87.5961 67.129 87.571 67.0046 87.571 66.8789C87.5709 66.7533 87.5959 66.6288 87.6445 66.5129C88.0054 65.6418 88.3289 64.7457 88.6027 63.8372C86.5119 63.4639 84.3092 63.1154 81.8948 62.7918C81.6456 62.7572 81.4204 62.625 81.2687 62.4242C81.117 62.2235 81.0512 61.9708 81.0859 61.7216C81.1205 61.4724 81.2528 61.2471 81.4535 61.0954C81.6542 60.9437 81.9069 60.878 82.1561 60.9126C84.6452 61.2486 86.9351 61.6096 89.1005 62.0078C89.4746 60.57 89.7368 59.1054 89.8846 57.6271C89.894 57.5028 89.9279 57.3815 89.9844 57.2703C90.0409 57.1591 90.1188 57.0602 90.2136 56.9792C90.3085 56.8983 90.4184 56.8369 90.5371 56.7985C90.6558 56.7602 90.7808 56.7458 90.9051 56.756C91.0289 56.7638 91.1499 56.7963 91.261 56.8514C91.3721 56.9066 91.4711 56.9833 91.5522 57.0772C91.6333 57.171 91.6949 57.2801 91.7334 57.398C91.7718 57.516 91.7865 57.6404 91.7763 57.764C91.6628 59.34 91.4256 60.9046 91.0669 62.4434L91.7514 62.5803C91.9922 62.6314 92.2037 62.7743 92.3408 62.9788C92.4779 63.1833 92.5299 63.4332 92.4857 63.6754L92.3736 63.6257ZM90.6811 52.8606C90.5584 52.8781 90.4334 52.871 90.3135 52.8396C90.1935 52.8082 90.081 52.7533 89.9825 52.678C89.884 52.6027 89.8016 52.5085 89.7399 52.401C89.6782 52.2935 89.6385 52.1747 89.6232 52.0517C89.3583 50.1774 88.8781 48.34 88.1921 46.5758C87.7645 45.4862 87.257 44.4296 86.6737 43.4148C86.6116 43.3069 86.5714 43.1879 86.5553 43.0644C86.5392 42.941 86.5476 42.8156 86.5799 42.6954C86.6123 42.5753 86.668 42.4626 86.7439 42.364C86.8198 42.2653 86.9144 42.1826 87.0222 42.1205C87.1301 42.0584 87.2491 42.0181 87.3726 42.002C87.496 41.9859 87.6214 41.9943 87.7416 42.0266C87.8617 42.059 87.9743 42.1147 88.073 42.1906C88.1716 42.2665 88.2544 42.3611 88.3165 42.4689C89.9679 45.3413 91.0456 48.507 91.49 51.7903C91.5089 51.8932 91.5089 51.9986 91.49 52.1015C91.4529 52.291 91.3594 52.465 91.2217 52.6004C91.084 52.7359 90.9085 52.8266 90.7184 52.8606H90.6811ZM86.6737 72.4617C84.8942 75.2343 82.6601 77.6872 80.0654 79.7172C79.9674 79.7944 79.8553 79.8514 79.7352 79.8851C79.6152 79.9187 79.4897 79.9283 79.3659 79.9132C79.2422 79.8982 79.1226 79.8589 79.0141 79.7974C78.9056 79.736 78.8103 79.6538 78.7337 79.5554C78.6559 79.4585 78.5986 79.3467 78.5652 79.227C78.5317 79.1072 78.5228 78.9819 78.5391 78.8587C78.5554 78.7354 78.5965 78.6167 78.6599 78.5097C78.7233 78.4028 78.8077 78.3097 78.908 78.2363C81.3441 76.3314 83.4469 74.0351 85.1305 71.4412C85.2512 71.262 85.4296 71.1295 85.6361 71.0657C85.8425 71.0019 86.0646 71.0108 86.2653 71.0908C86.466 71.1708 86.6334 71.3171 86.7394 71.5054C86.8454 71.6937 86.8837 71.9126 86.848 72.1257C86.8288 72.2467 86.782 72.3617 86.7111 72.4617H86.6737ZM84.7572 39.0216C84.5801 39.1972 84.3407 39.2957 84.0913 39.2957C83.842 39.2957 83.6027 39.1972 83.4256 39.0216C81.3482 36.7372 78.9148 34.804 76.2199 33.2969C76.0079 33.1788 75.851 32.9818 75.7835 32.7488C75.7159 32.5158 75.743 32.2655 75.8589 32.0523C75.9814 31.8451 76.1784 31.6924 76.4097 31.6253C76.6409 31.5582 76.889 31.5819 77.1034 31.6914C80.0109 33.2673 82.6457 35.3012 84.9065 37.7149C85.002 37.8244 85.0717 37.9539 85.1105 38.0939C85.1493 38.2339 85.1561 38.3808 85.1305 38.5238C85.0791 38.7235 84.9604 38.8993 84.7945 39.0216H84.7572ZM75.0126 82.8161C74.2392 83.1842 73.4457 83.5083 72.6356 83.7868C70.2864 84.5878 67.811 84.9547 65.3304 84.8695C65.0795 84.8596 64.8429 84.7505 64.6725 84.5661C64.5021 84.3817 64.4119 84.1372 64.4218 83.8864C64.4317 83.6355 64.5409 83.3989 64.7253 83.2285C64.9096 83.0581 65.1542 82.968 65.405 82.9779C67.6498 83.0646 69.8911 82.7312 72.0134 81.9947C72.7638 81.7422 73.4992 81.4472 74.2161 81.1111C74.4425 81.0092 74.6999 81.0003 74.9327 81.0865C75.1656 81.1726 75.3551 81.3468 75.4606 81.5716C75.5401 81.7512 75.566 81.95 75.5353 82.144C75.5107 82.2856 75.4543 82.4196 75.3703 82.5361C75.2862 82.6525 75.1766 82.7483 75.05 82.8161H75.0126ZM76.2572 62.1447C73.1721 61.7936 70.0539 61.8564 66.9855 62.3314C66.8629 62.3526 66.7374 62.3495 66.616 62.3222C66.4947 62.295 66.3799 62.244 66.2782 62.1724C66.1765 62.1007 66.0899 62.0098 66.0233 61.9047C65.9568 61.7995 65.9116 61.6824 65.8903 61.5598C65.8691 61.4372 65.8722 61.3116 65.8995 61.1903C65.9268 61.0689 65.9777 60.9541 66.0493 60.8524C66.121 60.7507 66.212 60.6641 66.3171 60.5976C66.4222 60.531 66.5394 60.4858 66.662 60.4646C69.8911 59.9683 73.1713 59.8972 76.4189 60.253C76.5433 60.264 76.6643 60.2994 76.775 60.3574C76.8856 60.4153 76.9837 60.4946 77.0635 60.5906C77.1434 60.6866 77.2034 60.7975 77.2401 60.9169C77.2769 61.0362 77.2896 61.1617 77.2777 61.286C77.2837 61.3147 77.2837 61.3444 77.2777 61.3731C77.2359 61.5971 77.1147 61.7984 76.9364 61.9402C76.758 62.0819 76.5346 62.1545 76.307 62.1447H76.2572ZM72.337 30.3847C72.3 30.5092 72.2371 30.6245 72.1525 30.7229C72.0678 30.8214 71.9634 30.9009 71.8458 30.9561C71.7283 31.0114 71.6004 31.0411 71.4706 31.0434C71.3407 31.0458 71.2119 31.0206 71.0925 30.9696C69.7637 30.5116 68.4036 30.1497 67.0229 29.8869C65.3821 29.5667 63.7163 29.3918 62.0448 29.3642C61.794 29.3642 61.5534 29.2645 61.376 29.0872C61.1986 28.9098 61.099 28.6692 61.099 28.4184C61.099 28.1675 61.1986 27.9269 61.376 27.7496C61.5534 27.5722 61.794 27.4725 62.0448 27.4725C63.8335 27.4988 65.6162 27.6862 67.3713 28.0326C68.8367 28.3087 70.2801 28.6914 71.6898 29.1775C71.9074 29.2516 72.0905 29.4023 72.205 29.6016C72.3196 29.8008 72.3576 30.035 72.3121 30.2603C72.3477 30.2943 72.3735 30.3373 72.3867 30.3847H72.337ZM60.651 83.1023C60.5477 83.3293 60.3591 83.5063 60.126 83.5948C59.893 83.6834 59.6344 83.6763 59.4065 83.5752C56.9909 82.5803 55.0368 80.7149 53.9306 78.3483C53.5555 77.5086 53.3 76.6205 53.1714 75.7099C53.1425 75.5822 53.1403 75.45 53.165 75.3214C53.1898 75.1929 53.2411 75.0709 53.3154 74.9632C53.3898 74.8554 53.4858 74.7643 53.5972 74.6956C53.7086 74.6269 53.8331 74.582 53.9627 74.5639C54.0923 74.5457 54.2243 74.5547 54.3503 74.5902C54.4763 74.6257 54.5935 74.6869 54.6946 74.7701C54.7957 74.8532 54.8785 74.9565 54.9376 75.0733C54.9968 75.1901 55.031 75.3178 55.0382 75.4486C55.1403 76.1791 55.3456 76.8914 55.648 77.5642C56.563 79.5107 58.1752 81.0429 60.1656 81.8578C60.3623 81.94 60.5244 82.0879 60.6243 82.2762C60.7242 82.4646 60.7556 82.6818 60.7132 82.8908C60.7146 82.9615 60.7104 83.0322 60.7007 83.1023H60.651ZM61.8955 63.999C59.2487 65.4043 57.14 67.6442 55.8969 70.3709C55.796 70.6001 55.6083 70.7799 55.375 70.8709C55.1417 70.9619 54.8818 70.9566 54.6524 70.8563C54.4254 70.7528 54.2478 70.5649 54.1572 70.3325C54.0665 70.1002 54.07 69.8416 54.167 69.6118C55.5733 66.4826 57.9876 63.915 61.0243 62.3189C61.2446 62.2134 61.4972 62.1973 61.7292 62.2738C61.9612 62.3504 62.1546 62.5137 62.2688 62.7296C62.3701 62.9159 62.401 63.1323 62.356 63.3394C62.3319 63.4779 62.2768 63.6091 62.1949 63.7233C62.113 63.8375 62.0064 63.9318 61.883 63.999H61.8955Z" fill="#F2FCFF"/>
<path d="M129.46 108.976C129.504 108.745 129.461 108.507 129.339 108.307C129.217 108.106 129.025 107.958 128.8 107.892C128.575 107.825 128.334 107.844 128.122 107.946C127.911 108.047 127.744 108.223 127.656 108.441C127.091 109.836 126.377 111.167 125.528 112.411C125.386 112.615 125.331 112.868 125.375 113.113C125.419 113.358 125.559 113.575 125.764 113.717C125.969 113.859 126.221 113.914 126.466 113.87C126.711 113.825 126.929 113.685 127.071 113.481C128.012 112.131 128.797 110.678 129.41 109.15C129.431 109.093 129.448 109.035 129.46 108.976Z" fill="#F2FCFF"/>
</svg>
