<svg width="208" height="183" viewBox="0 0 208 183" fill="none" xmlns="http://www.w3.org/2000/svg">
<path d="M45.1485 169.91L73.5277 163.672L84.9972 157.053L91.4192 149.493L45.1485 169.91Z" fill="#623F99"/>
<path d="M45.1488 169.91L89.0185 147.677L91.4194 149.492" fill="#FF5100"/>
<path d="M84.646 140.64L84.5339 140.604L78.1544 136.366L45.2381 169.828L84.646 140.64Z" fill="#B6B8D6"/>
<path d="M94.3393 137.893L92.875 146.521L45.4337 169.767L79.2688 141.784L94.3393 137.893Z" fill="#623F99"/>
<path d="M147.202 9.552C146.084 10.7867 145.053 12.0978 144.117 13.4759C144.012 13.6239 143.854 13.7248 143.675 13.7571C143.497 13.7893 143.313 13.7502 143.163 13.6482C143.013 13.5462 142.909 13.3895 142.873 13.2117C142.838 13.0338 142.873 12.8491 142.972 12.6973C143.947 11.2646 145.019 9.9013 146.182 8.61711C146.593 8.16279 147.027 7.70904 147.462 7.27072C147.592 7.1404 147.768 7.06673 147.951 7.06581C148.135 7.06489 148.312 7.1368 148.443 7.26581C148.508 7.33 148.559 7.40638 148.595 7.49058C148.63 7.57478 148.648 7.66515 148.648 7.75644C148.649 7.84773 148.631 7.93814 148.596 8.02251C148.561 8.10688 148.51 8.18353 148.445 8.24804C148.02 8.67443 147.605 9.10909 147.202 9.552Z" fill="#B6B8D6"/>
<path d="M112.443 141.422C110.404 142.195 108.262 142.957 105.879 143.729C105.792 143.759 105.7 143.77 105.609 143.764C105.517 143.758 105.428 143.733 105.346 143.692C105.264 143.651 105.191 143.594 105.131 143.524C105.071 143.455 105.026 143.374 104.998 143.286C104.97 143.199 104.959 143.107 104.967 143.016C104.974 142.924 105 142.835 105.042 142.754C105.085 142.672 105.143 142.6 105.213 142.541C105.284 142.483 105.365 142.439 105.453 142.412C107.812 141.65 109.936 140.903 111.945 140.13C112.055 140.086 112.174 140.073 112.291 140.091C112.415 140.105 112.532 140.152 112.631 140.228C112.729 140.303 112.805 140.404 112.851 140.52C112.884 140.606 112.9 140.698 112.898 140.79C112.895 140.882 112.875 140.973 112.837 141.057C112.799 141.141 112.744 141.216 112.676 141.279C112.609 141.342 112.529 141.39 112.443 141.422Z" fill="#B6B8D6"/>
<path d="M122.348 135.472C122.492 135.493 122.626 135.558 122.73 135.659C122.835 135.759 122.905 135.891 122.931 136.034C122.958 136.176 122.938 136.324 122.875 136.455C122.813 136.586 122.711 136.695 122.583 136.765C120.641 137.836 118.529 138.868 116.308 139.824C116.141 139.89 115.955 139.888 115.79 139.82C115.624 139.751 115.492 139.621 115.42 139.457C115.348 139.293 115.343 139.107 115.405 138.939C115.468 138.771 115.593 138.634 115.754 138.556C117.931 137.607 120.001 136.591 121.91 135.541C122.044 135.47 122.198 135.446 122.348 135.472Z" fill="#B6B8D6"/>
<path d="M139.413 23.2372C139.358 23.4119 139.236 23.5578 139.074 23.6426C138.912 23.7275 138.722 23.7444 138.547 23.6896C138.373 23.6348 138.227 23.5128 138.142 23.3505C138.057 23.1882 138.04 22.9989 138.095 22.8241C138.794 20.5799 139.697 18.4045 140.793 16.3255C140.879 16.1629 141.026 16.0412 141.202 15.9872C141.378 15.9331 141.568 15.9512 141.731 16.0373C141.893 16.1234 142.015 16.2707 142.069 16.4465C142.123 16.6224 142.105 16.8125 142.019 16.9751C140.962 18.9789 140.089 21.0749 139.413 23.2372Z" fill="#B6B8D6"/>
<path d="M137.864 26.3745C137.954 26.3917 138.039 26.4262 138.115 26.4763C138.191 26.5264 138.256 26.591 138.307 26.6663C138.358 26.7417 138.394 26.8264 138.412 26.9156C138.43 27.0047 138.431 27.0966 138.414 27.186C138.296 27.7938 138.191 28.4012 138.092 29.0187C137.857 30.6485 137.736 32.2925 137.728 33.9391C137.73 34.0306 137.713 34.1216 137.679 34.2066C137.645 34.2916 137.594 34.369 137.53 34.4342C137.466 34.4994 137.389 34.5512 137.304 34.5864C137.22 34.6217 137.129 34.6398 137.038 34.6397C136.854 34.6392 136.678 34.5669 136.548 34.4383C136.417 34.3097 136.342 34.135 136.338 33.9516C136.345 32.238 136.471 30.527 136.715 28.8308C136.809 28.1962 136.916 27.566 137.035 26.9401C137.068 26.7655 137.168 26.6105 137.312 26.5074C137.457 26.4043 137.636 26.361 137.812 26.3865L137.864 26.3745Z" fill="#B6B8D6"/>
<path d="M137.19 37.387C137.247 37.3819 137.304 37.3827 137.361 37.3894C137.514 37.4114 137.655 37.4836 137.761 37.5946C137.868 37.7055 137.935 37.8489 137.951 38.0021C138.196 40.262 138.605 42.5011 139.174 44.7018C139.201 44.7914 139.21 44.8855 139.2 44.9786C139.19 45.0716 139.161 45.1616 139.115 45.2431C139.069 45.3246 139.007 45.396 138.932 45.4528C138.858 45.5096 138.773 45.5508 138.682 45.5739C138.591 45.5969 138.497 45.6013 138.404 45.5867C138.312 45.5722 138.223 45.5391 138.144 45.4894C138.065 45.4397 137.996 45.3744 137.943 45.2975C137.89 45.2206 137.852 45.1337 137.834 45.042C137.247 42.7777 136.827 40.4738 136.575 38.1485C136.555 37.966 136.609 37.7832 136.724 37.6404C136.84 37.4976 137.007 37.4065 137.19 37.387Z" fill="#B6B8D6"/>
<path d="M149.092 98.064C149.266 97.1705 149.417 96.2747 149.546 95.3765C149.741 94.0189 149.886 92.6462 149.966 91.2948C149.978 91.1116 150.063 90.9408 150.201 90.82C150.34 90.6992 150.52 90.6384 150.703 90.6508L150.758 90.6542C150.93 90.68 151.086 90.7693 151.195 90.9044C151.304 91.0396 151.359 91.2108 151.349 91.3844C151.259 92.7735 151.111 94.1813 150.912 95.5738C150.778 96.4984 150.625 97.417 150.436 98.3356C150.423 98.4269 150.391 98.5146 150.343 98.5929C150.294 98.6712 150.229 98.7382 150.153 98.7898C150.076 98.8413 149.99 98.876 149.899 98.8918C149.808 98.9075 149.715 98.9039 149.625 98.8812C149.537 98.8625 149.452 98.8266 149.378 98.7755C149.303 98.7243 149.239 98.6589 149.189 98.583C149.14 98.5071 149.106 98.4223 149.089 98.3332C149.073 98.2441 149.074 98.1527 149.092 98.064Z" fill="#B6B8D6"/>
<path d="M150.079 87.1982C150.048 84.9219 149.864 82.6502 149.526 80.3988C149.499 80.2174 149.545 80.0327 149.654 79.8853C149.764 79.7379 149.927 79.6398 150.108 79.6125C150.175 79.6018 150.243 79.6014 150.311 79.6113C150.458 79.6329 150.594 79.7011 150.7 79.8058C150.805 79.9105 150.874 80.0463 150.897 80.1932C151.242 82.5061 151.432 84.8397 151.464 87.178C151.466 87.269 151.449 87.3594 151.415 87.444C151.382 87.5285 151.332 87.6057 151.268 87.6709C151.205 87.7362 151.129 87.7883 151.046 87.8244C150.962 87.8604 150.872 87.8797 150.781 87.881C150.691 87.8823 150.6 87.8657 150.516 87.8321C150.431 87.7985 150.354 87.7486 150.289 87.6852C150.223 87.6218 150.171 87.5462 150.135 87.4626C150.099 87.3791 150.08 87.2892 150.079 87.1982Z" fill="#B6B8D6"/>
<path d="M145.948 108.511C146.814 106.402 147.55 104.243 148.152 102.044C148.195 101.881 148.297 101.739 148.438 101.647C148.579 101.554 148.749 101.516 148.916 101.54L149.001 101.559C149.178 101.607 149.329 101.724 149.42 101.883C149.51 102.043 149.534 102.231 149.486 102.408C148.869 104.661 148.116 106.874 147.231 109.035C147.197 109.119 147.146 109.196 147.082 109.261C147.018 109.325 146.942 109.377 146.858 109.412C146.774 109.447 146.684 109.466 146.593 109.466C146.502 109.466 146.412 109.449 146.328 109.415C146.244 109.38 146.167 109.329 146.102 109.265C146.038 109.201 145.986 109.125 145.951 109.041C145.916 108.958 145.897 108.868 145.897 108.777C145.896 108.686 145.914 108.595 145.948 108.511Z" fill="#B6B8D6"/>
<path d="M138.47 121.514C138.584 121.372 138.749 121.28 138.929 121.258C139.11 121.237 139.292 121.287 139.436 121.399C139.58 121.51 139.674 121.674 139.698 121.854C139.722 122.035 139.674 122.217 139.564 122.363C138.132 124.211 136.584 125.965 134.928 127.616C134.797 127.737 134.623 127.803 134.444 127.8C134.265 127.796 134.094 127.723 133.967 127.595C133.841 127.468 133.769 127.297 133.766 127.118C133.763 126.939 133.83 126.765 133.953 126.634C135.567 125.026 137.075 123.316 138.47 121.514Z" fill="#B6B8D6"/>
<path d="M143.256 58.5986C143.37 58.5555 143.493 58.541 143.614 58.5564C143.736 58.5712 143.851 58.6181 143.949 58.6921C144.046 58.7662 144.122 58.8648 144.169 58.9779L144.494 59.786C145.243 61.6601 145.997 63.5352 146.714 65.4231C146.779 65.5948 146.774 65.7854 146.699 65.953C146.623 66.1206 146.485 66.2514 146.313 66.3167C146.141 66.382 145.951 66.3764 145.783 66.3012C145.615 66.2259 145.485 66.0872 145.419 65.9155C144.706 64.0352 143.957 62.1676 143.209 60.3026L142.884 59.4944C142.817 59.3261 142.819 59.1382 142.888 58.9709C142.958 58.8035 143.09 58.67 143.256 58.5986Z" fill="#B6B8D6"/>
<path d="M144.265 112.262C144.329 112.131 144.432 112.023 144.56 111.954C144.688 111.885 144.834 111.858 144.979 111.877C145.052 111.888 145.124 111.91 145.191 111.942C145.355 112.024 145.48 112.168 145.538 112.342C145.596 112.516 145.583 112.706 145.502 112.87C144.461 114.962 143.294 116.988 142.007 118.936C141.956 119.012 141.892 119.078 141.817 119.129C141.741 119.18 141.657 119.215 141.568 119.233C141.478 119.252 141.387 119.252 141.297 119.235C141.208 119.218 141.123 119.183 141.047 119.133C140.971 119.083 140.906 119.018 140.855 118.943C140.804 118.868 140.768 118.783 140.75 118.694C140.732 118.605 140.731 118.513 140.749 118.424C140.766 118.335 140.8 118.25 140.851 118.174C142.109 116.275 143.249 114.301 144.265 112.262Z" fill="#B6B8D6"/>
<path d="M142.235 56.0258C142.15 56.0589 142.06 56.0749 141.969 56.0729C141.878 56.0709 141.789 56.0508 141.706 56.0139C141.623 55.977 141.548 55.924 141.485 55.8579C141.423 55.7919 141.374 55.7141 141.342 55.6291C140.359 53.0976 139.615 51.0143 138.994 49.0743C138.966 48.9876 138.956 48.8962 138.964 48.8055C138.972 48.7148 138.997 48.6265 139.039 48.5457C139.081 48.4649 139.139 48.3931 139.208 48.3346C139.278 48.276 139.359 48.2318 139.446 48.2044C139.546 48.1719 139.652 48.1616 139.757 48.174C139.886 48.1934 140.007 48.2483 140.106 48.3325C140.205 48.4167 140.279 48.5269 140.319 48.6507C140.928 50.5614 141.665 52.6191 142.635 55.1277C142.669 55.2129 142.685 55.3039 142.683 55.3954C142.681 55.4869 142.661 55.5771 142.623 55.6607C142.586 55.7442 142.532 55.8196 142.466 55.8823C142.399 55.945 142.321 55.9937 142.235 56.0258Z" fill="#B6B8D6"/>
<path d="M151.462 5.51135C151.393 5.57582 151.312 5.62549 151.223 5.65728C151.134 5.68908 151.039 5.70231 150.945 5.69621C150.851 5.6901 150.759 5.66477 150.675 5.62177C150.591 5.57877 150.516 5.51901 150.456 5.44617C150.396 5.37333 150.351 5.28896 150.325 5.19823C150.299 5.1075 150.291 5.01235 150.303 4.91862C150.315 4.82489 150.346 4.73458 150.394 4.65323C150.442 4.57189 150.506 4.50124 150.582 4.44562C152.388 2.96513 154.286 1.60021 156.264 0.359008C156.403 0.269475 156.57 0.233081 156.733 0.256524C156.833 0.270264 156.929 0.304979 157.014 0.358373C157.099 0.411766 157.172 0.482628 157.228 0.566298C157.327 0.721795 157.359 0.90995 157.319 1.08952C157.279 1.2691 157.17 1.42545 157.014 1.52433C155.083 2.73677 153.228 4.06836 151.462 5.51135Z" fill="#B6B8D6"/>
<path d="M149.575 76.8939C149.397 76.9358 149.209 76.9052 149.053 76.8086C148.897 76.7121 148.785 76.5577 148.743 76.3792C148.264 74.3431 147.627 72.179 146.831 69.7992C146.8 69.713 146.786 69.6216 146.791 69.5302C146.796 69.4388 146.818 69.3492 146.858 69.2668C146.898 69.1843 146.954 69.1106 147.022 69.0499C147.091 68.9892 147.171 68.9427 147.257 68.9132C147.359 68.8811 147.466 68.8725 147.571 68.8879C147.697 68.9059 147.816 68.9585 147.914 69.0397C148.013 69.1208 148.086 69.2276 148.128 69.348C148.954 71.7644 149.595 73.9554 150.104 76.0448C150.127 76.1354 150.132 76.2298 150.118 76.3223C150.104 76.4148 150.071 76.5034 150.022 76.5829C149.972 76.6623 149.907 76.7309 149.83 76.7843C149.754 76.8378 149.667 76.8751 149.575 76.8939Z" fill="#B6B8D6"/>
<path d="M128.213 133.257C127.549 133.727 126.874 134.181 126.188 134.619C126.033 134.718 125.846 134.751 125.666 134.712C125.487 134.673 125.33 134.564 125.231 134.409C125.132 134.254 125.098 134.067 125.137 133.887C125.177 133.708 125.286 133.551 125.44 133.452C126.109 133.026 126.765 132.583 127.416 132.126C128.621 131.279 129.805 130.362 130.936 129.403C131.011 129.34 131.098 129.294 131.192 129.267C131.286 129.24 131.385 129.233 131.481 129.247C131.648 129.272 131.801 129.356 131.911 129.484C132.029 129.624 132.087 129.805 132.072 129.988C132.057 130.17 131.97 130.34 131.83 130.458C130.669 131.446 129.451 132.385 128.213 133.257Z" fill="#B6B8D6"/>
</svg>
