<svg width="47" height="20" viewBox="0 0 47 20" fill="none" xmlns="http://www.w3.org/2000/svg">
<path d="M29.2374 7.93989H29.0399C28.9996 7.94267 28.9619 7.96066 28.9344 7.99021C28.9069 8.01976 28.8916 8.05865 28.8917 8.09903V11.3367C28.891 11.3568 28.8942 11.377 28.9013 11.3959C28.9083 11.4148 28.919 11.4322 28.9328 11.4469C28.9466 11.4617 28.9631 11.4736 28.9815 11.482C28.9998 11.4904 29.0197 11.4951 29.0399 11.4958H29.2374C29.2592 11.4973 29.2811 11.4943 29.3017 11.487C29.3223 11.4797 29.3411 11.4682 29.3571 11.4532C29.3731 11.4383 29.3858 11.4203 29.3945 11.4002C29.4031 11.3801 29.4076 11.3585 29.4075 11.3367V8.09903C29.4068 8.0774 29.4019 8.05613 29.3929 8.03643C29.384 8.01673 29.3713 7.99898 29.3555 7.9842C29.3397 7.96942 29.3211 7.9579 29.3008 7.95029C29.2806 7.94269 29.259 7.93916 29.2374 7.93989ZM27.4759 8.02769L20.7043 8.36243C20.6056 8.36837 20.5069 8.34995 20.417 8.30881C20.327 8.26766 20.2486 8.20505 20.1885 8.12646C13.3785 -0.510866 8.17638 -0.329779 5.41068 0.218972C2.48584 0.806134 0 2.90236 0 5.43759C0 6.72715 1.04811 7.81916 2.07428 8.57644C2.24621 8.69849 2.45778 8.75138 2.66693 8.7246C5.29661 8.364 7.94757 8.18067 10.6019 8.17585C12.4457 8.17585 14.262 8.2856 16.0894 8.45571C16.1068 8.45571 16.1236 8.46265 16.1359 8.475C16.1483 8.48735 16.1552 8.5041 16.1552 8.52156C16.1552 8.53903 16.1483 8.55578 16.1359 8.56813C16.1236 8.58048 16.1068 8.58741 16.0894 8.58741C13.181 8.78496 2.8096 9.52029 0.543263 9.68491C0.50485 9.68491 0.50485 9.75076 0.543263 9.75076C2.82058 9.91539 13.3017 10.6617 16.2046 10.8483C16.2221 10.8483 16.2388 10.8552 16.2512 10.8676C16.2635 10.8799 16.2704 10.8966 16.2704 10.9141C16.2704 10.9316 16.2635 10.9483 16.2512 10.9607C16.2388 10.973 16.2221 10.98 16.2046 10.98C14.3663 11.1611 12.506 11.2763 10.6238 11.2763C7.96028 11.2749 5.29996 11.0916 2.66144 10.7275C2.45144 10.7001 2.23898 10.7552 2.06879 10.8812C1.02616 11.6659 0 12.7415 0 14.02C0 16.5553 2.48584 18.657 5.41068 19.2387C8.18187 19.7874 13.4005 19.9685 20.2269 11.2763C20.2746 11.2162 20.3357 11.1681 20.4052 11.1357C20.4747 11.1033 20.5508 11.0876 20.6275 11.0897L27.4704 11.4299C27.4894 11.4315 27.5084 11.429 27.5263 11.4228C27.5442 11.4166 27.5607 11.4067 27.5746 11.3939C27.5885 11.381 27.5996 11.3653 27.6072 11.3479C27.6148 11.3305 27.6187 11.3117 27.6186 11.2928V8.17036C27.6194 8.15142 27.6162 8.13252 27.6093 8.11486C27.6024 8.0972 27.5919 8.08116 27.5785 8.06775C27.5651 8.05435 27.5491 8.04387 27.5314 8.03697C27.5138 8.03008 27.4949 8.02691 27.4759 8.02769ZM28.3759 7.98379H28.1235C28.0895 7.9852 28.0574 7.9997 28.0339 8.02425C28.0103 8.0488 27.9972 8.08149 27.9972 8.11549V11.3202C27.9965 11.3372 27.9992 11.3542 28.0052 11.3702C28.0112 11.3861 28.0204 11.4007 28.0322 11.413C28.044 11.4253 28.0582 11.4351 28.0739 11.4418C28.0895 11.4485 28.1064 11.4519 28.1235 11.4519H28.3759C28.3938 11.4535 28.4119 11.4512 28.4289 11.4452C28.4459 11.4392 28.4614 11.4297 28.4744 11.4172C28.4874 11.4047 28.4976 11.3896 28.5042 11.3729C28.5109 11.3562 28.5139 11.3382 28.5131 11.3202V8.11549C28.5139 8.09749 28.5109 8.07952 28.5042 8.06279C28.4976 8.04605 28.4874 8.03094 28.4744 8.01846C28.4614 8.00599 28.4459 7.99644 28.4289 7.99046C28.4119 7.98447 28.3938 7.9822 28.3759 7.98379ZM30.1319 7.89599H29.9288C29.8886 7.89877 29.8509 7.91676 29.8233 7.94631C29.7958 7.97585 29.7806 8.01475 29.7807 8.05513V11.386C29.7807 11.4259 29.7961 11.4641 29.8237 11.4928C29.8514 11.5215 29.889 11.5383 29.9288 11.5397H30.1319C30.153 11.5412 30.1741 11.5383 30.1941 11.5313C30.214 11.5243 30.2322 11.5132 30.2477 11.4988C30.2631 11.4843 30.2755 11.4669 30.2838 11.4475C30.2922 11.4281 30.2966 11.4072 30.2965 11.386V8.05513C30.2973 8.03353 30.2936 8.01201 30.2855 7.99196C30.2775 7.97191 30.2653 7.95378 30.2498 7.93877C30.2342 7.92375 30.2157 7.91217 30.1954 7.9048C30.1751 7.89743 30.1534 7.89443 30.1319 7.89599ZM31.0154 7.85209H30.8288C30.7865 7.8548 30.7468 7.87318 30.7174 7.90362C30.6879 7.93406 30.6709 7.97439 30.6697 8.01671V11.419C30.6696 11.4622 30.686 11.5039 30.7155 11.5355C30.7451 11.5671 30.7856 11.5863 30.8288 11.5891H31.0154C31.0377 11.5898 31.06 11.5861 31.0809 11.5783C31.1018 11.5704 31.121 11.5584 31.1373 11.5432C31.1536 11.5279 31.1667 11.5095 31.1759 11.4891C31.1852 11.4688 31.1903 11.4468 31.191 11.4245V8.01671C31.1903 7.99437 31.1852 7.97239 31.1759 7.95202C31.1667 7.93165 31.1536 7.91329 31.1373 7.89801C31.121 7.88272 31.1018 7.87079 31.0809 7.86291C31.06 7.85503 31.0377 7.85136 31.0154 7.85209ZM32.8153 7.76429H32.6013C32.5624 7.76565 32.5255 7.7817 32.498 7.8092C32.4705 7.83669 32.4545 7.87359 32.4531 7.91245V11.5232C32.4531 11.563 32.4685 11.6013 32.4961 11.63C32.5238 11.6586 32.5615 11.6755 32.6013 11.6769H32.8153C32.8359 11.6776 32.8565 11.6742 32.8758 11.6668C32.895 11.6594 32.9126 11.6482 32.9275 11.6339C32.9423 11.6195 32.9541 11.6023 32.9622 11.5833C32.9703 11.5643 32.9744 11.5439 32.9744 11.5232V7.91794C32.9744 7.89729 32.9703 7.87685 32.9622 7.85784C32.9541 7.83883 32.9423 7.82165 32.9275 7.8073C32.9126 7.79296 32.895 7.78176 32.8758 7.77437C32.8565 7.76698 32.8359 7.76355 32.8153 7.76429ZM40.4978 9.22945C40.4567 9.22684 40.4174 9.21179 40.385 9.18631C40.3527 9.16083 40.3288 9.12611 40.3167 9.08678C40.1733 8.60766 39.8729 8.19072 39.4638 7.90305C39.0547 7.61539 38.5607 7.47373 38.0613 7.50089L33.5451 7.72588C33.4936 7.72994 33.4455 7.75295 33.41 7.79046C33.3745 7.82796 33.3542 7.8773 33.353 7.92891V11.5232C33.353 11.5752 33.3728 11.6253 33.4086 11.6631C33.4443 11.7008 33.4932 11.7235 33.5451 11.7263L38.0613 11.9513C38.5607 11.9784 39.0547 11.8368 39.4638 11.5491C39.8729 11.2614 40.1733 10.8445 40.3167 10.3654C40.3286 10.3253 40.3533 10.2902 40.387 10.2655C40.4206 10.2407 40.4615 10.2276 40.5033 10.2282C42.9013 10.1239 46.3474 9.93734 46.3474 9.72333C46.3474 9.50931 42.8958 9.32823 40.4923 9.22945H40.4978ZM39.7789 9.91539C39.7294 9.91539 39.682 9.89573 39.647 9.86074C39.612 9.82575 39.5923 9.7783 39.5923 9.72881C39.5923 9.37516 39.4518 9.03599 39.2018 8.78591C38.9517 8.53584 38.6125 8.39535 38.2589 8.39535C38.2094 8.39535 38.1619 8.37569 38.1269 8.3407C38.092 8.30571 38.0723 8.25826 38.0723 8.20878C38.0723 8.15929 38.092 8.11184 38.1269 8.07685C38.1619 8.04186 38.2094 8.0222 38.2589 8.0222C38.7115 8.0222 39.1456 8.202 39.4656 8.52206C39.7857 8.84211 39.9655 9.27619 39.9655 9.72881C39.9655 9.75378 39.9605 9.7785 39.9508 9.8015C39.9411 9.82451 39.9268 9.84532 39.9089 9.86272C39.891 9.88012 39.8698 9.89375 39.8465 9.90279C39.8232 9.91184 39.7984 9.91612 39.7734 9.91539H39.7789ZM31.9318 7.80819H31.7013C31.6644 7.80961 31.6295 7.82526 31.6039 7.85187C31.5784 7.87847 31.5641 7.91395 31.5641 7.95086V11.5232C31.5654 11.5597 31.5801 11.5945 31.6054 11.6208C31.6307 11.6472 31.6649 11.6632 31.7013 11.6659H31.9318C31.951 11.6666 31.9701 11.6635 31.9881 11.6567C32.006 11.6498 32.0224 11.6394 32.0362 11.6261C32.0501 11.6128 32.0611 11.5968 32.0686 11.5791C32.0761 11.5614 32.08 11.5424 32.0799 11.5232V7.95086C32.0808 7.93143 32.0775 7.91204 32.0703 7.89398C32.063 7.87592 32.0521 7.8596 32.038 7.84611C32.024 7.83261 32.0073 7.82226 31.989 7.81572C31.9707 7.80918 31.9512 7.80661 31.9318 7.80819Z" fill="#FF5100"/>
</svg>
