<svg width="213" height="72" viewBox="0 0 213 72" fill="none" xmlns="http://www.w3.org/2000/svg">
<g clip-path="url(#clip0)">
<path d="M5.50111 68.3259C5.50402 68.6879 5.43486 69.0469 5.29766 69.382C5.16047 69.717 4.95796 70.0213 4.70197 70.2773C4.44598 70.5333 4.14164 70.7358 3.80663 70.873C3.47161 71.0102 3.11261 71.0794 2.7506 71.0765C2.38859 71.0794 2.0296 71.0102 1.69458 70.873C1.35956 70.7358 1.05522 70.5333 0.799234 70.2773C0.543246 70.0213 0.340734 69.717 0.203539 69.382C0.0663432 69.0469 -0.00281983 68.6879 8.80258e-05 68.3259C-0.00281983 67.9639 0.0663432 67.6049 0.203539 67.2699C0.340734 66.9349 0.543246 66.6306 0.799234 66.3746C1.05522 66.1186 1.35956 65.9161 1.69458 65.7789C2.0296 65.6417 2.38859 65.5725 2.7506 65.5754C3.11261 65.5725 3.47161 65.6417 3.80663 65.7789C4.14164 65.9161 4.44598 66.1186 4.70197 66.3746C4.95796 66.6306 5.16047 66.9349 5.29766 67.2699C5.43486 67.6049 5.50402 67.9639 5.50111 68.3259ZM33.8792 68.3259C33.8821 68.6879 33.813 69.0469 33.6758 69.382C33.5386 69.717 33.336 70.0213 33.0801 70.2773C32.8241 70.5333 32.5197 70.7358 32.1847 70.873C31.8497 71.0102 31.4907 71.0794 31.1287 71.0765C30.7657 71.0793 30.4056 71.0103 30.0694 70.8734C29.7332 70.7365 29.4274 70.5343 29.1697 70.2786C28.9119 70.0229 28.7074 69.7187 28.5678 69.3836C28.4282 69.0484 28.3564 68.689 28.3564 68.3259C28.3564 67.9629 28.4282 67.6034 28.5678 67.2683C28.7074 66.9332 28.9119 66.6291 29.1697 66.3734C29.4274 66.1177 29.7332 65.9154 30.0694 65.7785C30.4056 65.6415 30.7657 65.5725 31.1287 65.5754C31.4907 65.5725 31.8497 65.6417 32.1847 65.7789C32.5197 65.9161 32.8241 66.1186 33.0801 66.3746C33.336 66.6306 33.5386 66.9349 33.6758 67.2699C33.813 67.6049 33.8821 67.9639 33.8792 68.3259ZM62.2573 68.3259C62.2573 68.689 62.1854 69.0484 62.0459 69.3836C61.9063 69.7187 61.7017 70.0229 61.444 70.2786C61.1862 70.5343 60.8805 70.7365 60.5442 70.8734C60.208 71.0103 59.848 71.0793 59.4849 71.0765C58.7555 71.0765 58.0558 70.7867 57.54 70.2709C57.0242 69.7551 56.7345 69.0554 56.7345 68.3259C56.7345 67.5965 57.0242 66.8969 57.54 66.3811C58.0558 65.8653 58.7555 65.5754 59.4849 65.5754C59.848 65.5725 60.208 65.6415 60.5442 65.7785C60.8805 65.9154 61.1862 66.1177 61.444 66.3734C61.7017 66.6291 61.9063 66.9332 62.0459 67.2683C62.1854 67.6034 62.2573 67.9629 62.2573 68.3259ZM90.6354 68.3259C90.6383 68.6879 90.5691 69.0469 90.4319 69.382C90.2948 69.717 90.0922 70.0213 89.8363 70.2773C89.5803 70.5333 89.2759 70.7358 88.9409 70.873C88.6059 71.0102 88.2469 71.0794 87.8849 71.0765C87.5229 71.0794 87.1639 71.0102 86.8289 70.873C86.4938 70.7358 86.1895 70.5333 85.9335 70.2773C85.6775 70.0213 85.475 69.717 85.3378 69.382C85.2006 69.0469 85.1315 68.6879 85.1344 68.3259C85.1315 67.9639 85.2006 67.6049 85.3378 67.2699C85.475 66.9349 85.6775 66.6306 85.9335 66.3746C86.1895 66.1186 86.4938 65.9161 86.8289 65.7789C87.1639 65.6417 87.5229 65.5725 87.8849 65.5754C88.2451 65.5754 88.6017 65.6468 88.9342 65.7853C89.2667 65.9238 89.5685 66.1267 89.8221 66.3824C90.0758 66.6381 90.2763 66.9414 90.4122 67.275C90.548 67.6086 90.6164 67.9658 90.6135 68.3259H90.6354ZM119.013 68.3259C119.016 68.6879 118.947 69.0469 118.81 69.382C118.673 69.717 118.47 70.0213 118.214 70.2773C117.958 70.5333 117.654 70.7358 117.319 70.873C116.984 71.0102 116.625 71.0794 116.263 71.0765C115.901 71.0794 115.542 71.0102 115.207 70.873C114.872 70.7358 114.568 70.5333 114.312 70.2773C114.056 70.0213 113.853 69.717 113.716 69.382C113.579 69.0469 113.51 68.6879 113.512 68.3259C113.51 67.9639 113.579 67.6049 113.716 67.2699C113.853 66.9349 114.056 66.6306 114.312 66.3746C114.568 66.1186 114.872 65.9161 115.207 65.7789C115.542 65.6417 115.901 65.5725 116.263 65.5754C116.623 65.5754 116.98 65.6468 117.312 65.7853C117.645 65.9238 117.947 66.1267 118.2 66.3824C118.454 66.6381 118.654 66.9414 118.79 67.275C118.926 67.6086 118.995 67.9658 118.992 68.3259H119.013ZM147.392 68.3259C147.392 68.689 147.32 69.0484 147.18 69.3836C147.041 69.7187 146.836 70.0229 146.578 70.2786C146.321 70.5343 146.015 70.7365 145.678 70.8734C145.342 71.0103 144.982 71.0793 144.619 71.0765C143.89 71.0765 143.19 70.7867 142.674 70.2709C142.158 69.7551 141.869 69.0554 141.869 68.3259C141.869 67.5965 142.158 66.8969 142.674 66.3811C143.19 65.8653 143.89 65.5754 144.619 65.5754C145.349 65.5754 146.048 65.8653 146.564 66.3811C147.08 66.8969 147.37 67.5965 147.37 68.3259H147.392ZM175.77 68.3259C175.773 68.6879 175.703 69.0469 175.566 69.382C175.429 69.717 175.227 70.0213 174.971 70.2773C174.715 70.5333 174.41 70.7358 174.075 70.873C173.74 71.0102 173.381 71.0794 173.019 71.0765C172.656 71.0793 172.296 71.0103 171.96 70.8734C171.624 70.7365 171.318 70.5343 171.06 70.2786C170.802 70.0229 170.598 69.7187 170.458 69.3836C170.319 69.0484 170.247 68.689 170.247 68.3259C170.247 67.9629 170.319 67.6034 170.458 67.2683C170.598 66.9332 170.802 66.6291 171.06 66.3734C171.318 66.1177 171.624 65.9154 171.96 65.7785C172.296 65.6415 172.656 65.5725 173.019 65.5754C173.377 65.5783 173.732 65.6518 174.062 65.7915C174.392 65.9313 174.691 66.1346 174.942 66.39C175.194 66.6454 175.392 66.9479 175.527 67.28C175.661 67.6122 175.729 67.9676 175.726 68.3259H175.77ZM204.148 68.3259C204.148 68.689 204.076 69.0484 203.936 69.3836C203.797 69.7187 203.592 70.0229 203.334 70.2786C203.077 70.5343 202.771 70.7365 202.435 70.8734C202.098 71.0103 201.738 71.0793 201.375 71.0765C200.646 71.0765 199.946 70.7867 199.43 70.2709C198.915 69.7551 198.625 69.0554 198.625 68.3259C198.625 67.5965 198.915 66.8969 199.43 66.3811C199.946 65.8653 200.646 65.5754 201.375 65.5754C202.101 65.5812 202.795 65.8735 203.306 66.3887C203.817 66.9039 204.104 67.6002 204.104 68.3259H204.148ZM232.526 68.3259C232.529 68.6879 232.46 69.0469 232.322 69.382C232.185 69.717 231.983 70.0213 231.727 70.2773C231.471 70.5333 231.166 70.7358 230.831 70.873C230.496 71.0102 230.137 71.0794 229.775 71.0765C229.413 71.0794 229.054 71.0102 228.719 70.873C228.384 70.7358 228.08 70.5333 227.824 70.2773C227.568 70.0213 227.365 69.717 227.228 69.382C227.091 69.0469 227.022 68.6879 227.025 68.3259C227.022 67.9639 227.091 67.6049 227.228 67.2699C227.365 66.9349 227.568 66.6306 227.824 66.3746C228.08 66.1186 228.384 65.9161 228.719 65.7789C229.054 65.6417 229.413 65.5725 229.775 65.5754C230.495 65.5869 231.181 65.8826 231.684 66.3978C232.187 66.913 232.466 67.606 232.46 68.3259H232.526ZM260.904 68.3259C260.907 68.6879 260.838 69.0469 260.701 69.382C260.563 69.717 260.361 70.0213 260.105 70.2773C259.849 70.5333 259.544 70.7358 259.209 70.873C258.874 71.0102 258.515 71.0794 258.153 71.0765C257.79 71.0793 257.43 71.0103 257.094 70.8734C256.758 70.7365 256.452 70.5343 256.194 70.2786C255.937 70.0229 255.732 69.7187 255.593 69.3836C255.453 69.0484 255.381 68.689 255.381 68.3259C255.381 67.9629 255.453 67.6034 255.593 67.2683C255.732 66.9332 255.937 66.6291 256.194 66.3734C256.452 66.1177 256.758 65.9154 257.094 65.7785C257.43 65.6415 257.79 65.5725 258.153 65.5754C258.873 65.5869 259.56 65.8826 260.062 66.3978C260.565 66.913 260.844 67.606 260.838 68.3259H260.904ZM289.282 68.3259C289.282 68.689 289.21 69.0484 289.071 69.3836C288.931 69.7187 288.726 70.0229 288.469 70.2786C288.211 70.5343 287.905 70.7365 287.569 70.8734C287.233 71.0103 286.873 71.0793 286.51 71.0765C285.78 71.0765 285.081 70.7867 284.565 70.2709C284.049 69.7551 283.759 69.0554 283.759 68.3259C283.759 67.5965 284.049 66.8969 284.565 66.3811C285.081 65.8653 285.78 65.5754 286.51 65.5754C287.232 65.5869 287.92 65.8817 288.426 66.3963C288.933 66.9109 289.217 67.604 289.217 68.3259H289.282Z" fill="#623F99"/>
<path d="M5.50111 35.5385C5.50402 35.9005 5.43486 36.2595 5.29766 36.5945C5.16047 36.9296 4.95796 37.234 4.70197 37.49C4.44598 37.746 4.14164 37.9484 3.80663 38.0856C3.47161 38.2228 3.11261 38.2919 2.7506 38.289C2.38859 38.2919 2.0296 38.2228 1.69458 38.0856C1.35956 37.9484 1.05522 37.746 0.799234 37.49C0.543246 37.234 0.340734 36.9296 0.203539 36.5945C0.0663432 36.2595 -0.00281983 35.9005 8.80258e-05 35.5385C-0.00281983 35.1765 0.0663432 34.8176 0.203539 34.4826C0.340734 34.1476 0.543246 33.8431 0.799234 33.5872C1.05522 33.3312 1.35956 33.1288 1.69458 32.9916C2.0296 32.8544 2.38859 32.7852 2.7506 32.7881C3.11261 32.7852 3.47161 32.8544 3.80663 32.9916C4.14164 33.1288 4.44598 33.3312 4.70197 33.5872C4.95796 33.8431 5.16047 34.1476 5.29766 34.4826C5.43486 34.8176 5.50402 35.1765 5.50111 35.5385ZM33.8792 35.5385C33.8821 35.9005 33.813 36.2595 33.6758 36.5945C33.5386 36.9296 33.336 37.234 33.0801 37.49C32.8241 37.746 32.5197 37.9484 32.1847 38.0856C31.8497 38.2228 31.4907 38.2919 31.1287 38.289C30.7657 38.2919 30.4056 38.2229 30.0694 38.086C29.7332 37.9491 29.4274 37.7469 29.1697 37.4912C28.9119 37.2355 28.7074 36.9314 28.5678 36.5963C28.4282 36.2611 28.3564 35.9016 28.3564 35.5385C28.3564 35.1755 28.4282 34.816 28.5678 34.4809C28.7074 34.1458 28.9119 33.8417 29.1697 33.586C29.4274 33.3303 29.7332 33.1281 30.0694 32.9912C30.4056 32.8543 30.7657 32.7853 31.1287 32.7881C31.4907 32.7852 31.8497 32.8544 32.1847 32.9916C32.5197 33.1288 32.8241 33.3312 33.0801 33.5872C33.336 33.8431 33.5386 34.1476 33.6758 34.4826C33.813 34.8176 33.8821 35.1765 33.8792 35.5385ZM62.2573 35.5385C62.2573 35.9016 62.1854 36.2611 62.0459 36.5963C61.9063 36.9314 61.7017 37.2355 61.444 37.4912C61.1862 37.7469 60.8805 37.9491 60.5442 38.086C60.208 38.2229 59.848 38.2919 59.4849 38.289C58.7555 38.289 58.0558 37.9993 57.54 37.4835C57.0242 36.9677 56.7345 36.268 56.7345 35.5385C56.7345 34.809 57.0242 34.1095 57.54 33.5937C58.0558 33.0779 58.7555 32.7881 59.4849 32.7881C59.848 32.7853 60.208 32.8543 60.5442 32.9912C60.8805 33.1281 61.1862 33.3303 61.444 33.586C61.7017 33.8417 61.9063 34.1458 62.0459 34.4809C62.1854 34.816 62.2573 35.1755 62.2573 35.5385ZM90.6354 35.5385C90.6383 35.9005 90.5691 36.2595 90.4319 36.5945C90.2948 36.9296 90.0922 37.234 89.8363 37.49C89.5803 37.746 89.2759 37.9484 88.9409 38.0856C88.6059 38.2228 88.2469 38.2919 87.8849 38.289C87.5229 38.2919 87.1639 38.2228 86.8289 38.0856C86.4938 37.9484 86.1895 37.746 85.9335 37.49C85.6775 37.234 85.475 36.9296 85.3378 36.5945C85.2006 36.2595 85.1315 35.9005 85.1344 35.5385C85.1315 35.1765 85.2006 34.8176 85.3378 34.4826C85.475 34.1476 85.6775 33.8431 85.9335 33.5872C86.1895 33.3312 86.4938 33.1288 86.8289 32.9916C87.1639 32.8544 87.5229 32.7852 87.8849 32.7881C88.2451 32.7881 88.6017 32.8594 88.9342 32.9979C89.2667 33.1363 89.5685 33.3393 89.8221 33.595C90.0758 33.8507 90.2763 34.1541 90.4122 34.4877C90.548 34.8213 90.6164 35.1784 90.6135 35.5385H90.6354ZM119.013 35.5385C119.016 35.9005 118.947 36.2595 118.81 36.5945C118.673 36.9296 118.47 37.234 118.214 37.49C117.958 37.746 117.654 37.9484 117.319 38.0856C116.984 38.2228 116.625 38.2919 116.263 38.289C115.901 38.2919 115.542 38.2228 115.207 38.0856C114.872 37.9484 114.568 37.746 114.312 37.49C114.056 37.234 113.853 36.9296 113.716 36.5945C113.579 36.2595 113.51 35.9005 113.512 35.5385C113.51 35.1765 113.579 34.8176 113.716 34.4826C113.853 34.1476 114.056 33.8431 114.312 33.5872C114.568 33.3312 114.872 33.1288 115.207 32.9916C115.542 32.8544 115.901 32.7852 116.263 32.7881C116.623 32.7881 116.98 32.8594 117.312 32.9979C117.645 33.1363 117.947 33.3393 118.2 33.595C118.454 33.8507 118.654 34.1541 118.79 34.4877C118.926 34.8213 118.995 35.1784 118.992 35.5385H119.013ZM147.392 35.5385C147.392 35.9016 147.32 36.2611 147.18 36.5963C147.041 36.9314 146.836 37.2355 146.578 37.4912C146.321 37.7469 146.015 37.9491 145.678 38.086C145.342 38.2229 144.982 38.2919 144.619 38.289C143.89 38.289 143.19 37.9993 142.674 37.4835C142.158 36.9677 141.869 36.268 141.869 35.5385C141.869 34.809 142.158 34.1095 142.674 33.5937C143.19 33.0779 143.89 32.7881 144.619 32.7881C145.349 32.7881 146.048 33.0779 146.564 33.5937C147.08 34.1095 147.37 34.809 147.37 35.5385H147.392ZM175.77 35.5385C175.773 35.9005 175.703 36.2595 175.566 36.5945C175.429 36.9296 175.227 37.234 174.971 37.49C174.715 37.746 174.41 37.9484 174.075 38.0856C173.74 38.2228 173.381 38.2919 173.019 38.289C172.656 38.2919 172.296 38.2229 171.96 38.086C171.624 37.9491 171.318 37.7469 171.06 37.4912C170.802 37.2355 170.598 36.9314 170.458 36.5963C170.319 36.2611 170.247 35.9016 170.247 35.5385C170.247 35.1755 170.319 34.816 170.458 34.4809C170.598 34.1458 170.802 33.8417 171.06 33.586C171.318 33.3303 171.624 33.1281 171.96 32.9912C172.296 32.8543 172.656 32.7853 173.019 32.7881C173.377 32.791 173.732 32.8643 174.062 33.0041C174.392 33.1439 174.691 33.3473 174.942 33.6027C175.194 33.8582 175.392 34.1606 175.527 34.4928C175.661 34.8249 175.729 35.1802 175.726 35.5385H175.77ZM204.148 35.5385C204.148 35.9016 204.076 36.2611 203.936 36.5963C203.797 36.9314 203.592 37.2355 203.334 37.4912C203.077 37.7469 202.771 37.9491 202.435 38.086C202.098 38.2229 201.738 38.2919 201.375 38.289C200.646 38.289 199.946 37.9993 199.43 37.4835C198.915 36.9677 198.625 36.268 198.625 35.5385C198.625 34.809 198.915 34.1095 199.43 33.5937C199.946 33.0779 200.646 32.7881 201.375 32.7881C202.101 32.7939 202.795 33.0862 203.306 33.6014C203.817 34.1166 204.104 34.8128 204.104 35.5385H204.148ZM232.526 35.5385C232.529 35.9005 232.46 36.2595 232.322 36.5945C232.185 36.9296 231.983 37.234 231.727 37.49C231.471 37.746 231.166 37.9484 230.831 38.0856C230.496 38.2228 230.137 38.2919 229.775 38.289C229.413 38.2919 229.054 38.2228 228.719 38.0856C228.384 37.9484 228.08 37.746 227.824 37.49C227.568 37.234 227.365 36.9296 227.228 36.5945C227.091 36.2595 227.022 35.9005 227.025 35.5385C227.022 35.1765 227.091 34.8176 227.228 34.4826C227.365 34.1476 227.568 33.8431 227.824 33.5872C228.08 33.3312 228.384 33.1288 228.719 32.9916C229.054 32.8544 229.413 32.7852 229.775 32.7881C230.495 32.7996 231.181 33.0951 231.684 33.6103C232.187 34.1255 232.466 34.8186 232.46 35.5385H232.526ZM260.904 35.5385C260.907 35.9005 260.838 36.2595 260.701 36.5945C260.563 36.9296 260.361 37.234 260.105 37.49C259.849 37.746 259.544 37.9484 259.209 38.0856C258.874 38.2228 258.515 38.2919 258.153 38.289C257.79 38.2919 257.43 38.2229 257.094 38.086C256.758 37.9491 256.452 37.7469 256.194 37.4912C255.937 37.2355 255.732 36.9314 255.593 36.5963C255.453 36.2611 255.381 35.9016 255.381 35.5385C255.381 35.1755 255.453 34.816 255.593 34.4809C255.732 34.1458 255.937 33.8417 256.194 33.586C256.452 33.3303 256.758 33.1281 257.094 32.9912C257.43 32.8543 257.79 32.7853 258.153 32.7881C258.873 32.7996 259.56 33.0951 260.062 33.6103C260.565 34.1255 260.844 34.8186 260.838 35.5385H260.904ZM289.282 35.5385C289.282 35.9016 289.21 36.2611 289.071 36.5963C288.931 36.9314 288.726 37.2355 288.469 37.4912C288.211 37.7469 287.905 37.9491 287.569 38.086C287.233 38.2229 286.873 38.2919 286.51 38.289C285.78 38.289 285.081 37.9993 284.565 37.4835C284.049 36.9677 283.759 36.268 283.759 35.5385C283.759 34.809 284.049 34.1095 284.565 33.5937C285.081 33.0779 285.78 32.7881 286.51 32.7881C287.232 32.7996 287.92 33.0944 288.426 33.609C288.933 34.1236 289.217 34.8165 289.217 35.5385H289.282Z" fill="#623F99"/>
<path d="M5.50111 2.7508C5.50402 3.11281 5.43486 3.47181 5.29766 3.80683C5.16047 4.14185 4.95796 4.44618 4.70197 4.70217C4.44598 4.95816 4.14164 5.16067 3.80663 5.29787C3.47161 5.43506 3.11261 5.50422 2.7506 5.50132C2.38859 5.50422 2.0296 5.43506 1.69458 5.29787C1.35956 5.16067 1.05522 4.95816 0.799234 4.70217C0.543246 4.44618 0.340734 4.14185 0.203539 3.80683C0.0663432 3.47181 -0.00281983 3.11281 8.80258e-05 2.7508C-0.00281983 2.38879 0.0663432 2.0298 0.203539 1.69478C0.340734 1.35976 0.543246 1.05542 0.799234 0.799436C1.05522 0.543448 1.35956 0.340936 1.69458 0.20374C2.0296 0.066545 2.38859 -0.00261831 2.7506 0.00028944C3.11261 -0.00261831 3.47161 0.066545 3.80663 0.20374C4.14164 0.340936 4.44598 0.543448 4.70197 0.799436C4.95796 1.05542 5.16047 1.35976 5.29766 1.69478C5.43486 2.0298 5.50402 2.38879 5.50111 2.7508ZM33.8792 2.7508C33.8821 3.11281 33.813 3.47181 33.6758 3.80683C33.5386 4.14185 33.336 4.44618 33.0801 4.70217C32.8241 4.95816 32.5197 5.16067 32.1847 5.29787C31.8497 5.43506 31.4907 5.50422 31.1287 5.50132C30.7657 5.5042 30.4056 5.43507 30.0694 5.29813C29.7332 5.1612 29.4274 4.95906 29.1697 4.70337C28.9119 4.44767 28.7074 4.14356 28.5678 3.80843C28.4282 3.47329 28.3564 3.11385 28.3564 2.7508C28.3564 2.38776 28.4282 2.02832 28.5678 1.69318C28.7074 1.35804 28.9119 1.0538 29.1697 0.798104C29.4274 0.542409 29.7332 0.340275 30.0694 0.203341C30.4056 0.0664058 30.7657 -0.00259161 31.1287 0.00028944C31.4907 -0.00261831 31.8497 0.066545 32.1847 0.20374C32.5197 0.340936 32.8241 0.543448 33.0801 0.799436C33.336 1.05542 33.5386 1.35976 33.6758 1.69478C33.813 2.0298 33.8821 2.38879 33.8792 2.7508ZM62.2573 2.7508C62.2573 3.11385 62.1854 3.47329 62.0459 3.80843C61.9063 4.14356 61.7017 4.44767 61.444 4.70337C61.1862 4.95906 60.8805 5.1612 60.5442 5.29813C60.208 5.43507 59.848 5.5042 59.4849 5.50132C58.7555 5.50132 58.0558 5.21146 57.54 4.69564C57.0242 4.17982 56.7345 3.48028 56.7345 2.7508C56.7345 2.02133 57.0242 1.32165 57.54 0.805831C58.0558 0.290014 58.7555 0.00028944 59.4849 0.00028944C59.848 -0.00259161 60.208 0.0664058 60.5442 0.203341C60.8805 0.340275 61.1862 0.542409 61.444 0.798104C61.7017 1.0538 61.9063 1.35804 62.0459 1.69318C62.1854 2.02832 62.2573 2.38776 62.2573 2.7508ZM90.6354 2.7508C90.6383 3.11281 90.5691 3.47181 90.4319 3.80683C90.2948 4.14185 90.0922 4.44618 89.8363 4.70217C89.5803 4.95816 89.2759 5.16067 88.9409 5.29787C88.6059 5.43506 88.2469 5.50422 87.8849 5.50132C87.5229 5.50422 87.1639 5.43506 86.8289 5.29787C86.4938 5.16067 86.1895 4.95816 85.9335 4.70217C85.6775 4.44618 85.475 4.14185 85.3378 3.80683C85.2006 3.47181 85.1315 3.11281 85.1344 2.7508C85.1315 2.38879 85.2006 2.0298 85.3378 1.69478C85.475 1.35976 85.6775 1.05542 85.9335 0.799436C86.1895 0.543448 86.4938 0.340936 86.8289 0.20374C87.1639 0.066545 87.5229 -0.00261831 87.8849 0.00028944C88.2451 0.000277996 88.6017 0.0715113 88.9342 0.210002C89.2667 0.348494 89.5685 0.551467 89.8221 0.807164C90.0758 1.06286 90.2763 1.36626 90.4122 1.69984C90.548 2.03342 90.6164 2.39064 90.6135 2.7508H90.6354ZM119.013 2.7508C119.016 3.11281 118.947 3.47181 118.81 3.80683C118.673 4.14185 118.47 4.44618 118.214 4.70217C117.958 4.95816 117.654 5.16067 117.319 5.29787C116.984 5.43506 116.625 5.50422 116.263 5.50132C115.901 5.50422 115.542 5.43506 115.207 5.29787C114.872 5.16067 114.568 4.95816 114.312 4.70217C114.056 4.44618 113.853 4.14185 113.716 3.80683C113.579 3.47181 113.51 3.11281 113.512 2.7508C113.51 2.38879 113.579 2.0298 113.716 1.69478C113.853 1.35976 114.056 1.05542 114.312 0.799436C114.568 0.543448 114.872 0.340936 115.207 0.20374C115.542 0.066545 115.901 -0.00261831 116.263 0.00028944C116.623 0.000277996 116.98 0.0715113 117.312 0.210002C117.645 0.348494 117.947 0.551467 118.2 0.807164C118.454 1.06286 118.654 1.36626 118.79 1.69984C118.926 2.03342 118.995 2.39064 118.992 2.7508H119.013ZM147.392 2.7508C147.392 3.11385 147.32 3.47329 147.18 3.80843C147.041 4.14356 146.836 4.44767 146.578 4.70337C146.321 4.95906 146.015 5.1612 145.678 5.29813C145.342 5.43507 144.982 5.5042 144.619 5.50132C143.89 5.50132 143.19 5.21146 142.674 4.69564C142.158 4.17982 141.869 3.48028 141.869 2.7508C141.869 2.02133 142.158 1.32165 142.674 0.805831C143.19 0.290014 143.89 0.00028944 144.619 0.00028944C145.349 0.00028944 146.048 0.290014 146.564 0.805831C147.08 1.32165 147.37 2.02133 147.37 2.7508H147.392ZM175.77 2.7508C175.773 3.11281 175.703 3.47181 175.566 3.80683C175.429 4.14185 175.227 4.44618 174.971 4.70217C174.715 4.95816 174.41 5.16067 174.075 5.29787C173.74 5.43506 173.381 5.50422 173.019 5.50132C172.656 5.5042 172.296 5.43507 171.96 5.29813C171.624 5.1612 171.318 4.95906 171.06 4.70337C170.802 4.44767 170.598 4.14356 170.458 3.80843C170.319 3.47329 170.247 3.11385 170.247 2.7508C170.247 2.38776 170.319 2.02832 170.458 1.69318C170.598 1.35804 170.802 1.0538 171.06 0.798104C171.318 0.542409 171.624 0.340275 171.96 0.203341C172.296 0.0664058 172.656 -0.00259161 173.019 0.00028944C173.377 0.00314474 173.732 0.0764918 174.062 0.216264C174.392 0.356037 174.691 0.559482 174.942 0.814891C175.194 1.0703 175.392 1.37275 175.527 1.7049C175.661 2.03706 175.729 2.39247 175.726 2.7508H175.77ZM204.148 2.7508C204.148 3.11385 204.076 3.47329 203.936 3.80843C203.797 4.14356 203.592 4.44767 203.334 4.70337C203.077 4.95906 202.771 5.1612 202.435 5.29813C202.098 5.43507 201.738 5.5042 201.375 5.50132C200.646 5.50132 199.946 5.21146 199.43 4.69564C198.915 4.17982 198.625 3.48028 198.625 2.7508C198.625 2.02133 198.915 1.32165 199.43 0.805831C199.946 0.290014 200.646 0.00028944 201.375 0.00028944C202.101 0.00604916 202.795 0.298365 203.306 0.813559C203.817 1.32875 204.104 2.02509 204.104 2.7508H204.148ZM232.526 2.7508C232.529 3.11281 232.46 3.47181 232.322 3.80683C232.185 4.14185 231.983 4.44618 231.727 4.70217C231.471 4.95816 231.166 5.16067 230.831 5.29787C230.496 5.43506 230.137 5.50422 229.775 5.50132C229.413 5.50422 229.054 5.43506 228.719 5.29787C228.384 5.16067 228.08 4.95816 227.824 4.70217C227.568 4.44618 227.365 4.14185 227.228 3.80683C227.091 3.47181 227.022 3.11281 227.025 2.7508C227.022 2.38879 227.091 2.0298 227.228 1.69478C227.365 1.35976 227.568 1.05542 227.824 0.799436C228.08 0.543448 228.384 0.340936 228.719 0.20374C229.054 0.066545 229.413 -0.00261831 229.775 0.00028944C230.495 0.0117855 231.181 0.307286 231.684 0.822486C232.187 1.33769 232.466 2.03085 232.46 2.7508H232.526ZM260.904 2.7508C260.907 3.11281 260.838 3.47181 260.701 3.80683C260.563 4.14185 260.361 4.44618 260.105 4.70217C259.849 4.95816 259.544 5.16067 259.209 5.29787C258.874 5.43506 258.515 5.50422 258.153 5.50132C257.79 5.5042 257.43 5.43507 257.094 5.29813C256.758 5.1612 256.452 4.95906 256.194 4.70337C255.937 4.44767 255.732 4.14356 255.593 3.80843C255.453 3.47329 255.381 3.11385 255.381 2.7508C255.381 2.38776 255.453 2.02832 255.593 1.69318C255.732 1.35804 255.937 1.0538 256.194 0.798104C256.452 0.542409 256.758 0.340275 257.094 0.203341C257.43 0.0664058 257.79 -0.00259161 258.153 0.00028944C258.873 0.0117855 259.56 0.307286 260.062 0.822486C260.565 1.33769 260.844 2.03085 260.838 2.7508H260.904ZM289.282 2.7508C289.282 3.11385 289.21 3.47329 289.071 3.80843C288.931 4.14356 288.726 4.44767 288.469 4.70337C288.211 4.95906 287.905 5.1612 287.569 5.29813C287.233 5.43507 286.873 5.5042 286.51 5.50132C285.78 5.50132 285.081 5.21146 284.565 4.69564C284.049 4.17982 283.759 3.48028 283.759 2.7508C283.759 2.02133 284.049 1.32165 284.565 0.805831C285.081 0.290014 285.78 0.00028944 286.51 0.00028944C287.232 0.0117497 287.92 0.306573 288.426 0.821153C288.933 1.33573 289.217 2.02883 289.217 2.7508H289.282Z" fill="#FF5100"/>
</g>
<defs>
<clipPath id="clip0">
<rect width="71.0765" height="289.282" fill="white" transform="translate(0 71.0765) rotate(-90)"/>
</clipPath>
</defs>
</svg>
