<svg width="84" height="73" viewBox="0 0 84 73" fill="none" xmlns="http://www.w3.org/2000/svg">
<path d="M29.7867 19.8594L33.2615 26.8121L25.8709 25.0687L0.614103 16.9146L29.7867 19.8594Z" fill="#B6B8D6"/>
<path d="M33.2614 26.812L20.7009 25.9406L23.7875 24.3989L33.2614 26.812Z" fill="#F2FCFF"/>
<path d="M29.7868 19.8594L32.0385 13.1193L0.61415 16.9146L29.7868 19.8594Z" fill="#DDE2EE"/>
<path d="M0.61408 16.9145L25.8709 25.0686L22.0334 34.7709L0.61408 16.9145Z" fill="#DDE2EE"/>
<path d="M37.5169 19.8232C37.5325 19.7488 37.5325 19.6719 37.5169 19.5974C37.5021 19.5215 37.4723 19.4493 37.4293 19.3849C37.3863 19.3206 37.3309 19.2655 37.2664 19.2227C37.2019 19.18 37.1296 19.1505 37.0536 19.1359C36.9776 19.1214 36.8995 19.122 36.8238 19.1379C35.8168 19.3299 34.8309 19.6194 33.8801 20.0024C33.8056 20.0296 33.7375 20.0719 33.6802 20.1266C33.6228 20.1814 33.5774 20.2473 33.5467 20.3204C33.516 20.3935 33.5007 20.4722 33.5018 20.5514C33.5029 20.6307 33.5203 20.7089 33.553 20.7811C33.5813 20.8549 33.6241 20.9222 33.6788 20.9792C33.7336 21.0362 33.7992 21.0816 33.8717 21.1128C33.9443 21.144 34.0224 21.1604 34.1014 21.1609C34.1804 21.1615 34.2588 21.1462 34.3318 21.116C35.2157 20.7689 36.1311 20.5081 37.0652 20.3372C37.1839 20.3079 37.2908 20.2429 37.3716 20.151C37.4523 20.0591 37.503 19.9448 37.5169 19.8232Z" fill="#F2FCFF"/>
<path d="M82.8883 66.76C82.811 66.7503 82.7364 66.7256 82.6688 66.6871C82.6011 66.6486 82.5417 66.5971 82.4939 66.5356C82.4462 66.4741 82.411 66.4038 82.3905 66.3287C82.37 66.2537 82.3644 66.1753 82.3742 66.098C82.6041 64.1842 82.5014 62.245 82.0706 60.3662C82.0533 60.2911 82.0512 60.2132 82.0642 60.1372C82.0772 60.0612 82.1051 59.9885 82.1464 59.9233C82.1877 59.8581 82.2415 59.8018 82.3047 59.7575C82.3678 59.7132 82.4391 59.6819 82.5145 59.6653C82.6671 59.6325 82.8266 59.6605 82.9589 59.7434C83.0913 59.8263 83.1861 59.9576 83.2231 60.1093C83.6858 62.1232 83.7964 64.2021 83.5502 66.2538C83.5454 66.2663 83.5454 66.2802 83.5502 66.2927C83.5217 66.4411 83.4369 66.5727 83.3134 66.6598C83.19 66.7469 83.0376 66.7828 82.8883 66.76ZM81.7902 57.3758C81.7181 57.4064 81.6408 57.4224 81.5625 57.4229C81.4842 57.4234 81.4066 57.4084 81.3341 57.3787C81.2617 57.349 81.1959 57.3052 81.1405 57.2499C81.0851 57.1946 81.0412 57.1288 81.0114 57.0565C80.2629 55.265 79.2753 53.5831 78.0754 52.0567C78.0272 51.9955 77.9915 51.9252 77.9704 51.8501C77.9493 51.775 77.9434 51.6965 77.9528 51.619C77.9622 51.5416 77.9868 51.4668 78.0253 51.3989C78.0637 51.331 78.1151 51.2714 78.1767 51.2234C78.2373 51.1754 78.3069 51.1398 78.3814 51.1189C78.4559 51.098 78.5338 51.092 78.6106 51.1014C78.6874 51.1109 78.7616 51.1354 78.8288 51.1738C78.896 51.2121 78.955 51.2634 79.0022 51.3247C80.28 52.932 81.3284 54.709 82.1173 56.6048C82.1519 56.7137 82.1519 56.8307 82.1173 56.9396C82.1023 57.0335 82.0647 57.1222 82.0077 57.1982C81.9507 57.2742 81.876 57.3351 81.7902 57.3758ZM76.5568 49.479C76.4447 49.5893 76.2936 49.6512 76.1363 49.6512C75.979 49.6512 75.8279 49.5893 75.7157 49.479L75.521 49.3077C74.1107 48.0918 72.5788 47.0244 70.9497 46.1225C70.82 46.0458 70.7244 45.9226 70.6824 45.7778C70.6405 45.6331 70.6553 45.4779 70.7238 45.3437C70.8006 45.2141 70.9233 45.118 71.0676 45.0748C71.2119 45.0315 71.3672 45.0441 71.5026 45.1101C73.1973 46.0544 74.7916 47.1685 76.2609 48.4354L76.479 48.6224C76.554 48.6914 76.6105 48.7783 76.6432 48.8749C76.6758 48.9715 76.6836 49.0748 76.6659 49.1753C76.6534 49.2836 76.616 49.3875 76.5568 49.479ZM68.5666 44.3079C68.5361 44.3796 68.4917 44.4446 68.4359 44.4991C68.3802 44.5536 68.3143 44.5965 68.2419 44.6255C68.1696 44.6544 68.0922 44.6688 68.0143 44.6677C67.9364 44.6667 67.8594 44.6503 67.7878 44.6195C65.9758 43.8566 64.1126 43.2217 62.2118 42.7192C62.0608 42.6757 61.933 42.5745 61.8558 42.4376C61.7786 42.3007 61.7582 42.139 61.7991 41.9872C61.8187 41.9104 61.8538 41.8384 61.9022 41.7756C61.9505 41.7129 62.0112 41.6606 62.0804 41.6219C62.1496 41.5833 62.2259 41.5592 62.3048 41.551C62.3836 41.5429 62.4633 41.5508 62.5389 41.5745C64.4891 42.0951 66.4015 42.7482 68.2629 43.5292C68.388 43.5807 68.4914 43.6741 68.5553 43.7934C68.6193 43.9128 68.6398 44.0506 68.6133 44.1833C68.5963 44.2267 68.5755 44.2684 68.551 44.3079H68.5666ZM59.4238 41.4343C59.409 41.5102 59.3792 41.5824 59.3362 41.6467C59.2932 41.7111 59.2378 41.7662 59.1733 41.8089C59.1088 41.8517 59.0365 41.8812 58.9605 41.8957C58.8845 41.9103 58.8064 41.9096 58.7307 41.8938L58.2401 41.8003C58.0454 42.4389 57.8273 43.0775 57.5703 43.7005C57.5414 43.7736 57.498 43.84 57.4428 43.8959C57.3875 43.9518 57.3216 43.996 57.2489 44.0258C57.1762 44.0556 57.0982 44.0705 57.0196 44.0694C56.941 44.0684 56.8635 44.0515 56.7916 44.0198C56.7185 43.9907 56.652 43.9474 56.5958 43.8923C56.5397 43.8372 56.4951 43.7715 56.4646 43.699C56.4342 43.6265 56.4185 43.5487 56.4185 43.47C56.4185 43.3914 56.4341 43.3136 56.4645 43.241C56.6903 42.6959 56.8928 42.1352 57.0641 41.5667C55.7558 41.333 54.3774 41.115 52.8666 40.9125C52.7106 40.8908 52.5697 40.8081 52.4748 40.6825C52.3798 40.5569 52.3387 40.3987 52.3603 40.2428C52.382 40.0868 52.4648 39.9459 52.5904 39.8509C52.716 39.756 52.8741 39.7149 53.0301 39.7365C54.5876 39.9468 56.0206 40.1727 57.3756 40.4219C57.6097 39.5221 57.7738 38.6056 57.8663 37.6806C57.8722 37.6028 57.8934 37.5269 57.9287 37.4573C57.9641 37.3877 58.0128 37.3258 58.0722 37.2752C58.1315 37.2245 58.2003 37.1861 58.2746 37.1621C58.3488 37.1381 58.4271 37.1291 58.5049 37.1354C58.5823 37.1404 58.658 37.1607 58.7276 37.1952C58.7971 37.2297 58.859 37.2777 58.9098 37.3364C58.9606 37.3952 58.9991 37.4634 59.0232 37.5372C59.0472 37.611 59.0564 37.6889 59.05 37.7663C58.979 38.7524 58.8306 39.7315 58.6061 40.6944L59.0344 40.7801C59.1852 40.8121 59.3175 40.9015 59.4033 41.0295C59.4891 41.1575 59.5216 41.3139 59.4939 41.4654L59.4238 41.4343ZM58.3647 34.6979C58.2879 34.7088 58.2097 34.7044 58.1346 34.6847C58.0596 34.6651 57.9892 34.6307 57.9275 34.5836C57.8659 34.5365 57.8143 34.4776 57.7757 34.4103C57.7371 34.343 57.7123 34.2687 57.7027 34.1917C57.5369 33.0188 57.2364 31.8691 56.8072 30.7651C56.5396 30.0832 56.222 29.4221 55.857 28.787C55.8182 28.7195 55.793 28.645 55.7829 28.5678C55.7729 28.4905 55.7781 28.4121 55.7983 28.3369C55.8186 28.2617 55.8535 28.1912 55.9009 28.1294C55.9484 28.0677 56.0076 28.0159 56.0751 27.9771C56.1426 27.9382 56.2171 27.913 56.2943 27.9029C56.3716 27.8929 56.45 27.8981 56.5252 27.9184C56.6004 27.9386 56.6709 27.9735 56.7326 28.021C56.7944 28.0684 56.8462 28.1276 56.885 28.1951C57.9184 29.9926 58.5928 31.9736 58.8709 34.0281C58.8827 34.0925 58.8827 34.1585 58.8709 34.2228C58.8477 34.3415 58.7892 34.4503 58.703 34.5351C58.6168 34.6198 58.507 34.6766 58.388 34.6979H58.3647ZM55.857 46.9636C54.7435 48.6986 53.3455 50.2335 51.7217 51.5038C51.6605 51.5521 51.5903 51.5878 51.5152 51.6088C51.4401 51.6299 51.3615 51.6359 51.2841 51.6265C51.2066 51.6171 51.1318 51.5924 51.0639 51.554C50.996 51.5156 50.9364 51.4641 50.8885 51.4026C50.8398 51.3419 50.8039 51.2719 50.783 51.197C50.762 51.1221 50.7565 51.0437 50.7667 50.9665C50.7769 50.8894 50.8026 50.8151 50.8423 50.7482C50.8819 50.6813 50.9347 50.623 50.9975 50.5771C52.5219 49.3851 53.8378 47.9481 54.8914 46.325C54.9669 46.2128 55.0785 46.1299 55.2077 46.09C55.3369 46.0501 55.4758 46.0556 55.6014 46.1057C55.7271 46.1558 55.8318 46.2473 55.8981 46.3651C55.9644 46.483 55.9884 46.6199 55.9661 46.7533C55.9541 46.829 55.9248 46.901 55.8804 46.9636H55.857ZM54.6577 26.0379C54.5469 26.1478 54.3971 26.2094 54.2411 26.2094C54.085 26.2094 53.9353 26.1478 53.8244 26.0379C52.5245 24.6084 51.0018 23.3987 49.3154 22.4556C49.1827 22.3817 49.0846 22.2584 49.0423 22.1126C49 21.9668 49.017 21.8102 49.0895 21.6768C49.1662 21.5471 49.2894 21.4515 49.4341 21.4096C49.5789 21.3676 49.7341 21.3824 49.8683 21.451C51.6877 22.4371 53.3365 23.7098 54.7512 25.2202C54.8109 25.2887 54.8545 25.3698 54.8788 25.4574C54.9031 25.545 54.9074 25.6369 54.8914 25.7264C54.8592 25.8514 54.7849 25.9614 54.6811 26.0379H54.6577ZM48.5599 53.443C48.076 53.6733 47.5794 53.8761 47.0725 54.0504C45.6024 54.5517 44.0534 54.7812 42.5011 54.7279C42.3441 54.7217 42.196 54.6534 42.0894 54.5381C41.9828 54.4227 41.9264 54.2697 41.9326 54.1127C41.9388 53.9557 42.0071 53.8076 42.1225 53.701C42.2378 53.5944 42.3909 53.538 42.5478 53.5442C43.9525 53.5985 45.355 53.3898 46.6831 52.929C47.1527 52.771 47.6129 52.5864 48.0615 52.376C48.2032 52.3122 48.3642 52.3067 48.5099 52.3606C48.6556 52.4145 48.7743 52.5236 48.8403 52.6642C48.89 52.7766 48.9062 52.901 48.887 53.0224C48.8716 53.111 48.8363 53.1949 48.7837 53.2677C48.7311 53.3406 48.6625 53.4005 48.5833 53.443H48.5599ZM49.3387 40.5075C47.4082 40.2878 45.4569 40.3271 43.5368 40.6243C43.4601 40.6376 43.3816 40.6357 43.3056 40.6186C43.2297 40.6016 43.1578 40.5697 43.0942 40.5249C43.0306 40.48 42.9764 40.4231 42.9347 40.3573C42.8931 40.2915 42.8648 40.2182 42.8515 40.1415C42.8382 40.0648 42.8402 39.9862 42.8573 39.9103C42.8743 39.8343 42.9062 39.7625 42.951 39.6988C42.9958 39.6352 43.0528 39.581 43.1185 39.5394C43.1843 39.4978 43.2577 39.4695 43.3344 39.4562C45.3551 39.1456 47.4077 39.1011 49.4399 39.3238C49.5178 39.3306 49.5935 39.3528 49.6627 39.3891C49.732 39.4253 49.7933 39.4749 49.8433 39.535C49.8933 39.5951 49.9308 39.6645 49.9538 39.7392C49.9768 39.8139 49.9848 39.8924 49.9773 39.9702C49.9811 39.9882 49.9811 40.0067 49.9773 40.0247C49.9512 40.1648 49.8753 40.2908 49.7637 40.3795C49.6521 40.4683 49.5123 40.5137 49.3699 40.5075H49.3387ZM46.8856 20.6332C46.8625 20.7111 46.8231 20.7833 46.7701 20.8449C46.7172 20.9065 46.6518 20.9563 46.5782 20.9908C46.5047 21.0254 46.4247 21.044 46.3434 21.0455C46.2622 21.0469 46.1816 21.0312 46.1068 20.9993C45.2753 20.7126 44.4242 20.4862 43.5602 20.3217C42.5335 20.1214 41.4911 20.0119 40.4451 19.9947C40.2882 19.9947 40.1376 19.9323 40.0266 19.8213C39.9156 19.7103 39.8533 19.5598 39.8533 19.4028C39.8533 19.2458 39.9156 19.0953 40.0266 18.9843C40.1376 18.8733 40.2882 18.8109 40.4451 18.8109C41.5644 18.8273 42.68 18.9446 43.7783 19.1614C44.6953 19.3342 45.5985 19.5736 46.4806 19.8778C46.6168 19.9242 46.7314 20.0185 46.803 20.1432C46.8747 20.2679 46.8985 20.4144 46.87 20.5554C46.8923 20.5767 46.9084 20.6036 46.9167 20.6332H46.8856ZM39.5729 53.6221C39.5083 53.7641 39.3902 53.8748 39.2444 53.9303C39.0986 53.9857 38.9367 53.9813 38.7941 53.918C37.2826 53.2954 36.0597 52.1281 35.3675 50.6472C35.1328 50.1217 34.9729 49.566 34.8925 48.9962C34.8743 48.9163 34.873 48.8335 34.8885 48.7531C34.904 48.6726 34.9361 48.5963 34.9826 48.5289C35.0291 48.4615 35.0892 48.4045 35.1589 48.3614C35.2286 48.3184 35.3065 48.2904 35.3876 48.279C35.4687 48.2676 35.5513 48.2733 35.6302 48.2955C35.709 48.3177 35.7824 48.356 35.8456 48.4081C35.9089 48.4601 35.9607 48.5247 35.9977 48.5978C36.0347 48.6709 36.0561 48.7508 36.0606 48.8326C36.1245 49.2898 36.253 49.7355 36.4422 50.1565C37.0148 51.3745 38.0236 52.3333 39.2692 52.8433C39.3923 52.8947 39.4937 52.9873 39.5562 53.1051C39.6187 53.223 39.6384 53.3589 39.6118 53.4897C39.6127 53.5339 39.6101 53.5782 39.604 53.6221H39.5729ZM40.3517 41.6679C38.6954 42.5472 37.3758 43.9489 36.598 45.6552C36.5348 45.7986 36.4174 45.9111 36.2714 45.9681C36.1254 46.025 35.9628 46.0217 35.8192 45.9589C35.6772 45.8942 35.566 45.7766 35.5093 45.6312C35.4526 45.4858 35.4548 45.324 35.5155 45.1802C36.3955 43.2221 37.9063 41.6153 39.8065 40.6166C39.9444 40.5505 40.1025 40.5404 40.2476 40.5883C40.3928 40.6362 40.5138 40.7384 40.5853 40.8736C40.6487 40.9901 40.668 41.1255 40.6398 41.2552C40.6247 41.3418 40.5903 41.4239 40.5391 41.4954C40.4878 41.5669 40.4211 41.6258 40.3439 41.6679H40.3517Z" fill="#F2FCFF"/>
<path d="M82.6312 69.8128C82.6587 69.6686 82.6316 69.5194 82.5553 69.3941C82.479 69.2688 82.3588 69.1763 82.2181 69.1345C82.0774 69.0928 81.9262 69.1048 81.7939 69.1683C81.6616 69.2317 81.5575 69.3421 81.502 69.4779C81.1484 70.3514 80.702 71.1842 80.1703 71.9622C80.0815 72.0903 80.0472 72.2484 80.0749 72.4017C80.1027 72.5551 80.1902 72.6911 80.3183 72.7799C80.4463 72.8687 80.6044 72.903 80.7578 72.8753C80.9111 72.8475 81.0472 72.76 81.136 72.632C81.7252 71.787 82.2164 70.8778 82.6001 69.9218C82.6131 69.8863 82.6235 69.8498 82.6312 69.8128Z" fill="#F2FCFF"/>
</svg>
