<svg width="98" height="156" viewBox="0 0 98 156" fill="none" xmlns="http://www.w3.org/2000/svg">
<path d="M57.172 11.8041H56.8733C56.8139 11.8041 56.7568 11.8277 56.7148 11.8697C56.6728 11.9118 56.6493 11.9687 56.6493 12.0282V17.0072C56.6493 17.0666 56.6728 17.1236 56.7148 17.1656C56.7568 17.2076 56.8139 17.2312 56.8733 17.2312H57.172C57.238 17.2312 57.3014 17.205 57.3481 17.1583C57.3947 17.1116 57.421 17.0483 57.421 16.9823V12.0033C57.4093 11.9462 57.378 11.895 57.3326 11.8586C57.2871 11.8222 57.2303 11.8029 57.172 11.8041ZM55.8526 11.8041H55.5787C55.5191 11.815 55.4647 11.8453 55.4242 11.8903C55.3836 11.9354 55.3592 11.9926 55.3547 12.0531V16.8827C55.3547 16.9421 55.3783 16.9991 55.4203 17.0411C55.4623 17.0831 55.5193 17.1067 55.5787 17.1067H55.8526C55.884 17.1103 55.9158 17.1071 55.946 17.0974C55.9761 17.0877 56.0038 17.0718 56.0273 17.0506C56.0508 17.0294 56.0696 17.0035 56.0824 16.9746C56.0952 16.9457 56.1018 16.9143 56.1016 16.8827V12.1028C56.1018 12.0712 56.0952 12.0399 56.0824 12.0109C56.0696 11.982 56.0508 11.9561 56.0273 11.9349C56.0038 11.9138 55.9761 11.8978 55.946 11.8881C55.9158 11.8785 55.884 11.8753 55.8526 11.8788V11.8041ZM54.5829 11.8041H54.2095C54.1611 11.8102 54.1167 11.8339 54.0845 11.8706C54.0524 11.9073 54.0348 11.9545 54.0352 12.0033V16.8578C54.0348 16.9066 54.0524 16.9538 54.0845 16.9905C54.1167 17.0272 54.1611 17.0509 54.2095 17.057H54.5829C54.6383 17.0573 54.6918 17.0371 54.7332 17.0004C54.7746 16.9636 54.8008 16.9128 54.807 16.8578V12.1277C54.8008 12.0727 54.7746 12.0219 54.7332 11.9852C54.6918 11.9484 54.6383 11.9282 54.5829 11.9286V11.8041ZM53.2635 11.8041L43.3055 12.302C43.1592 12.3042 43.0141 12.2741 42.8807 12.2139C42.7473 12.1536 42.6289 12.0647 42.5338 11.9535C32.5758 -0.74296 24.9081 -0.494011 20.8253 0.327524C16.7426 1.14906 12.9088 4.48499 12.9088 8.31881C13.0351 9.26887 13.3766 10.1776 13.9072 10.9757C14.4379 11.7738 15.1437 12.4403 15.9708 12.9244C16.0919 13.0213 16.2322 13.0914 16.3824 13.13C16.5326 13.1686 16.6893 13.1749 16.8421 13.1484C20.7042 12.6321 24.5965 12.3743 28.493 12.3767C31.1706 12.3798 33.8461 12.5211 36.5091 12.7999V12.9742L13.6805 14.5923C17.0164 14.8413 32.4264 15.9367 36.6834 16.1856C36.8079 16.1856 36.8079 16.3848 36.6834 16.3848C33.9621 16.6636 31.2285 16.8048 28.493 16.808C24.58 16.811 20.6711 16.5532 16.7924 16.0363C16.6395 16.0098 16.4828 16.0161 16.3326 16.0547C16.1824 16.0933 16.0421 16.1634 15.921 16.2603C15.1152 16.7398 14.4265 17.3931 13.9054 18.1727C13.3842 18.9523 13.0438 19.8384 12.9088 20.7663C12.9088 24.4757 16.5683 27.5626 20.8502 28.434C25.1322 29.3053 32.6007 29.5044 42.6334 16.7333C42.7012 16.6403 42.7917 16.5663 42.8963 16.5184C43.0009 16.4704 43.1161 16.4502 43.2308 16.4595L53.1888 16.9574C53.2442 16.9577 53.2977 16.9376 53.3391 16.9008C53.3805 16.864 53.4067 16.8132 53.4129 16.7582V12.2024C53.4104 12.1582 53.395 12.1156 53.3684 12.0802C53.3418 12.0447 53.3053 12.018 53.2635 12.0033V11.8041ZM58.4665 11.5552H58.1927C58.1331 11.566 58.0787 11.5963 58.0382 11.6414C57.9977 11.6864 57.9732 11.7437 57.9687 11.8041V16.7831C57.9732 16.8435 57.9977 16.9008 58.0382 16.9458C58.0787 16.9909 58.1331 17.0212 58.1927 17.0321H58.4665C58.6159 17.0321 58.7155 17.0321 58.7155 16.7831V11.8041C58.7155 11.8539 58.6159 11.7294 58.4665 11.7543V11.5552ZM61.1054 11.4058H60.8067C60.7472 11.4058 60.6903 11.4294 60.6483 11.4714C60.6062 11.5134 60.5826 11.5704 60.5826 11.6298V17.1565C60.5826 17.216 60.6062 17.2729 60.6483 17.315C60.6903 17.357 60.7472 17.3806 60.8067 17.3806H61.1054C61.1673 17.3809 61.2272 17.3581 61.2732 17.3167C61.3193 17.2753 61.3482 17.2182 61.3544 17.1565V11.829C61.3482 11.7674 61.3193 11.7103 61.2732 11.6689C61.2272 11.6274 61.1673 11.6046 61.1054 11.605V11.4058ZM72.3828 13.5717C72.3257 13.5686 72.271 13.5478 72.2264 13.512C72.1817 13.4763 72.1494 13.4275 72.1339 13.3725C71.9232 12.6683 71.4825 12.0551 70.8823 11.6309C70.282 11.2067 69.557 10.996 68.8229 11.0324L62.1759 11.356C62.1031 11.3672 62.0363 11.4029 61.9865 11.4572C61.9367 11.5115 61.9069 11.5812 61.9021 11.6547V17.1565C61.9069 17.2301 61.9367 17.2997 61.9865 17.3541C62.0363 17.4084 62.1031 17.4441 62.1759 17.4553L68.8229 17.7789C69.557 17.8153 70.282 17.6046 70.8823 17.1804C71.4825 16.7561 71.9232 16.1429 72.1339 15.4388C72.1494 15.3837 72.1817 15.335 72.2264 15.2992C72.271 15.2635 72.3257 15.2427 72.3828 15.2396C75.2626 15.2547 78.1377 15.0047 80.9716 14.4928C78.1427 14.0095 75.2777 13.768 72.4077 13.7708L72.3828 13.5717ZM71.3373 14.5675C71.3004 14.5714 71.263 14.567 71.228 14.5546C71.193 14.5422 71.1612 14.5222 71.135 14.4959C71.1087 14.4697 71.0886 14.4379 71.0762 14.4029C71.0639 14.3679 71.0595 14.3305 71.0634 14.2936C71.0568 13.7763 70.8467 13.2825 70.4786 12.919C70.1105 12.5555 69.6141 12.3518 69.0967 12.3518C69.0241 12.3518 68.9544 12.3229 68.9031 12.2716C68.8517 12.2202 68.8229 12.1506 68.8229 12.078C68.8229 12.0053 68.8517 11.9357 68.9031 11.8843C68.9544 11.833 69.0241 11.8041 69.0967 11.8041C69.757 11.8041 70.3902 12.0664 70.857 12.5333C71.3239 13.0001 71.5862 13.6334 71.5862 14.2936C71.649 14.3266 71.696 14.3832 71.717 14.4509C71.738 14.5186 71.7312 14.5919 71.6982 14.6546C71.6652 14.7173 71.6087 14.7644 71.541 14.7854C71.4733 14.8064 71.4 14.7996 71.3373 14.7666V14.5675ZM59.8109 11.4805H59.4623C59.4113 11.4859 59.3638 11.5086 59.3275 11.5448C59.2913 11.5811 59.2686 11.6287 59.2632 11.6796V17.1067C59.2686 17.1577 59.2913 17.2053 59.3275 17.2415C59.3638 17.2778 59.4113 17.3005 59.4623 17.3059H59.8109C59.8662 17.3062 59.9197 17.2861 59.9611 17.2493C60.0025 17.2125 60.0288 17.1618 60.0349 17.1067V11.8788C60.0288 11.8238 60.0025 11.773 59.9611 11.7362C59.9197 11.6995 59.8662 11.6793 59.8109 11.6796V11.4805Z" fill="#FF5100"/>
<path d="M72.7311 98.265C72.6886 98.265 72.6466 98.2566 72.6073 98.2404C72.568 98.2241 72.5324 98.2003 72.5023 98.1702C72.4723 98.1401 72.4484 98.1045 72.4321 98.0652C72.4158 98.0259 72.4075 97.9839 72.4075 97.9414C72.1922 97.2418 71.7496 96.6342 71.1498 96.2148C70.55 95.7954 69.8274 95.5882 69.0965 95.6261L62.4495 95.9498C62.3747 95.956 62.3049 95.9902 62.2542 96.0456C62.2034 96.101 62.1754 96.1734 62.1757 96.2485V101.526C62.1722 101.564 62.1767 101.603 62.1889 101.639C62.2011 101.675 62.2207 101.708 62.2465 101.736C62.2723 101.764 62.3037 101.787 62.3387 101.802C62.3736 101.817 62.4114 101.825 62.4495 101.825L69.0965 102.174C69.818 102.216 70.5333 102.02 71.1319 101.615C71.7305 101.21 72.1788 100.619 72.4075 99.933C72.4242 99.8739 72.4603 99.8221 72.51 99.786C72.5597 99.7499 72.6199 99.7315 72.6813 99.7338C75.561 99.7468 78.4359 99.4968 81.2701 98.9869C78.4492 98.5065 75.5927 98.265 72.7311 98.265ZM71.6607 99.2608C71.5881 99.2608 71.5184 99.2319 71.467 99.1806C71.4157 99.1292 71.3868 99.0596 71.3868 98.9869C71.3868 98.7298 71.3358 98.4753 71.2367 98.2381C71.1375 98.0008 70.9923 97.7856 70.8093 97.605C70.6264 97.4244 70.4093 97.2819 70.1708 97.1857C69.9324 97.0896 69.6772 97.0418 69.4201 97.0451C69.3474 97.0451 69.2778 97.0163 69.2265 96.9649C69.1751 96.9136 69.1463 96.8439 69.1463 96.7713C69.1463 96.6987 69.1751 96.629 69.2265 96.5777C69.2778 96.5263 69.3474 96.4974 69.4201 96.4974C70.0803 96.4974 70.7136 96.7597 71.1805 97.2266C71.6473 97.6935 71.9096 98.3267 71.9096 98.9869C71.9099 99.0555 71.8845 99.1216 71.8384 99.1723C71.7923 99.223 71.7289 99.2546 71.6607 99.2608ZM57.4705 96.2983H57.1718C57.1434 96.2981 57.1153 96.3039 57.0894 96.3154C57.0634 96.327 57.0402 96.3439 57.0214 96.3651C57.0025 96.3863 56.9884 96.4113 56.9799 96.4385C56.9715 96.4656 56.969 96.4942 56.9726 96.5223V101.501C56.969 101.53 56.9715 101.558 56.9799 101.585C56.9884 101.612 57.0025 101.637 57.0214 101.659C57.0402 101.68 57.0634 101.697 57.0894 101.708C57.1153 101.72 57.1434 101.726 57.1718 101.725H57.4705C57.5042 101.729 57.5383 101.726 57.5703 101.715C57.6024 101.704 57.6315 101.685 57.6554 101.661C57.6794 101.637 57.6976 101.608 57.7087 101.576C57.7198 101.544 57.7235 101.51 57.7195 101.476V96.4974C57.7164 96.468 57.7074 96.4394 57.6932 96.4133C57.679 96.3873 57.6597 96.3644 57.6366 96.3459C57.6134 96.3273 57.5868 96.3136 57.5583 96.3054C57.5298 96.2973 57.5 96.2948 57.4705 96.2983ZM56.176 96.2983H55.8772C55.8176 96.3091 55.7633 96.3395 55.7227 96.3845C55.6822 96.4296 55.6577 96.4868 55.6531 96.5472V101.302C55.6531 101.362 55.6768 101.419 55.7188 101.461C55.7608 101.503 55.8178 101.526 55.8772 101.526H56.176C56.2076 101.526 56.2389 101.52 56.2678 101.507C56.2968 101.494 56.3227 101.476 56.3439 101.452C56.3651 101.429 56.381 101.401 56.3907 101.371C56.4004 101.341 56.4036 101.309 56.4 101.277V96.597C56.4249 96.4726 56.3253 96.3481 56.2008 96.373L56.176 96.2983ZM53.6865 96.4228L43.7285 96.9207C43.5824 96.9212 43.4379 96.8903 43.3047 96.8302C43.1716 96.7701 43.053 96.6821 42.9568 96.5721C32.9988 83.8757 25.3311 84.1246 21.2732 84.9462C17.2153 85.7677 13.3068 88.8796 13.3068 92.6138C13.4367 93.5628 13.7797 94.47 14.31 95.2676C14.8402 96.0652 15.5441 96.7325 16.3689 97.2194C16.49 97.3163 16.6303 97.3864 16.7805 97.425C16.9307 97.4636 17.0874 97.4699 17.2402 97.4435C21.1024 96.9281 24.9946 96.6702 28.8911 96.6717C31.6046 96.6717 34.2684 96.8211 36.9072 97.07C37.0317 97.07 37.0317 97.2692 36.9072 97.2692L14.0786 98.8874L37.0815 100.481C37.206 100.481 37.206 100.655 37.0815 100.68C34.3929 100.929 31.6544 101.103 28.8911 101.103C24.9781 101.104 21.0694 100.846 17.1904 100.331C17.0376 100.306 16.8813 100.313 16.7313 100.352C16.5813 100.391 16.441 100.46 16.3191 100.555C15.4533 101.058 14.7209 101.761 14.1837 102.606C13.6465 103.451 13.3201 104.413 13.2321 105.41C13.2321 109.119 16.8917 112.206 21.1985 113.053C25.5053 113.899 32.9241 114.148 42.9568 101.377C43.0228 101.282 43.113 101.207 43.2181 101.158C43.3232 101.11 43.4393 101.091 43.5542 101.103L53.5122 101.601C53.5672 101.595 53.618 101.568 53.6547 101.527C53.6915 101.486 53.7117 101.432 53.7113 101.377V96.6966C53.7165 96.6573 53.7098 96.6173 53.692 96.5818C53.6743 96.5463 53.6464 96.5169 53.6118 96.4974L53.6865 96.4228ZM54.6324 96.4228C54.5815 96.4282 54.5339 96.4509 54.4977 96.4871C54.4614 96.5234 54.4387 96.571 54.4333 96.6219V101.327C54.4333 101.327 54.4333 101.501 54.6324 101.526H54.981C55.0059 101.53 55.0313 101.528 55.0554 101.521C55.0795 101.514 55.1017 101.501 55.1207 101.485C55.1396 101.468 55.1547 101.448 55.1649 101.425C55.1752 101.402 55.1804 101.377 55.1801 101.352V96.6219C55.1747 96.571 55.152 96.5234 55.1158 96.4871C55.0795 96.4509 55.032 96.4282 54.981 96.4228H54.6324ZM61.5035 96.0742H61.2048C61.1453 96.0742 61.0884 96.0978 61.0464 96.1399C61.0043 96.1819 60.9807 96.2389 60.9807 96.2983V101.601C60.9807 101.601 60.9807 101.8 61.2048 101.825H61.5035C61.5356 101.834 61.5695 101.834 61.6019 101.827C61.6344 101.819 61.6643 101.803 61.6891 101.781C61.7139 101.759 61.7326 101.73 61.7437 101.699C61.7548 101.668 61.7578 101.634 61.7524 101.601V96.3232C61.7568 96.2831 61.7502 96.2426 61.7335 96.206C61.7167 96.1694 61.6903 96.1379 61.6572 96.115C61.6241 96.092 61.5854 96.0785 61.5452 96.0757C61.505 96.0729 61.4648 96.081 61.4288 96.0991L61.5035 96.0742ZM58.8646 96.2236H58.5908C58.5292 96.2298 58.4721 96.2587 58.4307 96.3048C58.3892 96.3508 58.3664 96.4106 58.3667 96.4726V101.452C58.3712 101.512 58.3957 101.569 58.4363 101.614C58.4768 101.659 58.5312 101.69 58.5908 101.7H58.8646C58.8993 101.704 58.9344 101.7 58.9676 101.689C59.0007 101.678 59.0312 101.66 59.057 101.637C59.0828 101.614 59.1034 101.585 59.1175 101.553C59.1315 101.521 59.1387 101.486 59.1385 101.452V96.4726C59.1378 96.4316 59.127 96.3914 59.1071 96.3556C59.0871 96.3197 59.0586 96.2894 59.0242 96.2672C58.9897 96.2451 58.9503 96.2318 58.9094 96.2285C58.8686 96.2252 58.8275 96.2321 58.7899 96.2485L58.8646 96.2236ZM60.209 96.2236H59.8853C59.8582 96.2194 59.8304 96.2216 59.8043 96.2301C59.7782 96.2386 59.7545 96.2531 59.7351 96.2725C59.7157 96.292 59.7012 96.3157 59.6927 96.3418C59.6842 96.3679 59.6819 96.3956 59.6862 96.4228V101.626C59.6862 101.679 59.7071 101.729 59.7445 101.767C59.7818 101.804 59.8325 101.825 59.8853 101.825H60.209C60.2384 101.825 60.2675 101.819 60.2947 101.808C60.3219 101.797 60.3466 101.78 60.3674 101.759C60.3882 101.739 60.4047 101.714 60.4159 101.687C60.4272 101.659 60.433 101.63 60.433 101.601V96.373C60.4383 96.3358 60.4329 96.2979 60.4175 96.2637C60.4022 96.2295 60.3775 96.2003 60.3463 96.1794C60.315 96.1586 60.2786 96.1471 60.2411 96.1461C60.2036 96.1451 60.1666 96.1547 60.1343 96.1738L60.209 96.2236Z" fill="#3B1A55"/>
<path d="M8.5764 138.545H8.27767C8.22266 138.551 8.17184 138.577 8.13507 138.619C8.0983 138.66 8.07817 138.714 8.07851 138.769V143.748C8.07817 143.803 8.0983 143.857 8.13507 143.898C8.17184 143.94 8.22266 143.966 8.27767 143.972H8.5764C8.60785 143.976 8.63968 143.972 8.66981 143.963C8.69994 143.953 8.72766 143.937 8.75118 143.916C8.7747 143.895 8.79348 143.869 8.80626 143.84C8.81904 143.811 8.82556 143.78 8.82537 143.748V138.769C8.82556 138.737 8.81904 138.706 8.80626 138.677C8.79348 138.648 8.7747 138.622 8.75118 138.601C8.72766 138.58 8.69994 138.564 8.66981 138.554C8.63968 138.545 8.60785 138.541 8.5764 138.545ZM5.63877 138.694C5.5878 138.7 5.54024 138.723 5.504 138.759C5.46775 138.795 5.44506 138.843 5.43965 138.894V143.599C5.43965 143.599 5.43961 143.773 5.63877 143.798H6.01222C6.061 143.798 6.1082 143.781 6.14491 143.749C6.18162 143.716 6.20529 143.672 6.21138 143.624V138.869C6.20598 138.818 6.18324 138.77 6.147 138.734C6.11076 138.698 6.06319 138.675 6.01222 138.669L5.63877 138.694ZM4.69279 138.694L-5.2652 139.192C-5.4082 139.196 -5.55015 139.167 -5.67979 139.106C-5.80942 139.046 -5.92319 138.956 -6.01206 138.844C-15.97 126.147 -23.6626 126.396 -27.7205 127.218C-31.7784 128.039 -35.662 131.151 -35.662 134.885C-35.5384 135.833 -35.2007 136.741 -34.6744 137.538C-34.1482 138.336 -33.4473 139.004 -32.6248 139.491C-32.3735 139.674 -32.0618 139.754 -31.7535 139.715C-27.8913 139.2 -23.9991 138.942 -20.1026 138.943C-17.3891 138.943 -14.7253 139.093 -12.0615 139.342V139.541L-34.9151 141.159L-11.8873 142.752C-11.8873 142.752 -11.8873 142.927 -11.8873 142.951C-14.6008 143.2 -17.3393 143.375 -20.1026 143.375C-24.0156 143.376 -27.9243 143.118 -31.8033 142.603C-31.9561 142.578 -32.1124 142.585 -32.2624 142.624C-32.4124 142.662 -32.5527 142.731 -32.6746 142.827C-33.4854 143.31 -34.1757 143.971 -34.6932 144.761C-35.2108 145.55 -35.5421 146.447 -35.662 147.383C-35.662 151.117 -32.0273 154.204 -27.7205 155.05C-23.4137 155.897 -15.9949 156.121 -5.96226 143.375C-5.89619 143.28 -5.80594 143.204 -5.70087 143.156C-5.5958 143.108 -5.47977 143.089 -5.3648 143.101L4.59319 143.599C4.6482 143.593 4.69902 143.566 4.73579 143.525C4.77256 143.483 4.7927 143.43 4.79235 143.375V138.943C4.79748 138.904 4.79076 138.864 4.77302 138.829C4.75528 138.793 4.72734 138.764 4.69279 138.744V138.694ZM7.18229 138.694H6.88352C6.82389 138.705 6.76958 138.736 6.72903 138.781C6.68848 138.826 6.66401 138.883 6.65948 138.943V143.698C6.65948 143.758 6.6831 143.815 6.72512 143.857C6.76714 143.899 6.8241 143.922 6.88352 143.922H7.18229C7.24831 143.922 7.31163 143.896 7.35832 143.849C7.40501 143.803 7.43121 143.739 7.43121 143.673V138.844C7.43396 138.795 7.42089 138.747 7.39395 138.707C7.36701 138.666 7.32767 138.636 7.28185 138.62L7.18229 138.694ZM12.4351 138.421H12.1115C12.0821 138.421 12.0529 138.426 12.0257 138.438C11.9986 138.449 11.9738 138.465 11.953 138.486C11.9322 138.507 11.9158 138.532 11.9045 138.559C11.8932 138.586 11.8874 138.615 11.8874 138.645V143.947C11.897 144.003 11.9236 144.055 11.9638 144.095C12.0039 144.135 12.0555 144.162 12.1115 144.171H12.6592C12.7836 144.171 12.8832 144.171 12.8832 143.947V138.57C12.8832 138.51 12.8596 138.453 12.8176 138.411C12.7756 138.369 12.7186 138.346 12.6592 138.346L12.4351 138.421ZM9.79627 138.545H9.52242C9.4564 138.545 9.39308 138.571 9.34639 138.618C9.29971 138.665 9.27346 138.728 9.27346 138.794V143.773C9.27326 143.805 9.27978 143.836 9.29256 143.865C9.30535 143.894 9.32409 143.92 9.34761 143.941C9.37112 143.962 9.39889 143.978 9.42901 143.988C9.45914 143.997 9.49098 144.001 9.52242 143.997H9.79627C9.86229 143.997 9.92561 143.971 9.9723 143.924C10.019 143.877 10.0452 143.814 10.0452 143.748V138.769C10.0567 138.71 10.0484 138.648 10.0213 138.594C9.99432 138.54 9.9502 138.497 9.89583 138.47L9.79627 138.545ZM23.7126 140.586C23.6501 140.58 23.5909 140.555 23.5423 140.515C23.4937 140.475 23.4577 140.422 23.4387 140.362C23.2273 139.66 22.7856 139.05 22.1849 138.63C21.5842 138.21 20.8595 138.005 20.1277 138.047L13.5056 138.371C13.4264 138.371 13.3504 138.402 13.2944 138.458C13.2383 138.514 13.2069 138.59 13.2069 138.669V143.947C13.2069 144.026 13.2383 144.102 13.2944 144.158C13.3504 144.214 13.4264 144.246 13.5056 144.246L20.1277 144.594C20.8618 144.631 21.5869 144.42 22.1871 143.996C22.7873 143.572 23.228 142.959 23.4387 142.254C23.4554 142.195 23.4915 142.143 23.5412 142.107C23.5908 142.071 23.6512 142.053 23.7126 142.055C26.5923 142.07 29.4674 141.82 32.3013 141.308C29.4991 140.804 26.6592 140.538 23.8121 140.512L23.7126 140.586ZM22.642 141.582C22.6061 141.582 22.5705 141.575 22.5373 141.561C22.5041 141.548 22.4739 141.527 22.4484 141.502C22.423 141.477 22.4028 141.446 22.3891 141.413C22.3753 141.38 22.3682 141.344 22.3682 141.308C22.3682 140.793 22.1636 140.299 21.7995 139.935C21.4353 139.571 20.9414 139.367 20.4264 139.367C20.3538 139.367 20.2841 139.338 20.2328 139.286C20.1814 139.235 20.1525 139.165 20.1525 139.093C20.1486 139.056 20.153 139.018 20.1654 138.983C20.1778 138.948 20.1978 138.917 20.2241 138.89C20.2503 138.864 20.2821 138.844 20.3171 138.832C20.3522 138.819 20.3895 138.815 20.4264 138.819C21.0867 138.819 21.7199 139.081 22.1867 139.548C22.6536 140.015 22.9159 140.648 22.9159 141.308C22.906 141.354 22.8849 141.396 22.8544 141.43C22.824 141.465 22.7852 141.492 22.7416 141.508L22.642 141.582ZM11.1406 138.495H10.7921C10.737 138.501 10.6863 138.528 10.6495 138.569C10.6127 138.61 10.5925 138.664 10.5929 138.719V143.922C10.5929 143.948 10.598 143.974 10.608 143.999C10.6181 144.023 10.6327 144.045 10.6512 144.063C10.6697 144.082 10.6917 144.096 10.7159 144.106C10.74 144.116 10.7659 144.121 10.7921 144.121H11.1406C11.1956 144.115 11.2464 144.089 11.2831 144.048C11.3199 144.006 11.3401 143.953 11.3397 143.897V138.669C11.3571 138.623 11.3565 138.572 11.3381 138.526C11.3197 138.48 11.2848 138.442 11.2401 138.421L11.1406 138.495Z" fill="#3B1A55"/>
<path d="M91.8003 138.744L81.8423 139.242C81.6962 139.243 81.5516 139.212 81.4185 139.152C81.2853 139.091 81.1667 139.003 81.0705 138.894C71.1125 126.197 63.4448 126.446 59.3869 127.268C55.3291 128.089 51.4206 131.201 51.4206 134.935C51.5505 135.884 51.8934 136.791 52.4237 137.589C52.954 138.387 53.6579 139.054 54.4826 139.541C54.7328 139.726 55.0454 139.807 55.354 139.765C59.2162 139.249 63.1084 138.992 67.0048 138.993C69.6935 138.993 72.3821 139.142 75.021 139.391C75.1455 139.391 75.1455 139.591 75.021 139.591L52.1923 141.209L75.1953 142.802C75.3197 142.802 75.3197 142.976 75.1953 143.001C72.5066 143.25 69.7681 143.424 67.0048 143.424C63.0918 143.426 59.1831 143.168 55.3042 142.653C55.1514 142.628 54.995 142.635 54.845 142.673C54.6951 142.712 54.5547 142.781 54.4329 142.877C53.6186 143.359 52.9244 144.019 52.4026 144.808C51.8808 145.597 51.545 146.495 51.4206 147.433C51.4206 151.167 55.0801 154.254 59.3869 155.1C63.6938 155.947 71.1125 156.171 81.1452 143.424C81.2093 143.328 81.2992 143.251 81.4048 143.202C81.5104 143.154 81.6274 143.136 81.7427 143.151L91.7007 143.648C91.7601 143.648 91.817 143.625 91.8591 143.583C91.9011 143.541 91.9247 143.484 91.9247 143.424V138.943C91.9277 138.901 91.9173 138.859 91.8949 138.823C91.8725 138.788 91.8394 138.76 91.8003 138.744Z" fill="#FF5100"/>
<path d="M97.0042 138.47H96.7303C96.6687 138.476 96.6116 138.505 96.5702 138.551C96.5288 138.597 96.506 138.657 96.5063 138.719V143.698C96.5063 143.757 96.5299 143.814 96.5719 143.856C96.6139 143.898 96.6709 143.922 96.7303 143.922H97.0042C97.0389 143.925 97.074 143.922 97.1072 143.911C97.1403 143.9 97.1708 143.882 97.1966 143.858C97.2224 143.835 97.243 143.806 97.2571 143.774C97.2711 143.742 97.2782 143.708 97.278 143.673V138.694C97.2663 138.63 97.2323 138.573 97.1821 138.532C97.132 138.491 97.069 138.469 97.0042 138.47Z" fill="#FF5100"/>
<path d="M8.5764 54.0762H8.27767C8.22264 54.0918 8.17383 54.1241 8.13811 54.1687C8.10239 54.2134 8.08156 54.2681 8.07851 54.3252V59.3042C8.08156 59.3613 8.10239 59.416 8.13811 59.4606C8.17383 59.5053 8.22264 59.5376 8.27767 59.5531H8.5764C8.60785 59.5567 8.63968 59.5535 8.66981 59.5438C8.69994 59.5341 8.72766 59.5182 8.75118 59.497C8.7747 59.4758 8.79348 59.4499 8.80626 59.421C8.81904 59.392 8.82556 59.3607 8.82537 59.3291V54.3501C8.83382 54.3146 8.83347 54.2776 8.82438 54.2423C8.81529 54.207 8.7977 54.1744 8.77317 54.1474C8.74864 54.1204 8.71789 54.0999 8.6836 54.0874C8.64931 54.075 8.61252 54.0712 8.5764 54.0762ZM7.28185 54.0762H6.98312C6.9237 54.0762 6.8667 54.0998 6.82468 54.1419C6.78266 54.1839 6.75908 54.2409 6.75908 54.3003V59.0552C6.75556 59.0867 6.75875 59.1185 6.76842 59.1486C6.7781 59.1788 6.79402 59.2065 6.81519 59.23C6.83635 59.2535 6.86225 59.2723 6.8912 59.2851C6.92014 59.2979 6.95148 59.3044 6.98312 59.3042H7.28185C7.3133 59.3077 7.34513 59.3045 7.37526 59.2948C7.40539 59.2852 7.43311 59.2692 7.45663 59.2481C7.48015 59.2269 7.49892 59.201 7.51171 59.172C7.52449 59.1431 7.53101 59.1118 7.53082 59.0801V54.375C7.53082 54.309 7.50457 54.2456 7.45788 54.1989C7.41119 54.1523 7.34788 54.126 7.28185 54.126V54.0762ZM5.63877 54.0762C5.59 54.0759 5.5428 54.0934 5.50608 54.1255C5.46938 54.1576 5.44574 54.2021 5.43965 54.2505V59.105C5.43965 59.1578 5.46061 59.2085 5.49796 59.2459C5.53531 59.2832 5.58595 59.3042 5.63877 59.3042H6.01222C6.06504 59.3042 6.11569 59.2832 6.15304 59.2459C6.19039 59.2085 6.21138 59.1578 6.21138 59.105V54.375C6.21138 54.3222 6.19039 54.2715 6.15304 54.2342C6.11569 54.1968 6.06504 54.1758 6.01222 54.1758L5.63877 54.0762ZM4.69279 54.0762L-5.2652 54.5492C-5.40936 54.5621 -5.55434 54.5366 -5.68549 54.4754C-5.81664 54.4142 -5.9293 54.3194 -6.01206 54.2007C-15.97 41.5292 -23.6626 41.7532 -27.7205 42.5997C-31.7784 43.4461 -35.662 46.5331 -35.662 50.2673C-35.5384 51.2151 -35.2007 52.1224 -34.6744 52.9203C-34.1482 53.7183 -33.4473 54.386 -32.6248 54.8729C-32.3687 55.0454 -32.061 55.1245 -31.7535 55.0969C-27.8933 54.5585 -24.0001 54.2923 -20.1026 54.3003C-17.3891 54.3003 -14.7253 54.4746 -12.0615 54.7235C-12.0615 54.7235 -12.0615 54.8978 -12.0615 54.9227C-16.3435 55.1965 -31.5792 56.2919 -34.9151 56.5408L-11.8873 58.1341V58.3084C-14.6165 58.5955 -17.3584 58.7451 -20.1026 58.7565C-24.0166 58.7641 -27.9264 58.4979 -31.8033 57.9599C-32.1108 57.9323 -32.4185 58.0114 -32.6746 58.1839C-33.4836 58.6752 -34.172 59.3418 -34.6891 60.1346C-35.2061 60.9274 -35.5386 61.8262 -35.662 62.7646C-35.662 66.4988 -32.0273 69.5609 -27.7205 70.4322C-23.4137 71.3036 -15.9949 71.5027 -5.96226 58.7316C-5.88788 58.6461 -5.79612 58.5774 -5.69308 58.5302C-5.59005 58.483 -5.47814 58.4583 -5.3648 58.4578L4.59319 58.9557C4.59319 58.9557 4.79235 58.9557 4.79235 58.7565V54.4746C4.89193 54.3501 4.79237 54.2505 4.69279 54.2754V54.0762ZM12.6592 53.8771H12.3355C12.2802 53.8767 12.2267 53.8969 12.1853 53.9337C12.1439 53.9704 12.1176 54.0212 12.1115 54.0762V59.3789C12.1115 59.4383 12.1351 59.4953 12.1771 59.5373C12.2191 59.5793 12.2761 59.6029 12.3355 59.6029H12.6592C12.7186 59.6029 12.7756 59.5793 12.8176 59.5373C12.8596 59.4953 12.8832 59.4383 12.8832 59.3789V54.1011C12.8832 54.0417 12.8596 53.9847 12.8176 53.9427C12.7756 53.9007 12.7186 53.8771 12.6592 53.8771ZM23.9366 56.0181C23.8752 56.0204 23.8149 56.002 23.7652 55.9659C23.7155 55.9298 23.6795 55.878 23.6628 55.8189C23.4553 55.1146 23.0145 54.5019 22.4129 54.0811C21.8112 53.6604 21.0844 53.4568 20.3517 53.5037L13.7296 53.8273C13.6504 53.8273 13.5745 53.8588 13.5184 53.9148C13.4624 53.9708 13.4309 54.0468 13.4309 54.126V59.4038C13.4309 59.443 13.4387 59.4818 13.4537 59.5181C13.4687 59.5543 13.4907 59.5873 13.5184 59.615C13.5462 59.6427 13.5791 59.6648 13.6153 59.6798C13.6516 59.6948 13.6904 59.7025 13.7296 59.7025L20.3517 60.0261C21.0835 60.0685 21.8082 59.8631 22.4089 59.443C23.0096 59.0229 23.4513 58.4128 23.6628 57.7109C23.6795 57.6518 23.7155 57.6 23.7652 57.5639C23.8149 57.5278 23.8752 57.5094 23.9366 57.5118C26.8152 57.4997 29.6879 57.2499 32.5254 56.7649C29.6505 56.2453 26.7334 55.9952 23.8121 56.0181H23.9366ZM22.8661 57.0387C22.7935 57.0387 22.7238 57.0099 22.6725 56.9585C22.6211 56.9072 22.5923 56.8375 22.5923 56.7649C22.5923 56.2476 22.3885 55.7511 22.0251 55.383C21.6616 55.0148 21.1678 54.8047 20.6505 54.7982C20.5779 54.7982 20.5082 54.7693 20.4568 54.718C20.4055 54.6666 20.3766 54.597 20.3766 54.5244C20.3766 54.4517 20.4055 54.3821 20.4568 54.3307C20.5082 54.2794 20.5779 54.2505 20.6505 54.2505C21.3107 54.2505 21.944 54.5128 22.4108 54.9797C22.8777 55.4465 23.14 56.0798 23.14 56.74C23.1511 56.7912 23.1473 56.8446 23.129 56.8937C23.1106 56.9429 23.0786 56.9857 23.0367 57.0172C22.9947 57.0486 22.9446 57.0674 22.8923 57.0712C22.84 57.075 22.7877 57.0638 22.7416 57.0387H22.8661ZM11.3646 53.9269H11.0161C10.9633 53.9269 10.9126 53.9479 10.8753 53.9852C10.8379 54.0226 10.8169 54.0732 10.8169 54.126V59.354C10.8166 59.4093 10.8368 59.4628 10.8735 59.5042C10.9103 59.5456 10.9611 59.5719 11.0161 59.578H11.3646C11.3646 59.578 11.5638 59.578 11.5638 59.3789V54.1509C11.5681 54.1109 11.5616 54.0704 11.5448 54.0337C11.528 53.9971 11.5017 53.9657 11.4686 53.9427C11.4354 53.9198 11.3967 53.9062 11.3565 53.9034C11.3163 53.9006 11.2761 53.9087 11.2401 53.9269H11.3646ZM10.0203 53.9269H9.74647C9.71502 53.9234 9.68319 53.9265 9.65306 53.9362C9.62293 53.9459 9.59521 53.9618 9.57169 53.983C9.54817 54.0042 9.52939 54.0301 9.51661 54.059C9.50383 54.088 9.49731 54.1193 9.4975 54.1509V59.1299C9.4935 59.1636 9.4972 59.1977 9.50829 59.2297C9.51939 59.2618 9.53762 59.2909 9.56159 59.3148C9.58555 59.3388 9.61461 59.357 9.64664 59.3681C9.67867 59.3792 9.71281 59.3829 9.74647 59.3789H10.0203C10.0863 59.3789 10.1497 59.3526 10.1963 59.306C10.243 59.2593 10.2692 59.1959 10.2692 59.1299V54.1509C10.2595 54.1129 10.241 54.0778 10.2152 54.0483C10.1893 54.0189 10.1569 53.9959 10.1205 53.9814C10.0841 53.9668 10.0448 53.961 10.0058 53.9645C9.96672 53.9681 9.92905 53.9807 9.89583 54.0016L10.0203 53.9269Z" fill="#FF5100"/>
</svg>
