<svg width="264" height="293" viewBox="0 0 264 293" fill="none" xmlns="http://www.w3.org/2000/svg">
<path d="M-197.867 234.323L-34.1933 460.453C-36.8825 459.986 -39.5916 459.466 -42.1603 458.923L-198.749 242.58C-198.622 239.782 -198.278 237.08 -197.867 234.323Z" fill="#B6B8D6"/>
<path d="M-194.389 216.586L-16.2451 462.686C-18.7626 462.511 -21.2478 462.265 -23.7529 461.966L-196.034 223.939C-195.587 221.587 -195.008 219.034 -194.389 216.586Z" fill="#B6B8D6"/>
<path d="M-189.727 200.46L0.556168 463.323C-1.79339 463.354 -4.14679 463.296 -6.50014 463.238L-191.909 207.27L-189.727 200.46Z" fill="#B6B8D6"/>
<path d="M-184.107 185.671L16.435 462.64C14.2334 462.823 11.9757 462.938 9.82634 463.101L-186.527 191.855L-184.107 185.671Z" fill="#B6B8D6"/>
<path d="M-177.643 171.994L31.3785 460.758C29.2889 461.078 27.1993 461.398 25.0375 461.685L-180.527 177.668C-179.584 175.754 -178.642 173.839 -177.643 171.994Z" fill="#B6B8D6"/>
<path d="M-170.52 159.261L45.6423 457.882C43.6484 458.375 41.6347 458.815 39.637 459.219L-173.648 164.611C-172.601 162.656 -171.611 161.023 -170.52 159.261Z" fill="#B6B8D6"/>
<path d="M-162.718 147.525L59.1789 454.118C57.261 454.731 55.3752 455.272 53.4212 455.869L-166.178 152.552C-165.019 150.735 -163.953 149.222 -162.718 147.525Z" fill="#B6B8D6"/>
<path d="M-154.3 136.539L72.2204 449.526L67.0035 451.518L-157.767 141.001C-156.773 139.456 -155.543 138.059 -154.3 136.539Z" fill="#B6B8D6"/>
<path d="M-145.315 126.413L84.5903 444.115C82.8602 444.985 81.0902 445.751 79.2121 446.468L-149.522 130.5C-147.879 129.245 -146.653 127.761 -145.315 126.413Z" fill="#B6B8D6"/>
<path d="M-135.786 117.006L96.617 438.118C94.995 439.036 93.3009 439.922 91.659 440.788L-139.889 121.053L-135.786 117.006Z" fill="#B6B8D6"/>
<path d="M-125.569 108.382L108.184 431.31C106.602 432.332 105.02 433.355 103.382 434.309L-129.956 112L-125.569 108.382Z" fill="#B6B8D6"/>
<path d="M-115.15 100.368L118.888 423.725L114.345 427.014L-119.744 103.677C-118.238 102.534 -116.712 101.443 -115.15 100.368Z" fill="#B6B8D6"/>
<path d="M-104.079 93.1218L129.259 415.431C127.829 416.695 126.379 417.906 124.909 419.065L-108.833 96.0132L-104.079 93.1218Z" fill="#B6B8D6"/>
<path d="M-92.4641 86.5941L139.108 406.469L134.965 410.413L-97.4743 89.2844C-95.8162 88.3823 -94.1421 87.4441 -92.4641 86.5941Z" fill="#B6B8D6"/>
<path d="M-80.3225 80.8218L148.392 396.737C147.146 398.169 145.811 399.606 144.509 400.97L-85.3961 83.2675C-83.6821 82.4336 -82.0925 81.5874 -80.3225 80.8218Z" fill="#B6B8D6"/>
<path d="M-67.7086 75.7361L157.134 386.286C155.927 387.822 154.656 389.503 153.458 390.827L-72.9901 77.8725C-71.3083 77.1107 -69.4463 76.4296 -67.7086 75.7361Z" fill="#B6B8D6"/>
<path d="M-54.3676 71.5387L165.308 374.975C164.213 376.648 163.047 378.29 161.896 379.895L-59.9848 73.2653C-58.1911 72.6401 -56.2049 71.9713 -54.3676 71.5387Z" fill="#B6B8D6"/>
<path d="M-40.4431 68.1639L172.826 362.809L169.714 368.122L-46.4843 69.4845C-44.4784 68.9975 -42.4648 68.5573 -40.4431 68.1639Z" fill="#B6B8D6"/>
<path d="M-25.8949 65.7164L179.67 349.734C178.815 351.644 177.945 353.591 176.822 355.424L-32.1999 66.6595C-30.1103 66.3397 -28.0045 65.9839 -25.8949 65.7164Z" fill="#B6B8D6"/>
<path d="M-10.6845 64.302L185.686 335.512C184.783 337.53 183.88 339.549 183.177 341.7L-17.3651 64.731C-15.0629 64.4198 -12.7817 64.4454 -10.6845 64.302Z" fill="#B6B8D6"/>
<path d="M5.64246 64.1648L191.051 320.133C190.405 322.352 189.705 324.592 188.918 326.835L-1.32939 63.9877C0.935752 64.0493 3.33748 63.9989 5.64246 64.1648Z" fill="#B6B8D6"/>
<path d="M22.8954 65.4371L195.193 303.428C194.698 305.888 194.15 308.369 193.547 310.781L15.4037 64.6814C17.905 64.8919 20.3902 65.1384 22.8954 65.4371Z" fill="#B6B8D6"/>
<path d="M41.4631 68.5077L198.088 284.867C197.816 287.6 197.457 290.338 197.025 293.043L33.3521 66.9127C36.0773 67.3963 38.7502 67.8998 41.4631 68.5077Z" fill="#B6B8D6"/>
<path d="M61.781 74.0499L199.216 263.873C199.208 266.984 199.129 270.063 198.981 273.198L52.8426 71.3061C55.8476 72.1312 58.9287 73.0768 61.781 74.0499Z" fill="#B6B8D6"/>
<path d="M81.1204 81.4893C82.382 82.0536 83.6075 82.6018 84.7249 83.1017L197.655 239.123C198.096 242.781 198.664 246.539 198.679 250.18L74.6322 78.587C76.7589 79.5383 78.9216 80.5057 81.1204 81.4893Z" fill="#B6B8D6"/>
<path d="M99.8296 91.1123C104.27 93.6608 108.521 96.3413 112.692 99.2019L191.1 207.554C192.516 212.513 193.787 217.407 194.878 222.221L99.8296 91.1123Z" fill="#B6B8D6"/>
<path d="M134.822 116.844C154.384 134.868 170.141 156.625 181.165 180.832L134.822 116.844Z" fill="#B6B8D6"/>
</svg>
