<svg width="235" height="60" viewBox="0 0 235 60" fill="none" xmlns="http://www.w3.org/2000/svg">
<g clip-path="url(#clip0)">
<path d="M229.589 40.624C229.596 40.848 229.69 41.0606 229.851 41.2161C230.013 41.3715 230.229 41.4574 230.453 41.4552H233.326V58.0752H230.453C230.228 58.0719 230.01 58.158 229.849 58.3145C229.687 58.4711 229.593 58.6853 229.589 58.9104C229.592 59.0205 229.616 59.1289 229.661 59.2293C229.706 59.3298 229.771 59.4202 229.851 59.4954C229.932 59.5705 230.026 59.6289 230.13 59.667C230.233 59.7051 230.343 59.7223 230.453 59.7174H233.681C233.857 59.728 234.034 59.701 234.199 59.6382C234.365 59.5755 234.515 59.4784 234.64 59.3533C234.765 59.2282 234.862 59.078 234.925 58.9127C234.988 58.7473 235.015 58.5705 235.004 58.3939V41.1243C235.017 40.9473 234.991 40.7696 234.929 40.6033C234.867 40.437 234.77 40.286 234.644 40.1605C234.519 40.035 234.368 39.938 234.202 39.8759C234.035 39.8139 233.858 39.7883 233.681 39.8008H230.453C230.341 39.793 230.228 39.8085 230.123 39.8466C230.017 39.8846 229.92 39.9443 229.839 40.0217C229.758 40.0992 229.694 40.1928 229.651 40.2965C229.608 40.4002 229.587 40.5117 229.589 40.624Z" fill="#FF5100"/>
<path d="M165.373 40.628C165.367 40.8517 165.274 41.0643 165.114 41.2198C164.953 41.3754 164.737 41.4613 164.513 41.4592H161.64V58.0751H164.513C164.737 58.0719 164.954 58.1575 165.115 58.3133C165.276 58.4691 165.369 58.6823 165.373 58.9063C165.37 59.016 165.346 59.1241 165.301 59.2243C165.256 59.3244 165.192 59.4147 165.112 59.4898C165.032 59.5649 164.938 59.6233 164.835 59.6617C164.732 59.7001 164.623 59.7176 164.513 59.7133H161.285C161.109 59.7239 160.932 59.6969 160.767 59.6342C160.601 59.5714 160.451 59.4743 160.326 59.3492C160.201 59.2241 160.104 59.0739 160.041 58.9086C159.978 58.7432 159.951 58.5664 159.962 58.3898V41.1323C159.949 40.9551 159.974 40.7772 160.036 40.6106C160.097 40.444 160.194 40.2927 160.32 40.1671C160.446 40.0414 160.597 39.9444 160.764 39.8825C160.93 39.8207 161.108 39.7956 161.285 39.8089H164.513C164.625 39.8016 164.736 39.8175 164.841 39.8555C164.946 39.8936 165.042 39.953 165.123 40.03C165.203 40.1069 165.267 40.1998 165.31 40.3027C165.353 40.4057 165.375 40.5164 165.373 40.628Z" fill="#FF5100"/>
<path d="M177.679 48.9601C177.756 49.8407 177.756 50.7264 177.679 51.607C177.621 52.6609 177.157 53.6513 176.385 54.3704C175.612 55.0896 174.591 55.4817 173.536 55.4644C172.566 55.4363 171.612 55.2069 170.735 54.7906V58.3494C170.736 58.4993 170.679 58.6437 170.575 58.7516C170.471 58.8594 170.328 58.9222 170.178 58.9264C170.104 58.9271 170.029 58.9124 169.96 58.8833C169.892 58.8542 169.829 58.8114 169.777 58.7573C169.726 58.7033 169.686 58.6392 169.659 58.5691C169.633 58.4989 169.622 58.4242 169.626 58.3494V46.8498C169.612 46.7417 169.629 46.6319 169.677 46.5337C169.724 46.4356 169.799 46.3533 169.892 46.297C170.977 45.5994 172.234 45.2141 173.523 45.1833C175.924 45.1914 177.47 46.7166 177.679 48.9601ZM170.735 47.1403V53.564C171.585 54.0644 172.55 54.3356 173.536 54.3508C173.914 54.372 174.292 54.3183 174.649 54.1927C175.007 54.0671 175.335 53.8722 175.617 53.6191C175.899 53.366 176.127 53.0597 176.29 52.7178C176.453 52.376 176.547 52.0053 176.566 51.6272C176.643 50.76 176.643 49.8878 176.566 49.0206C176.547 48.6424 176.453 48.2718 176.29 47.9299C176.127 47.5881 175.899 47.2818 175.617 47.0287C175.335 46.7756 175.007 46.5806 174.649 46.4551C174.292 46.3295 173.914 46.2758 173.536 46.297C172.542 46.3139 171.573 46.6058 170.735 47.1403Z" fill="#FF5100"/>
<path d="M187.024 48.6335V53.879C187.035 53.9798 187.017 54.0816 186.973 54.1728C186.929 54.2641 186.86 54.3412 186.774 54.3954C185.626 55.1118 184.294 55.479 182.941 55.4526C180.544 55.4526 179.257 54.2219 179.257 52.2851C179.257 50.542 180.544 49.1782 183.034 49.1782C184.009 49.188 184.978 49.3375 185.911 49.6221V48.8232C185.911 47.0679 185.067 46.3134 183.304 46.3134C182.466 46.3132 181.638 46.5022 180.883 46.8662C180.781 46.9246 180.666 46.9553 180.548 46.955C180.402 46.955 180.262 46.8974 180.157 46.7947C180.053 46.6921 179.994 46.5525 179.991 46.4062C179.992 46.2931 180.026 46.1826 180.087 46.0876C180.149 45.9926 180.236 45.917 180.338 45.8696C181.263 45.4349 182.271 45.2064 183.292 45.1998C185.721 45.1917 187.024 46.2004 187.024 48.6335ZM180.363 52.3174C180.363 53.5844 181.226 54.3349 183.102 54.3349C184.097 54.325 185.068 54.0325 185.903 53.4916V50.768C184.997 50.4748 184.054 50.3131 183.102 50.2878C181.234 50.304 180.363 51.1957 180.363 52.3174Z" fill="#FF5100"/>
<path d="M193.501 45.3652C193.628 45.3901 193.744 45.4582 193.828 45.5581C193.911 45.658 193.958 45.7836 193.96 45.914C193.96 45.9869 193.946 46.0591 193.918 46.1264C193.89 46.1938 193.849 46.2549 193.797 46.3063C193.745 46.3577 193.684 46.3983 193.616 46.4258C193.549 46.4534 193.477 46.4673 193.404 46.4667C193.183 46.4461 192.965 46.4084 192.75 46.3538C192.483 46.3153 192.213 46.2964 191.943 46.2973C190.66 46.2973 190.026 46.8622 190.026 48.1735V54.7828C190.03 54.8586 190.019 54.9345 189.993 55.0058C189.966 55.0771 189.926 55.1423 189.874 55.1977C189.822 55.2531 189.759 55.2974 189.69 55.328C189.62 55.3586 189.546 55.3749 189.47 55.3759C189.317 55.3707 189.173 55.3053 189.069 55.1942C188.965 55.0831 188.908 54.9352 188.913 54.7828V48.117C188.913 46.2771 189.986 45.1836 191.923 45.1836C192.454 45.1776 192.984 45.2387 193.501 45.3652Z" fill="#FF5100"/>
<path d="M196.503 43.7068V45.3571H199.581C199.657 45.3506 199.733 45.3599 199.805 45.3844C199.877 45.4089 199.943 45.4481 199.999 45.4995C200.055 45.5509 200.1 45.6134 200.131 45.683C200.161 45.7526 200.177 45.8278 200.177 45.9038C200.177 45.9798 200.161 46.055 200.131 46.1246C200.1 46.1942 200.055 46.2567 199.999 46.3081C199.943 46.3595 199.877 46.3987 199.805 46.4233C199.733 46.4478 199.657 46.4571 199.581 46.4506H196.503V52.6039C196.503 53.6045 196.963 54.351 198.169 54.351C198.68 54.3539 199.187 54.2523 199.658 54.0524C199.752 54.0118 199.851 53.986 199.952 53.9758C200.027 53.9702 200.101 53.98 200.171 54.0044C200.242 54.0287 200.306 54.0673 200.361 54.1175C200.416 54.1678 200.46 54.2288 200.49 54.2967C200.52 54.3646 200.537 54.438 200.538 54.5124C200.538 54.811 200.348 54.9643 200.057 55.0894C199.444 55.3461 198.785 55.4738 198.121 55.4647C196.224 55.4647 195.417 54.1775 195.417 52.5111V43.7068C195.412 43.5575 195.465 43.4119 195.565 43.3011C195.665 43.1903 195.805 43.123 195.954 43.1136C196.029 43.1162 196.103 43.1337 196.171 43.165C196.239 43.1962 196.301 43.2407 196.352 43.2959C196.403 43.351 196.442 43.4157 196.468 43.4862C196.494 43.5568 196.506 43.6317 196.503 43.7068Z" fill="#FF5100"/>
<path d="M210.282 49.0368V54.8028C210.287 54.878 210.276 54.9534 210.25 55.0242C210.224 55.095 210.184 55.1595 210.131 55.2136C210.079 55.2676 210.015 55.31 209.945 55.3379C209.875 55.3659 209.8 55.3788 209.725 55.3758C209.651 55.3752 209.577 55.36 209.509 55.3308C209.44 55.3016 209.378 55.2591 209.327 55.2058C209.275 55.1525 209.234 55.0894 209.207 55.0202C209.18 54.951 209.167 54.8771 209.168 54.8028V49.1135C209.168 47.1606 207.885 46.289 206.295 46.289C205.256 46.2785 204.232 46.5356 203.322 47.0355V54.7947C203.325 54.8695 203.313 54.9441 203.286 55.0141C203.26 55.084 203.219 55.1478 203.167 55.2015C203.115 55.2551 203.052 55.2975 202.983 55.3261C202.914 55.3547 202.839 55.3689 202.765 55.3677C202.69 55.3672 202.617 55.3519 202.548 55.3227C202.48 55.2935 202.418 55.251 202.366 55.1977C202.315 55.1444 202.274 55.0813 202.247 55.0121C202.219 54.943 202.206 54.8691 202.208 54.7947V46.8055C202.193 46.6941 202.21 46.5806 202.258 46.4789C202.306 46.3772 202.383 46.2916 202.478 46.2325C203.015 45.8291 204.358 45.1956 206.332 45.1956C208.938 45.1915 210.282 46.6038 210.282 49.0368Z" fill="#FF5100"/>
<path d="M219.8 49.1902V49.864C219.8 50.4693 219.457 50.8606 218.691 50.8606H212.727V51.2238C212.727 53.2413 214.018 54.3509 215.898 54.3509C216.655 54.3841 217.41 54.2462 218.106 53.9474C218.268 53.8544 218.448 53.7954 218.634 53.7739C218.707 53.7739 218.779 53.7883 218.847 53.8163C218.914 53.8444 218.975 53.8855 219.026 53.9372C219.078 53.989 219.119 54.0504 219.146 54.1179C219.174 54.1855 219.188 54.2578 219.187 54.3307C219.184 54.4543 219.143 54.5741 219.071 54.6748C219 54.7754 218.899 54.8523 218.783 54.8956C217.878 55.2959 216.896 55.4929 215.907 55.4726C213.219 55.4726 211.783 53.8021 211.65 51.3085C211.611 50.5679 211.611 49.8258 211.65 49.0853C211.823 46.6643 213.494 45.1915 215.794 45.1915C218.291 45.1915 219.8 46.8701 219.8 49.1902ZM212.727 49.7672H218.4C218.594 49.7672 218.671 49.6905 218.691 49.4968C218.844 47.5439 217.617 46.2971 215.773 46.2971C213.703 46.2971 212.666 47.6125 212.727 49.7672Z" fill="#FF5100"/>
<path d="M226.067 45.3652C226.194 45.3908 226.309 45.4591 226.393 45.5589C226.476 45.6586 226.524 45.7838 226.527 45.914C226.527 45.9869 226.512 46.0591 226.484 46.1264C226.456 46.1938 226.415 46.2549 226.363 46.3063C226.311 46.3577 226.25 46.3983 226.183 46.4258C226.115 46.4534 226.043 46.4673 225.97 46.4667C225.749 46.4461 225.531 46.4084 225.316 46.3538C225.049 46.3153 224.779 46.2964 224.509 46.2973C223.226 46.2973 222.593 46.8622 222.593 48.1735V54.7828C222.596 54.8586 222.585 54.9345 222.559 55.0058C222.532 55.0771 222.492 55.1423 222.44 55.1977C222.388 55.2531 222.326 55.2974 222.256 55.328C222.187 55.3586 222.112 55.3749 222.036 55.3759C221.883 55.3707 221.739 55.3053 221.635 55.1942C221.531 55.0831 221.475 54.9352 221.479 54.7828V48.117C221.479 46.2771 222.552 45.1836 224.489 45.1836C225.02 45.1776 225.55 45.2387 226.067 45.3652Z" fill="#FF5100"/>
<path d="M183.252 6.22607C181.782 6.23236 180.329 6.531 178.976 7.10458C177.623 7.67817 176.398 8.51523 175.371 9.56702C174.121 7.61813 172.034 6.22607 168.322 6.22607C165.264 6.22607 162.528 7.15411 160.765 8.49776C160.164 8.96178 159.978 9.24019 159.978 9.84543V29.7136C159.966 29.9403 160.044 30.1625 160.195 30.3319C160.346 30.5012 160.558 30.6039 160.785 30.6174C160.902 30.62 161.019 30.598 161.127 30.5529C161.236 30.5077 161.334 30.4405 161.414 30.3554C161.495 30.2703 161.558 30.1693 161.597 30.0588C161.637 29.9482 161.653 29.8307 161.644 29.7136V9.94227C162.891 8.97388 165.014 7.95707 168.25 7.95707C172.176 7.95707 174.762 10.0835 174.762 14.9335V29.7015C174.759 29.8208 174.781 29.9394 174.824 30.0505C174.868 30.1615 174.934 30.2626 175.017 30.3479C175.101 30.4333 175.2 30.5011 175.31 30.5473C175.42 30.5936 175.539 30.6174 175.658 30.6174C175.768 30.6087 175.875 30.5785 175.973 30.5283C176.072 30.4782 176.159 30.4092 176.231 30.3253C176.302 30.2413 176.357 30.1441 176.39 30.0391C176.424 29.9342 176.437 29.8235 176.429 29.7136V15.1877C176.462 13.849 176.292 12.513 175.924 11.2254C177.102 9.90999 179.733 7.88848 183.215 7.88848C187.4 7.88848 189.796 10.0028 189.796 15.0384V29.7539C189.794 29.8763 189.819 29.9978 189.867 30.11C189.916 30.2222 189.989 30.3227 190.08 30.4046C190.171 30.4864 190.278 30.5478 190.395 30.5845C190.512 30.6212 190.635 30.6324 190.757 30.6174C190.962 30.5773 191.146 30.4655 191.276 30.3021C191.406 30.1388 191.474 29.9344 191.467 29.7257V14.99C191.459 9.24019 188.723 6.22607 183.252 6.22607Z" fill="#F8F9FA"/>
<path d="M203.652 6.25012C201.177 6.2727 198.736 6.83739 196.503 7.90445C196.343 7.97834 196.208 8.0946 196.11 8.24049C196.013 8.38639 195.957 8.5563 195.95 8.73162C195.95 8.84324 195.972 8.95375 196.015 9.05682C196.057 9.15989 196.12 9.25348 196.199 9.33221C196.278 9.41095 196.372 9.47328 196.476 9.51562C196.579 9.55797 196.69 9.57949 196.801 9.57896C196.986 9.56114 197.166 9.50625 197.33 9.41756C199.307 8.46138 201.473 7.95955 203.669 7.94884C208.107 7.94884 210.56 9.87755 210.56 14.2434V17.2292C208.052 16.4832 205.457 16.0668 202.841 15.9905C197.374 15.9905 194.065 18.932 194.065 23.0436C194.065 27.708 197.188 30.6172 203.116 30.6172C206.2 30.6662 209.222 29.7445 211.755 27.9824C211.926 27.8792 212.064 27.7298 212.154 27.5513C212.244 27.3728 212.282 27.1726 212.263 26.9737V14.199C212.239 8.54601 208.845 6.25012 203.652 6.25012ZM210.544 26.8002C209.273 27.8371 206.638 29.1687 202.922 29.1687C197.745 29.1687 195.393 26.8486 195.393 23.1566C195.393 19.743 198.31 17.6731 202.591 17.6731C205.323 17.6731 207.486 18.0968 210.544 18.9885V26.8002Z" fill="#F8F9FA"/>
<path d="M215.697 6.22608C215.578 6.2263 215.46 6.2511 215.35 6.29892C215.241 6.34675 215.143 6.41657 215.062 6.50403C214.981 6.59149 214.919 6.69472 214.879 6.80726C214.84 6.91981 214.824 7.03926 214.833 7.15815V29.6813C214.822 29.8017 214.835 29.9232 214.873 30.038C214.911 30.1528 214.973 30.2584 215.054 30.348C215.136 30.4376 215.235 30.5091 215.346 30.5581C215.456 30.6071 215.576 30.6324 215.697 30.6324C215.818 30.6324 215.937 30.6071 216.048 30.5581C216.159 30.5091 216.258 30.4376 216.339 30.348C216.42 30.2584 216.482 30.1528 216.52 30.038C216.558 29.9232 216.572 29.8017 216.56 29.6813V7.15815C216.57 7.03913 216.554 6.91943 216.515 6.80661C216.476 6.6938 216.414 6.59033 216.333 6.50274C216.252 6.41514 216.153 6.34533 216.044 6.29771C215.934 6.25009 215.816 6.2257 215.697 6.22608Z" fill="#F8F9FA"/>
<path d="M227.668 17.5683L226.054 17.1648C223.254 16.499 220.866 15.5791 220.866 12.9402C220.866 9.71223 223.117 8.02562 227.019 8.02562C228.794 8.0261 230.526 8.57113 231.982 9.58715C232.178 9.72442 232.409 9.80409 232.648 9.81714C232.759 9.81714 232.87 9.79509 232.973 9.75226C233.076 9.70942 233.169 9.64665 233.248 9.56754C233.327 9.48843 233.389 9.39454 233.432 9.29127C233.474 9.188 233.495 9.07738 233.495 8.96577C233.493 8.8196 233.456 8.67609 233.385 8.54798C233.315 8.41987 233.214 8.31113 233.091 8.2314C231.31 7.00565 229.202 6.34226 227.039 6.3269C222.266 6.3269 219.187 8.94156 219.187 12.9402C219.187 16.842 222.379 18.0121 225.732 18.8635L227.386 19.267C230.509 20.0498 233.334 20.881 233.334 23.883C233.334 26.7075 230.913 29.0034 227.132 29.0034C224.613 29.0721 222.147 28.2698 220.151 26.7317C219.961 26.5605 219.72 26.4558 219.465 26.4331C219.241 26.4352 219.026 26.525 218.867 26.6833C218.708 26.8417 218.617 27.056 218.614 27.2804C218.617 27.4263 218.655 27.5693 218.726 27.6972C218.796 27.8251 218.896 27.9341 219.018 28.0148C221.313 29.7619 223.702 30.7061 227.188 30.7061C232.03 30.7061 235.044 27.8534 235.044 23.883C234.996 19.497 231.296 18.4439 227.668 17.5683Z" fill="#F8F9FA"/>
<path d="M71.3139 6.22197C69.052 6.20354 66.8119 6.66421 64.7409 7.57368C63.4094 8.16278 63.1269 9.13924 63.1269 9.85343C63.1333 10.4556 63.3781 11.0307 63.8077 11.4527C64.2373 11.8747 64.8166 12.1092 65.4188 12.1049C65.864 12.0954 66.304 12.0066 66.718 11.8427C68.1744 11.2329 69.7351 10.9109 71.3139 10.8944C74.5136 10.8944 75.8774 12.1049 75.8774 14.9899V16.2448C74.1291 15.7637 72.3242 15.5194 70.5109 15.5185C67.6864 15.5185 65.3542 16.273 63.7806 17.6974C63.0605 18.3558 62.4904 19.1614 62.1089 20.0594C61.7274 20.9575 61.5434 21.9271 61.5694 22.9025C61.5694 27.6436 65.0637 30.6133 70.6844 30.6133C74.8606 30.6133 78.2015 29.2818 79.7913 28.1641C80.1147 27.9613 80.3759 27.6731 80.546 27.3314C80.7162 26.9897 80.7887 26.6076 80.7557 26.2273V14.9052C80.7557 9.06258 77.6689 6.22197 71.3139 6.22197ZM71.0798 26.1627C67.287 26.1627 66.4921 24.3309 66.4921 22.7976C66.4921 20.7519 68.2392 19.4808 71.0556 19.4808C72.6985 19.5084 74.3289 19.7706 75.8976 20.2596V24.7949C74.4442 25.6766 72.7797 26.1492 71.0798 26.1627Z" fill="#F8F9FA"/>
<path d="M94.9749 6.67777C93.6849 6.36276 92.3605 6.21093 91.0327 6.22586C86.219 6.22586 83.3461 9.00998 83.3461 13.6744V28.0469C83.344 28.7251 83.6108 29.3764 84.088 29.8582C84.5653 30.34 85.2141 30.6129 85.8922 30.6172C86.2278 30.6178 86.5602 30.5514 86.8698 30.4219C87.1795 30.2924 87.4601 30.1023 87.6954 29.863C87.9306 29.6236 88.1157 29.3396 88.2398 29.0278C88.3639 28.716 88.4245 28.3825 88.4181 28.0469V14.3523C88.4181 12.1492 89.3259 11.2131 91.4483 11.2131C92.0271 11.2106 92.605 11.2592 93.1753 11.3583L93.3246 11.3866C93.7707 11.4944 94.226 11.5606 94.6844 11.5843C95.0012 11.5776 95.3136 11.5077 95.6031 11.3787C95.8925 11.2497 96.1534 11.0642 96.3702 10.8331C96.5871 10.6019 96.7556 10.3298 96.8659 10.0327C96.9762 9.73558 97.026 9.41943 97.0125 9.10278C97.0125 7.90036 96.2903 7.03688 94.9749 6.67777Z" fill="#F8F9FA"/>
<path d="M117.599 8.84072C116.219 7.86022 112.515 6.30676 108.46 6.30676C102.339 6.30676 98.5257 9.73648 97.9971 15.7163C97.8517 17.6328 97.8517 19.5576 97.9971 21.4742C98.5378 27.2845 102.085 30.6174 107.733 30.6174C109.714 30.6198 111.671 30.1844 113.463 29.3423V29.7458C113.463 32.9012 111.413 34.9388 108.246 34.9388C106.516 34.9786 104.807 34.561 103.291 33.7283L103.13 33.6476C102.562 33.2863 101.913 33.0727 101.241 33.0263C100.617 33.0251 100.017 33.2693 99.5708 33.7063C99.1247 34.1434 98.8682 34.7381 98.8566 35.3625C98.8566 36.6618 99.7443 37.3437 100.604 37.84C102.929 39.188 105.583 39.8666 108.27 39.8009C114.448 39.8009 118.6 35.6046 118.6 29.3585V10.9228C118.587 9.90595 118.329 9.36123 117.599 8.84072ZM102.746 16.2005C103.013 12.8434 104.844 11.1406 108.185 11.1406C109.947 11.1515 111.68 11.5831 113.241 12.3995V24.4399C111.713 25.4382 109.922 25.9593 108.097 25.9368C104.744 25.9368 102.992 24.2664 102.746 20.8366C102.667 19.2923 102.667 17.7449 102.746 16.2005Z" fill="#F8F9FA"/>
<path d="M131.31 6.22607C125.661 6.22607 121.711 9.85754 121.275 15.4661C121.161 17.3324 121.154 19.2036 121.255 21.0707C121.658 26.9577 125.604 30.6174 131.524 30.6174C133.868 30.6642 136.193 30.1829 138.326 29.2092C139.614 28.5757 139.884 27.6557 139.884 26.998C139.887 26.4012 139.654 25.8274 139.235 25.4024C138.816 24.9774 138.245 24.7357 137.649 24.7304C137.083 24.762 136.532 24.9191 136.035 25.1904C134.652 25.7844 133.157 26.0681 131.653 26.0216C128.175 26.0216 126.004 24.0485 126.004 20.877V20.3161H137.996C139.965 20.3161 141.09 19.2307 141.09 17.3424V16.0512C141.082 10.1763 137.156 6.22607 131.31 6.22607ZM136.47 16.0593C136.47 16.3256 136.442 16.3256 136.244 16.3256H126.032C126.032 14.4049 126.552 12.9362 127.525 11.9517C128.425 11.0317 129.72 10.5677 131.37 10.5677C132.082 10.5359 132.793 10.6529 133.457 10.9114C134.121 11.1698 134.724 11.564 135.228 12.0687C136.148 13.0573 136.579 14.4332 136.47 16.0593Z" fill="#F8F9FA"/>
<path d="M57.6353 25.1702C57.2818 25.1656 56.9299 25.2202 56.5943 25.3316H56.558C55.6847 25.6791 54.7541 25.8598 53.8142 25.8642C51.8815 25.8642 50.9413 24.8313 50.9413 22.7008V10.8945H57.3973C57.769 10.8908 58.1349 10.8015 58.4666 10.6336C58.7983 10.4656 59.0868 10.2236 59.3098 9.92616C59.5989 9.52872 59.7543 9.04976 59.7537 8.55831C59.7578 8.48035 59.7578 8.40223 59.7537 8.32428C59.7556 8.3055 59.7556 8.28657 59.7537 8.26779C59.7537 8.21937 59.7537 8.16691 59.7537 8.1185C59.6464 7.58337 59.357 7.10196 58.9347 6.75619C58.5124 6.41043 57.9834 6.22168 57.4376 6.22206H50.9817V4.29739C50.9951 3.96766 50.9417 3.63862 50.8248 3.33003C50.7078 3.02145 50.5297 2.73968 50.3011 2.50164C50.0726 2.26361 49.7983 2.07422 49.4947 1.94484C49.1911 1.81547 48.8645 1.74878 48.5345 1.74878C48.2045 1.74878 47.8779 1.81547 47.5743 1.94484C47.2707 2.07422 46.9964 2.26361 46.7678 2.50164C46.5393 2.73968 46.3612 3.02145 46.2442 3.33003C46.1273 3.63862 46.0739 3.96766 46.0873 4.29739V22.8582C46.0873 27.7001 48.8714 30.6134 53.5358 30.6134C55.1493 30.6344 56.7493 30.3168 58.2325 29.6813C59.2735 29.1931 59.8021 28.4345 59.8021 27.4258C59.8066 26.8414 59.5826 26.2785 59.1777 25.8571C58.7729 25.4356 58.2194 25.1892 57.6353 25.1702Z" fill="#F8F9FA"/>
<path d="M155.261 25.17C154.908 25.1654 154.556 25.2199 154.22 25.3314H154.188C153.314 25.6782 152.384 25.8588 151.444 25.864C149.507 25.864 148.571 24.831 148.571 22.7006V10.8943H155.027C155.399 10.8906 155.765 10.8013 156.097 10.6333C156.428 10.4654 156.717 10.2233 156.94 9.92591C157.23 9.52884 157.387 9.04992 157.388 8.55806C157.392 8.48011 157.392 8.40199 157.388 8.32403C157.386 8.30526 157.386 8.28633 157.388 8.26755L157.363 8.11825C157.256 7.58313 156.967 7.10172 156.544 6.75595C156.122 6.41019 155.593 6.22144 155.047 6.22182H148.591V4.29715C148.611 3.96369 148.561 3.62983 148.447 3.31603C148.333 3.00223 148.155 2.71511 147.926 2.47225C147.697 2.22939 147.42 2.03592 147.113 1.90369C146.807 1.77145 146.476 1.70325 146.142 1.70325C145.808 1.70325 145.478 1.77145 145.171 1.90369C144.864 2.03592 144.588 2.22939 144.358 2.47225C144.129 2.71511 143.952 3.00223 143.837 3.31603C143.723 3.62983 143.674 3.96369 143.693 4.29715V22.858C143.693 27.6999 146.477 30.6131 151.146 30.6131C152.759 30.6333 154.359 30.3158 155.842 29.6811C156.879 29.1928 157.408 28.4343 157.408 27.4255C157.413 26.8446 157.191 26.2845 156.791 25.8636C156.39 25.4428 155.842 25.194 155.261 25.17Z" fill="#F8F9FA"/>
<path d="M215.697 4.2932C216.412 4.2932 216.992 3.71331 216.992 2.99798C216.992 2.28265 216.412 1.70276 215.697 1.70276C214.981 1.70276 214.402 2.28265 214.402 2.99798C214.402 3.71331 214.981 4.2932 215.697 4.2932Z" fill="#F8F9FA"/>
<path d="M40.3516 6.22577H37.0268L37.9064 2.94132C37.9859 2.64485 38.0062 2.33563 37.9662 2.03132C37.9261 1.727 37.8266 1.43355 37.6731 1.16771C37.5197 0.901876 37.3154 0.668864 37.0719 0.481979C36.8284 0.295095 36.5505 0.157998 36.2541 0.0785159C35.9576 -0.000965829 35.6484 -0.0212758 35.3441 0.0187456C35.0397 0.058767 34.7463 0.158336 34.4805 0.311768C34.2146 0.465199 33.9816 0.669489 33.7947 0.912972C33.6078 1.15646 33.4707 1.43436 33.3913 1.73083L32.1808 6.22174H17.1102L17.9898 2.93728C18.1503 2.33854 18.0664 1.70056 17.7566 1.16368C17.4467 0.626797 16.9363 0.235002 16.3375 0.074481C15.7388 -0.0860395 15.1008 -0.00213637 14.5639 0.307733C14.027 0.617602 13.6352 1.12805 13.4747 1.7268L12.2642 6.2177H7.6684C7.04825 6.2177 6.45351 6.46406 6.015 6.90256C5.57649 7.34107 5.33014 7.93582 5.33014 8.55596C5.33014 9.17611 5.57649 9.77085 6.015 10.2094C6.45351 10.6479 7.04825 10.8942 7.6684 10.8942H11.0053L6.97035 25.9365H2.33822C1.73488 25.9616 1.16458 26.2189 0.746544 26.6547C0.328508 27.0905 0.0950928 27.6709 0.0950928 28.2748C0.0950928 28.8787 0.328508 29.4591 0.746544 29.8949C1.16458 30.3307 1.73488 30.588 2.33822 30.6131H5.74372L4.8641 33.8935C4.78462 34.1899 4.76431 34.4992 4.80433 34.8035C4.84435 35.1078 4.94392 35.4012 5.09735 35.6671C5.25078 35.9329 5.45507 36.1659 5.69856 36.3528C5.94204 36.5397 6.21995 36.6768 6.51642 36.7563C6.81288 36.8358 7.1221 36.8561 7.42642 36.816C7.73074 36.776 8.02419 36.6765 8.29002 36.523C8.55586 36.3696 8.78887 36.1653 8.97576 35.9218C9.16264 35.6783 9.29974 35.4004 9.37922 35.104L10.5897 30.6131H25.6643L24.7847 33.8935C24.6242 34.4922 24.7081 35.1302 25.0179 35.6671C25.3278 36.204 25.8383 36.5958 26.437 36.7563C27.0358 36.9168 27.6737 36.8329 28.2106 36.523C28.7475 36.2132 29.1393 35.7027 29.2998 35.104L30.5103 30.6131H35.0738C35.6772 30.588 36.2475 30.3307 36.6655 29.8949C37.0835 29.4591 37.317 28.8787 37.317 28.2748C37.317 27.6709 37.0835 27.0905 36.6655 26.6547C36.2475 26.2189 35.6772 25.9616 35.0738 25.9365H31.7531L35.7759 10.8942H40.3516C40.9712 10.8942 41.5654 10.6481 42.0035 10.2099C42.4417 9.77182 42.6878 9.17759 42.6878 8.55798C42.6878 7.93837 42.4417 7.34414 42.0035 6.90601C41.5654 6.46788 40.9712 6.22174 40.3516 6.22174V6.22577ZM26.9152 25.9406H11.8325L15.8594 10.8942H30.938L26.9152 25.9406Z" fill="#FF5100"/>
<path d="M18.5125 20.8083L19.7835 16.0389H24.2381L22.963 20.8083H18.5125Z" fill="#FF5100"/>
<path d="M17.1486 12.6133L14.0578 24.234H25.5897L28.7047 12.6133H17.1486ZM24.2743 22.5191H16.2851L18.464 14.3241H26.4734L24.2743 22.5191Z" fill="#F8F9FA"/>
</g>
<defs>
<clipPath id="clip0">
<rect width="235" height="59.7295" fill="white"/>
</clipPath>
</defs>
</svg>
