<svg width="247" height="72" viewBox="0 0 247 72" fill="none" xmlns="http://www.w3.org/2000/svg">
<g clip-path="url(#clip0)">
<path d="M5.50111 68.3259C5.50402 68.6879 5.43486 69.0469 5.29766 69.382C5.16047 69.717 4.95796 70.0213 4.70197 70.2773C4.44598 70.5333 4.14164 70.7358 3.80663 70.873C3.47161 71.0102 3.11261 71.0794 2.7506 71.0765C2.38859 71.0794 2.0296 71.0102 1.69458 70.873C1.35956 70.7358 1.05522 70.5333 0.799234 70.2773C0.543246 70.0213 0.340734 69.717 0.203539 69.382C0.0663432 69.0469 -0.00281983 68.6879 8.80258e-05 68.3259C-0.00281983 67.9639 0.0663432 67.6049 0.203539 67.2699C0.340734 66.9349 0.543246 66.6306 0.799234 66.3746C1.05522 66.1186 1.35956 65.9161 1.69458 65.7789C2.0296 65.6417 2.38859 65.5725 2.7506 65.5754C3.11261 65.5725 3.47161 65.6417 3.80663 65.7789C4.14164 65.9161 4.44598 66.1186 4.70197 66.3746C4.95796 66.6306 5.16047 66.9349 5.29766 67.2699C5.43486 67.6049 5.50402 67.9639 5.50111 68.3259ZM33.8792 68.3259C33.8821 68.6879 33.813 69.0469 33.6758 69.382C33.5386 69.717 33.336 70.0213 33.0801 70.2773C32.8241 70.5333 32.5197 70.7358 32.1847 70.873C31.8497 71.0102 31.4907 71.0794 31.1287 71.0765C30.7657 71.0793 30.4056 71.0103 30.0694 70.8734C29.7332 70.7365 29.4274 70.5343 29.1697 70.2786C28.9119 70.0229 28.7074 69.7187 28.5678 69.3836C28.4282 69.0484 28.3564 68.689 28.3564 68.3259C28.3564 67.9629 28.4282 67.6034 28.5678 67.2683C28.7074 66.9332 28.9119 66.6291 29.1697 66.3734C29.4274 66.1177 29.7332 65.9154 30.0694 65.7785C30.4056 65.6415 30.7657 65.5725 31.1287 65.5754C31.4907 65.5725 31.8497 65.6417 32.1847 65.7789C32.5197 65.9161 32.8241 66.1186 33.0801 66.3746C33.336 66.6306 33.5386 66.9349 33.6758 67.2699C33.813 67.6049 33.8821 67.9639 33.8792 68.3259ZM62.2573 68.3259C62.2573 68.689 62.1854 69.0484 62.0459 69.3836C61.9063 69.7187 61.7017 70.0229 61.444 70.2786C61.1862 70.5343 60.8805 70.7365 60.5442 70.8734C60.208 71.0103 59.848 71.0793 59.4849 71.0765C58.7555 71.0765 58.0558 70.7867 57.54 70.2709C57.0242 69.7551 56.7345 69.0554 56.7345 68.3259C56.7345 67.5965 57.0242 66.8969 57.54 66.3811C58.0558 65.8653 58.7555 65.5754 59.4849 65.5754C59.848 65.5725 60.208 65.6415 60.5442 65.7785C60.8805 65.9154 61.1862 66.1177 61.444 66.3734C61.7017 66.6291 61.9063 66.9332 62.0459 67.2683C62.1854 67.6034 62.2573 67.9629 62.2573 68.3259ZM90.6354 68.3259C90.6383 68.6879 90.5691 69.0469 90.4319 69.382C90.2948 69.717 90.0922 70.0213 89.8363 70.2773C89.5803 70.5333 89.2759 70.7358 88.9409 70.873C88.6059 71.0102 88.2469 71.0794 87.8849 71.0765C87.5229 71.0794 87.1639 71.0102 86.8289 70.873C86.4938 70.7358 86.1895 70.5333 85.9335 70.2773C85.6775 70.0213 85.475 69.717 85.3378 69.382C85.2006 69.0469 85.1315 68.6879 85.1344 68.3259C85.1315 67.9639 85.2006 67.6049 85.3378 67.2699C85.475 66.9349 85.6775 66.6306 85.9335 66.3746C86.1895 66.1186 86.4938 65.9161 86.8289 65.7789C87.1639 65.6417 87.5229 65.5725 87.8849 65.5754C88.2451 65.5754 88.6017 65.6468 88.9342 65.7853C89.2667 65.9238 89.5685 66.1267 89.8221 66.3824C90.0758 66.6381 90.2763 66.9414 90.4122 67.275C90.548 67.6086 90.6164 67.9658 90.6135 68.3259H90.6354ZM119.013 68.3259C119.016 68.6879 118.947 69.0469 118.81 69.382C118.673 69.717 118.47 70.0213 118.214 70.2773C117.958 70.5333 117.654 70.7358 117.319 70.873C116.984 71.0102 116.625 71.0794 116.263 71.0765C115.901 71.0794 115.542 71.0102 115.207 70.873C114.872 70.7358 114.568 70.5333 114.312 70.2773C114.056 70.0213 113.853 69.717 113.716 69.382C113.579 69.0469 113.51 68.6879 113.512 68.3259C113.51 67.9639 113.579 67.6049 113.716 67.2699C113.853 66.9349 114.056 66.6306 114.312 66.3746C114.568 66.1186 114.872 65.9161 115.207 65.7789C115.542 65.6417 115.901 65.5725 116.263 65.5754C116.623 65.5754 116.98 65.6468 117.312 65.7853C117.645 65.9238 117.947 66.1267 118.2 66.3824C118.454 66.6381 118.654 66.9414 118.79 67.275C118.926 67.6086 118.995 67.9658 118.992 68.3259H119.013ZM147.392 68.3259C147.392 68.689 147.32 69.0484 147.18 69.3836C147.041 69.7187 146.836 70.0229 146.578 70.2786C146.321 70.5343 146.015 70.7365 145.678 70.8734C145.342 71.0103 144.982 71.0793 144.619 71.0765C143.89 71.0765 143.19 70.7867 142.674 70.2709C142.158 69.7551 141.869 69.0554 141.869 68.3259C141.869 67.5965 142.158 66.8969 142.674 66.3811C143.19 65.8653 143.89 65.5754 144.619 65.5754C145.349 65.5754 146.048 65.8653 146.564 66.3811C147.08 66.8969 147.37 67.5965 147.37 68.3259H147.392ZM175.77 68.3259C175.773 68.6879 175.703 69.0469 175.566 69.382C175.429 69.717 175.227 70.0213 174.971 70.2773C174.715 70.5333 174.41 70.7358 174.075 70.873C173.74 71.0102 173.381 71.0794 173.019 71.0765C172.656 71.0793 172.296 71.0103 171.96 70.8734C171.624 70.7365 171.318 70.5343 171.06 70.2786C170.802 70.0229 170.598 69.7187 170.458 69.3836C170.319 69.0484 170.247 68.689 170.247 68.3259C170.247 67.9629 170.319 67.6034 170.458 67.2683C170.598 66.9332 170.802 66.6291 171.06 66.3734C171.318 66.1177 171.624 65.9154 171.96 65.7785C172.296 65.6415 172.656 65.5725 173.019 65.5754C173.377 65.5783 173.732 65.6518 174.062 65.7915C174.392 65.9313 174.691 66.1346 174.942 66.39C175.194 66.6454 175.392 66.9479 175.527 67.28C175.661 67.6122 175.729 67.9676 175.726 68.3259H175.77ZM204.148 68.3259C204.148 68.689 204.076 69.0484 203.936 69.3836C203.797 69.7187 203.592 70.0229 203.334 70.2786C203.077 70.5343 202.771 70.7365 202.435 70.8734C202.098 71.0103 201.738 71.0793 201.375 71.0765C200.646 71.0765 199.946 70.7867 199.43 70.2709C198.915 69.7551 198.625 69.0554 198.625 68.3259C198.625 67.5965 198.915 66.8969 199.43 66.3811C199.946 65.8653 200.646 65.5754 201.375 65.5754C202.101 65.5812 202.795 65.8735 203.306 66.3887C203.817 66.9039 204.104 67.6002 204.104 68.3259H204.148ZM232.526 68.3259C232.529 68.6879 232.46 69.0469 232.322 69.382C232.185 69.717 231.983 70.0213 231.727 70.2773C231.471 70.5333 231.166 70.7358 230.831 70.873C230.496 71.0102 230.137 71.0794 229.775 71.0765C229.413 71.0794 229.054 71.0102 228.719 70.873C228.384 70.7358 228.08 70.5333 227.824 70.2773C227.568 70.0213 227.365 69.717 227.228 69.382C227.091 69.0469 227.022 68.6879 227.025 68.3259C227.022 67.9639 227.091 67.6049 227.228 67.2699C227.365 66.9349 227.568 66.6306 227.824 66.3746C228.08 66.1186 228.384 65.9161 228.719 65.7789C229.054 65.6417 229.413 65.5725 229.775 65.5754C230.495 65.5869 231.181 65.8826 231.684 66.3978C232.187 66.913 232.466 67.606 232.46 68.3259H232.526ZM260.904 68.3259C260.907 68.6879 260.838 69.0469 260.701 69.382C260.563 69.717 260.361 70.0213 260.105 70.2773C259.849 70.5333 259.544 70.7358 259.209 70.873C258.874 71.0102 258.515 71.0794 258.153 71.0765C257.79 71.0793 257.43 71.0103 257.094 70.8734C256.758 70.7365 256.452 70.5343 256.194 70.2786C255.937 70.0229 255.732 69.7187 255.593 69.3836C255.453 69.0484 255.381 68.689 255.381 68.3259C255.381 67.9629 255.453 67.6034 255.593 67.2683C255.732 66.9332 255.937 66.6291 256.194 66.3734C256.452 66.1177 256.758 65.9154 257.094 65.7785C257.43 65.6415 257.79 65.5725 258.153 65.5754C258.873 65.5869 259.56 65.8826 260.062 66.3978C260.565 66.913 260.844 67.606 260.838 68.3259H260.904ZM289.282 68.3259C289.282 68.689 289.21 69.0484 289.071 69.3836C288.931 69.7187 288.726 70.0229 288.469 70.2786C288.211 70.5343 287.905 70.7365 287.569 70.8734C287.233 71.0103 286.873 71.0793 286.51 71.0765C285.78 71.0765 285.081 70.7867 284.565 70.2709C284.049 69.7551 283.759 69.0554 283.759 68.3259C283.759 67.5965 284.049 66.8969 284.565 66.3811C285.081 65.8653 285.78 65.5754 286.51 65.5754C287.232 65.5869 287.92 65.8817 288.426 66.3963C288.933 66.9109 289.217 67.604 289.217 68.3259H289.282Z" fill="#B6B8D6"/>
<path d="M5.50111 35.5386C5.50402 35.9006 5.43486 36.2596 5.29766 36.5946C5.16047 36.9296 4.95796 37.2341 4.70197 37.4901C4.44598 37.7461 4.14164 37.9485 3.80663 38.0856C3.47161 38.2228 3.11261 38.292 2.7506 38.2891C2.38859 38.292 2.0296 38.2228 1.69458 38.0856C1.35956 37.9485 1.05522 37.7461 0.799234 37.4901C0.543246 37.2341 0.340734 36.9296 0.203539 36.5946C0.0663432 36.2596 -0.00281983 35.9006 8.80258e-05 35.5386C-0.00281983 35.1766 0.0663432 34.8177 0.203539 34.4827C0.340734 34.1477 0.543246 33.8432 0.799234 33.5872C1.05522 33.3312 1.35956 33.1288 1.69458 32.9917C2.0296 32.8545 2.38859 32.7853 2.7506 32.7882C3.11261 32.7853 3.47161 32.8545 3.80663 32.9917C4.14164 33.1288 4.44598 33.3312 4.70197 33.5872C4.95796 33.8432 5.16047 34.1477 5.29766 34.4827C5.43486 34.8177 5.50402 35.1766 5.50111 35.5386ZM33.8792 35.5386C33.8821 35.9006 33.813 36.2596 33.6758 36.5946C33.5386 36.9296 33.336 37.2341 33.0801 37.4901C32.8241 37.7461 32.5197 37.9485 32.1847 38.0856C31.8497 38.2228 31.4907 38.292 31.1287 38.2891C30.7657 38.292 30.4056 38.223 30.0694 38.086C29.7332 37.9491 29.4274 37.747 29.1697 37.4913C28.9119 37.2356 28.7074 36.9315 28.5678 36.5963C28.4282 36.2612 28.3564 35.9016 28.3564 35.5386C28.3564 35.1755 28.4282 34.8161 28.5678 34.481C28.7074 34.1458 28.9119 33.8417 29.1697 33.586C29.4274 33.3303 29.7332 33.1282 30.0694 32.9913C30.4056 32.8543 30.7657 32.7853 31.1287 32.7882C31.4907 32.7853 31.8497 32.8545 32.1847 32.9917C32.5197 33.1288 32.8241 33.3312 33.0801 33.5872C33.336 33.8432 33.5386 34.1477 33.6758 34.4827C33.813 34.8177 33.8821 35.1766 33.8792 35.5386ZM62.2573 35.5386C62.2573 35.9016 62.1854 36.2612 62.0459 36.5963C61.9063 36.9315 61.7017 37.2356 61.444 37.4913C61.1862 37.747 60.8805 37.9491 60.5442 38.086C60.208 38.223 59.848 38.292 59.4849 38.2891C58.7555 38.2891 58.0558 37.9994 57.54 37.4836C57.0242 36.9677 56.7345 36.2681 56.7345 35.5386C56.7345 34.8091 57.0242 34.1096 57.54 33.5937C58.0558 33.0779 58.7555 32.7882 59.4849 32.7882C59.848 32.7853 60.208 32.8543 60.5442 32.9913C60.8805 33.1282 61.1862 33.3303 61.444 33.586C61.7017 33.8417 61.9063 34.1458 62.0459 34.481C62.1854 34.8161 62.2573 35.1755 62.2573 35.5386ZM90.6354 35.5386C90.6383 35.9006 90.5691 36.2596 90.4319 36.5946C90.2948 36.9296 90.0922 37.2341 89.8363 37.4901C89.5803 37.7461 89.2759 37.9485 88.9409 38.0856C88.6059 38.2228 88.2469 38.292 87.8849 38.2891C87.5229 38.292 87.1639 38.2228 86.8289 38.0856C86.4938 37.9485 86.1895 37.7461 85.9335 37.4901C85.6775 37.2341 85.475 36.9296 85.3378 36.5946C85.2006 36.2596 85.1315 35.9006 85.1344 35.5386C85.1315 35.1766 85.2006 34.8177 85.3378 34.4827C85.475 34.1477 85.6775 33.8432 85.9335 33.5872C86.1895 33.3312 86.4938 33.1288 86.8289 32.9917C87.1639 32.8545 87.5229 32.7853 87.8849 32.7882C88.2451 32.7882 88.6017 32.8594 88.9342 32.9979C89.2667 33.1364 89.5685 33.3394 89.8221 33.5951C90.0758 33.8508 90.2763 34.1542 90.4122 34.4878C90.548 34.8213 90.6164 35.1784 90.6135 35.5386H90.6354ZM119.013 35.5386C119.016 35.9006 118.947 36.2596 118.81 36.5946C118.673 36.9296 118.47 37.2341 118.214 37.4901C117.958 37.7461 117.654 37.9485 117.319 38.0856C116.984 38.2228 116.625 38.292 116.263 38.2891C115.901 38.292 115.542 38.2228 115.207 38.0856C114.872 37.9485 114.568 37.7461 114.312 37.4901C114.056 37.2341 113.853 36.9296 113.716 36.5946C113.579 36.2596 113.51 35.9006 113.512 35.5386C113.51 35.1766 113.579 34.8177 113.716 34.4827C113.853 34.1477 114.056 33.8432 114.312 33.5872C114.568 33.3312 114.872 33.1288 115.207 32.9917C115.542 32.8545 115.901 32.7853 116.263 32.7882C116.623 32.7882 116.98 32.8594 117.312 32.9979C117.645 33.1364 117.947 33.3394 118.2 33.5951C118.454 33.8508 118.654 34.1542 118.79 34.4878C118.926 34.8213 118.995 35.1784 118.992 35.5386H119.013ZM147.392 35.5386C147.392 35.9016 147.32 36.2612 147.18 36.5963C147.041 36.9315 146.836 37.2356 146.578 37.4913C146.321 37.747 146.015 37.9491 145.678 38.086C145.342 38.223 144.982 38.292 144.619 38.2891C143.89 38.2891 143.19 37.9994 142.674 37.4836C142.158 36.9677 141.869 36.2681 141.869 35.5386C141.869 34.8091 142.158 34.1096 142.674 33.5937C143.19 33.0779 143.89 32.7882 144.619 32.7882C145.349 32.7882 146.048 33.0779 146.564 33.5937C147.08 34.1096 147.37 34.8091 147.37 35.5386H147.392ZM175.77 35.5386C175.773 35.9006 175.703 36.2596 175.566 36.5946C175.429 36.9296 175.227 37.2341 174.971 37.4901C174.715 37.7461 174.41 37.9485 174.075 38.0856C173.74 38.2228 173.381 38.292 173.019 38.2891C172.656 38.292 172.296 38.223 171.96 38.086C171.624 37.9491 171.318 37.747 171.06 37.4913C170.802 37.2356 170.598 36.9315 170.458 36.5963C170.319 36.2612 170.247 35.9016 170.247 35.5386C170.247 35.1755 170.319 34.8161 170.458 34.481C170.598 34.1458 170.802 33.8417 171.06 33.586C171.318 33.3303 171.624 33.1282 171.96 32.9913C172.296 32.8543 172.656 32.7853 173.019 32.7882C173.377 32.7911 173.732 32.8644 174.062 33.0042C174.392 33.144 174.691 33.3474 174.942 33.6028C175.194 33.8582 175.392 34.1607 175.527 34.4928C175.661 34.825 175.729 35.1802 175.726 35.5386H175.77ZM204.148 35.5386C204.148 35.9016 204.076 36.2612 203.936 36.5963C203.797 36.9315 203.592 37.2356 203.334 37.4913C203.077 37.747 202.771 37.9491 202.435 38.086C202.098 38.223 201.738 38.292 201.375 38.2891C200.646 38.2891 199.946 37.9994 199.43 37.4836C198.915 36.9677 198.625 36.2681 198.625 35.5386C198.625 34.8091 198.915 34.1096 199.43 33.5937C199.946 33.0779 200.646 32.7882 201.375 32.7882C202.101 32.794 202.795 33.0863 203.306 33.6015C203.817 34.1167 204.104 34.8129 204.104 35.5386H204.148ZM232.526 35.5386C232.529 35.9006 232.46 36.2596 232.322 36.5946C232.185 36.9296 231.983 37.2341 231.727 37.4901C231.471 37.7461 231.166 37.9485 230.831 38.0856C230.496 38.2228 230.137 38.292 229.775 38.2891C229.413 38.292 229.054 38.2228 228.719 38.0856C228.384 37.9485 228.08 37.7461 227.824 37.4901C227.568 37.2341 227.365 36.9296 227.228 36.5946C227.091 36.2596 227.022 35.9006 227.025 35.5386C227.022 35.1766 227.091 34.8177 227.228 34.4827C227.365 34.1477 227.568 33.8432 227.824 33.5872C228.08 33.3312 228.384 33.1288 228.719 32.9917C229.054 32.8545 229.413 32.7853 229.775 32.7882C230.495 32.7997 231.181 33.0952 231.684 33.6104C232.187 34.1256 232.466 34.8186 232.46 35.5386H232.526ZM260.904 35.5386C260.907 35.9006 260.838 36.2596 260.701 36.5946C260.563 36.9296 260.361 37.2341 260.105 37.4901C259.849 37.7461 259.544 37.9485 259.209 38.0856C258.874 38.2228 258.515 38.292 258.153 38.2891C257.79 38.292 257.43 38.223 257.094 38.086C256.758 37.9491 256.452 37.747 256.194 37.4913C255.937 37.2356 255.732 36.9315 255.593 36.5963C255.453 36.2612 255.381 35.9016 255.381 35.5386C255.381 35.1755 255.453 34.8161 255.593 34.481C255.732 34.1458 255.937 33.8417 256.194 33.586C256.452 33.3303 256.758 33.1282 257.094 32.9913C257.43 32.8543 257.79 32.7853 258.153 32.7882C258.873 32.7997 259.56 33.0952 260.062 33.6104C260.565 34.1256 260.844 34.8186 260.838 35.5386H260.904ZM289.282 35.5386C289.282 35.9016 289.21 36.2612 289.071 36.5963C288.931 36.9315 288.726 37.2356 288.469 37.4913C288.211 37.747 287.905 37.9491 287.569 38.086C287.233 38.223 286.873 38.292 286.51 38.2891C285.78 38.2891 285.081 37.9994 284.565 37.4836C284.049 36.9677 283.759 36.2681 283.759 35.5386C283.759 34.8091 284.049 34.1096 284.565 33.5937C285.081 33.0779 285.78 32.7882 286.51 32.7882C287.232 32.7997 287.92 33.0945 288.426 33.6091C288.933 34.1236 289.217 34.8166 289.217 35.5386H289.282Z" fill="#B6B8D6"/>
<path d="M5.50111 2.75074C5.50402 3.11275 5.43486 3.47175 5.29766 3.80677C5.16047 4.14178 4.95796 4.44612 4.70197 4.70211C4.44598 4.9581 4.14164 5.16061 3.80663 5.2978C3.47161 5.435 3.11261 5.50416 2.7506 5.50125C2.38859 5.50416 2.0296 5.435 1.69458 5.2978C1.35956 5.16061 1.05522 4.9581 0.799234 4.70211C0.543246 4.44612 0.340734 4.14178 0.203539 3.80677C0.0663432 3.47175 -0.00281983 3.11275 8.80258e-05 2.75074C-0.00281983 2.38873 0.0663432 2.02974 0.203539 1.69472C0.340734 1.3597 0.543246 1.05536 0.799234 0.799375C1.05522 0.543387 1.35956 0.340875 1.69458 0.203679C2.0296 0.066484 2.38859 -0.00267935 2.7506 0.000228405C3.11261 -0.00267935 3.47161 0.066484 3.80663 0.203679C4.14164 0.340875 4.44598 0.543387 4.70197 0.799375C4.95796 1.05536 5.16047 1.3597 5.29766 1.69472C5.43486 2.02974 5.50402 2.38873 5.50111 2.75074ZM33.8792 2.75074C33.8821 3.11275 33.813 3.47175 33.6758 3.80677C33.5386 4.14178 33.336 4.44612 33.0801 4.70211C32.8241 4.9581 32.5197 5.16061 32.1847 5.2978C31.8497 5.435 31.4907 5.50416 31.1287 5.50125C30.7657 5.50414 30.4056 5.43501 30.0694 5.29807C29.7332 5.16114 29.4274 4.959 29.1697 4.70331C28.9119 4.44761 28.7074 4.1435 28.5678 3.80836C28.4282 3.47323 28.3564 3.11379 28.3564 2.75074C28.3564 2.3877 28.4282 2.02825 28.5678 1.69312C28.7074 1.35798 28.9119 1.05374 29.1697 0.798043C29.4274 0.542348 29.7332 0.340214 30.0694 0.203279C30.4056 0.0663447 30.7657 -0.00265265 31.1287 0.000228405C31.4907 -0.00267935 31.8497 0.066484 32.1847 0.203679C32.5197 0.340875 32.8241 0.543387 33.0801 0.799375C33.336 1.05536 33.5386 1.3597 33.6758 1.69472C33.813 2.02974 33.8821 2.38873 33.8792 2.75074ZM62.2573 2.75074C62.2573 3.11379 62.1854 3.47323 62.0459 3.80836C61.9063 4.1435 61.7017 4.44761 61.444 4.70331C61.1862 4.959 60.8805 5.16114 60.5442 5.29807C60.208 5.43501 59.848 5.50414 59.4849 5.50125C58.7555 5.50125 58.0558 5.2114 57.54 4.69558C57.0242 4.17976 56.7345 3.48022 56.7345 2.75074C56.7345 2.02127 57.0242 1.32159 57.54 0.80577C58.0558 0.289953 58.7555 0.000228405 59.4849 0.000228405C59.848 -0.00265265 60.208 0.0663447 60.5442 0.203279C60.8805 0.340214 61.1862 0.542348 61.444 0.798043C61.7017 1.05374 61.9063 1.35798 62.0459 1.69312C62.1854 2.02825 62.2573 2.3877 62.2573 2.75074ZM90.6354 2.75074C90.6383 3.11275 90.5691 3.47175 90.4319 3.80677C90.2948 4.14178 90.0922 4.44612 89.8363 4.70211C89.5803 4.9581 89.2759 5.16061 88.9409 5.2978C88.6059 5.435 88.2469 5.50416 87.8849 5.50125C87.5229 5.50416 87.1639 5.435 86.8289 5.2978C86.4938 5.16061 86.1895 4.9581 85.9335 4.70211C85.6775 4.44612 85.475 4.14178 85.3378 3.80677C85.2006 3.47175 85.1315 3.11275 85.1344 2.75074C85.1315 2.38873 85.2006 2.02974 85.3378 1.69472C85.475 1.3597 85.6775 1.05536 85.9335 0.799375C86.1895 0.543387 86.4938 0.340875 86.8289 0.203679C87.1639 0.066484 87.5229 -0.00267935 87.8849 0.000228405C88.2451 0.000216961 88.6017 0.0714502 88.9342 0.209941C89.2667 0.348433 89.5685 0.551406 89.8221 0.807103C90.0758 1.0628 90.2763 1.3662 90.4122 1.69978C90.548 2.03336 90.6164 2.39058 90.6135 2.75074H90.6354ZM119.013 2.75074C119.016 3.11275 118.947 3.47175 118.81 3.80677C118.673 4.14178 118.47 4.44612 118.214 4.70211C117.958 4.9581 117.654 5.16061 117.319 5.2978C116.984 5.435 116.625 5.50416 116.263 5.50125C115.901 5.50416 115.542 5.435 115.207 5.2978C114.872 5.16061 114.568 4.9581 114.312 4.70211C114.056 4.44612 113.853 4.14178 113.716 3.80677C113.579 3.47175 113.51 3.11275 113.512 2.75074C113.51 2.38873 113.579 2.02974 113.716 1.69472C113.853 1.3597 114.056 1.05536 114.312 0.799375C114.568 0.543387 114.872 0.340875 115.207 0.203679C115.542 0.066484 115.901 -0.00267935 116.263 0.000228405C116.623 0.000216961 116.98 0.0714502 117.312 0.209941C117.645 0.348433 117.947 0.551406 118.2 0.807103C118.454 1.0628 118.654 1.3662 118.79 1.69978C118.926 2.03336 118.995 2.39058 118.992 2.75074H119.013ZM147.392 2.75074C147.392 3.11379 147.32 3.47323 147.18 3.80836C147.041 4.1435 146.836 4.44761 146.578 4.70331C146.321 4.959 146.015 5.16114 145.678 5.29807C145.342 5.43501 144.982 5.50414 144.619 5.50125C143.89 5.50125 143.19 5.2114 142.674 4.69558C142.158 4.17976 141.869 3.48022 141.869 2.75074C141.869 2.02127 142.158 1.32159 142.674 0.80577C143.19 0.289953 143.89 0.000228405 144.619 0.000228405C145.349 0.000228405 146.048 0.289953 146.564 0.80577C147.08 1.32159 147.37 2.02127 147.37 2.75074H147.392ZM175.77 2.75074C175.773 3.11275 175.703 3.47175 175.566 3.80677C175.429 4.14178 175.227 4.44612 174.971 4.70211C174.715 4.9581 174.41 5.16061 174.075 5.2978C173.74 5.435 173.381 5.50416 173.019 5.50125C172.656 5.50414 172.296 5.43501 171.96 5.29807C171.624 5.16114 171.318 4.959 171.06 4.70331C170.802 4.44761 170.598 4.1435 170.458 3.80836C170.319 3.47323 170.247 3.11379 170.247 2.75074C170.247 2.3877 170.319 2.02825 170.458 1.69312C170.598 1.35798 170.802 1.05374 171.06 0.798043C171.318 0.542348 171.624 0.340214 171.96 0.203279C172.296 0.0663447 172.656 -0.00265265 173.019 0.000228405C173.377 0.00308371 173.732 0.0764308 174.062 0.216203C174.392 0.355976 174.691 0.559421 174.942 0.81483C175.194 1.07024 175.392 1.37268 175.527 1.70484C175.661 2.037 175.729 2.39241 175.726 2.75074H175.77ZM204.148 2.75074C204.148 3.11379 204.076 3.47323 203.936 3.80836C203.797 4.1435 203.592 4.44761 203.334 4.70331C203.077 4.959 202.771 5.16114 202.435 5.29807C202.098 5.43501 201.738 5.50414 201.375 5.50125C200.646 5.50125 199.946 5.2114 199.43 4.69558C198.915 4.17976 198.625 3.48022 198.625 2.75074C198.625 2.02127 198.915 1.32159 199.43 0.80577C199.946 0.289953 200.646 0.000228405 201.375 0.000228405C202.101 0.00598812 202.795 0.298304 203.306 0.813498C203.817 1.32869 204.104 2.02503 204.104 2.75074H204.148ZM232.526 2.75074C232.529 3.11275 232.46 3.47175 232.322 3.80677C232.185 4.14178 231.983 4.44612 231.727 4.70211C231.471 4.9581 231.166 5.16061 230.831 5.2978C230.496 5.435 230.137 5.50416 229.775 5.50125C229.413 5.50416 229.054 5.435 228.719 5.2978C228.384 5.16061 228.08 4.9581 227.824 4.70211C227.568 4.44612 227.365 4.14178 227.228 3.80677C227.091 3.47175 227.022 3.11275 227.025 2.75074C227.022 2.38873 227.091 2.02974 227.228 1.69472C227.365 1.3597 227.568 1.05536 227.824 0.799375C228.08 0.543387 228.384 0.340875 228.719 0.203679C229.054 0.066484 229.413 -0.00267935 229.775 0.000228405C230.495 0.0117245 231.181 0.307225 231.684 0.822425C232.187 1.33762 232.466 2.03079 232.46 2.75074H232.526ZM260.904 2.75074C260.907 3.11275 260.838 3.47175 260.701 3.80677C260.563 4.14178 260.361 4.44612 260.105 4.70211C259.849 4.9581 259.544 5.16061 259.209 5.2978C258.874 5.435 258.515 5.50416 258.153 5.50125C257.79 5.50414 257.43 5.43501 257.094 5.29807C256.758 5.16114 256.452 4.959 256.194 4.70331C255.937 4.44761 255.732 4.1435 255.593 3.80836C255.453 3.47323 255.381 3.11379 255.381 2.75074C255.381 2.3877 255.453 2.02825 255.593 1.69312C255.732 1.35798 255.937 1.05374 256.194 0.798043C256.452 0.542348 256.758 0.340214 257.094 0.203279C257.43 0.0663447 257.79 -0.00265265 258.153 0.000228405C258.873 0.0117245 259.56 0.307225 260.062 0.822425C260.565 1.33762 260.844 2.03079 260.838 2.75074H260.904ZM289.282 2.75074C289.282 3.11379 289.21 3.47323 289.071 3.80836C288.931 4.1435 288.726 4.44761 288.469 4.70331C288.211 4.959 287.905 5.16114 287.569 5.29807C287.233 5.43501 286.873 5.50414 286.51 5.50125C285.78 5.50125 285.081 5.2114 284.565 4.69558C284.049 4.17976 283.759 3.48022 283.759 2.75074C283.759 2.02127 284.049 1.32159 284.565 0.80577C285.081 0.289953 285.78 0.000228405 286.51 0.000228405C287.232 0.0116887 287.92 0.306512 288.426 0.821092C288.933 1.33567 289.217 2.02877 289.217 2.75074H289.282Z" fill="#FF5100"/>
</g>
<defs>
<clipPath id="clip0">
<rect width="71.0765" height="289.282" fill="white" transform="translate(0 71.0765) rotate(-90)"/>
</clipPath>
</defs>
</svg>
