<svg width="195" height="225" viewBox="0 0 195 225" fill="none" xmlns="http://www.w3.org/2000/svg">
<path fill-rule="evenodd" clip-rule="evenodd" d="M148.646 -22.1098C174.653 -15.6811 194.081 3.67426 213.071 22.5716C229.243 38.6654 239.476 58.0081 249.666 78.4218C261.917 102.966 282.235 126.237 278.373 153.396C274.308 181.988 255.811 210.873 229.228 222.157C203.519 233.07 176.568 209.091 148.646 208.463C121.779 207.859 96.0879 227.268 70.6539 218.591C41.3508 208.595 12.4358 188.056 2.6845 158.671C-7.07993 129.246 12.2606 99.524 21.3018 69.8687C30.5543 39.5206 30.2945 2.32614 56.0143 -16.2509C81.7241 -34.8207 117.857 -29.7202 148.646 -22.1098Z" fill="#7954B5"/>
</svg>
