<svg width="240" height="61" viewBox="0 0 240 61" fill="none" xmlns="http://www.w3.org/2000/svg">
<g clip-path="url(#clip0)">
<path d="M234.474 41.4884C234.48 41.7172 234.577 41.9343 234.741 42.0931C234.906 42.2518 235.127 42.3395 235.356 42.3372H238.29V59.3109H235.356C235.126 59.3075 234.904 59.3954 234.739 59.5553C234.574 59.7152 234.478 59.934 234.474 60.1639C234.477 60.2762 234.502 60.387 234.548 60.4896C234.594 60.5921 234.66 60.6845 234.742 60.7613C234.824 60.838 234.92 60.8976 235.026 60.9366C235.131 60.9755 235.244 60.993 235.356 60.988H238.653C238.833 60.9988 239.013 60.9713 239.182 60.9072C239.351 60.8431 239.505 60.7439 239.632 60.6162C239.76 60.4884 239.859 60.3351 239.923 60.1662C239.987 59.9973 240.015 59.8167 240.004 59.6364V41.9993C240.017 41.8185 239.991 41.6371 239.927 41.4673C239.864 41.2975 239.765 41.1432 239.637 41.0151C239.509 40.8869 239.354 40.7878 239.185 40.7244C239.015 40.661 238.833 40.6349 238.653 40.6477H235.356C235.241 40.6397 235.127 40.6556 235.019 40.6944C234.911 40.7333 234.812 40.7942 234.729 40.8733C234.646 40.9524 234.581 41.048 234.537 41.1539C234.493 41.2598 234.471 41.3737 234.474 41.4884Z" fill="#FF5100"/>
<path d="M168.891 41.4924C168.886 41.7208 168.791 41.938 168.627 42.0968C168.462 42.2557 168.242 42.3435 168.014 42.3413H165.08V59.3108H168.014C168.242 59.3075 168.463 59.3949 168.628 59.554C168.792 59.7131 168.887 59.9309 168.891 60.1597C168.889 60.2717 168.864 60.382 168.818 60.4843C168.772 60.5866 168.707 60.6788 168.625 60.7555C168.543 60.8322 168.447 60.8919 168.342 60.9311C168.237 60.9703 168.126 60.9882 168.014 60.9838H164.717C164.537 60.9946 164.356 60.9671 164.187 60.903C164.018 60.8389 163.865 60.7397 163.737 60.6119C163.609 60.4842 163.51 60.3308 163.446 60.162C163.382 59.9931 163.355 59.8125 163.365 59.6322V42.0075C163.352 41.8265 163.377 41.6448 163.441 41.4746C163.504 41.3045 163.603 41.15 163.731 41.0217C163.859 40.8934 164.014 40.7942 164.184 40.7311C164.354 40.668 164.536 40.6423 164.717 40.6559H168.014C168.127 40.6484 168.241 40.6647 168.348 40.7035C168.456 40.7424 168.553 40.8031 168.636 40.8817C168.718 40.9603 168.784 41.0551 168.828 41.1603C168.872 41.2654 168.893 41.3785 168.891 41.4924Z" fill="#FF5100"/>
<path d="M181.46 50.0018C181.538 50.9012 181.538 51.8057 181.46 52.7051C181.4 53.7814 180.926 54.7929 180.137 55.5273C179.348 56.2618 178.306 56.6622 177.228 56.6446C176.237 56.6159 175.263 56.3815 174.368 55.9564V59.591C174.369 59.7441 174.31 59.8915 174.204 60.0017C174.098 60.1118 173.952 60.1759 173.799 60.1802C173.723 60.1809 173.647 60.1659 173.577 60.1362C173.506 60.1065 173.443 60.0627 173.39 60.0075C173.337 59.9524 173.296 59.8869 173.269 59.8153C173.243 59.7436 173.231 59.6673 173.235 59.591V47.8467C173.22 47.7363 173.238 47.6242 173.287 47.5239C173.335 47.4236 173.411 47.3396 173.507 47.2821C174.615 46.5696 175.898 46.1761 177.215 46.1448C179.667 46.153 181.246 47.7107 181.46 50.0018ZM174.368 48.1434V54.7037C175.236 55.2148 176.221 55.4917 177.228 55.5073C177.614 55.5289 178 55.4741 178.365 55.3458C178.73 55.2176 179.066 55.0185 179.354 54.76C179.641 54.5015 179.875 54.1887 180.041 53.8396C180.207 53.4905 180.303 53.1119 180.322 52.7257C180.401 51.8401 180.401 50.9493 180.322 50.0637C180.303 49.6775 180.207 49.2989 180.041 48.9498C179.875 48.6007 179.641 48.2879 179.354 48.0294C179.066 47.7709 178.73 47.5718 178.365 47.4436C178 47.3153 177.614 47.2604 177.228 47.2821C176.213 47.2993 175.223 47.5975 174.368 48.1434Z" fill="#FF5100"/>
<path d="M191.004 49.6681V55.0252C191.014 55.1281 190.996 55.2321 190.951 55.3253C190.906 55.4185 190.836 55.4972 190.748 55.5526C189.575 56.2842 188.215 56.6593 186.833 56.6323C184.386 56.6323 183.071 55.3754 183.071 53.3974C183.071 51.6173 184.386 50.2244 186.928 50.2244C187.924 50.2344 188.914 50.387 189.866 50.6777V49.8618C189.866 48.0692 189.005 47.2986 187.204 47.2986C186.348 47.2985 185.503 47.4914 184.732 47.8632C184.628 47.9229 184.51 47.9542 184.39 47.9539C184.24 47.9539 184.097 47.8951 183.99 47.7902C183.884 47.6853 183.823 47.5428 183.821 47.3934C183.822 47.2779 183.856 47.165 183.919 47.068C183.981 46.971 184.07 46.8938 184.175 46.8454C185.119 46.4015 186.149 46.1681 187.192 46.1613C189.673 46.1531 191.004 47.1833 191.004 49.6681ZM184.2 53.4304C184.2 54.7243 185.082 55.4908 186.998 55.4908C188.014 55.4806 189.006 55.182 189.858 54.6296V51.848C188.933 51.5485 187.97 51.3834 186.998 51.3576C185.09 51.3741 184.2 52.2848 184.2 53.4304Z" fill="#FF5100"/>
<path d="M197.618 46.3303C197.748 46.3557 197.866 46.4253 197.952 46.5273C198.037 46.6293 198.085 46.7576 198.087 46.8907C198.087 46.9652 198.073 47.0389 198.044 47.1077C198.015 47.1764 197.973 47.2389 197.92 47.2913C197.868 47.3438 197.805 47.3853 197.736 47.4134C197.667 47.4416 197.593 47.4558 197.519 47.4552C197.293 47.4342 197.07 47.3956 196.851 47.3398C196.578 47.3005 196.303 47.2812 196.027 47.2822C194.716 47.2822 194.07 47.8591 194.07 49.1983V55.9482C194.073 56.0257 194.062 56.1031 194.035 56.1759C194.008 56.2487 193.967 56.3154 193.914 56.372C193.861 56.4285 193.797 56.4738 193.726 56.5051C193.655 56.5363 193.578 56.553 193.501 56.554C193.345 56.5486 193.198 56.4819 193.092 56.3684C192.985 56.2549 192.928 56.1038 192.932 55.9482V49.1406C192.932 47.2616 194.028 46.1448 196.006 46.1448C196.549 46.1387 197.09 46.201 197.618 46.3303Z" fill="#FF5100"/>
<path d="M200.683 44.6366V46.3221H203.828C203.905 46.3154 203.983 46.3249 204.056 46.3499C204.13 46.375 204.197 46.415 204.255 46.4675C204.312 46.52 204.357 46.5838 204.389 46.6549C204.42 46.726 204.436 46.8028 204.436 46.8804C204.436 46.9581 204.42 47.0349 204.389 47.1059C204.357 47.177 204.312 47.2408 204.255 47.2933C204.197 47.3458 204.13 47.3859 204.056 47.4109C203.983 47.436 203.905 47.4454 203.828 47.4388H200.683V53.723C200.683 54.745 201.153 55.5073 202.385 55.5073C202.908 55.5103 203.425 55.4065 203.906 55.2024C204.002 55.1609 204.103 55.1345 204.207 55.1241C204.282 55.1185 204.359 55.1284 204.43 55.1533C204.502 55.1782 204.568 55.2176 204.624 55.2689C204.68 55.3203 204.725 55.3825 204.756 55.4519C204.787 55.5212 204.803 55.5962 204.804 55.6722C204.804 55.9771 204.611 56.1337 204.314 56.2614C203.688 56.5236 203.015 56.654 202.336 56.6447C200.399 56.6447 199.575 55.3301 199.575 53.6282V44.6366C199.569 44.4841 199.623 44.3355 199.726 44.2223C199.828 44.1091 199.971 44.0405 200.123 44.0309C200.2 44.0335 200.275 44.0513 200.345 44.0833C200.415 44.1152 200.477 44.1607 200.529 44.217C200.582 44.2733 200.622 44.3394 200.648 44.4114C200.675 44.4834 200.687 44.56 200.683 44.6366Z" fill="#FF5100"/>
<path d="M214.756 50.0802V55.9689C214.761 56.0457 214.75 56.1227 214.724 56.195C214.697 56.2673 214.656 56.3332 214.602 56.3884C214.549 56.4436 214.484 56.4869 214.412 56.5154C214.341 56.5439 214.264 56.5571 214.187 56.554C214.111 56.5535 214.036 56.5379 213.966 56.5081C213.897 56.4783 213.833 56.4349 213.78 56.3805C213.728 56.326 213.686 56.2616 213.658 56.1909C213.63 56.1203 213.617 56.0448 213.619 55.9689V50.1585C213.619 48.1641 212.308 47.274 210.685 47.274C209.624 47.2632 208.578 47.5258 207.648 48.0363V55.9606C207.651 56.037 207.639 56.1132 207.611 56.1847C207.584 56.2561 207.543 56.3212 207.49 56.376C207.436 56.4308 207.372 56.4742 207.302 56.5033C207.231 56.5325 207.155 56.547 207.079 56.5458C207.003 56.5453 206.928 56.5296 206.858 56.4998C206.788 56.47 206.725 56.4267 206.672 56.3722C206.619 56.3178 206.578 56.2533 206.55 56.1827C206.522 56.112 206.509 56.0365 206.51 55.9606V47.8014C206.495 47.6876 206.512 47.5718 206.561 47.4679C206.611 47.3641 206.689 47.2766 206.786 47.2163C207.334 46.8042 208.707 46.1572 210.722 46.1572C213.384 46.1531 214.756 47.5954 214.756 50.0802Z" fill="#FF5100"/>
<path d="M224.477 50.2368V50.925C224.477 51.5431 224.127 51.9428 223.344 51.9428H217.253V52.3137C217.253 54.3741 218.572 55.5073 220.492 55.5073C221.265 55.5412 222.035 55.4004 222.746 55.0952C222.912 55.0002 223.096 54.9399 223.286 54.918C223.361 54.918 223.434 54.9328 223.503 54.9614C223.572 54.99 223.634 55.032 223.687 55.0848C223.739 55.1377 223.781 55.2004 223.809 55.2694C223.837 55.3384 223.851 55.4122 223.851 55.4867C223.847 55.613 223.806 55.7353 223.733 55.8381C223.659 55.9408 223.557 56.0194 223.438 56.0636C222.514 56.4724 221.511 56.6736 220.5 56.6529C217.756 56.6529 216.289 54.9469 216.153 52.4002C216.113 51.6439 216.113 50.886 216.153 50.1297C216.33 47.6572 218.036 46.1531 220.385 46.1531C222.936 46.1531 224.477 47.8673 224.477 50.2368ZM217.253 50.8261H223.047C223.245 50.8261 223.323 50.7478 223.344 50.55C223.5 48.5555 222.248 47.2822 220.364 47.2822C218.25 47.2822 217.191 48.6256 217.253 50.8261Z" fill="#FF5100"/>
<path d="M230.877 46.3303C231.007 46.3564 231.124 46.4262 231.21 46.528C231.295 46.6299 231.343 46.7578 231.346 46.8907C231.346 46.9652 231.332 47.0389 231.303 47.1077C231.274 47.1764 231.232 47.2389 231.179 47.2913C231.127 47.3438 231.064 47.3853 230.995 47.4134C230.926 47.4416 230.852 47.4558 230.778 47.4552C230.552 47.4342 230.329 47.3956 230.11 47.3398C229.837 47.3005 229.562 47.2812 229.286 47.2822C227.975 47.2822 227.328 47.8591 227.328 49.1983V55.9482C227.332 56.0257 227.321 56.1031 227.294 56.1759C227.267 56.2487 227.226 56.3154 227.173 56.372C227.12 56.4285 227.056 56.4738 226.985 56.5051C226.914 56.5363 226.837 56.553 226.76 56.554C226.604 56.5486 226.457 56.4819 226.351 56.3684C226.244 56.2549 226.187 56.1038 226.191 55.9482V49.1406C226.191 47.2616 227.287 46.1448 229.265 46.1448C229.808 46.1387 230.349 46.201 230.877 46.3303Z" fill="#FF5100"/>
<path d="M187.151 6.3584C185.65 6.36482 184.165 6.66981 182.784 7.2556C181.402 7.84139 180.151 8.69626 179.103 9.77043C177.825 7.78008 175.695 6.3584 171.904 6.3584C168.78 6.3584 165.986 7.30618 164.185 8.67841C163.571 9.15231 163.382 9.43664 163.382 10.0548V30.3456C163.369 30.5771 163.449 30.8042 163.604 30.9771C163.758 31.15 163.975 31.2549 164.206 31.2687C164.326 31.2713 164.445 31.2488 164.556 31.2028C164.666 31.1567 164.766 31.088 164.849 31.0011C164.931 30.9142 164.995 30.811 165.035 30.6982C165.076 30.5853 165.092 30.4652 165.084 30.3456V10.1537C166.357 9.16467 168.525 8.12622 171.829 8.12622C175.839 8.12622 178.48 10.2979 178.48 15.2511V30.3333C178.478 30.4551 178.499 30.5763 178.544 30.6897C178.589 30.8031 178.656 30.9064 178.741 30.9935C178.826 31.0806 178.928 31.1499 179.04 31.1971C179.153 31.2444 179.273 31.2687 179.395 31.2687C179.508 31.2598 179.617 31.2289 179.717 31.1777C179.818 31.1265 179.907 31.0561 179.98 30.9703C180.053 30.8846 180.109 30.7853 180.143 30.6781C180.178 30.5709 180.191 30.4579 180.182 30.3456V15.5107C180.217 14.1435 180.043 12.779 179.667 11.4641C180.871 10.1207 183.557 8.05617 187.114 8.05617C191.387 8.05617 193.835 10.2155 193.835 15.3582V30.3868C193.832 30.5118 193.857 30.6359 193.907 30.7505C193.957 30.8651 194.031 30.9677 194.124 31.0513C194.217 31.1349 194.327 31.1976 194.446 31.2351C194.565 31.2726 194.691 31.284 194.815 31.2687C195.025 31.2277 195.213 31.1136 195.345 30.9467C195.478 30.7799 195.548 30.5712 195.541 30.358V15.3088C195.532 9.43664 192.738 6.3584 187.151 6.3584Z" fill="#623F99"/>
<path d="M207.985 6.38306C205.457 6.40612 202.965 6.98282 200.683 8.07259C200.521 8.14805 200.382 8.26678 200.283 8.41578C200.183 8.56478 200.126 8.7383 200.119 8.91735C200.119 9.03134 200.141 9.14421 200.185 9.24947C200.229 9.35473 200.293 9.45031 200.374 9.53072C200.455 9.61114 200.55 9.67479 200.656 9.71804C200.761 9.76128 200.874 9.78327 200.988 9.78272C201.178 9.76452 201.361 9.70847 201.528 9.61789C203.547 8.64136 205.759 8.12885 208.002 8.11792C212.535 8.11792 215.04 10.0877 215.04 14.5464V17.5958C212.479 16.8339 209.829 16.4086 207.157 16.3307C201.574 16.3307 198.194 19.3348 198.194 23.5339C198.194 28.2975 201.384 31.2686 207.437 31.2686C210.588 31.3186 213.674 30.3773 216.26 28.5777C216.435 28.4723 216.576 28.3197 216.668 28.1375C216.76 27.9552 216.799 27.7507 216.779 27.5475V14.501C216.755 8.7278 213.289 6.38306 207.985 6.38306ZM215.024 27.3703C213.726 28.4294 211.035 29.7893 207.24 29.7893C201.953 29.7893 199.55 27.4198 199.55 23.6492C199.55 20.163 202.53 18.0491 206.902 18.0491C209.692 18.0491 211.9 18.4818 215.024 19.3925V27.3703Z" fill="#623F99"/>
<path d="M220.286 6.3584C220.164 6.35863 220.044 6.38396 219.932 6.4328C219.821 6.48164 219.721 6.55295 219.638 6.64227C219.555 6.73159 219.492 6.83701 219.451 6.95195C219.411 7.06689 219.395 7.18888 219.404 7.31031V30.3127C219.392 30.4356 219.406 30.5597 219.445 30.677C219.484 30.7943 219.547 30.9021 219.63 30.9935C219.713 31.085 219.814 31.1581 219.927 31.2081C220.04 31.2581 220.163 31.284 220.286 31.284C220.41 31.284 220.532 31.2581 220.645 31.2081C220.758 31.1581 220.859 31.085 220.942 30.9935C221.025 30.9021 221.088 30.7943 221.127 30.677C221.166 30.5597 221.18 30.4356 221.168 30.3127V7.31031C221.178 7.18875 221.162 7.0665 221.122 6.95129C221.082 6.83608 221.019 6.7304 220.936 6.64095C220.853 6.55149 220.752 6.48019 220.641 6.43156C220.529 6.38293 220.408 6.35802 220.286 6.3584Z" fill="#623F99"/>
<path d="M232.513 17.942L230.864 17.5299C228.004 16.85 225.565 15.9104 225.565 13.2154C225.565 9.91878 227.864 8.19629 231.849 8.19629C233.662 8.19678 235.431 8.7534 236.918 9.79104C237.118 9.93123 237.354 10.0126 237.598 10.0259C237.712 10.0259 237.824 10.0034 237.93 9.95966C238.035 9.91591 238.131 9.8518 238.211 9.77101C238.291 9.69022 238.355 9.59433 238.398 9.48886C238.442 9.3834 238.464 9.27042 238.463 9.15643C238.461 9.00716 238.423 8.8606 238.351 8.72976C238.279 8.59892 238.176 8.48787 238.051 8.40645C236.231 7.15462 234.078 6.4771 231.87 6.46143C226.995 6.46143 223.851 9.13171 223.851 13.2154C223.851 17.2003 227.11 18.3953 230.535 19.2648L232.224 19.6769C235.414 20.4763 238.298 21.3252 238.298 24.3911C238.298 27.2756 235.826 29.6204 231.964 29.6204C229.392 29.6906 226.874 28.8712 224.835 27.3004C224.641 27.1256 224.395 27.0186 224.135 26.9954C223.906 26.9975 223.686 27.0893 223.524 27.251C223.361 27.4127 223.269 27.6316 223.265 27.8608C223.268 28.0098 223.308 28.1558 223.379 28.2864C223.451 28.417 223.553 28.5283 223.678 28.6108C226.022 30.3951 228.462 31.3594 232.022 31.3594C236.967 31.3594 240.045 28.4459 240.045 24.3911C239.996 19.9117 236.217 18.8362 232.513 17.942Z" fill="#623F99"/>
<path d="M72.8312 6.3543C70.5212 6.33549 68.2335 6.80596 66.1184 7.73477C64.7585 8.33641 64.4701 9.33365 64.4701 10.063C64.4766 10.678 64.7266 11.2653 65.1653 11.6963C65.604 12.1273 66.1957 12.3668 66.8107 12.3624C67.2654 12.3527 67.7147 12.262 68.1376 12.0946C69.6249 11.4719 71.2188 11.143 72.8312 11.1262C76.099 11.1262 77.4918 12.3624 77.4918 15.3088V16.5904C75.7063 16.099 73.863 15.8496 72.0111 15.8486C69.1266 15.8486 66.7448 16.6192 65.1376 18.0739C64.4022 18.7463 63.82 19.569 63.4304 20.4862C63.0407 21.4034 62.8528 22.3936 62.8794 23.3897C62.8794 28.2317 66.448 31.2646 72.1883 31.2646C76.4534 31.2646 79.8654 29.9047 81.489 28.7633C81.8193 28.5561 82.086 28.2619 82.2598 27.9129C82.4336 27.5639 82.5077 27.1737 82.4739 26.7853V15.2223C82.4739 9.25535 79.3215 6.3543 72.8312 6.3543ZM72.5922 26.7193C68.7186 26.7193 67.9068 24.8485 67.9068 23.2826C67.9068 21.1933 69.6911 19.8953 72.5675 19.8953C74.2453 19.9234 75.9104 20.1912 77.5124 20.6906V25.3224C76.0282 26.2228 74.3282 26.7055 72.5922 26.7193Z" fill="#623F99"/>
<path d="M96.9956 6.81985C95.6782 6.49814 94.3256 6.34308 92.9696 6.35832C88.0535 6.35832 85.1195 9.20168 85.1195 13.9653V28.6437C85.1173 29.3362 85.3897 30.0014 85.8771 30.4935C86.3645 30.9855 87.0271 31.2642 87.7197 31.2686C88.0625 31.2692 88.4019 31.2014 88.7181 31.0691C89.0343 30.9369 89.321 30.7428 89.5612 30.4983C89.8015 30.2539 89.9905 29.9639 90.1173 29.6454C90.244 29.3269 90.3059 28.9864 90.2993 28.6437V14.6576C90.2993 12.4077 91.2265 11.4516 93.394 11.4516C93.9852 11.4491 94.5754 11.4988 95.1578 11.6L95.3102 11.6288C95.7659 11.739 96.2308 11.8066 96.6989 11.8308C97.0225 11.8239 97.3415 11.7525 97.6372 11.6208C97.9328 11.489 98.1992 11.2996 98.4207 11.0635C98.6421 10.8275 98.8142 10.5496 98.9269 10.2462C99.0395 9.94272 99.0904 9.61984 99.0766 9.29646C99.0766 8.06846 98.339 7.18661 96.9956 6.81985Z" fill="#623F99"/>
<path d="M120.101 9.02866C118.692 8.02731 114.909 6.4408 110.767 6.4408C104.516 6.4408 100.622 9.94348 100.082 16.0505C99.9336 18.0078 99.9336 19.9736 100.082 21.9309C100.634 27.8649 104.256 31.2687 110.026 31.2687C112.048 31.2712 114.046 30.8265 115.877 29.9665V30.3786C115.877 33.601 113.784 35.6821 110.549 35.6821C108.783 35.7226 107.037 35.2962 105.489 34.4458L105.324 34.3634C104.744 33.9943 104.081 33.7762 103.395 33.7288C102.757 33.7276 102.145 33.977 101.689 34.4234C101.234 34.8697 100.972 35.4771 100.96 36.1147C100.96 37.4416 101.866 38.1381 102.744 38.6449C105.119 40.0216 107.829 40.7147 110.574 40.6476C116.883 40.6476 121.123 36.362 121.123 29.983V11.155C121.111 10.1166 120.847 9.56025 120.101 9.02866ZM104.932 16.545C105.204 13.1165 107.075 11.3775 110.487 11.3775C112.286 11.3886 114.056 11.8294 115.651 12.6632V24.9597C114.09 25.9793 112.261 26.5115 110.396 26.4885C106.972 26.4885 105.184 24.7825 104.932 21.2798C104.852 19.7026 104.852 18.1223 104.932 16.545Z" fill="#623F99"/>
<path d="M134.103 6.3584C128.334 6.3584 124.3 10.0671 123.855 15.7951C123.739 17.701 123.732 19.6121 123.834 21.5189C124.247 27.5311 128.277 31.2687 134.322 31.2687C136.716 31.3165 139.091 30.825 141.27 29.8305C142.584 29.1836 142.86 28.244 142.86 27.5723C142.864 26.9628 142.625 26.3768 142.197 25.9427C141.769 25.5087 141.187 25.2619 140.577 25.2564C140 25.2887 139.437 25.4491 138.929 25.7262C137.517 26.3328 135.99 26.6226 134.454 26.5751C130.902 26.5751 128.685 24.56 128.685 21.3211V20.7483H140.932C142.943 20.7483 144.092 19.6398 144.092 17.7112V16.3926C144.084 10.3927 140.075 6.3584 134.103 6.3584ZM139.374 16.4008C139.374 16.6728 139.345 16.6728 139.143 16.6728H128.713C128.713 14.7113 129.245 13.2113 130.238 12.2058C131.157 11.2663 132.48 10.7924 134.165 10.7924C134.892 10.7599 135.618 10.8795 136.297 11.1434C136.975 11.4074 137.591 11.8099 138.105 12.3253C139.044 13.3349 139.485 14.7401 139.374 16.4008Z" fill="#623F99"/>
<path d="M58.8617 25.7057C58.5006 25.701 58.1412 25.7567 57.7985 25.8705H57.7614C56.8696 26.2254 55.9191 26.4099 54.9593 26.4144C52.9854 26.4144 52.0253 25.3595 52.0253 23.1837V11.1262H58.6185C58.9982 11.1224 59.3719 11.0312 59.7106 10.8597C60.0493 10.6882 60.344 10.441 60.5718 10.1373C60.8671 9.73136 61.0258 9.24221 61.0251 8.7403C61.0293 8.66069 61.0293 8.5809 61.0251 8.50129C61.0271 8.48211 61.0271 8.46278 61.0251 8.4436C61.0251 8.39415 61.0251 8.34058 61.0251 8.29113C60.9155 7.74462 60.62 7.25297 60.1887 6.89984C59.7574 6.54672 59.2171 6.35396 58.6598 6.35435H52.0665V4.38872C52.0801 4.05198 52.0256 3.71594 51.9062 3.40079C51.7867 3.08564 51.6049 2.79787 51.3714 2.55477C51.138 2.31167 50.8579 2.11825 50.5478 1.98612C50.2378 1.854 49.9042 1.78589 49.5672 1.78589C49.2302 1.78589 48.8966 1.854 48.5866 1.98612C48.2765 2.11825 47.9964 2.31167 47.7629 2.55477C47.5295 2.79787 47.3476 3.08564 47.2282 3.40079C47.1088 3.71594 47.0542 4.05198 47.0679 4.38872V23.3444C47.0679 28.2894 49.9113 31.2646 54.6749 31.2646C56.3228 31.2861 57.9568 30.9618 59.4716 30.3127C60.5347 29.8141 61.0746 29.0394 61.0746 28.0092C61.0792 27.4124 60.8503 26.8375 60.4369 26.4071C60.0234 25.9767 59.4582 25.725 58.8617 25.7057Z" fill="#623F99"/>
<path d="M158.565 25.7055C158.203 25.7008 157.844 25.7565 157.501 25.8704H157.468C156.576 26.2245 155.626 26.409 154.666 26.4143C152.688 26.4143 151.732 25.3594 151.732 23.1836V11.1261H158.326C158.705 11.1223 159.079 11.0311 159.418 10.8596C159.756 10.6881 160.051 10.4409 160.279 10.1371C160.575 9.7316 160.735 9.24249 160.736 8.74017C160.74 8.66055 160.74 8.58077 160.736 8.50116C160.734 8.48198 160.734 8.46265 160.736 8.44347L160.712 8.291C160.602 7.74449 160.306 7.25283 159.875 6.89971C159.444 6.54659 158.904 6.35382 158.346 6.35422H151.753V4.38859C151.772 4.04804 151.722 3.70707 151.605 3.3866C151.489 3.06612 151.307 2.77289 151.073 2.52487C150.839 2.27684 150.557 2.07925 150.243 1.94421C149.93 1.80916 149.593 1.7395 149.252 1.7395C148.91 1.7395 148.573 1.80916 148.26 1.94421C147.946 2.07925 147.664 2.27684 147.43 2.52487C147.196 2.77289 147.015 3.06612 146.898 3.3866C146.781 3.70707 146.731 4.04804 146.75 4.38859V23.3443C146.75 28.2893 149.594 31.2645 154.361 31.2645C156.009 31.2851 157.643 30.9608 159.158 30.3126C160.217 29.814 160.757 29.0393 160.757 28.0091C160.762 27.4157 160.536 26.8438 160.127 26.4139C159.718 25.9841 159.157 25.7301 158.565 25.7055Z" fill="#623F99"/>
<path d="M220.286 4.38445C221.017 4.38445 221.609 3.79222 221.609 3.06167C221.609 2.33112 221.017 1.73889 220.286 1.73889C219.556 1.73889 218.963 2.33112 218.963 3.06167C218.963 3.79222 219.556 4.38445 220.286 4.38445Z" fill="#623F99"/>
<path d="M41.2061 6.35847H37.8106L38.7089 3.00413C38.7901 2.70136 38.8108 2.38556 38.77 2.07477C38.7291 1.76398 38.6274 1.46428 38.4707 1.19279C38.314 0.921298 38.1054 0.683328 37.8567 0.492468C37.608 0.301607 37.3242 0.161593 37.0214 0.0804202C36.7187 -0.000752628 36.4029 -0.0214947 36.0921 0.0193782C35.7813 0.0602511 35.4816 0.161939 35.2101 0.318635C34.9386 0.475331 34.7006 0.683967 34.5098 0.932631C34.3189 1.18129 34.1789 1.46512 34.0977 1.76789L32.8615 6.35435H17.4703L18.3686 3.00001C18.5325 2.38853 18.4469 1.73697 18.1304 1.18867C17.8139 0.640367 17.2926 0.240235 16.6811 0.0762995C16.0697 -0.0876364 15.4181 -0.00194807 14.8698 0.314514C14.3215 0.630976 13.9214 1.15229 13.7574 1.76377L12.5212 6.35023H7.82758C7.19424 6.35023 6.58684 6.60182 6.139 7.04966C5.69116 7.4975 5.43957 8.1049 5.43957 8.73824C5.43957 9.37158 5.69116 9.97897 6.139 10.4268C6.58684 10.8747 7.19424 11.1262 7.82758 11.1262H11.2355L7.11468 26.4886H2.38399C1.76781 26.5142 1.18538 26.777 0.758451 27.222C0.331521 27.6671 0.0931396 28.2599 0.0931396 28.8766C0.0931396 29.4933 0.331521 30.0862 0.758451 30.5312C1.18538 30.9762 1.76781 31.239 2.38399 31.2646H5.86195L4.96361 34.6148C4.88244 34.9176 4.8617 35.2334 4.90257 35.5442C4.94345 35.855 5.04513 36.1547 5.20183 36.4262C5.35852 36.6977 5.56716 36.9356 5.81582 37.1265C6.06449 37.3174 6.34831 37.4574 6.65109 37.5386C6.95386 37.6197 7.26966 37.6405 7.58045 37.5996C7.89124 37.5587 8.19094 37.457 8.46243 37.3003C8.73392 37.1436 8.97189 36.935 9.16275 36.6863C9.35361 36.4377 9.49363 36.1539 9.5748 35.8511L10.811 31.2646H26.2064L25.308 34.6148C25.1441 35.2263 25.2298 35.8779 25.5463 36.4262C25.8627 36.9745 26.384 37.3746 26.9955 37.5386C27.607 37.7025 28.2586 37.6168 28.8069 37.3003C29.3552 36.9839 29.7553 36.4626 29.9192 35.8511L31.1555 31.2646H35.8161C36.4323 31.239 37.0147 30.9762 37.4416 30.5312C37.8686 30.0862 38.107 29.4933 38.107 28.8766C38.107 28.2599 37.8686 27.6671 37.4416 27.222C37.0147 26.777 36.4323 26.5142 35.8161 26.4886H32.4247L36.5331 11.1262H41.2061C41.8389 11.1262 42.4458 10.8749 42.8932 10.4274C43.3407 9.97996 43.5921 9.37309 43.5921 8.7403C43.5921 8.1075 43.3407 7.50063 42.8932 7.05318C42.4458 6.60573 41.8389 6.35435 41.2061 6.35435V6.35847ZM27.4838 26.4927H12.0803L16.1928 11.1262H31.5923L27.4838 26.4927Z" fill="#FF5100"/>
<path d="M18.9063 21.251L20.2044 16.3802H24.7537L23.4516 21.251H18.9063Z" fill="#FF5100"/>
<path d="M17.5135 12.8816L14.3569 24.7495H26.1342L29.3155 12.8816H17.5135ZM24.7908 22.9982H16.6316L18.8569 14.6288H27.0367L24.7908 22.9982Z" fill="#623F99"/>
</g>
<defs>
<clipPath id="clip0">
<rect width="240" height="61.0003" fill="white"/>
</clipPath>
</defs>
</svg>
