<svg width="71" height="190" viewBox="0 0 71 190" fill="none" xmlns="http://www.w3.org/2000/svg">
<path d="M2.80934 -100.381C2.4396 -100.378 2.07294 -100.449 1.73077 -100.589C1.38859 -100.729 1.07776 -100.936 0.816303 -101.198C0.554848 -101.459 0.348011 -101.77 0.207885 -102.112C0.0677601 -102.454 -0.00288005 -102.821 8.99057e-05 -103.191C-0.00288005 -103.56 0.0677601 -103.927 0.207885 -104.269C0.348011 -104.611 0.554848 -104.922 0.816303 -105.184C1.07776 -105.445 1.38859 -105.652 1.73077 -105.792C2.07294 -105.932 2.4396 -106.003 2.80934 -106C3.17908 -106.003 3.54575 -105.932 3.88792 -105.792C4.23009 -105.652 4.54093 -105.445 4.80238 -105.184C5.06384 -104.922 5.27068 -104.611 5.4108 -104.269C5.55093 -103.927 5.62157 -103.56 5.6186 -103.191C5.62157 -102.821 5.55093 -102.454 5.4108 -102.112C5.27068 -101.77 5.06384 -101.459 4.80238 -101.198C4.54093 -100.936 4.23009 -100.729 3.88792 -100.589C3.54575 -100.449 3.17908 -100.378 2.80934 -100.381ZM2.80934 -71.3973C2.4396 -71.3943 2.07294 -71.4649 1.73077 -71.6051C1.38859 -71.7452 1.07776 -71.952 0.816303 -72.2135C0.554848 -72.4749 0.348011 -72.7858 0.207885 -73.1279C0.0677601 -73.4701 -0.00288005 -73.8368 8.99057e-05 -74.2065C-0.00285293 -74.5773 0.0676182 -74.945 0.207477 -75.2884C0.347336 -75.6318 0.553787 -75.9442 0.814942 -76.2074C1.0761 -76.4706 1.38684 -76.6796 1.72913 -76.8221C2.07143 -76.9647 2.43855 -77.038 2.80934 -77.038C3.18014 -77.038 3.54726 -76.9647 3.88955 -76.8221C4.23185 -76.6796 4.54245 -76.4706 4.80361 -76.2074C5.06476 -75.9442 5.27135 -75.6318 5.41121 -75.2884C5.55107 -74.945 5.62154 -74.5773 5.6186 -74.2065C5.62157 -73.8368 5.55093 -73.4701 5.4108 -73.1279C5.27068 -72.7858 5.06384 -72.4749 4.80238 -72.2135C4.54093 -71.952 4.23009 -71.7452 3.88792 -71.6051C3.54575 -71.4649 3.17908 -71.3943 2.80934 -71.3973ZM2.80934 -42.4131C2.43855 -42.4131 2.07143 -42.4865 1.72913 -42.6291C1.38684 -42.7717 1.0761 -42.9806 0.814942 -43.2438C0.553787 -43.5071 0.347336 -43.8194 0.207477 -44.1628C0.0676182 -44.5062 -0.00285293 -44.8739 8.99057e-05 -45.2447C8.99057e-05 -45.9898 0.296002 -46.7043 0.822835 -47.2311C1.34967 -47.758 2.06429 -48.0539 2.80934 -48.0539C3.5544 -48.0539 4.26888 -47.758 4.79572 -47.2311C5.32255 -46.7043 5.6186 -45.9898 5.6186 -45.2447C5.62154 -44.8739 5.55107 -44.5062 5.41121 -44.1628C5.27135 -43.8194 5.06476 -43.5071 4.80361 -43.2438C4.54245 -42.9806 4.23185 -42.7717 3.88955 -42.6291C3.54726 -42.4865 3.18014 -42.4131 2.80934 -42.4131ZM2.80934 -13.429C2.4396 -13.426 2.07294 -13.4967 1.73077 -13.6368C1.38859 -13.7769 1.07776 -13.9837 0.816303 -14.2452C0.554848 -14.5067 0.348011 -14.8175 0.207885 -15.1597C0.0677601 -15.5018 -0.00288005 -15.8685 8.99057e-05 -16.2382C-0.00288005 -16.608 0.0677601 -16.9746 0.207885 -17.3168C0.348011 -17.659 0.554848 -17.9698 0.816303 -18.2313C1.07776 -18.4927 1.38859 -18.6996 1.73077 -18.8397C2.07294 -18.9798 2.4396 -19.0505 2.80934 -19.0475C3.17908 -19.0505 3.54575 -18.9798 3.88792 -18.8397C4.23009 -18.6996 4.54093 -18.4927 4.80238 -18.2313C5.06384 -17.9698 5.27068 -17.659 5.4108 -17.3168C5.55093 -16.9746 5.62157 -16.608 5.6186 -16.2382C5.61861 -15.8704 5.54572 -15.5061 5.40427 -15.1665C5.26282 -14.827 5.05551 -14.5187 4.79435 -14.2596C4.5332 -14.0005 4.22345 -13.7957 3.88275 -13.657C3.54204 -13.5183 3.1772 -13.4484 2.80934 -13.4513V-13.429ZM2.80934 15.5551C2.4396 15.5581 2.07294 15.4875 1.73077 15.3474C1.38859 15.2072 1.07776 15.0004 0.816303 14.7389C0.554848 14.4775 0.348011 14.1666 0.207885 13.8245C0.0677601 13.4823 -0.00288005 13.1156 8.99057e-05 12.7459C-0.00288005 12.3762 0.0677601 12.0095 0.207885 11.6673C0.348011 11.3251 0.554848 11.0143 0.816303 10.7529C1.07776 10.4914 1.38859 10.2846 1.73077 10.1444C2.07294 10.0043 2.4396 9.93367 2.80934 9.93664C3.17908 9.93367 3.54575 10.0043 3.88792 10.1444C4.23009 10.2846 4.54093 10.4914 4.80238 10.7529C5.06384 11.0143 5.27068 11.3251 5.4108 11.6673C5.55093 12.0095 5.62157 12.3762 5.6186 12.7459C5.61861 13.1138 5.54572 13.478 5.40427 13.8176C5.26282 14.1572 5.05551 14.4654 4.79435 14.7245C4.5332 14.9836 4.22345 15.1884 3.88275 15.3271C3.54204 15.4659 3.1772 15.5358 2.80934 15.5328V15.5551ZM2.80934 44.5393C2.43855 44.5393 2.07143 44.4659 1.72913 44.3233C1.38684 44.1807 1.0761 43.9718 0.814942 43.7086C0.553787 43.4453 0.347336 43.133 0.207477 42.7896C0.0676182 42.4462 -0.00285293 42.0785 8.99057e-05 41.7077C8.99057e-05 40.9626 0.296002 40.2481 0.822835 39.7213C1.34967 39.1944 2.06429 38.8985 2.80934 38.8985C3.5544 38.8985 4.26888 39.1944 4.79572 39.7213C5.32255 40.2481 5.6186 40.9626 5.6186 41.7077C5.6186 42.4528 5.32255 43.1673 4.79572 43.6941C4.26888 44.221 3.5544 44.517 2.80934 44.517V44.5393ZM2.80934 73.5234C2.4396 73.5264 2.07294 73.4557 1.73077 73.3156C1.38859 73.1755 1.07776 72.9686 0.816303 72.7072C0.554848 72.4457 0.348011 72.1349 0.207885 71.7927C0.0677601 71.4506 -0.00288005 71.0839 8.99057e-05 70.7142C-0.00285293 70.3434 0.0676182 69.9756 0.207477 69.6322C0.347336 69.2888 0.553787 68.9765 0.814942 68.7133C1.0761 68.4501 1.38684 68.2411 1.72913 68.0985C2.07143 67.956 2.43855 67.8826 2.80934 67.8827C3.18014 67.8826 3.54726 67.956 3.88955 68.0985C4.23185 68.2411 4.54245 68.4501 4.80361 68.7133C5.06476 68.9765 5.27135 69.2888 5.41121 69.6322C5.55107 69.9756 5.62154 70.3434 5.6186 70.7142C5.61568 71.0801 5.54063 71.442 5.39787 71.779C5.25512 72.116 5.04746 72.4216 4.7866 72.6783C4.52573 72.935 4.21683 73.1378 3.87758 73.2752C3.53833 73.4126 3.17533 73.4817 2.80934 73.4788V73.5234ZM2.80934 102.508C2.43855 102.508 2.07143 102.434 1.72913 102.292C1.38684 102.149 1.0761 101.94 0.814942 101.677C0.553787 101.414 0.347336 101.101 0.207477 100.758C0.0676182 100.414 -0.00285293 100.047 8.99057e-05 99.676C8.99057e-05 98.9309 0.296002 98.2164 0.822835 97.6895C1.34967 97.1627 2.06429 96.8668 2.80934 96.8668C3.5544 96.8668 4.26888 97.1627 4.79572 97.6895C5.32255 98.2164 5.6186 98.9309 5.6186 99.676C5.61271 100.417 5.31416 101.126 4.78796 101.648C4.26176 102.17 3.55055 102.463 2.80934 102.463V102.508ZM2.80934 131.492C2.4396 131.495 2.07294 131.424 1.73077 131.284C1.38859 131.144 1.07776 130.937 0.816303 130.675C0.554848 130.414 0.348011 130.103 0.207885 129.761C0.0677601 129.419 -0.00288005 129.052 8.99057e-05 128.682C-0.00288005 128.313 0.0677601 127.946 0.207885 127.604C0.348011 127.262 0.554848 126.951 0.816303 126.689C1.07776 126.428 1.38859 126.221 1.73077 126.081C2.07294 125.941 2.4396 125.87 2.80934 125.873C3.17908 125.87 3.54575 125.941 3.88792 126.081C4.23009 126.221 4.54093 126.428 4.80238 126.689C5.06384 126.951 5.27068 127.262 5.4108 127.604C5.55093 127.946 5.62157 128.313 5.6186 128.682C5.60685 129.418 5.30491 130.119 4.77871 130.632C4.2525 131.146 3.54468 131.431 2.80934 131.425V131.492ZM2.80934 160.476C2.4396 160.479 2.07294 160.408 1.73077 160.268C1.38859 160.128 1.07776 159.921 0.816303 159.66C0.554848 159.398 0.348011 159.087 0.207885 158.745C0.0677601 158.403 -0.00288005 158.036 8.99057e-05 157.667C-0.00285293 157.296 0.0676182 156.928 0.207477 156.585C0.347336 156.241 0.553787 155.929 0.814942 155.666C1.0761 155.402 1.38684 155.194 1.72913 155.051C2.07143 154.908 2.43855 154.835 2.80934 154.835C3.18014 154.835 3.54726 154.908 3.88955 155.051C4.23185 155.194 4.54245 155.402 4.80361 155.666C5.06476 155.929 5.27135 156.241 5.41121 156.585C5.55107 156.928 5.62154 157.296 5.6186 157.667C5.60685 158.402 5.30491 159.103 4.77871 159.616C4.2525 160.13 3.54468 160.415 2.80934 160.409V160.476ZM2.80934 189.46C2.43855 189.46 2.07143 189.387 1.72913 189.244C1.38684 189.101 1.0761 188.892 0.814942 188.629C0.553787 188.366 0.347336 188.054 0.207477 187.71C0.0676182 187.367 -0.00285293 186.999 8.99057e-05 186.628C8.99057e-05 185.883 0.296002 185.169 0.822835 184.642C1.34967 184.115 2.06429 183.819 2.80934 183.819C3.5544 183.819 4.26888 184.115 4.79572 184.642C5.32255 185.169 5.6186 185.883 5.6186 186.628C5.60689 187.366 5.30577 188.069 4.7802 188.586C4.25463 189.103 3.54674 189.393 2.80934 189.393V189.46Z" fill="#623F99"/>
<path d="M36.2972 -100.381C35.9275 -100.378 35.5608 -100.449 35.2187 -100.589C34.8765 -100.729 34.5655 -100.936 34.3041 -101.198C34.0426 -101.459 33.8359 -101.77 33.6958 -102.112C33.5556 -102.454 33.485 -102.821 33.488 -103.191C33.485 -103.56 33.5556 -103.927 33.6958 -104.269C33.8359 -104.611 34.0426 -104.922 34.3041 -105.184C34.5655 -105.445 34.8765 -105.652 35.2187 -105.792C35.5608 -105.932 35.9275 -106.003 36.2972 -106C36.667 -106.003 37.0335 -105.932 37.3757 -105.792C37.7178 -105.652 38.0288 -105.445 38.2903 -105.184C38.5517 -104.922 38.7584 -104.611 38.8985 -104.269C39.0387 -103.927 39.1093 -103.56 39.1063 -103.191C39.1093 -102.821 39.0387 -102.454 38.8985 -102.112C38.7584 -101.77 38.5517 -101.459 38.2903 -101.198C38.0288 -100.936 37.7178 -100.729 37.3757 -100.589C37.0335 -100.449 36.667 -100.378 36.2972 -100.381ZM36.2972 -71.3973C35.9275 -71.3943 35.5608 -71.4649 35.2187 -71.6051C34.8765 -71.7452 34.5655 -71.952 34.3041 -72.2135C34.0426 -72.4749 33.8359 -72.7858 33.6958 -73.1279C33.5556 -73.4701 33.485 -73.8368 33.488 -74.2065C33.485 -74.5773 33.5555 -74.945 33.6954 -75.2884C33.8352 -75.6318 34.0417 -75.9442 34.3028 -76.2074C34.564 -76.4706 34.8746 -76.6796 35.2169 -76.8221C35.5592 -76.9647 35.9264 -77.038 36.2972 -77.038C36.668 -77.038 37.0351 -76.9647 37.3774 -76.8221C37.7197 -76.6796 38.0303 -76.4706 38.2915 -76.2074C38.5526 -75.9442 38.7591 -75.6318 38.899 -75.2884C39.0388 -74.945 39.1093 -74.5773 39.1063 -74.2065C39.1093 -73.8368 39.0387 -73.4701 38.8985 -73.1279C38.7584 -72.7858 38.5517 -72.4749 38.2903 -72.2135C38.0288 -71.952 37.7178 -71.7452 37.3757 -71.6051C37.0335 -71.4649 36.667 -71.3943 36.2972 -71.3973ZM36.2972 -42.4131C35.9264 -42.4131 35.5592 -42.4865 35.2169 -42.6291C34.8746 -42.7717 34.564 -42.9806 34.3028 -43.2438C34.0417 -43.5071 33.8352 -43.8194 33.6954 -44.1628C33.5555 -44.5062 33.485 -44.8739 33.488 -45.2447C33.488 -45.9898 33.7839 -46.7043 34.3107 -47.2311C34.8376 -47.758 35.5522 -48.0539 36.2972 -48.0539C37.0423 -48.0539 37.7568 -47.758 38.2836 -47.2311C38.8104 -46.7043 39.1063 -45.9898 39.1063 -45.2447C39.1093 -44.8739 39.0388 -44.5062 38.899 -44.1628C38.7591 -43.8194 38.5526 -43.5071 38.2915 -43.2438C38.0303 -42.9806 37.7197 -42.7717 37.3774 -42.6291C37.0351 -42.4865 36.668 -42.4131 36.2972 -42.4131ZM36.2972 -13.429C35.9275 -13.426 35.5608 -13.4967 35.2187 -13.6368C34.8765 -13.7769 34.5655 -13.9837 34.3041 -14.2452C34.0426 -14.5067 33.8359 -14.8175 33.6958 -15.1597C33.5556 -15.5018 33.485 -15.8685 33.488 -16.2382C33.485 -16.608 33.5556 -16.9746 33.6958 -17.3168C33.8359 -17.659 34.0426 -17.9698 34.3041 -18.2313C34.5655 -18.4927 34.8765 -18.6996 35.2187 -18.8397C35.5608 -18.9798 35.9275 -19.0505 36.2972 -19.0475C36.667 -19.0505 37.0335 -18.9798 37.3757 -18.8397C37.7178 -18.6996 38.0288 -18.4927 38.2903 -18.2313C38.5517 -17.9698 38.7584 -17.659 38.8985 -17.3168C39.0387 -16.9746 39.1093 -16.608 39.1063 -16.2382C39.1064 -15.8704 39.0336 -15.5061 38.8922 -15.1665C38.7507 -14.827 38.5434 -14.5187 38.2822 -14.2596C38.0211 -14.0005 37.7112 -13.7957 37.3705 -13.657C37.0298 -13.5183 36.6651 -13.4484 36.2972 -13.4513V-13.429ZM36.2972 15.5551C35.9275 15.5581 35.5608 15.4875 35.2187 15.3474C34.8765 15.2072 34.5655 15.0004 34.3041 14.7389C34.0426 14.4775 33.8359 14.1666 33.6958 13.8245C33.5556 13.4823 33.485 13.1156 33.488 12.7459C33.485 12.3762 33.5556 12.0095 33.6958 11.6673C33.8359 11.3251 34.0426 11.0143 34.3041 10.7529C34.5655 10.4914 34.8765 10.2846 35.2187 10.1444C35.5608 10.0043 35.9275 9.93367 36.2972 9.93664C36.667 9.93367 37.0335 10.0043 37.3757 10.1444C37.7178 10.2846 38.0288 10.4914 38.2903 10.7529C38.5517 11.0143 38.7584 11.3251 38.8985 11.6673C39.0387 12.0095 39.1093 12.3762 39.1063 12.7459C39.1064 13.1138 39.0336 13.478 38.8922 13.8176C38.7507 14.1572 38.5434 14.4654 38.2822 14.7245C38.0211 14.9836 37.7112 15.1884 37.3705 15.3271C37.0298 15.4659 36.6651 15.5358 36.2972 15.5328V15.5551ZM36.2972 44.5393C35.9264 44.5393 35.5592 44.4659 35.2169 44.3233C34.8746 44.1807 34.564 43.9718 34.3028 43.7086C34.0417 43.4453 33.8352 43.133 33.6954 42.7896C33.5555 42.4462 33.485 42.0785 33.488 41.7077C33.488 40.9626 33.7839 40.2481 34.3107 39.7213C34.8376 39.1944 35.5522 38.8985 36.2972 38.8985C37.0423 38.8985 37.7568 39.1944 38.2836 39.7213C38.8104 40.2481 39.1063 40.9626 39.1063 41.7077C39.1063 42.4528 38.8104 43.1673 38.2836 43.6941C37.7568 44.221 37.0423 44.517 36.2972 44.517V44.5393ZM36.2972 73.5234C35.9275 73.5264 35.5608 73.4557 35.2187 73.3156C34.8765 73.1755 34.5655 72.9686 34.3041 72.7072C34.0426 72.4457 33.8359 72.1349 33.6958 71.7927C33.5556 71.4506 33.485 71.0839 33.488 70.7142C33.485 70.3434 33.5555 69.9756 33.6954 69.6322C33.8352 69.2888 34.0417 68.9765 34.3028 68.7133C34.564 68.4501 34.8746 68.2411 35.2169 68.0985C35.5592 67.956 35.9264 67.8826 36.2972 67.8827C36.668 67.8826 37.0351 67.956 37.3774 68.0985C37.7197 68.2411 38.0303 68.4501 38.2915 68.7133C38.5526 68.9765 38.7591 69.2888 38.899 69.6322C39.0388 69.9756 39.1093 70.3434 39.1063 70.7142C39.1034 71.0801 39.0285 71.442 38.8858 71.779C38.743 72.116 38.5352 72.4216 38.2743 72.6783C38.0135 72.935 37.7046 73.1378 37.3653 73.2752C37.0261 73.4126 36.6632 73.4817 36.2972 73.4788V73.5234ZM36.2972 102.508C35.9264 102.508 35.5592 102.434 35.2169 102.292C34.8746 102.149 34.564 101.94 34.3028 101.677C34.0417 101.414 33.8352 101.101 33.6954 100.758C33.5555 100.414 33.485 100.047 33.488 99.676C33.488 98.9309 33.7839 98.2164 34.3107 97.6895C34.8376 97.1627 35.5522 96.8668 36.2972 96.8668C37.0423 96.8668 37.7568 97.1627 38.2836 97.6895C38.8104 98.2164 39.1063 98.9309 39.1063 99.676C39.1005 100.417 38.8019 101.126 38.2757 101.648C37.7495 102.17 37.0384 102.463 36.2972 102.463V102.508ZM36.2972 131.492C35.9275 131.495 35.5608 131.424 35.2187 131.284C34.8765 131.144 34.5655 130.937 34.3041 130.675C34.0426 130.414 33.8359 130.103 33.6958 129.761C33.5556 129.419 33.485 129.052 33.488 128.682C33.485 128.313 33.5556 127.946 33.6958 127.604C33.8359 127.262 34.0426 126.951 34.3041 126.689C34.5655 126.428 34.8765 126.221 35.2187 126.081C35.5608 125.941 35.9275 125.87 36.2972 125.873C36.667 125.87 37.0335 125.941 37.3757 126.081C37.7178 126.221 38.0288 126.428 38.2903 126.689C38.5517 126.951 38.7584 127.262 38.8985 127.604C39.0387 127.946 39.1093 128.313 39.1063 128.682C39.0946 129.418 38.7928 130.119 38.2666 130.632C37.7404 131.146 37.0326 131.431 36.2972 131.425V131.492ZM36.2972 160.476C35.9275 160.479 35.5608 160.408 35.2187 160.268C34.8765 160.128 34.5655 159.921 34.3041 159.66C34.0426 159.398 33.8359 159.087 33.6958 158.745C33.5556 158.403 33.485 158.036 33.488 157.667C33.485 157.296 33.5555 156.928 33.6954 156.585C33.8352 156.241 34.0417 155.929 34.3028 155.666C34.564 155.402 34.8746 155.194 35.2169 155.051C35.5592 154.908 35.9264 154.835 36.2972 154.835C36.668 154.835 37.0351 154.908 37.3774 155.051C37.7197 155.194 38.0303 155.402 38.2915 155.666C38.5526 155.929 38.7591 156.241 38.899 156.585C39.0388 156.928 39.1093 157.296 39.1063 157.667C39.0946 158.402 38.7928 159.103 38.2666 159.616C37.7404 160.13 37.0326 160.415 36.2972 160.409V160.476ZM36.2972 189.46C35.9264 189.46 35.5592 189.387 35.2169 189.244C34.8746 189.101 34.564 188.892 34.3028 188.629C34.0417 188.366 33.8352 188.054 33.6954 187.71C33.5555 187.367 33.485 186.999 33.488 186.628C33.488 185.883 33.7839 185.169 34.3107 184.642C34.8376 184.115 35.5522 183.819 36.2972 183.819C37.0423 183.819 37.7568 184.115 38.2836 184.642C38.8104 185.169 39.1063 185.883 39.1063 186.628C39.0946 187.366 38.7935 188.069 38.268 188.586C37.7424 189.103 37.0346 189.393 36.2972 189.393V189.46Z" fill="#623F99"/>
<path d="M69.7851 -100.381C69.4153 -100.378 69.0487 -100.449 68.7065 -100.589C68.3643 -100.729 68.0535 -100.936 67.792 -101.198C67.5306 -101.459 67.3237 -101.77 67.1836 -102.112C67.0435 -102.454 66.9729 -102.821 66.9758 -103.191C66.9729 -103.56 67.0435 -103.927 67.1836 -104.269C67.3237 -104.611 67.5306 -104.922 67.792 -105.184C68.0535 -105.445 68.3643 -105.652 68.7065 -105.792C69.0487 -105.932 69.4153 -106.003 69.7851 -106C70.1548 -106.003 70.5215 -105.932 70.8637 -105.792C71.2058 -105.652 71.5167 -105.445 71.7781 -105.184C72.0396 -104.922 72.2464 -104.611 72.3865 -104.269C72.5267 -103.927 72.5973 -103.56 72.5943 -103.191C72.5973 -102.821 72.5267 -102.454 72.3865 -102.112C72.2464 -101.77 72.0396 -101.459 71.7781 -101.198C71.5167 -100.936 71.2058 -100.729 70.8637 -100.589C70.5215 -100.449 70.1548 -100.378 69.7851 -100.381ZM69.7851 -71.3973C69.4153 -71.3943 69.0487 -71.4649 68.7065 -71.6051C68.3643 -71.7452 68.0535 -71.952 67.792 -72.2135C67.5306 -72.4749 67.3237 -72.7858 67.1836 -73.1279C67.0435 -73.4701 66.9729 -73.8368 66.9758 -74.2065C66.9729 -74.5773 67.0435 -74.945 67.1834 -75.2884C67.3232 -75.6318 67.5297 -75.9442 67.7908 -76.2074C68.052 -76.4706 68.3626 -76.6796 68.7049 -76.8221C69.0472 -76.9647 69.4143 -77.038 69.7851 -77.038C70.1559 -77.038 70.523 -76.9647 70.8653 -76.8221C71.2076 -76.6796 71.5183 -76.4706 71.7795 -76.2074C72.0406 -75.9442 72.2471 -75.6318 72.3869 -75.2884C72.5268 -74.945 72.5973 -74.5773 72.5943 -74.2065C72.5973 -73.8368 72.5267 -73.4701 72.3865 -73.1279C72.2464 -72.7858 72.0396 -72.4749 71.7781 -72.2135C71.5167 -71.952 71.2058 -71.7452 70.8637 -71.6051C70.5215 -71.4649 70.1548 -71.3943 69.7851 -71.3973ZM69.7851 -42.4131C69.4143 -42.4131 69.0472 -42.4865 68.7049 -42.6291C68.3626 -42.7717 68.052 -42.9806 67.7908 -43.2438C67.5297 -43.5071 67.3232 -43.8194 67.1834 -44.1628C67.0435 -44.5062 66.9729 -44.8739 66.9758 -45.2447C66.9758 -45.9898 67.2719 -46.7043 67.7987 -47.2311C68.3255 -47.758 69.04 -48.0539 69.7851 -48.0539C70.5301 -48.0539 71.2448 -47.758 71.7716 -47.2311C72.2984 -46.7043 72.5943 -45.9898 72.5943 -45.2447C72.5973 -44.8739 72.5268 -44.5062 72.3869 -44.1628C72.2471 -43.8194 72.0406 -43.5071 71.7795 -43.2438C71.5183 -42.9806 71.2076 -42.7717 70.8653 -42.6291C70.523 -42.4865 70.1559 -42.4131 69.7851 -42.4131ZM69.7851 -13.429C69.4153 -13.426 69.0487 -13.4967 68.7065 -13.6368C68.3643 -13.7769 68.0535 -13.9837 67.792 -14.2452C67.5306 -14.5067 67.3237 -14.8175 67.1836 -15.1597C67.0435 -15.5018 66.9729 -15.8685 66.9758 -16.2382C66.9729 -16.608 67.0435 -16.9746 67.1836 -17.3168C67.3237 -17.659 67.5306 -17.9698 67.792 -18.2313C68.0535 -18.4927 68.3643 -18.6996 68.7065 -18.8397C69.0487 -18.9798 69.4153 -19.0505 69.7851 -19.0475C70.1548 -19.0505 70.5215 -18.9798 70.8637 -18.8397C71.2058 -18.6996 71.5167 -18.4927 71.7781 -18.2313C72.0396 -17.9698 72.2464 -17.659 72.3865 -17.3168C72.5267 -16.9746 72.5973 -16.608 72.5943 -16.2382C72.5943 -15.8704 72.5216 -15.5061 72.3801 -15.1665C72.2387 -14.827 72.0314 -14.5187 71.7702 -14.2596C71.5091 -14.0005 71.1992 -13.7957 70.8585 -13.657C70.5178 -13.5183 70.1529 -13.4484 69.7851 -13.4513V-13.429ZM69.7851 15.5551C69.4153 15.5581 69.0487 15.4875 68.7065 15.3474C68.3643 15.2072 68.0535 15.0004 67.792 14.7389C67.5306 14.4775 67.3237 14.1666 67.1836 13.8245C67.0435 13.4823 66.9729 13.1156 66.9758 12.7459C66.9729 12.3762 67.0435 12.0095 67.1836 11.6673C67.3237 11.3251 67.5306 11.0143 67.792 10.7529C68.0535 10.4914 68.3643 10.2846 68.7065 10.1444C69.0487 10.0043 69.4153 9.93367 69.7851 9.93664C70.1548 9.93367 70.5215 10.0043 70.8637 10.1444C71.2058 10.2846 71.5167 10.4914 71.7781 10.7529C72.0396 11.0143 72.2464 11.3251 72.3865 11.6673C72.5267 12.0095 72.5973 12.3762 72.5943 12.7459C72.5943 13.1138 72.5216 13.478 72.3801 13.8176C72.2387 14.1572 72.0314 14.4654 71.7702 14.7245C71.5091 14.9836 71.1992 15.1884 70.8585 15.3271C70.5178 15.4659 70.1529 15.5358 69.7851 15.5328V15.5551ZM69.7851 44.5393C69.4143 44.5393 69.0472 44.4659 68.7049 44.3233C68.3626 44.1807 68.052 43.9718 67.7908 43.7086C67.5297 43.4453 67.3232 43.133 67.1834 42.7896C67.0435 42.4462 66.9729 42.0785 66.9758 41.7077C66.9758 40.9626 67.2719 40.2481 67.7987 39.7213C68.3255 39.1944 69.04 38.8985 69.7851 38.8985C70.5301 38.8985 71.2448 39.1944 71.7716 39.7213C72.2984 40.2481 72.5943 40.9626 72.5943 41.7077C72.5943 42.4528 72.2984 43.1673 71.7716 43.6941C71.2448 44.221 70.5301 44.517 69.7851 44.517V44.5393ZM69.7851 73.5234C69.4153 73.5264 69.0487 73.4557 68.7065 73.3156C68.3643 73.1755 68.0535 72.9686 67.792 72.7072C67.5306 72.4457 67.3237 72.1349 67.1836 71.7927C67.0435 71.4506 66.9729 71.0839 66.9758 70.7142C66.9729 70.3434 67.0435 69.9756 67.1834 69.6322C67.3232 69.2888 67.5297 68.9765 67.7908 68.7133C68.052 68.4501 68.3626 68.2411 68.7049 68.0985C69.0472 67.956 69.4143 67.8826 69.7851 67.8827C70.1559 67.8826 70.523 67.956 70.8653 68.0985C71.2076 68.2411 71.5183 68.4501 71.7795 68.7133C72.0406 68.9765 72.2471 69.2888 72.3869 69.6322C72.5268 69.9756 72.5973 70.3434 72.5943 70.7142C72.5914 71.0801 72.5165 71.442 72.3737 71.779C72.231 72.116 72.0232 72.4216 71.7623 72.6783C71.5015 72.935 71.1926 73.1378 70.8533 73.2752C70.5141 73.4126 70.1511 73.4817 69.7851 73.4788V73.5234ZM69.7851 102.508C69.4143 102.508 69.0472 102.434 68.7049 102.292C68.3626 102.149 68.052 101.94 67.7908 101.677C67.5297 101.414 67.3232 101.101 67.1834 100.758C67.0435 100.414 66.9729 100.047 66.9758 99.676C66.9758 98.9309 67.2719 98.2164 67.7987 97.6895C68.3255 97.1627 69.04 96.8668 69.7851 96.8668C70.5301 96.8668 71.2448 97.1627 71.7716 97.6895C72.2984 98.2164 72.5943 98.9309 72.5943 99.676C72.5885 100.417 72.2899 101.126 71.7637 101.648C71.2375 102.17 70.5263 102.463 69.7851 102.463V102.508ZM69.7851 131.492C69.4153 131.495 69.0487 131.424 68.7065 131.284C68.3643 131.144 68.0535 130.937 67.792 130.675C67.5306 130.414 67.3237 130.103 67.1836 129.761C67.0435 129.419 66.9729 129.052 66.9758 128.682C66.9729 128.313 67.0435 127.946 67.1836 127.604C67.3237 127.262 67.5306 126.951 67.792 126.689C68.0535 126.428 68.3643 126.221 68.7065 126.081C69.0487 125.941 69.4153 125.87 69.7851 125.873C70.1548 125.87 70.5215 125.941 70.8637 126.081C71.2058 126.221 71.5167 126.428 71.7781 126.689C72.0396 126.951 72.2464 127.262 72.3865 127.604C72.5267 127.946 72.5973 128.313 72.5943 128.682C72.5826 129.418 72.2808 130.119 71.7546 130.632C71.2284 131.146 70.5204 131.431 69.7851 131.425V131.492ZM69.7851 160.476C69.4153 160.479 69.0487 160.408 68.7065 160.268C68.3643 160.128 68.0535 159.921 67.792 159.66C67.5306 159.398 67.3237 159.087 67.1836 158.745C67.0435 158.403 66.9729 158.036 66.9758 157.667C66.9729 157.296 67.0435 156.928 67.1834 156.585C67.3232 156.241 67.5297 155.929 67.7908 155.666C68.052 155.402 68.3626 155.194 68.7049 155.051C69.0472 154.908 69.4143 154.835 69.7851 154.835C70.1559 154.835 70.523 154.908 70.8653 155.051C71.2076 155.194 71.5183 155.402 71.7795 155.666C72.0406 155.929 72.2471 156.241 72.3869 156.585C72.5268 156.928 72.5973 157.296 72.5943 157.667C72.5826 158.402 72.2808 159.103 71.7546 159.616C71.2284 160.13 70.5204 160.415 69.7851 160.409V160.476ZM69.7851 189.46C69.4143 189.46 69.0472 189.387 68.7049 189.244C68.3626 189.101 68.052 188.892 67.7908 188.629C67.5297 188.366 67.3232 188.054 67.1834 187.71C67.0435 187.367 66.9729 186.999 66.9758 186.628C66.9758 185.883 67.2719 185.169 67.7987 184.642C68.3255 184.115 69.04 183.819 69.7851 183.819C70.5301 183.819 71.2448 184.115 71.7716 184.642C72.2984 185.169 72.5943 185.883 72.5943 186.628C72.5826 187.366 72.2815 188.069 71.7559 188.586C71.2304 189.103 70.5225 189.393 69.7851 189.393V189.46Z" fill="#623F99"/>
</svg>
