<svg width="143" height="72" viewBox="0 0 143 72" fill="none" xmlns="http://www.w3.org/2000/svg">
<g clip-path="url(#clip0)">
<path d="M-141.499 68.3259C-141.496 68.6879 -141.565 69.0469 -141.702 69.382C-141.84 69.717 -142.042 70.0213 -142.298 70.2773C-142.554 70.5333 -142.858 70.7358 -143.193 70.873C-143.528 71.0102 -143.887 71.0794 -144.249 71.0765C-144.611 71.0794 -144.97 71.0102 -145.305 70.873C-145.64 70.7358 -145.945 70.5333 -146.201 70.2773C-146.457 70.0213 -146.659 69.717 -146.796 69.382C-146.934 69.0469 -147.003 68.6879 -147 68.3259C-147.003 67.9639 -146.934 67.6049 -146.796 67.2699C-146.659 66.9349 -146.457 66.6306 -146.201 66.3746C-145.945 66.1186 -145.64 65.9161 -145.305 65.7789C-144.97 65.6417 -144.611 65.5725 -144.249 65.5754C-143.887 65.5725 -143.528 65.6417 -143.193 65.7789C-142.858 65.9161 -142.554 66.1186 -142.298 66.3746C-142.042 66.6306 -141.84 66.9349 -141.702 67.2699C-141.565 67.6049 -141.496 67.9639 -141.499 68.3259ZM-113.121 68.3259C-113.118 68.6879 -113.187 69.0469 -113.324 69.382C-113.461 69.717 -113.664 70.0213 -113.92 70.2773C-114.176 70.5333 -114.48 70.7358 -114.815 70.873C-115.15 71.0102 -115.509 71.0794 -115.871 71.0765C-116.234 71.0793 -116.594 71.0103 -116.931 70.8734C-117.267 70.7365 -117.573 70.5343 -117.83 70.2786C-118.088 70.0229 -118.293 69.7187 -118.432 69.3836C-118.572 69.0484 -118.644 68.689 -118.644 68.3259C-118.644 67.9629 -118.572 67.6034 -118.432 67.2683C-118.293 66.9332 -118.088 66.6291 -117.83 66.3734C-117.573 66.1177 -117.267 65.9154 -116.931 65.7785C-116.594 65.6415 -116.234 65.5725 -115.871 65.5754C-115.509 65.5725 -115.15 65.6417 -114.815 65.7789C-114.48 65.9161 -114.176 66.1186 -113.92 66.3746C-113.664 66.6306 -113.461 66.9349 -113.324 67.2699C-113.187 67.6049 -113.118 67.9639 -113.121 68.3259ZM-84.7427 68.3259C-84.7427 68.689 -84.8146 69.0484 -84.9541 69.3836C-85.0937 69.7187 -85.2983 70.0229 -85.556 70.2786C-85.8138 70.5343 -86.1195 70.7365 -86.4558 70.8734C-86.792 71.0103 -87.152 71.0793 -87.5151 71.0765C-88.2445 71.0765 -88.9442 70.7867 -89.46 70.2709C-89.9758 69.7551 -90.2655 69.0554 -90.2655 68.3259C-90.2655 67.5965 -89.9758 66.8969 -89.46 66.3811C-88.9442 65.8653 -88.2445 65.5754 -87.5151 65.5754C-87.152 65.5725 -86.792 65.6415 -86.4558 65.7785C-86.1195 65.9154 -85.8138 66.1177 -85.556 66.3734C-85.2983 66.6291 -85.0937 66.9332 -84.9541 67.2683C-84.8146 67.6034 -84.7427 67.9629 -84.7427 68.3259ZM-56.3646 68.3259C-56.3617 68.6879 -56.4309 69.0469 -56.5681 69.382C-56.7052 69.717 -56.9078 70.0213 -57.1637 70.2773C-57.4197 70.5333 -57.7241 70.7358 -58.0591 70.873C-58.3941 71.0102 -58.7531 71.0794 -59.1151 71.0765C-59.4771 71.0794 -59.8361 71.0102 -60.1711 70.873C-60.5062 70.7358 -60.8105 70.5333 -61.0665 70.2773C-61.3225 70.0213 -61.525 69.717 -61.6622 69.382C-61.7994 69.0469 -61.8685 68.6879 -61.8656 68.3259C-61.8685 67.9639 -61.7994 67.6049 -61.6622 67.2699C-61.525 66.9349 -61.3225 66.6306 -61.0665 66.3746C-60.8105 66.1186 -60.5062 65.9161 -60.1711 65.7789C-59.8361 65.6417 -59.4771 65.5725 -59.1151 65.5754C-58.7549 65.5754 -58.3983 65.6468 -58.0658 65.7853C-57.7333 65.9238 -57.4315 66.1267 -57.1779 66.3824C-56.9242 66.6381 -56.7237 66.9414 -56.5878 67.275C-56.452 67.6086 -56.3836 67.9658 -56.3865 68.3259H-56.3646ZM-27.9865 68.3259C-27.9836 68.6879 -28.0528 69.0469 -28.19 69.382C-28.3272 69.717 -28.5297 70.0213 -28.7857 70.2773C-29.0416 70.5333 -29.346 70.7358 -29.681 70.873C-30.016 71.0102 -30.375 71.0794 -30.737 71.0765C-31.099 71.0794 -31.458 71.0102 -31.793 70.873C-32.1281 70.7358 -32.4324 70.5333 -32.6884 70.2773C-32.9444 70.0213 -33.1469 69.717 -33.2841 69.382C-33.4213 69.0469 -33.4904 68.6879 -33.4875 68.3259C-33.4904 67.9639 -33.4213 67.6049 -33.2841 67.2699C-33.1469 66.9349 -32.9444 66.6306 -32.6884 66.3746C-32.4324 66.1186 -32.1281 65.9161 -31.793 65.7789C-31.458 65.6417 -31.099 65.5725 -30.737 65.5754C-30.3768 65.5754 -30.0202 65.6468 -29.6877 65.7853C-29.3552 65.9238 -29.0534 66.1267 -28.7998 66.3824C-28.5461 66.6381 -28.3456 66.9414 -28.2097 67.275C-28.0739 67.6086 -28.0055 67.9658 -28.0084 68.3259H-27.9865ZM0.391571 68.3259C0.391586 68.689 0.319717 69.0484 0.18013 69.3836C0.0405426 69.7187 -0.164032 70.0229 -0.421768 70.2786C-0.679489 70.5343 -0.985275 70.7365 -1.3215 70.8734C-1.65773 71.0103 -2.01776 71.0793 -2.38078 71.0765C-3.11026 71.0765 -3.80988 70.7867 -4.3257 70.2709C-4.84151 69.7551 -5.13124 69.0554 -5.13124 68.3259C-5.13124 67.5965 -4.84151 66.8969 -4.3257 66.3811C-3.80988 65.8653 -3.11026 65.5754 -2.38078 65.5754C-1.65131 65.5754 -0.951706 65.8653 -0.435883 66.3811C0.0799408 66.8969 0.36972 67.5965 0.36972 68.3259H0.391571ZM28.7697 68.3259C28.7726 68.6879 28.7034 69.0469 28.5662 69.382C28.429 69.717 28.2265 70.0213 27.9705 70.2773C27.7145 70.5333 27.4102 70.7358 27.0752 70.873C26.7402 71.0102 26.3812 71.0794 26.0191 71.0765C25.6561 71.0793 25.2961 71.0103 24.9599 70.8734C24.6236 70.7365 24.3179 70.5343 24.0601 70.2786C23.8024 70.0229 23.5978 69.7187 23.4582 69.3836C23.3186 69.0484 23.2468 68.689 23.2469 68.3259C23.2468 67.9629 23.3186 67.6034 23.4582 67.2683C23.5978 66.9332 23.8024 66.6291 24.0601 66.3734C24.3179 66.1177 24.6236 65.9154 24.9599 65.7785C25.2961 65.6415 25.6561 65.5725 26.0191 65.5754C26.3775 65.5783 26.7318 65.6518 27.0617 65.7915C27.3917 65.9313 27.6909 66.1346 27.9422 66.39C28.1936 66.6454 28.3922 66.9479 28.5266 67.28C28.6611 67.6122 28.7289 67.9676 28.726 68.3259H28.7697ZM57.1478 68.3259C57.1478 68.689 57.0759 69.0484 56.9363 69.3836C56.7967 69.7187 56.5921 70.0229 56.3344 70.2786C56.0767 70.5343 55.7709 70.7365 55.4347 70.8734C55.0984 71.0103 54.7384 71.0793 54.3754 71.0765C53.6459 71.0765 52.9463 70.7867 52.4305 70.2709C51.9147 69.7551 51.625 69.0554 51.625 68.3259C51.625 67.5965 51.9147 66.8969 52.4305 66.3811C52.9463 65.8653 53.6459 65.5754 54.3754 65.5754C55.1011 65.5812 55.7951 65.8735 56.3062 66.3887C56.8173 66.9039 57.1041 67.6002 57.1041 68.3259H57.1478ZM85.5258 68.3259C85.5288 68.6879 85.4596 69.0469 85.3224 69.382C85.1852 69.717 84.9827 70.0213 84.7267 70.2773C84.4707 70.5333 84.1664 70.7358 83.8314 70.873C83.4964 71.0102 83.1373 71.0794 82.7753 71.0765C82.4133 71.0794 82.0543 71.0102 81.7193 70.873C81.3843 70.7358 81.08 70.5333 80.824 70.2773C80.568 70.0213 80.3655 69.717 80.2283 69.382C80.0911 69.0469 80.0219 68.6879 80.0248 68.3259C80.0219 67.9639 80.0911 67.6049 80.2283 67.2699C80.3655 66.9349 80.568 66.6306 80.824 66.3746C81.08 66.1186 81.3843 65.9161 81.7193 65.7789C82.0543 65.6417 82.4133 65.5725 82.7753 65.5754C83.4952 65.5869 84.1814 65.8826 84.6843 66.3978C85.1873 66.913 85.4662 67.606 85.4604 68.3259H85.5258ZM113.904 68.3259C113.907 68.6879 113.838 69.0469 113.701 69.382C113.563 69.717 113.361 70.0213 113.105 70.2773C112.849 70.5333 112.544 70.7358 112.209 70.873C111.874 71.0102 111.515 71.0794 111.153 71.0765C110.79 71.0793 110.43 71.0103 110.094 70.8734C109.758 70.7365 109.452 70.5343 109.194 70.2786C108.937 70.0229 108.732 69.7187 108.593 69.3836C108.453 69.0484 108.381 68.689 108.381 68.3259C108.381 67.9629 108.453 67.6034 108.593 67.2683C108.732 66.9332 108.937 66.6291 109.194 66.3734C109.452 66.1177 109.758 65.9154 110.094 65.7785C110.43 65.6415 110.79 65.5725 111.153 65.5754C111.873 65.5869 112.56 65.8826 113.062 66.3978C113.565 66.913 113.844 67.606 113.838 68.3259H113.904ZM142.282 68.3259C142.282 68.689 142.21 69.0484 142.071 69.3836C141.931 69.7187 141.726 70.0229 141.469 70.2786C141.211 70.5343 140.905 70.7365 140.569 70.8734C140.233 71.0103 139.873 71.0793 139.51 71.0765C138.78 71.0765 138.081 70.7867 137.565 70.2709C137.049 69.7551 136.759 69.0554 136.759 68.3259C136.759 67.5965 137.049 66.8969 137.565 66.3811C138.081 65.8653 138.78 65.5754 139.51 65.5754C140.232 65.5869 140.92 65.8817 141.426 66.3963C141.933 66.9109 142.217 67.604 142.217 68.3259H142.282Z" fill="#623F99"/>
<path d="M-141.499 35.5385C-141.496 35.9005 -141.565 36.2595 -141.702 36.5945C-141.84 36.9296 -142.042 37.234 -142.298 37.49C-142.554 37.746 -142.858 37.9484 -143.193 38.0856C-143.528 38.2228 -143.887 38.2919 -144.249 38.289C-144.611 38.2919 -144.97 38.2228 -145.305 38.0856C-145.64 37.9484 -145.945 37.746 -146.201 37.49C-146.457 37.234 -146.659 36.9296 -146.796 36.5945C-146.934 36.2595 -147.003 35.9005 -147 35.5385C-147.003 35.1765 -146.934 34.8176 -146.796 34.4826C-146.659 34.1476 -146.457 33.8431 -146.201 33.5872C-145.945 33.3312 -145.64 33.1288 -145.305 32.9916C-144.97 32.8544 -144.611 32.7852 -144.249 32.7881C-143.887 32.7852 -143.528 32.8544 -143.193 32.9916C-142.858 33.1288 -142.554 33.3312 -142.298 33.5872C-142.042 33.8431 -141.84 34.1476 -141.702 34.4826C-141.565 34.8176 -141.496 35.1765 -141.499 35.5385ZM-113.121 35.5385C-113.118 35.9005 -113.187 36.2595 -113.324 36.5945C-113.461 36.9296 -113.664 37.234 -113.92 37.49C-114.176 37.746 -114.48 37.9484 -114.815 38.0856C-115.15 38.2228 -115.509 38.2919 -115.871 38.289C-116.234 38.2919 -116.594 38.2229 -116.931 38.086C-117.267 37.9491 -117.573 37.7469 -117.83 37.4912C-118.088 37.2355 -118.293 36.9314 -118.432 36.5963C-118.572 36.2611 -118.644 35.9016 -118.644 35.5385C-118.644 35.1755 -118.572 34.816 -118.432 34.4809C-118.293 34.1458 -118.088 33.8417 -117.83 33.586C-117.573 33.3303 -117.267 33.1281 -116.931 32.9912C-116.594 32.8543 -116.234 32.7853 -115.871 32.7881C-115.509 32.7852 -115.15 32.8544 -114.815 32.9916C-114.48 33.1288 -114.176 33.3312 -113.92 33.5872C-113.664 33.8431 -113.461 34.1476 -113.324 34.4826C-113.187 34.8176 -113.118 35.1765 -113.121 35.5385ZM-84.7427 35.5385C-84.7427 35.9016 -84.8146 36.2611 -84.9541 36.5963C-85.0937 36.9314 -85.2983 37.2355 -85.556 37.4912C-85.8138 37.7469 -86.1195 37.9491 -86.4558 38.086C-86.792 38.2229 -87.152 38.2919 -87.5151 38.289C-88.2445 38.289 -88.9442 37.9993 -89.46 37.4835C-89.9758 36.9677 -90.2655 36.268 -90.2655 35.5385C-90.2655 34.809 -89.9758 34.1095 -89.46 33.5937C-88.9442 33.0779 -88.2445 32.7881 -87.5151 32.7881C-87.152 32.7853 -86.792 32.8543 -86.4558 32.9912C-86.1195 33.1281 -85.8138 33.3303 -85.556 33.586C-85.2983 33.8417 -85.0937 34.1458 -84.9541 34.4809C-84.8146 34.816 -84.7427 35.1755 -84.7427 35.5385ZM-56.3646 35.5385C-56.3617 35.9005 -56.4309 36.2595 -56.5681 36.5945C-56.7052 36.9296 -56.9078 37.234 -57.1637 37.49C-57.4197 37.746 -57.7241 37.9484 -58.0591 38.0856C-58.3941 38.2228 -58.7531 38.2919 -59.1151 38.289C-59.4771 38.2919 -59.8361 38.2228 -60.1711 38.0856C-60.5062 37.9484 -60.8105 37.746 -61.0665 37.49C-61.3225 37.234 -61.525 36.9296 -61.6622 36.5945C-61.7994 36.2595 -61.8685 35.9005 -61.8656 35.5385C-61.8685 35.1765 -61.7994 34.8176 -61.6622 34.4826C-61.525 34.1476 -61.3225 33.8431 -61.0665 33.5872C-60.8105 33.3312 -60.5062 33.1288 -60.1711 32.9916C-59.8361 32.8544 -59.4771 32.7852 -59.1151 32.7881C-58.7549 32.7881 -58.3983 32.8594 -58.0658 32.9979C-57.7333 33.1363 -57.4315 33.3393 -57.1779 33.595C-56.9242 33.8507 -56.7237 34.1541 -56.5878 34.4877C-56.452 34.8213 -56.3836 35.1784 -56.3865 35.5385H-56.3646ZM-27.9865 35.5385C-27.9836 35.9005 -28.0528 36.2595 -28.19 36.5945C-28.3272 36.9296 -28.5297 37.234 -28.7857 37.49C-29.0416 37.746 -29.346 37.9484 -29.681 38.0856C-30.016 38.2228 -30.375 38.2919 -30.737 38.289C-31.099 38.2919 -31.458 38.2228 -31.793 38.0856C-32.1281 37.9484 -32.4324 37.746 -32.6884 37.49C-32.9444 37.234 -33.1469 36.9296 -33.2841 36.5945C-33.4213 36.2595 -33.4904 35.9005 -33.4875 35.5385C-33.4904 35.1765 -33.4213 34.8176 -33.2841 34.4826C-33.1469 34.1476 -32.9444 33.8431 -32.6884 33.5872C-32.4324 33.3312 -32.1281 33.1288 -31.793 32.9916C-31.458 32.8544 -31.099 32.7852 -30.737 32.7881C-30.3768 32.7881 -30.0202 32.8594 -29.6877 32.9979C-29.3552 33.1363 -29.0534 33.3393 -28.7998 33.595C-28.5461 33.8507 -28.3456 34.1541 -28.2097 34.4877C-28.0739 34.8213 -28.0055 35.1784 -28.0084 35.5385H-27.9865ZM0.391571 35.5385C0.391586 35.9016 0.319717 36.2611 0.18013 36.5963C0.0405426 36.9314 -0.164032 37.2355 -0.421768 37.4912C-0.679489 37.7469 -0.985275 37.9491 -1.3215 38.086C-1.65773 38.2229 -2.01776 38.2919 -2.38078 38.289C-3.11026 38.289 -3.80988 37.9993 -4.3257 37.4835C-4.84151 36.9677 -5.13124 36.268 -5.13124 35.5385C-5.13124 34.809 -4.84151 34.1095 -4.3257 33.5937C-3.80988 33.0779 -3.11026 32.7881 -2.38078 32.7881C-1.65131 32.7881 -0.951706 33.0779 -0.435883 33.5937C0.0799408 34.1095 0.36972 34.809 0.36972 35.5385H0.391571ZM28.7697 35.5385C28.7726 35.9005 28.7034 36.2595 28.5662 36.5945C28.429 36.9296 28.2265 37.234 27.9705 37.49C27.7145 37.746 27.4102 37.9484 27.0752 38.0856C26.7402 38.2228 26.3812 38.2919 26.0191 38.289C25.6561 38.2919 25.2961 38.2229 24.9599 38.086C24.6236 37.9491 24.3179 37.7469 24.0601 37.4912C23.8024 37.2355 23.5978 36.9314 23.4582 36.5963C23.3186 36.2611 23.2468 35.9016 23.2469 35.5385C23.2468 35.1755 23.3186 34.816 23.4582 34.4809C23.5978 34.1458 23.8024 33.8417 24.0601 33.586C24.3179 33.3303 24.6236 33.1281 24.9599 32.9912C25.2961 32.8543 25.6561 32.7853 26.0191 32.7881C26.3775 32.791 26.7318 32.8643 27.0617 33.0041C27.3917 33.1439 27.6909 33.3473 27.9422 33.6027C28.1936 33.8582 28.3922 34.1606 28.5266 34.4928C28.6611 34.8249 28.7289 35.1802 28.726 35.5385H28.7697ZM57.1478 35.5385C57.1478 35.9016 57.0759 36.2611 56.9363 36.5963C56.7967 36.9314 56.5921 37.2355 56.3344 37.4912C56.0767 37.7469 55.7709 37.9491 55.4347 38.086C55.0984 38.2229 54.7384 38.2919 54.3754 38.289C53.6459 38.289 52.9463 37.9993 52.4305 37.4835C51.9147 36.9677 51.625 36.268 51.625 35.5385C51.625 34.809 51.9147 34.1095 52.4305 33.5937C52.9463 33.0779 53.6459 32.7881 54.3754 32.7881C55.1011 32.7939 55.7951 33.0862 56.3062 33.6014C56.8173 34.1166 57.1041 34.8128 57.1041 35.5385H57.1478ZM85.5258 35.5385C85.5288 35.9005 85.4596 36.2595 85.3224 36.5945C85.1852 36.9296 84.9827 37.234 84.7267 37.49C84.4707 37.746 84.1664 37.9484 83.8314 38.0856C83.4964 38.2228 83.1373 38.2919 82.7753 38.289C82.4133 38.2919 82.0543 38.2228 81.7193 38.0856C81.3843 37.9484 81.08 37.746 80.824 37.49C80.568 37.234 80.3655 36.9296 80.2283 36.5945C80.0911 36.2595 80.0219 35.9005 80.0248 35.5385C80.0219 35.1765 80.0911 34.8176 80.2283 34.4826C80.3655 34.1476 80.568 33.8431 80.824 33.5872C81.08 33.3312 81.3843 33.1288 81.7193 32.9916C82.0543 32.8544 82.4133 32.7852 82.7753 32.7881C83.4952 32.7996 84.1814 33.0951 84.6843 33.6103C85.1873 34.1255 85.4662 34.8186 85.4604 35.5385H85.5258ZM113.904 35.5385C113.907 35.9005 113.838 36.2595 113.701 36.5945C113.563 36.9296 113.361 37.234 113.105 37.49C112.849 37.746 112.544 37.9484 112.209 38.0856C111.874 38.2228 111.515 38.2919 111.153 38.289C110.79 38.2919 110.43 38.2229 110.094 38.086C109.758 37.9491 109.452 37.7469 109.194 37.4912C108.937 37.2355 108.732 36.9314 108.593 36.5963C108.453 36.2611 108.381 35.9016 108.381 35.5385C108.381 35.1755 108.453 34.816 108.593 34.4809C108.732 34.1458 108.937 33.8417 109.194 33.586C109.452 33.3303 109.758 33.1281 110.094 32.9912C110.43 32.8543 110.79 32.7853 111.153 32.7881C111.873 32.7996 112.56 33.0951 113.062 33.6103C113.565 34.1255 113.844 34.8186 113.838 35.5385H113.904ZM142.282 35.5385C142.282 35.9016 142.21 36.2611 142.071 36.5963C141.931 36.9314 141.726 37.2355 141.469 37.4912C141.211 37.7469 140.905 37.9491 140.569 38.086C140.233 38.2229 139.873 38.2919 139.51 38.289C138.78 38.289 138.081 37.9993 137.565 37.4835C137.049 36.9677 136.759 36.268 136.759 35.5385C136.759 34.809 137.049 34.1095 137.565 33.5937C138.081 33.0779 138.78 32.7881 139.51 32.7881C140.232 32.7996 140.92 33.0944 141.426 33.609C141.933 34.1236 142.217 34.8165 142.217 35.5385H142.282Z" fill="#623F99"/>
<path d="M-141.499 2.7508C-141.496 3.11281 -141.565 3.47181 -141.702 3.80683C-141.84 4.14185 -142.042 4.44618 -142.298 4.70217C-142.554 4.95816 -142.858 5.16067 -143.193 5.29787C-143.528 5.43506 -143.887 5.50422 -144.249 5.50132C-144.611 5.50422 -144.97 5.43506 -145.305 5.29787C-145.64 5.16067 -145.945 4.95816 -146.201 4.70217C-146.457 4.44618 -146.659 4.14185 -146.796 3.80683C-146.934 3.47181 -147.003 3.11281 -147 2.7508C-147.003 2.38879 -146.934 2.0298 -146.796 1.69478C-146.659 1.35976 -146.457 1.05542 -146.201 0.799436C-145.945 0.543448 -145.64 0.340936 -145.305 0.20374C-144.97 0.066545 -144.611 -0.00261831 -144.249 0.00028944C-143.887 -0.00261831 -143.528 0.066545 -143.193 0.20374C-142.858 0.340936 -142.554 0.543448 -142.298 0.799436C-142.042 1.05542 -141.84 1.35976 -141.702 1.69478C-141.565 2.0298 -141.496 2.38879 -141.499 2.7508ZM-113.121 2.7508C-113.118 3.11281 -113.187 3.47181 -113.324 3.80683C-113.461 4.14185 -113.664 4.44618 -113.92 4.70217C-114.176 4.95816 -114.48 5.16067 -114.815 5.29787C-115.15 5.43506 -115.509 5.50422 -115.871 5.50132C-116.234 5.5042 -116.594 5.43507 -116.931 5.29813C-117.267 5.1612 -117.573 4.95906 -117.83 4.70337C-118.088 4.44767 -118.293 4.14356 -118.432 3.80843C-118.572 3.47329 -118.644 3.11385 -118.644 2.7508C-118.644 2.38776 -118.572 2.02832 -118.432 1.69318C-118.293 1.35804 -118.088 1.0538 -117.83 0.798104C-117.573 0.542409 -117.267 0.340275 -116.931 0.203341C-116.594 0.0664058 -116.234 -0.00259161 -115.871 0.00028944C-115.509 -0.00261831 -115.15 0.066545 -114.815 0.20374C-114.48 0.340936 -114.176 0.543448 -113.92 0.799436C-113.664 1.05542 -113.461 1.35976 -113.324 1.69478C-113.187 2.0298 -113.118 2.38879 -113.121 2.7508ZM-84.7427 2.7508C-84.7427 3.11385 -84.8146 3.47329 -84.9541 3.80843C-85.0937 4.14356 -85.2983 4.44767 -85.556 4.70337C-85.8138 4.95906 -86.1195 5.1612 -86.4558 5.29813C-86.792 5.43507 -87.152 5.5042 -87.5151 5.50132C-88.2445 5.50132 -88.9442 5.21146 -89.46 4.69564C-89.9758 4.17982 -90.2655 3.48028 -90.2655 2.7508C-90.2655 2.02133 -89.9758 1.32165 -89.46 0.805831C-88.9442 0.290014 -88.2445 0.00028944 -87.5151 0.00028944C-87.152 -0.00259161 -86.792 0.0664058 -86.4558 0.203341C-86.1195 0.340275 -85.8138 0.542409 -85.556 0.798104C-85.2983 1.0538 -85.0937 1.35804 -84.9541 1.69318C-84.8146 2.02832 -84.7427 2.38776 -84.7427 2.7508ZM-56.3646 2.7508C-56.3617 3.11281 -56.4309 3.47181 -56.5681 3.80683C-56.7052 4.14185 -56.9078 4.44618 -57.1637 4.70217C-57.4197 4.95816 -57.7241 5.16067 -58.0591 5.29787C-58.3941 5.43506 -58.7531 5.50422 -59.1151 5.50132C-59.4771 5.50422 -59.8361 5.43506 -60.1711 5.29787C-60.5062 5.16067 -60.8105 4.95816 -61.0665 4.70217C-61.3225 4.44618 -61.525 4.14185 -61.6622 3.80683C-61.7994 3.47181 -61.8685 3.11281 -61.8656 2.7508C-61.8685 2.38879 -61.7994 2.0298 -61.6622 1.69478C-61.525 1.35976 -61.3225 1.05542 -61.0665 0.799436C-60.8105 0.543448 -60.5062 0.340936 -60.1711 0.20374C-59.8361 0.066545 -59.4771 -0.00261831 -59.1151 0.00028944C-58.7549 0.000277996 -58.3983 0.0715113 -58.0658 0.210002C-57.7333 0.348494 -57.4315 0.551467 -57.1779 0.807164C-56.9242 1.06286 -56.7237 1.36626 -56.5878 1.69984C-56.452 2.03342 -56.3836 2.39064 -56.3865 2.7508H-56.3646ZM-27.9865 2.7508C-27.9836 3.11281 -28.0528 3.47181 -28.19 3.80683C-28.3272 4.14185 -28.5297 4.44618 -28.7857 4.70217C-29.0416 4.95816 -29.346 5.16067 -29.681 5.29787C-30.016 5.43506 -30.375 5.50422 -30.737 5.50132C-31.099 5.50422 -31.458 5.43506 -31.793 5.29787C-32.1281 5.16067 -32.4324 4.95816 -32.6884 4.70217C-32.9444 4.44618 -33.1469 4.14185 -33.2841 3.80683C-33.4213 3.47181 -33.4904 3.11281 -33.4875 2.7508C-33.4904 2.38879 -33.4213 2.0298 -33.2841 1.69478C-33.1469 1.35976 -32.9444 1.05542 -32.6884 0.799436C-32.4324 0.543448 -32.1281 0.340936 -31.793 0.20374C-31.458 0.066545 -31.099 -0.00261831 -30.737 0.00028944C-30.3768 0.000277996 -30.0202 0.0715113 -29.6877 0.210002C-29.3552 0.348494 -29.0534 0.551467 -28.7998 0.807164C-28.5461 1.06286 -28.3456 1.36626 -28.2097 1.69984C-28.0739 2.03342 -28.0055 2.39064 -28.0084 2.7508H-27.9865ZM0.391571 2.7508C0.391586 3.11385 0.319717 3.47329 0.18013 3.80843C0.0405426 4.14356 -0.164032 4.44767 -0.421768 4.70337C-0.679489 4.95906 -0.985275 5.1612 -1.3215 5.29813C-1.65773 5.43507 -2.01776 5.5042 -2.38078 5.50132C-3.11026 5.50132 -3.80988 5.21146 -4.3257 4.69564C-4.84151 4.17982 -5.13124 3.48028 -5.13124 2.7508C-5.13124 2.02133 -4.84151 1.32165 -4.3257 0.805831C-3.80988 0.290014 -3.11026 0.00028944 -2.38078 0.00028944C-1.65131 0.00028944 -0.951706 0.290014 -0.435883 0.805831C0.0799408 1.32165 0.36972 2.02133 0.36972 2.7508H0.391571ZM28.7697 2.7508C28.7726 3.11281 28.7034 3.47181 28.5662 3.80683C28.429 4.14185 28.2265 4.44618 27.9705 4.70217C27.7145 4.95816 27.4102 5.16067 27.0752 5.29787C26.7402 5.43506 26.3812 5.50422 26.0191 5.50132C25.6561 5.5042 25.2961 5.43507 24.9599 5.29813C24.6236 5.1612 24.3179 4.95906 24.0601 4.70337C23.8024 4.44767 23.5978 4.14356 23.4582 3.80843C23.3186 3.47329 23.2468 3.11385 23.2469 2.7508C23.2468 2.38776 23.3186 2.02832 23.4582 1.69318C23.5978 1.35804 23.8024 1.0538 24.0601 0.798104C24.3179 0.542409 24.6236 0.340275 24.9599 0.203341C25.2961 0.0664058 25.6561 -0.00259161 26.0191 0.00028944C26.3775 0.00314474 26.7318 0.0764918 27.0617 0.216264C27.3917 0.356037 27.6909 0.559482 27.9422 0.814891C28.1936 1.0703 28.3922 1.37275 28.5266 1.7049C28.6611 2.03706 28.7289 2.39247 28.726 2.7508H28.7697ZM57.1478 2.7508C57.1478 3.11385 57.0759 3.47329 56.9363 3.80843C56.7967 4.14356 56.5921 4.44767 56.3344 4.70337C56.0767 4.95906 55.7709 5.1612 55.4347 5.29813C55.0984 5.43507 54.7384 5.5042 54.3754 5.50132C53.6459 5.50132 52.9463 5.21146 52.4305 4.69564C51.9147 4.17982 51.625 3.48028 51.625 2.7508C51.625 2.02133 51.9147 1.32165 52.4305 0.805831C52.9463 0.290014 53.6459 0.00028944 54.3754 0.00028944C55.1011 0.00604916 55.7951 0.298365 56.3062 0.813559C56.8173 1.32875 57.1041 2.02509 57.1041 2.7508H57.1478ZM85.5258 2.7508C85.5288 3.11281 85.4596 3.47181 85.3224 3.80683C85.1852 4.14185 84.9827 4.44618 84.7267 4.70217C84.4707 4.95816 84.1664 5.16067 83.8314 5.29787C83.4964 5.43506 83.1373 5.50422 82.7753 5.50132C82.4133 5.50422 82.0543 5.43506 81.7193 5.29787C81.3843 5.16067 81.08 4.95816 80.824 4.70217C80.568 4.44618 80.3655 4.14185 80.2283 3.80683C80.0911 3.47181 80.0219 3.11281 80.0248 2.7508C80.0219 2.38879 80.0911 2.0298 80.2283 1.69478C80.3655 1.35976 80.568 1.05542 80.824 0.799436C81.08 0.543448 81.3843 0.340936 81.7193 0.20374C82.0543 0.066545 82.4133 -0.00261831 82.7753 0.00028944C83.4952 0.0117855 84.1814 0.307286 84.6843 0.822486C85.1873 1.33769 85.4662 2.03085 85.4604 2.7508H85.5258ZM113.904 2.7508C113.907 3.11281 113.838 3.47181 113.701 3.80683C113.563 4.14185 113.361 4.44618 113.105 4.70217C112.849 4.95816 112.544 5.16067 112.209 5.29787C111.874 5.43506 111.515 5.50422 111.153 5.50132C110.79 5.5042 110.43 5.43507 110.094 5.29813C109.758 5.1612 109.452 4.95906 109.194 4.70337C108.937 4.44767 108.732 4.14356 108.593 3.80843C108.453 3.47329 108.381 3.11385 108.381 2.7508C108.381 2.38776 108.453 2.02832 108.593 1.69318C108.732 1.35804 108.937 1.0538 109.194 0.798104C109.452 0.542409 109.758 0.340275 110.094 0.203341C110.43 0.0664058 110.79 -0.00259161 111.153 0.00028944C111.873 0.0117855 112.56 0.307286 113.062 0.822486C113.565 1.33769 113.844 2.03085 113.838 2.7508H113.904ZM142.282 2.7508C142.282 3.11385 142.21 3.47329 142.071 3.80843C141.931 4.14356 141.726 4.44767 141.469 4.70337C141.211 4.95906 140.905 5.1612 140.569 5.29813C140.233 5.43507 139.873 5.5042 139.51 5.50132C138.78 5.50132 138.081 5.21146 137.565 4.69564C137.049 4.17982 136.759 3.48028 136.759 2.7508C136.759 2.02133 137.049 1.32165 137.565 0.805831C138.081 0.290014 138.78 0.00028944 139.51 0.00028944C140.232 0.0117497 140.92 0.306573 141.426 0.821153C141.933 1.33573 142.217 2.02883 142.217 2.7508H142.282Z" fill="#FF5100"/>
</g>
<defs>
<clipPath id="clip0">
<rect width="71.0765" height="289.282" fill="white" transform="translate(-147 71.0765) rotate(-90)"/>
</clipPath>
</defs>
</svg>
