<svg width="232" height="59" viewBox="0 0 232 59" fill="none" xmlns="http://www.w3.org/2000/svg">
<path d="M180.747 6.151C177.043 6.151 174.527 7.93729 172.973 9.44857C171.738 7.5249 169.68 6.151 166.021 6.151C163.003 6.151 160.305 7.067 158.567 8.39518C157.973 8.85307 157.79 9.12785 157.79 9.72335V29.3508C157.79 29.8408 158.146 30.2421 158.591 30.2421C159.125 30.2421 159.436 29.8408 159.436 29.3508V9.81768C160.666 8.85973 162.762 7.85583 165.951 7.85583C169.824 7.85583 172.375 9.95462 172.375 14.7453V29.3403C172.375 29.8322 172.769 30.2639 173.259 30.2421C173.726 30.2215 174.021 29.8286 174.021 29.3516V14.9923C174.021 13.5521 173.882 12.2978 173.511 11.0902C174.671 9.78928 177.268 7.79191 180.701 7.79191C184.829 7.79191 187.195 9.88227 187.195 14.8532V29.3905C187.195 29.8997 187.64 30.328 188.141 30.2426C188.554 30.172 188.841 29.8035 188.841 29.3634V14.8077C188.841 9.12785 186.143 6.151 180.747 6.151Z" fill="#64358C"/>
<path d="M200.868 6.17242C198.103 6.17242 195.248 7.03494 193.798 7.80667C193.48 7.98801 193.254 8.26057 193.254 8.62369C193.254 9.10022 193.639 9.46334 194.092 9.46334C194.251 9.46334 194.477 9.37278 194.613 9.30464C196.404 8.44213 198.556 7.85217 200.868 7.85217C205.264 7.85217 207.666 9.75854 207.666 14.0707V17.0209C204.72 16.2039 202.091 15.7952 200.052 15.7952C194.659 15.7952 191.395 18.7002 191.395 22.7626C191.395 27.3699 194.477 30.2422 200.324 30.2422C204.403 30.2422 207.258 28.7769 208.844 27.642C209.252 27.3697 209.343 27.0521 209.343 26.6435V14.0249C209.343 8.44191 205.989 6.17242 200.868 6.17242ZM207.666 26.4755C206.413 27.4982 203.813 28.8126 200.147 28.8126C195.041 28.8126 192.72 26.5219 192.72 22.8727C192.72 19.5026 195.598 17.4572 199.822 17.4572C202.514 17.4572 204.649 17.8756 207.666 18.7588V26.4755H207.666Z" fill="#64358C"/>
<path d="M212.748 6.15027C212.288 6.15027 211.897 6.49585 211.897 7.07205V29.3207C211.897 29.8967 212.288 30.2425 212.748 30.2425C213.208 30.2425 213.599 29.8969 213.599 29.3207V7.07205C213.599 6.49585 213.208 6.15027 212.748 6.15027Z" fill="#64358C"/>
<path d="M224.556 17.3554L222.948 16.9698C220.185 16.3119 217.83 15.4048 217.83 12.7964C217.83 9.62114 220.049 7.94272 223.9 7.94272C225.621 7.94272 227.251 8.44168 228.791 9.48508C228.995 9.62114 229.244 9.71191 229.448 9.71191C229.901 9.71191 230.286 9.34902 230.286 8.87271C230.286 8.60059 230.15 8.32825 229.878 8.14714C228.474 7.14923 226.3 6.26453 223.9 6.26453C219.189 6.26453 216.154 8.85007 216.154 12.7964C216.154 16.6522 219.303 17.8088 222.609 18.6482L224.239 19.0564C227.319 19.8275 230.105 20.6669 230.105 23.6153C230.105 26.4051 227.704 28.6721 223.99 28.6721C221.137 28.6721 218.895 27.834 217.106 26.4279C216.857 26.2464 216.653 26.133 216.426 26.133C215.973 26.133 215.588 26.5185 215.588 26.972C215.588 27.2217 215.701 27.4938 215.973 27.698C218.238 29.4217 220.593 30.3565 224.035 30.3565C228.791 30.3565 231.78 27.539 231.78 23.6153C231.78 19.2604 228.135 18.2172 224.556 17.3554Z" fill="#64358C"/>
<path d="M70.339 6.14618C67.553 6.14618 65.0977 6.8682 63.854 7.48079C62.542 8.06187 62.2667 9.02647 62.2667 9.73317C62.2667 10.967 63.2787 11.9709 64.5224 11.9709C64.9082 11.9709 65.3111 11.8897 65.8064 11.709C67.2405 11.0995 68.8927 10.7668 70.339 10.7668C73.4944 10.7668 74.841 11.964 74.841 14.809V16.0487C72.8861 15.5428 71.3248 15.334 69.5481 15.334C66.7554 15.334 64.459 16.0784 62.9074 17.4867C61.4811 18.7814 60.7269 20.5585 60.7269 22.6263C60.7269 27.3093 64.1724 30.2422 69.7189 30.2422C73.8384 30.2422 77.131 28.9282 78.6981 27.824C79.4897 27.2689 79.6517 26.6632 79.6517 25.9245V14.7234C79.6517 8.95168 76.6055 6.14618 70.339 6.14618ZM70.1059 25.8417C66.3676 25.8417 65.5826 24.0359 65.5826 22.5211C65.5826 20.4988 67.3077 19.2428 70.0846 19.2428C71.6874 19.2428 73.016 19.5129 74.841 20.0132V24.4927C73.8195 25.1778 71.9223 25.8417 70.1059 25.8417Z" fill="#64358C"/>
<path d="M93.6749 6.59476C92.7416 6.32442 91.2162 6.14996 89.7879 6.14996C85.0401 6.14996 82.2058 8.89975 82.2058 13.5057V27.7039C82.2058 29.1036 83.333 30.242 84.7185 30.242C86.1154 30.242 87.2095 29.1271 87.2095 27.7039V14.1754C87.2095 12.0022 88.1031 11.0749 90.1974 11.0749C90.9888 11.0749 91.5531 11.1584 91.9008 11.2194L92.0471 11.2489C92.5391 11.3479 93.0038 11.4418 93.3901 11.4418C94.6779 11.4418 95.6869 10.3649 95.6869 8.99009C95.6872 7.80352 94.9724 6.95277 93.6749 6.59476Z" fill="#64358C"/>
<path d="M115.991 8.73173L115.99 8.73106C114.628 7.76401 110.977 6.22986 106.975 6.22986C100.94 6.22986 97.1789 9.61799 96.6557 15.5249C96.5278 16.9343 96.4974 19.556 96.6559 21.2113C97.1895 26.9504 100.695 30.242 106.273 30.242C108.677 30.242 110.474 29.6387 111.922 28.9853V29.3746C111.922 32.491 109.903 34.5048 106.778 34.5048C104.943 34.5048 103.347 34.1095 101.888 33.2907L101.73 33.2084C101.125 32.8921 100.554 32.5936 99.8678 32.5936C98.5676 32.5936 97.51 33.643 97.51 34.9327C97.51 36.2136 98.3834 36.889 99.2315 37.3769C101.354 38.6631 103.893 39.3154 106.778 39.3154C112.872 39.3154 116.967 35.1705 116.967 29.001V10.7884C116.967 9.78535 116.711 9.2471 115.991 8.73173ZM101.34 16.0025C101.604 12.6854 103.41 11.0034 106.706 11.0034C109.151 11.0034 111.15 11.935 111.693 12.2479V24.1424C111.117 24.5397 109.305 25.6211 106.617 25.6211C103.309 25.6211 101.583 23.972 101.34 20.5823C101.278 19.5813 101.25 17.2175 101.34 16.0025Z" fill="#64358C"/>
<path d="M129.512 6.15027C123.931 6.15027 120.047 9.73372 119.618 15.2788C119.504 16.7151 119.495 19.2835 119.597 20.8141C120.007 26.6298 123.887 30.2423 129.723 30.2423C133.083 30.2423 135.37 29.3707 136.436 28.8511C137.705 28.2272 137.971 27.3196 137.971 26.6677C137.971 25.4336 136.981 24.4295 135.764 24.4295C135.324 24.4295 134.862 24.5614 134.169 24.8843C132.985 25.435 131.573 25.7027 129.85 25.7027C126.417 25.7027 124.284 23.7554 124.284 20.6208V20.0677H136.102C138.042 20.0677 139.154 18.9968 139.154 17.1295V15.8565C139.154 10.0509 135.279 6.15027 129.512 6.15027ZM134.604 15.8648C134.591 16.1258 134.575 16.1258 134.381 16.1258H124.306C124.328 14.2305 124.822 12.7776 125.779 11.8041C126.669 10.8983 127.945 10.4389 129.572 10.4389C131.155 10.4389 132.471 10.9522 133.378 11.9229C134.288 12.897 134.712 14.2583 134.604 15.8648Z" fill="#64358C"/>
<path d="M56.8454 24.8641C56.4988 24.8391 56.1529 24.9323 55.8187 25.0226L55.7856 25.0335C54.889 25.3844 53.9783 25.5622 53.0792 25.5622C51.1726 25.5622 50.2458 24.5401 50.2458 22.4373V10.7678H56.5923C56.5992 10.7678 56.6059 10.767 56.6127 10.7667C57.3793 10.7601 58.071 10.3799 58.4985 9.81122C58.7737 9.43102 58.938 8.96491 58.938 8.4593C58.938 8.38051 58.934 8.30238 58.9262 8.22558C58.924 8.20716 58.9207 8.1894 58.9182 8.1712C58.912 8.12171 58.9052 8.07266 58.8959 8.02405C58.6789 6.94824 57.7552 6.16119 56.6132 6.15164C56.6063 6.15164 56.5997 6.15053 56.5926 6.15053H50.246V4.24439C50.246 2.81301 49.1761 1.69214 47.8102 1.69214C46.4681 1.69214 45.4165 2.81323 45.4165 4.24439V22.5854C45.4165 27.38 48.1639 30.2425 52.7659 30.2425C54.4626 30.2425 56.1507 29.9072 57.3977 29.3223C58.424 28.8405 58.9444 28.0918 58.9444 27.097C58.9442 25.8956 58.04 24.9354 56.8454 24.8641Z" fill="#64358C"/>
<path d="M153.137 24.8632C152.791 24.8381 152.445 24.9313 152.11 25.0216L152.077 25.0325C151.181 25.3834 150.27 25.5612 149.371 25.5612C147.464 25.5612 146.538 24.5391 146.538 22.4363V10.7669H152.884C152.891 10.7669 152.898 10.766 152.904 10.7658C153.671 10.7591 154.363 10.3789 154.79 9.81025C155.065 9.43004 155.23 8.96394 155.23 8.45832C155.23 8.37953 155.226 8.3014 155.218 8.2246C155.216 8.20618 155.212 8.18843 155.21 8.17023C155.204 8.12073 155.197 8.07168 155.188 8.02307C154.971 6.94726 154.047 6.16021 152.905 6.15067C152.898 6.15067 152.891 6.14956 152.884 6.14956H146.538V4.24342C146.538 2.81204 145.468 1.69116 144.102 1.69116C142.76 1.69116 141.708 2.81226 141.708 4.24342V22.5844C141.708 27.379 144.456 30.2416 149.058 30.2416C150.754 30.2416 152.442 29.9062 153.689 29.3213C154.716 28.8395 155.236 28.0908 155.236 27.096C155.236 25.8946 154.332 24.9344 153.137 24.8632Z" fill="#64358C"/>
<path d="M212.748 4.24054C213.453 4.24054 214.025 3.66795 214.025 2.96164C214.025 2.25532 213.453 1.68274 212.748 1.68274C212.043 1.68274 211.471 2.25532 211.471 2.96164C211.471 3.66795 212.043 4.24054 212.748 4.24054Z" fill="#64358C"/>
<path d="M39.8031 6.15028H36.5196L37.3868 2.90531C37.7157 1.67369 36.9854 0.40833 35.7559 0.0789502C34.5261 -0.25043 33.2627 0.480904 32.9338 1.71231L31.7479 6.15028H16.8748L17.7422 2.90531C18.0711 1.67369 17.3408 0.40833 16.1113 0.0789502C14.8815 -0.25043 13.6181 0.480904 13.2892 1.71231L12.1029 6.15028H7.57939C6.30641 6.15028 5.27455 7.1837 5.27455 8.4586C5.27455 9.73351 6.30641 10.7669 7.57939 10.7669H10.8687L6.89636 25.6261H2.30485C1.03187 25.6261 0 26.6595 0 27.9344C0 29.2093 1.03187 30.2427 2.30485 30.2427H5.66216L4.79452 33.4881C4.46564 34.7198 5.19587 35.9851 6.42542 36.3145C7.65519 36.6439 8.91864 35.9125 9.24752 34.6811L10.4341 30.2427H25.3094L24.4422 33.4881C24.1133 34.7198 24.8436 35.9851 26.0731 36.3145C27.3029 36.6439 28.5663 35.9125 28.8952 34.6811L30.0813 30.2427H34.5926C35.8656 30.2427 36.8974 29.2093 36.8974 27.9344C36.8974 26.6595 35.8656 25.6261 34.5926 25.6261H31.3151L35.2858 10.7669H39.8031C41.0761 10.7669 42.1079 9.73351 42.1079 8.4586C42.1079 7.1837 41.0761 6.15028 39.8031 6.15028ZM26.5432 25.6261H11.6683L15.6406 10.7669H30.5141L26.5432 25.6261Z" fill="#FF5100"/>
<path d="M18.26 20.554L19.5117 15.8428L23.9082 15.8437L22.647 20.554H18.26Z" fill="#FF5100"/>
<path d="M16.9149 12.4589L13.8652 23.9377H25.239L28.3115 12.4611L16.9149 12.4589ZM23.9429 22.2457H16.0626L18.2134 14.1506L26.1099 14.1521L23.9429 22.2457Z" fill="#64358C"/>
</svg>
