<svg width="280" height="71" viewBox="0 0 280 71" fill="none" xmlns="http://www.w3.org/2000/svg">
<path d="M217.795 7.40204C213.337 7.40204 210.31 9.55164 208.439 11.3703C206.953 9.05537 204.477 7.40204 200.074 7.40204C196.442 7.40204 193.195 8.50435 191.104 10.1027C190.389 10.6537 190.168 10.9843 190.168 11.701V35.3204C190.168 35.9101 190.597 36.393 191.132 36.393C191.775 36.393 192.15 35.9101 192.15 35.3204V11.8145C193.63 10.6617 196.152 9.45361 199.99 9.45361C204.65 9.45361 207.72 11.9793 207.72 17.7443V35.3078C207.72 35.8997 208.194 36.4192 208.784 36.393C209.346 36.3682 209.701 35.8954 209.701 35.3214V18.0416C209.701 16.3084 209.534 14.799 209.088 13.3458C210.483 11.7803 213.609 9.37669 217.739 9.37669C222.707 9.37669 225.554 11.8922 225.554 17.8741V35.3682C225.554 35.9809 226.09 36.4964 226.693 36.3936C227.19 36.3086 227.536 35.8653 227.536 35.3356V17.8194C227.535 10.9843 224.289 7.40204 217.795 7.40204Z" fill="#64358C"/>
<path d="M242.008 7.42792C238.681 7.42792 235.245 8.46586 233.5 9.39456C233.118 9.61278 232.845 9.94077 232.845 10.3777C232.845 10.9512 233.309 11.3882 233.854 11.3882C234.045 11.3882 234.318 11.2792 234.481 11.1972C236.636 10.1593 239.226 9.44931 242.008 9.44931C247.298 9.44931 250.189 11.7434 250.189 16.9326V20.4828C246.644 19.4996 243.48 19.0079 241.026 19.0079C234.536 19.0079 230.609 22.5037 230.609 27.3924C230.609 32.9368 234.318 36.3933 241.354 36.3933C246.262 36.3933 249.698 34.6299 251.607 33.2642C252.098 32.9365 252.207 32.5543 252.207 32.0626V16.8776C252.207 10.159 248.171 7.42792 242.008 7.42792ZM250.189 31.8604C248.68 33.0912 245.553 34.6729 241.14 34.6729C234.996 34.6729 232.203 31.9162 232.203 27.5249C232.203 23.4693 235.666 21.0079 240.749 21.0079C243.989 21.0079 246.558 21.5114 250.189 22.5742V31.8604H250.189Z" fill="#64358C"/>
<path d="M256.304 7.40118C255.751 7.40118 255.28 7.81706 255.28 8.51044V35.2843C255.28 35.9774 255.75 36.3935 256.304 36.3935C256.858 36.3935 257.329 35.9777 257.329 35.2843V8.51044C257.329 7.81706 256.858 7.40118 256.304 7.40118Z" fill="#64358C"/>
<path d="M270.515 20.8854L268.579 20.4214C265.255 19.6297 262.42 18.5381 262.42 15.3992C262.42 11.5781 265.091 9.55831 269.724 9.55831C271.796 9.55831 273.758 10.1587 275.611 11.4144C275.856 11.5781 276.156 11.6873 276.402 11.6873C276.947 11.6873 277.41 11.2506 277.41 10.6775C277.41 10.35 277.246 10.0223 276.919 9.80431C275.229 8.60344 272.613 7.53879 269.724 7.53879C264.055 7.53879 260.404 10.6502 260.404 15.3992C260.404 20.0392 264.192 21.4311 268.171 22.4412L270.133 22.9324C273.839 23.8603 277.192 24.8705 277.192 28.4186C277.192 31.7757 274.303 34.5039 269.833 34.5039C266.399 34.5039 263.702 33.4953 261.549 31.8032C261.249 31.5848 261.003 31.4483 260.731 31.4483C260.186 31.4483 259.723 31.9122 259.723 32.4579C259.723 32.7584 259.859 33.0858 260.186 33.3316C262.911 35.4059 265.746 36.5309 269.888 36.5309C275.611 36.5309 279.208 33.1403 279.208 28.4186C279.208 23.1779 274.821 21.9225 270.515 20.8854Z" fill="#64358C"/>
<path d="M84.931 7.39645C81.5783 7.39645 78.6236 8.26532 77.127 9.00251C75.5481 9.70177 75.2169 10.8626 75.2169 11.713C75.2169 13.1978 76.4346 14.4059 77.9313 14.4059C78.3956 14.4059 78.8805 14.3081 79.4765 14.0907C81.2023 13.3573 83.1905 12.9569 84.931 12.9569C88.7282 12.9569 90.3486 14.3976 90.3486 17.8213V19.313C87.9961 18.7043 86.1172 18.4529 83.9791 18.4529C80.6185 18.4529 77.855 19.3488 75.9879 21.0435C74.2715 22.6015 73.3639 24.7401 73.3639 27.2284C73.3639 32.8639 77.5102 36.3933 84.1848 36.3933C89.1421 36.3933 93.1044 34.8121 94.9902 33.4833C95.9428 32.8153 96.1377 32.0864 96.1377 31.1975V17.7182C96.1377 10.7726 92.472 7.39645 84.931 7.39645ZM84.6504 31.0979C80.1518 31.0979 79.2072 28.9248 79.2072 27.1018C79.2072 24.6683 81.2831 23.1568 84.6248 23.1568C86.5535 23.1568 88.1524 23.4818 90.3486 24.0839V29.4744C89.1194 30.299 86.8362 31.0979 84.6504 31.0979Z" fill="#64358C"/>
<path d="M113.013 7.93617C111.89 7.61085 110.054 7.40091 108.335 7.40091C102.622 7.40091 99.2113 10.71 99.2113 16.2528V33.3387C99.2113 35.023 100.568 36.393 102.235 36.393C103.916 36.393 105.233 35.0514 105.233 33.3387V17.0586C105.233 14.4435 106.308 13.3275 108.828 13.3275C109.781 13.3275 110.46 13.428 110.878 13.5014L111.054 13.5369C111.646 13.6561 112.205 13.769 112.67 13.769C114.22 13.769 115.434 12.4731 115.434 10.8187C115.435 9.39078 114.575 8.367 113.013 7.93617Z" fill="#64358C"/>
<path d="M139.868 10.5078L139.867 10.507C138.228 9.34328 133.834 7.4971 129.019 7.4971C121.756 7.4971 117.23 11.5743 116.6 18.6826C116.446 20.3787 116.41 23.5336 116.6 25.5256C117.243 32.432 121.461 36.393 128.174 36.393C131.067 36.393 133.229 35.6671 134.972 34.8807V35.3492C134.972 39.0995 132.542 41.5229 128.781 41.5229C126.573 41.5229 124.653 41.0472 122.897 40.0619L122.707 39.9628C121.979 39.5822 121.291 39.2229 120.466 39.2229C118.901 39.2229 117.628 40.4858 117.628 42.0379C117.628 43.5793 118.679 44.3921 119.7 44.9791C122.255 46.527 125.31 47.312 128.781 47.312C136.115 47.312 141.043 42.3239 141.043 34.8997V12.9828C141.042 11.7757 140.735 11.128 139.868 10.5078ZM122.237 19.2574C122.555 15.2656 124.728 13.2416 128.694 13.2416C131.636 13.2416 134.042 14.3626 134.696 14.7392V29.0529C134.003 29.531 131.822 30.8323 128.587 30.8323C124.607 30.8323 122.53 28.8478 122.237 24.7687C122.162 23.5641 122.129 20.7195 122.237 19.2574Z" fill="#64358C"/>
<path d="M156.139 7.40118C149.423 7.40118 144.749 11.7135 144.233 18.3864C144.096 20.1147 144.085 23.2056 144.207 25.0475C144.7 32.046 149.37 36.3933 156.393 36.3933C160.436 36.3933 163.189 35.3444 164.471 34.7191C165.998 33.9683 166.319 32.8761 166.319 32.0917C166.319 30.6066 165.127 29.3983 163.663 29.3983C163.133 29.3983 162.577 29.5569 161.744 29.9455C160.319 30.6082 158.619 30.9303 156.546 30.9303C152.415 30.9303 149.848 28.5871 149.848 24.8149V24.1493H164.07C166.403 24.1493 167.742 22.8605 167.742 20.6134V19.0816C167.742 12.0952 163.079 7.40118 156.139 7.40118ZM162.267 19.0915C162.251 19.4056 162.232 19.4056 161.998 19.4056H149.875C149.9 17.1249 150.496 15.3765 151.646 14.205C152.717 13.1149 154.253 12.562 156.211 12.562C158.116 12.562 159.7 13.1798 160.791 14.3479C161.886 15.5201 162.396 17.1583 162.267 19.0915Z" fill="#64358C"/>
<path d="M68.693 29.9215C68.2759 29.8913 67.8595 30.0035 67.4574 30.1122L67.4176 30.1253C66.3386 30.5475 65.2427 30.7615 64.1608 30.7615C61.8664 30.7615 60.7511 29.5315 60.7511 27.001V12.9581H68.3884C68.3967 12.9581 68.4047 12.957 68.4129 12.9568C69.3354 12.9488 70.1678 12.4912 70.6822 11.8069C71.0135 11.3494 71.2111 10.7885 71.2111 10.18C71.2111 10.0852 71.2063 9.99119 71.197 9.89878C71.1943 9.87661 71.1903 9.85524 71.1874 9.83334C71.1799 9.77378 71.1716 9.71475 71.1604 9.65626C70.8993 8.36164 69.7878 7.41451 68.4135 7.40302C68.4052 7.40302 68.3972 7.40169 68.3887 7.40169H60.7513V5.10786C60.7513 3.38535 59.4637 2.0365 57.8201 2.0365C56.205 2.0365 54.9395 3.38561 54.9395 5.10786V27.1792C54.9395 32.949 58.2457 36.3938 63.7836 36.3938C65.8255 36.3938 67.8569 35.9902 69.3576 35.2864C70.5926 34.7065 71.2188 33.8056 71.2188 32.6085C71.2186 31.1627 70.1305 30.0072 68.693 29.9215Z" fill="#64358C"/>
<path d="M184.569 29.9201C184.152 29.89 183.736 30.0021 183.334 30.1108L183.294 30.1239C182.215 30.5462 181.119 30.7602 180.037 30.7602C177.743 30.7602 176.628 29.5302 176.628 26.9997V12.9568H184.265C184.273 12.9568 184.281 12.9557 184.289 12.9555C185.212 12.9474 186.044 12.4899 186.559 11.8056C186.89 11.3481 187.088 10.7872 187.088 10.1787C187.088 10.0839 187.083 9.98988 187.073 9.89746C187.071 9.87529 187.067 9.85393 187.064 9.83203C187.056 9.77246 187.048 9.71344 187.037 9.65494C186.776 8.36032 185.664 7.41319 184.29 7.40171C184.282 7.40171 184.274 7.40037 184.265 7.40037H176.628V5.10654C176.628 3.38403 175.34 2.03519 173.697 2.03519C172.081 2.03519 170.816 3.3843 170.816 5.10654V27.1779C170.816 32.9477 174.122 36.3924 179.66 36.3924C181.702 36.3924 183.733 35.9889 185.234 35.2851C186.469 34.7052 187.095 33.8043 187.095 32.6071C187.095 31.1613 186.007 30.0059 184.569 29.9201Z" fill="#64358C"/>
<path d="M256.304 5.10312C257.153 5.10312 257.841 4.41407 257.841 3.5641C257.841 2.71412 257.153 2.02509 256.304 2.02509C255.456 2.02509 254.768 2.71412 254.768 3.5641C254.768 4.41407 255.456 5.10312 256.304 5.10312Z" fill="#64358C"/>
<path d="M48.1844 7.40118H44.233L45.2766 3.49622C45.6724 2.0141 44.7936 0.49138 43.314 0.0950079C41.8341 -0.301364 40.3136 0.578715 39.9179 2.06057L38.4908 7.40118H20.5926L21.6365 3.49622C22.0323 2.0141 21.1535 0.49138 19.6739 0.0950079C18.194 -0.301364 16.6736 0.578715 16.2778 2.06057L14.8502 7.40118H9.40667C7.87477 7.40118 6.63305 8.64479 6.63305 10.179C6.63305 11.7132 7.87477 12.9568 9.40667 12.9568H13.365L8.58472 30.8382H3.05934C1.52744 30.8382 0.285706 32.0818 0.285706 33.616C0.285706 35.1502 1.52744 36.3938 3.05934 36.3938H7.09949L6.05538 40.2993C5.65961 41.7814 6.53837 43.3041 8.01799 43.7005C9.49788 44.0969 11.0183 43.2168 11.4141 41.7349L12.842 36.3938H30.7428L29.6992 40.2993C29.3034 41.7814 30.1822 43.3041 31.6618 43.7005C33.1417 44.0969 34.6621 43.2168 35.0579 41.7349L36.4853 36.3938H41.9141C43.446 36.3938 44.6877 35.1502 44.6877 33.616C44.6877 32.0818 43.446 30.8382 41.9141 30.8382H37.9699L42.7483 12.9568H48.1844C49.7162 12.9568 50.958 11.7132 50.958 10.179C50.958 8.64479 49.7162 7.40118 48.1844 7.40118ZM32.2275 30.8382H14.3272L19.1074 12.9568H37.0061L32.2275 30.8382Z" fill="#FF5100"/>
<path d="M22.2595 24.7345L23.7658 19.0651L29.0565 19.0661L27.5387 24.7345H22.2595Z" fill="#FF5100"/>
<path d="M272.809 48.289C272.809 48.8256 273.271 49.277 273.831 49.277H277.241L277.235 69.0363H273.825C273.265 69.0363 272.802 69.4754 272.802 70.0243C272.802 70.5852 273.253 71 273.825 71H277.637C278.648 71 279.208 70.3047 279.208 69.4268L279.214 48.8867C279.214 47.9962 278.666 47.3133 277.643 47.3133H273.831C273.259 47.3133 272.809 47.7158 272.809 48.289Z" fill="#FF5100"/>
<path d="M226.546 48.2969C226.546 48.8335 226.083 49.2849 225.523 49.2849H222.113V69.0363H225.523C226.083 69.0363 226.546 69.4754 226.546 70.0242C226.546 70.5851 226.095 70.9999 225.523 70.9999H221.711C220.7 70.9999 220.14 70.3047 220.14 69.4267V48.8947C220.14 48.0042 220.688 47.3212 221.711 47.3212H225.523C226.095 47.3212 226.546 47.7237 226.546 48.2969Z" fill="#FF5100"/>
<path d="M238.272 49.7407C238.568 49.8547 238.704 50.0598 238.704 50.3333C238.704 50.6752 238.465 50.9602 238.067 50.9602C237.931 50.9602 237.794 50.9145 237.658 50.8918C237.339 50.8235 236.952 50.7321 236.201 50.7321C234.79 50.7321 234.222 51.621 234.222 53.1023V53.9229H237.646C237.988 53.9229 238.318 54.1961 238.318 54.5951C238.318 54.937 237.988 55.222 237.646 55.222H234.222V65.1474C234.222 65.5347 233.948 65.8311 233.562 65.8311C233.22 65.8311 232.902 65.5349 232.902 65.1474V55.222H232.026C231.639 55.222 231.331 54.9373 231.331 54.5951C231.331 54.1964 231.639 53.9229 232.026 53.9229H232.902V52.9429C232.902 50.9373 233.971 49.4557 236.292 49.4557C236.907 49.4559 237.771 49.5473 238.272 49.7407ZM242.851 50.8462C242.851 51.3705 242.441 51.7807 241.918 51.7807C241.394 51.7807 241.03 51.3705 241.03 50.8462C241.03 50.3448 241.394 49.9346 241.918 49.9346C242.441 49.9346 242.851 50.3448 242.851 50.8462ZM242.6 54.5041V65.1474C242.6 65.5347 242.327 65.8311 241.918 65.8311C241.508 65.8311 241.28 65.5349 241.28 65.1474V54.5041C241.28 54.1053 241.576 53.8203 241.94 53.8203C242.305 53.8203 242.6 54.1053 242.6 54.5041Z" fill="#FF5100"/>
<path d="M250.191 53.9343C250.487 54.0257 250.737 54.2193 250.737 54.5842C250.737 54.949 250.442 55.245 250.077 55.245C249.884 55.245 249.645 55.1766 249.304 55.1082C249.167 55.0855 248.78 55.0398 248.325 55.0398C246.801 55.0398 246.05 55.7124 246.05 57.2733V65.1249C246.05 65.5122 245.777 65.8314 245.39 65.8314C245.026 65.8314 244.73 65.5125 244.73 65.1249V57.2052C244.73 55.0174 246.004 53.718 248.302 53.718C249.076 53.7177 249.805 53.8206 250.191 53.9343Z" fill="#FF5100"/>
<path d="M259.224 54.6293C259.429 54.7776 259.52 54.9827 259.52 55.1878C259.52 55.5524 259.224 55.8489 258.86 55.8489C258.701 55.8489 258.564 55.8032 258.348 55.655C257.745 55.2562 256.892 55.0396 256.129 55.0396C254.355 55.0396 253.399 55.7917 253.399 57.0452C253.399 57.8657 253.854 58.4582 255.356 58.8457L257.108 59.2557C259.201 59.8257 260.18 60.8284 260.18 62.3896C260.18 64.532 258.587 65.9334 256.129 65.9334C254.423 65.9334 253.057 65.4321 252.067 64.6345C251.806 64.4294 251.76 64.2243 251.76 64.0648C251.76 63.7002 252.056 63.4037 252.42 63.4037C252.579 63.4037 252.693 63.4379 252.921 63.6089C253.592 64.1444 254.605 64.6118 256.129 64.6118C257.882 64.6118 258.86 63.6887 258.86 62.4582C258.86 61.5351 258.291 60.9654 256.857 60.6008L255.06 60.1679C253.103 59.6892 252.079 58.6636 252.079 57.0909C252.079 55.0169 253.694 53.7177 256.129 53.7177C257.427 53.7177 258.576 54.1507 259.224 54.6293Z" fill="#FF5100"/>
<path d="M263.257 51.963V53.9232H266.91C267.285 53.9232 267.604 54.1964 267.604 54.5955C267.604 54.9373 267.285 55.2223 266.91 55.2223H263.257V62.5381C263.257 63.7235 263.803 64.6124 265.237 64.6124C265.817 64.6124 266.398 64.5096 267.001 64.259C267.091 64.2248 267.239 64.168 267.353 64.168C267.717 64.168 268.013 64.4527 268.013 64.8061C268.013 65.1594 267.786 65.3418 267.445 65.4901C266.807 65.7633 266.056 65.9343 265.146 65.9343C262.893 65.9343 261.938 64.4073 261.938 62.4246V51.9635C261.938 51.5762 262.233 51.257 262.575 51.257C262.984 51.2565 263.257 51.5757 263.257 51.963Z" fill="#FF5100"/>
<path d="M20.641 14.9929L16.971 28.8064H30.658L34.3555 14.9956L20.641 14.9929ZM29.0984 26.7703H19.6153L22.2036 17.0287L31.7062 17.0306L29.0984 26.7703Z" fill="#64358C"/>
</svg>
